<mxfile host="app.diagrams.net" agent="Mozilla/5.0 (Windows NT 10.0; Win64; x64) AppleWebKit/537.36 (KHTML, like Gecko) Chrome/130.0.0.0 Safari/537.36 Edg/130.0.0.0" version="24.8.0">
  <diagram name="Page-1" id="vhnKX6fFFFwTyYnJsiId">
    <mxGraphModel dx="826" dy="622" grid="0" gridSize="10" guides="1" tooltips="1" connect="1" arrows="1" fold="1" page="1" pageScale="1" pageWidth="850" pageHeight="1100" background="#000000" math="0" shadow="1">
      <root>
        <mxCell id="0" />
        <mxCell id="1" parent="0" />
        <mxCell id="-4wKffS4rpttlF0J5WD3-1" value="" style="shape=image;verticalLabelPosition=bottom;labelBackgroundColor=default;verticalAlign=top;aspect=fixed;imageAspect=0;image=data:image/png,iVBORw0KGgoAAAANSUhEUgAAAN4AAACoCAYAAACPHFBrAAAAAXNSR0IArs4c6QAAAARnQU1BAACxjwv8YQUAAAAJcEhZcwAADsMAAA7DAcdvqGQAAGpOSURBVHhe7Z0HmFbF9cZH6tI7KIiADbvGXoKKLfaKETv23ms0RBRRsGBBxRIVO7ZYsMVeYoktGisqoiIogvSysEj+9zd332/PDnO/79uG5p99n2eemTu3zz3vnDNnyl3mPwlcPepRj6WKBuVxPepRj6WIeuLVox6/AuqJV496/Ar4zbTxFi+ub2rWo3bRoMEy5anfHn4VjQfJwgBUUPVxfVwbcUzGfitYqhrPvjyF81srjHr8/4WVNxHz10TDQQnK03UKXpoXFs2Jf/llURIvrhQWLlzolknKpT6uj2sSW5lq0KBBEqeEI1ZYhgN/JSwVjRdqNggnlJWl6UWLynxcj3rUFI0aNfbyRNy4caPy3BQNGzb6TWi/OidejHSWbIsWVZAQlJXVE7Ae1Ufjxo29DBGDRo1S4lkS/hbIV6fEs6STloN0IpxIhnkQI9yCBQtd06ZN6tP16aLTgojXpEkTn4aAkA9AQMgHRMClTb46I55ehjhGurlz53qyUWgQDyjmONVO9en6dFYahNsChCNASIgnApaUNMsdL/KB/xfEs5oOyLwsLZ2fxGWeYHPmzPXx3LnzkrgsOSYlHUQshKzCrs9P8b+Qn3UMgGwNG0K81Lxs2bKlz2vRokWynWq/Zs2a+WN/LfLVGfF4CZmPFBKabv78+Z5s06ZNLyfdfDdv3hw3a/bsnFZcULrAx/WoR3XRtKSpJ1SzRLu1bNk8IVmLhHTNvdZr376dJx+aD5SUlPhYWFrkq3XiWW0nTRcj3ZQpU/y+77+f5OYkZicknFPPuXrUEC2bOi9HXdonpEs0XIeO7VzrVq1c27btPPlatWqZ03wyO217b2mhVomX1a7DxKRNh3k5ffqMhIRz3ZSpP7ufp0534yZMdXPmtXLLtpvtmrXq6s9p0rihW1j2i083bzLPzVvY3KdDxPaFeYW2Qf11/vuvYzFl6qTylHMrde/o2rZr5dolxAvJh7kpb+fSNjlrnXhC2K5D082Zk5iVs2Z60s1LiPjxF2kBUTstbtDOEy4EBFR+o2Vmu0X/aeXTwO4TwrxC26D+Ov+91wllQpj4w4Ty1JLka9eubWKCYn62WKK9J8VR1+SrtbGaWSYmpEPbqU03Z05SWyXb33w7yS2cN8ubBiIdBQpsrAImrQLW/vADAXs8yNoG9df5774O26FMKO62XHcfI2OTf5rqZkyf7X0JWFsoAKwvZDPt1qroS7ZyXJeoNY0XEo82nboNZGLOmDHdTU/C99//6CZ8P9k1ad7aderY1TVvXuIWlTti6lGP2gIklNmJVdUpae916NDRO1w6duyUaXIuDa1XKxpPDwnhKrQdcZknHTUMNQ2km5q06yZPm+9ml7bzpKP2qiddPWobjei7S2QLi8prvUTmpiSyN2fubN9lRTeW+pCRVawzgPwuDa1XY40XajqZmGg8tN3s2XMSbTfTzZw5w/3881RvYk6bPquStqsOICuFG6ZBvu1i0qAq2/XXWTrXKRb2nHnzSr3Wg3zt27V2XTqn7b1lu3RxrVu38X18tothaTlaakXjSdsJ1CDUJKpZ6KujpvE1zoLERs8gHQUmKJ0V24+hdLgv37GgOtco9pr116n96yivUGzPQca8ZZXIHBU+XVf0FeNrwNGX+h7U3sMnkVptQl1pvxoRTw+lmIeWF9OamDRqMTFp1wGZmCFsgSmdFQMVtGD3gaxjw/Psdr5rgGKvWX+d2r+O8grFIZA1ZA4gg7MT0mF9xUxOQeT7zWm8LBMTxLyYP/88w+8D1EJZhVQVVOUa9tjwvOo+S75rVgX118mPmpwLOB/yofUAsjh//sKolzNVHJU1Xl1ovRppvLA2kBczZmLadl2jchtasWC3w2OKjUGxxxaKQSxdKAZVSWfFoCrprBhUJZ0Vg6qks2JQKF3dWLDbpGm/IXs49WRyohBQDCgImZwgNDmR89omX7WIx0PwMNQQ0nYyMVMzs7KJyYtNndnUv7jadRTGouRcYgW7HR4Tg91vzw3zLIrJj10rtt8i69h86fC8cLvYdHheuF1sOjwv3C42HZ4XbudLx2CPsbD59hrhNmAb2Vtj5XT6EDKJyYliQEHI5IR81uQEdaHxquzVtA9hTUwedsaMGXm9mD1WWDFXEPWox9IGo1TmzJntxo6b4Zq4id7L2aFDW9elS6dEKXTwXs4OHdp7D2ebNm1yfXuAPCmc2kCVNV7sxlkmJjUKpFvouuVIVzEjOKi9gu18yHduVlrIdy4o5lq1lc7C//J1hHz7q3q8gJxicvZeqa3fRjZLSxdUMjlRHCAdAFLhEJLCqS3tVyWNl6Xt1Gf388/TcmMxNQCa/pNuK6zm1XxJ0xL/8hSMYiHczod852alhXzngmKuVVvpLPwvX0fIt7+qx4dg/7jxX/g08rnKyiu4jh3bRcdyqm8P1KbWK1rjhaQDlnTUFBBRXkzGx/FSmJgh6UC+gmQ7X2wLGLCdlRbynQuKuVZN0oBtpYH2h/H/8nUU57t2uA3yHR/GTUpKvAUm4OWkb896OeWvkKMF1KbWq5KpaZmusZhAJiZjMWNezOYtWvrjeOEYwnxtZ8WC3c5KC/nOBcVcqyZpkLUdxiArDbK2wxhkpUHWdhiDrDTI2g5jkJUGhY4H1d228eJEbpFJ6+VEZmVyQjQUCQrFmpy16eUsiniW6TIxATWCJrbKi0nNYb2YrVulpGuQ1EK8MDFBebH8Qoidp7SF9llkHRO7Vk3SFrHj8sEea6Fz/79fJ+sYi2K2CeE17bWRzZiXEwWCTKtjHUBAYaloPHuT0MTkoQh4MWViyou5as+m3sRUTWNfHNi0YAtFsIUVXkOw58WOs3nhto4Rappvr22R77gwtgj3W8SOF8Lr/TdcJ98xVd0mDvMsyEM2S1ou551/yKw1OTWcDOUi0qFw4AChplqvKOeKbsAN9RAzZ0K21B5mGQfNPPjyq++8+l5nzUTbJQ3VetTjtwwIOG36DDfxu8/9dvfluySWWjp9qE2btKuBhZLatm3r2461tUhSXo0H4SzpZGJCPnWUUzOQz0TDbyelw8J6LPeLa9++s0/Xox6/ZTRp0sx17NQxN5xMJuf80nQhLmRcHetAHBCq6+Esqo1nTUwcKqhg68Wko5whOPJidum6qlu0uMw1atA4F0CYDuNi92WlwzjfPsV1kc6Ki91Xlf02rTiWp7iYtOJYXhhnpRXH8sK4mGOqGlf1GLycyK5MTppNyHdocsrLKU5Y5VQVZJqa9mLSdnbRopiJCeiz69Z1+eScdAp+PeoWquBqitq6zn8T7DuTnjpl6hIm57LLLpt3nZbq9u0V1HhW28F6QA1gTUxqiCnTlvGkQ23XY+mhtsjyv0Y6YN+5aeMS7+VEhmfOmuVNTmYwoFjCGQwA2QdSUFXVelHihRfhJuqz4+YaUIrrFRMT9dyp/X+8F5MXkLZr2HDJOXdCdfdloSrXq871i4G9btY9ijlGyLdf+8LYotD1QVWvU5VrWoR51TmmmGuEsMfE0oqR2ebNW3kZbtCkh5fprEmzcMH27VWnnRc1NUU8aTtsW4JGqEydOsUPC5s8eUolLyYOlWIKox71+K1iQVlpJZPTDifr1KlTbqmImq7JWdDUlEoFGqFCDCkxMQFezE6dlvOkKyn53zNZshC2c+12oTZwvv3aF8YWha4PirnO/xqw2KyXExmnOQUPMD/RegSr9YSqaL4lNJ41M0OnCqNUIN53E77zg6DfeucD16z16n60t7oPbIMVIvIx82lBiFpaWpYjrE1XFy1aNE2eM10PXul8MbDpetQuYuVclbimkEzZuBAmTvp+Ca2nBZKYOqRlAavrZIkSj5OJIV7MzPxx8mQ3dux4bwdjZnZo/4tfhr1l86TNV74c+4/TW7leK7RKTNJ0XUOGj82fPSm3TLtNF4twnRam9LMeR6GlAezEyCzgqVI7VrCDbfMha3RE4waLXdniBtE4H/7jmrplXCpwNg20HcZ2n03HjrOwzxN71izofW1cVVDesXIXwm/GdohwLRfW0kROtLBtVTD+u9k5mUVe2Z4/6zPXq8fyrmePrpU8nDFzs9Y0XmlpqY9nz8bLk077oQvhxx9/dO9/8Lmb/NP0pNDb+87GX5LCa2gEj+3Fi39xjZukNR3bgDzQoEFKIm0LyhfsNasDCgaTIBZXBdU5J0Tj5F3KknLIF4Os9H8rlmnYxP2n/Dds+VDMceEx2s6K7TEWlGuIJk2b585duGCe3268zBTXpnVrr/V69ljBt/Ni04bUzquRxhMgHgKHxtO/DyZN+sH/4eezsV8nNcIc17ykLNFyDdzi8vYBRArJE8urLTRIzFjdW+kwDhHLt+eA8DohsvJD8N5h5QKy8oH2hbFg86sLKjRVlrG40DHApi1ix/4aUCVr02HFG1ao4b6mjeYn5GroNlx/rdxMdVahRuOFxKuKxlvCltDJmJmaACjQ3lMefR2Qbl5p4yUEA7CtvJoISCGIQJYkYRwGHR/LE2J5wN5PUF4IS5AwaH8saF8Yx/ZXByIFCEmiWISxedoGNo+0jcNjqwMJf3ViBZFI+0JoP7EQHotSAcxULwSrtAphCeIVOtl6OUOIaJaEImChUFNI+GNxVYLOEbL258vT9qKy1Lzh/UiH7xwGHWtjYNO1gZAgIXGIbRBsHueGacUW2rb54TExiAzViRWytkOyCeGxoEnD2T4uKWnqlZGgjnQdy74aaTygC0CyrIavQGEXKxixWlp5XEMh3A7zbVxbkAYLiRSDfabYc9jzwuvErmnLIIwJ7Fc6DIJNF4tiCCDYYy3BQtIpVrDHApsGWfuUDuPaAGSRZhNxFFuNh5m56D/p+ixZGk/HY2rWSONZYFYW8uxRIAgGjFfw+ZEY4dA2iOWBLCFSvo2LDTo+C1Y7KQ7PVeB5bSgrW5AL9jgb/DXKSScyKuTubfYr9oFrlOeFqHT9JK6JZi0WVSFI7FhA2p5DsKRVvuKQ0MovJo5hQWnFxFYLq+0WLGrmGi1TsRCzQD+eUKsaT5BZaW8UggLh48mrQ8xDgFis/TYdnmPTNgZZ6UKwghYL2mdjAUJxLwXB5tmwcGHpEnn2XgoWEAuta0kXQ7jfxoRi2p7+/hxf/gz2mYoNOk+I5VUVMaIgXyDcV4hc5GeRVfsEu8/GYOEvrcpTFeBf6gBzs840HtCNBPWnUCMICJeNs6D9WQQl36ZtbNMWdjvfvkLg2FgQbF5Z2fykoMuWCOTbYwW7rVhCnAtZRCnPLxSLuAoxIisO9yltQV5W80AE07MrHZrFNYUlQT6EpBHplAZs27SCtmNQG88CRUSHOaHONF6sjadOTWxggmAFrRCyjrX5SivOIqtigiWphfLsvlieEO4jiFxNmpS4gw46wD352K3utZce9GHPPXdzZckH+eWXxV5DVoT5la6BNgyvL9RUWEPyWGIptuRUHghJSyDPm67lxyiO5QFIJ7MZsI/3Kcb8DUNNYYmUlbZazxJSQLazNB7ark41Hm280NSUxqMrQVpPAmQFSkH5QiwPhNshCu0H+e5D4Qixa5GnACq0WEoiSEW47eYL3TFH7OVat07H81Hgm220qj+vLCEWYf31Vnb77LOHW3ftFZP2BNNJKhrn4X1sGsQEUUH7LcLtfLBEsahEoIRwwOYprVhEtYSFYHY7PAYoBjYdohiyAsXVQRYhBWQ7S+MBNJ7A96uKxsscMpYyOh0Iqg50fqfMyBU60BmnWVqavjR9HfPmzvJpIWYSFkK+c7TPxiArXSxi94NsEMxisTluh+02drvt+gdf8/ERGFRwzfUPug7tS9wuu+zidt+ljx9aJDz06Ctu+JVX+XSD8udr2LCBv0fjxhXjQ8Nnr+q7FAuZgzEz8reAGGGFRo2bVCK4PSbMC2Oda2OVgy0P0s2at/SyX7ZwgevYfhm31hqruOWXX9aP19RvnO06LPpWxZIvL/HA7NmMzE6X8RPxvvn2O/fu+x+7aTMaeBXNw4XEqwl4CRHCpi2Un3VsuN/uiyEkm4jWo9fqfq6hwLKFHdssyMVg4023c337rOa6d09/eA+mTZvmxo37OkfOU8641GvC5i3auLXX7O7Pn/jdZ/6ehcgXvgew6bqCFci6JKolTwwhgWJ5WXGMbDa2x1toqOMyv0x1rdu0rkQ8DZQOF0CyGrAQCmo8/QUoS+OhjhfMn5ek53rhBQ0aMFK7zMdLGxLQYqBntGZgSUkLt99+e7k9d93cdUkKWVC5WMTyhKeeetrdfucjbuzYr/y2SHL9tRe5zTff1KdfeOEFN2TYHUmlNTP58Aw7apArsxip7LvF3lN5sRjYdHVx96hLXadOnf178/5AaZXFvHn8g2CWe+X1z9ytt97j87JwxBEHug3XW8FXWlZwJ0+e7H78cbK7/taX3bfjPirPrYw7b7s49yx++97n3D33PODTIS4edIzbYIMNcs+6025H+/wYYQHEo/02f96cTI3HkLFWrVonz131sZrV6scLR4n7hy4nHQgFOoyBPb42EQpjFrg/2sY+U6tW7d0dtw5xRx22ZyXSgViB5ivknXfeyT04+mZ3/703uGOOPc5tsfnvXNOmzdzIm+9wEyZM8Mdsu+227pCD9/FpNKx9nth72DylLZFErFgcpgk6x8YgXxrtrfcmtmmhefNmvvz+uPfW7r67hrm27Tok5V25bUYe+zhmxRVXXEJbcP66667jbr72ZHfyyYfnzsuHPXfdxLXruFz5Vjb8c5cTDLIpFvkIkK6hi1txtdHGq1Y/Xtb0GgQHwkmAMKFisY4FbCtoOxaLqGFcDMJzuKbuDxB6wmGHbO9rXhUgmh7N9ZcLhrgTTz7HHTzgOHfNtdf7PExJ1fiKBbu9+uqruROO2dddd+0w99brj7kL/3KWe+Hl992oux5zL7/8mpv8w7jkPunEYpm3emfyrODHEO7XdhgDpUXW2LGELLKSDruWCqF9+/Zu0PkDyrdSQKKR157t9xWDnbbf1B1wwB/9eTYAK+w4u844cffyrSVhjxXhLGwe7bss54otA3UnUDahHORDwTae5uPF2njW1Jw3b0bycSo7JICcCIoFkVDmlYRNyCJtGNtjbTqMw/sDCTpAsE444Wi35mrd3E/Tytw/33jRPfv824nJNMMt331V17lTI/fdhJlu6pSJSRkl2nLRooRUq7gmTRmh3jA3dURz/8Dmm22S3HuRW2+9dZNjKtb0517k//jjD+7Bhx51jz3xemLSzE7KgUHQSbs5uUZoegKRgBgoHcurK2AR2LZssTj93CHug/fH+mc78IA93ICD9yjf47wFcPf9z7vnnn3J71973ZVcv923zZnkYNasWW6f/U4t30qBd7lbt+W9vArI7QlnjHTjv/zAb6t9eslFx+dMTfCHXY7ycRaaNmueMzVbNl/sNlx/taXbxoPRWjU6q42Hc2XmjCnlV0hhyWCRlQ9Csgh22xKIfGkx8sLzFYekE+EQ0vYdurpVVkpr3jff+rf/SOQzc/6Qg/Zwu++2s9daFh9++G83ceJEN358uqQhZSFQJhCR+OuvJ7gZMya7hg0auZJmLd2WfTZyv99iA9d3661824CypZ+UH3qOeeJpd+fdT/hrNE4a/vJ+At4jHyz5bJy1D9h0VXDfXZdXMsO32eGQ8lSKTp27un323tHttdsWyXNXCOIDf3vZ3XjjbT49bMjJbqONNvRp5G27HQ/1aYHngjBXX3FGpbLffqfDKz037c2wSQC+/vprd8wJF5dvpYB49p5/2OUIn85Cqzbt/feJOVdqo41XI42HV7NpSTM3d/bMRDNM88dXBzFtFIOIBOw5SodxCEu4FVde2x135C5u6637+HfG5X/x4Iv8/l49l3MXDTrHrbHG6sm10gL95pvxlRwAKidiIVbolOM777znl8v49tvvvXab/ON4t9OO27tDD97XrbTSirmyfu+9990FF12XXBOTvUHSwE+1pK1IagLehXcXwm2gPL13mL571LBKGi8knnDxoOMraax33nnXnXP+tT4d7vvss8/doCGj3JSf0tUKBPssek6bzqd9r7/pQffww2Nyz37hwKPdpptukvtGkDgfmrVo5eNYd4LVeOH/84pFtUauCMzHo1aoaKhWtFOsGVcIWaSDQBYiHbDnKG3j8Fz7PJtsvJa7+/bBnnRgypSf3IgR1/v0EYft4+67569ulVVW8dsChdrvjwPc6mtt7tt6J596rrv++pvcyJE3J4R5z4c33njL17YWnIeQ9d/vj+6cs093b7z6sHvisXv9gqmnnz3MHXP8ue6ll1/xx26wwfqu//77+feEfCpP+941gRVeoG0Q5hETJOhKx9p49hyhRYvm5akU8heA6bMrt4V69+7tv8dVl5/pVl4t1Uogdl2ls55FOHj/P+SeHUAOkU6VJfvCeygGmJq08bBeLJZaGy80NWNtvJkzfvLHYyIhLIpjsMcIdjvcV1PoOSjUtu26uKcevylXO+HgOPf8K3x6yEWYQBv5tIYCWTOC8x/+2yPuH6+/5z786Gs3+Ydv0/zFld/zl+RjNEzOX3/9DV2Xzu3c6r1XdGuuuUayvW5utIuA2XrLrfd4M/eP/bZ3a6+1ujvr3KHJx22afIe0zSfNB6hQaPdhYtv239JCqPG22vaA8lQqfOut39tt23cbt8M2G/ptCbs1NTFHIVqoISR7tPnefGdc7vgshBoPzWlN0yf//qa78sqRPh1qWZmtWWjZup2XgV8W/FDJ1GSZv27dunlTs87beKGpadt4v7jW3tQU8fIhHxljsMcrbeN8CO+jQsaBsvcefRPT5x036q6H3Pvvf5oQYg3vbcRmBxTg5Mk/+fcV5CCRIAkqL4AD4OOPP/VkZSm4Tz751P8Zd3xiYn7z7VQ34dvP3a677uy23/b3rm/frTwJVUuOHTvWXT/ydvcsDobkY0IqVmfDvKTNB8J3tqZ3LB2LRdiQuMUS+YF7r4q2q4DeBYTltHf/M93PUypMSb4DXQn5IDP9imsf8udKgym2z8K9zzzvEjds8NnJe6bvwfkHHTbQm7CF2pUhIB5jNRmVFTpXlkobr5iRK9J4KpTfEkQ4TLc0Ts2GhYntjlY5MjEt999/X/+OdJu8/sab7r7Rj7kvvhxfafwe77nTrrss4W2rCjBDcaI89MjLORLSzkMgVO7U2n+5cLj79NOx/hxpvpB8+chVlVgaNOsYYNNovNCTWAiY4H8amLbvLHbffUffZxpaASH4NsOvGuGe+vu75TkpYtr30sEn574PZUqFdsIpl3iNZ9t4WW1TyXCWxqutNt4SxBN4WTRebOSKNTWtxpOQC2ENFebVNXRP314qJ5zyevde2V10welJjdnZv99nn33hrrrmxiT+0u/vslyPpJDbeQ/lu+9+mJCyNGdCtm7d0a211ko5219eTMWr9+6RXL+XW2vNtXwnsCByAUhIV8Ktt4126663nvvzn07MHctxI667wd381weScmroyypGvhByKim2eUCEykoXE4fCXghUJMeemDqtsrTtYQP2c5ts2NutvPJKyT2WFF7Kg4W3Djp8YCWtGWpfiEdZPfrQdTky+7K8cbTbaL1elSpMayILVjYhHsC5kqXxrKkpeS62QqqRVxMhs208CXUI+0I6xqZBeIyNqwJ7TWk5oG4CCHfsUfu5zTbb3OdTsdx334PuupF3eA236557uBOP3t+PphBuu+12N2ToiPKt5B7lDeoYIKYIquMg1B/33cXttuuurmXLVj5PH4j2zHkDL0m0wj/d0Uce5B0wAs6bG266NymD1ORUHx+w5LPkslC+iCPYbZuOHa+04vvvubog8RhcQBfJI2P+4R5//Jmk7CsTLl/M9Krttl7P9erVcwlNGGrOUPuKTGjSM06p0GgMPxs3bnwl4qHxrKxYUMbW1LRezaXaxivGuTLt50nJuakbvDYhAuZD7BhrWopwJxx7sNtyy9/njmV90GGXX+eefua55KNs4s4755RKjXMcH38ZNMx9/MlnfrtFi7b+Olv32cCtttrKbtVVV11CCCHShAkTfTl9PvZL98TTb3qzUsC87Lf3rv45gIRm2GXDEw13t+9muOrKi/1H5Fvsd8Ax3uyU5sP8EflAobZubeORB2+opGX69N03Kc/KXuSs7TA/BkvEs88+ye3yh83K96Rle9CAc3IVQdjG67v9gT4Nbr/lYl95kg/QmAxlA+GxMbRp1ylnajJIorbbeHlLQbZrVYYJVQh8RRzmVQX5aiXF+UgHtvvDtu7eu67PCTvnvP76W27f/ie6V197xw2//EJ3x2035EiHecQQsT32OtC39SDDzSMvd//+14t+/OUJJxzjx1nGan7yaEvsttuuXnsxSfbF5x9zp516rOveYzX3xBNPuQGHH+/22ucg98wzz/gKDkE468zTvMZj/8033+bz+IgH7b9bkmZcafouvJt936o4q2oD4fBBSyoFuy1AJIBG0+RhwrnnVmh4IE3LOw8dOtxrT5FHkPblWbRPAq/zh199ky9b5duRQ5Yc3EcgbbfVVRDiVxurCdS+oVZAwC2pYkSzeTYor5jYgvGNgBe2x1WkU0238so93fCh5/tComCo+Wg/HX3sGa5xUqEwiBmSsA+TBMLttMu+3rt41hknJmR7xY+zhGgAQcDkYcymxm/u2/9oHxjTSf5bb/3Td7gjFISePXu5k0483r3ywgOehIcc3D9pN77jjj/xbN83CAF51pNOPM6T85oRt/ptsP7663kTGOAQQrB4R70/gHxhKJRv42KBwMcggkmbWcIpLUI8+ugYP3tB6LPZmq5dh3Qpf44VaQH5jOeUQKdWWMW4XhSC9qVlXUGUjz6Z4D2igGN0nKBr2OdT5QC0sgIz0Gm7W9RGP161NZ4extYKKQFTQhYLS5pCsQ2C3Z/G6TNIcDEL+WCMnIAUfbbe211/wx3eecLSDXTe8lEee2yM23rbvbzGwRx87ZUxXrNBWEwcTEE6zzfdfEd31bW3+d+TMTZzl536urPPONqddvLhbsdEs2604QbunXff897LQxPNRkf7mDFPJKb6bP9MaMRBF5yXXP8Z1yfRwJizIuDjY8a4fnttnRBsvhcaPiTH86y2NrbvqPcMIVKFpmiMfLG8WMxM+nywhMsCx3z7bdr/CWjH3XL9ee6Iww9y3bp28Ps7dl7eb5Nv8e4H6RA9wSoESyyRc+jw+3wXTwzSmiH0DjShQKwDPaaI+A4hufOhYBsvaz7ey6+ltQlezdkzpyVtvB+8MGhQajHQscQ1hb1nKIxdlu3ptuu7llut9yrurHMG+w5vTMe+fbfx++n/uf+eO9yGG27kh4rJu0jn+q2j7k3IMdYduP+ubpu+W+b6goqBakCId9uo0QmJlndHHXGgH4oGqCXRjsMuH+EJCFq0bJ+U+Wx3/rknuQEDBvhvgWZFA4PGTfCgVXg61aZmuy4hAofOlU23SAc7s18EVTqr/QnB7rjtmlybqxAoxxkzprtd96wY2AxxQg/r5lvuk5RDhcYERx91SKUB2QLHAh1vzyPduk1nPxzyV2vj4bUJGc7o+1DjqQYulnRAxxLHgvbFYhDLE+loE7Vp28Gdd+6x7rmnb/Ptre9/TBcaos2GV5Nj0Uh/e2C0J93tt45wa6+9tq9oMBsZQdJvr519247zGd1eCAiJAh+BsMceu7nHHrnHHdB/L3fFVSO9dnvuuee92bvRRhu4hx4Y5f7y57StM3fONO8N/fiLSeXl+R93zlknuvYd0nlmaD3eTWUtTc92xbtXjmsDEEnEshC57D6ldU4YJk762Q0dFm+/xTBx4vduwNEX+nOFmLYClnTg5lvu9BZLFnR8eB79tqB0YeWhb2CptfFipmaofkFt17ohsWwc5oEKgfsl0Sq93YvP3uvHSAJMjtGjH/BmHFoHDL74Mu/RbJJokZtvHO5YJwWTEGKAN1571Lf/BAqW9h1ufrXtfrfhDm6lVdfPtfMwL0eNGpVr4wHFuLPvGjXSa1UGQx96+Cnes0o5H3zwQe6G6y5LatpO/tjn//6C38c78Xuo2/86zM9woL2XRT5QUQYVXTI2aJ9Nx+IYQg3Ge1kyFAvOYcrVzrsd5gen06cZmoS0t3FyMW9xvwNPdT/98E0lrVoV4LmuCiAhbTyUSkmTeXXSxqvRyJWp0yj4X3xXwpSfKtvfCDO1BoJCbN3EAiZTGlefsAiKBCzd/sV17NStkhnCRz340ON8t8CB++/jTj3lON/PtOPO/T0RcXbQ7mKUw7nnDXaHD+ifIxxlgQDcN/ph9+jjL7hZM6f4PjrGYdJR3qFDusQ34O+hY558xU2f9oOvkbt2W8X123tbd8D++y4x2oNnOu/PQ7wJecFfTnV77bmXz6f9c/TxA30XxEYbb+ZuumFoYs608vsg4t77HuuYgoXJCTSyRahud47K0JZlDOG30jnVRU3Ot9o2JKW2l6gsInkW2k87EzAtKDQ162Q+npCvjSfizZo5y035udR9O/6jRNgml59ZGM1btHLz5s72sUXTpqlax35HuJnHJtKqXRODFRSId8apA9zhhx/mvWePPPqIu/rae5Ln/8GbmJht1FiDhwz3jhSAkwMNTs12xbBBub4hkeORRx7x29tsu603PbfffrtKfUKWULQLDzz4CP8O1hzaa6+9vKbFlOV4nTf6/gfcuX8a7B06aEJIRmV3yunnu9de/Yd/tuuvHea9x5j+OF0GHH6yv6bae4CyEQEhH1rQxr8F8IyW3LE4RFZ+bcMSV8Qr1I9nh4zpGa0s5EONRq78NGWRH7Ey4bvPqkS8msCSNSSqgOPk47E/ufvuGZ087wTXvv1y7s9/OtZtuunG3j5//PGn3CVDr8yRg/adtJwKDvNnvwNO8pp82eVWdEOHnJmbRpQFiHrFlSPcnXeNdu2Se9KVAd55+80cCY84/FCvcbX8H/dDo+6x1yGOGe3XXTvUtWnTxu9DS+N0gZSXXHx+jnw3jLzZe2ZjlVLMUSUCCjFi1oSoIk5Wuir7BbsPxNJhXJvo0Gn53FzT1q2WyRHPjlyxzhVQI41niYfGw4bNGrmCxpv80xz31ZfveQ32W4HVqP37H+hOP/UYX0j81faCiy53L77wguvcpafbbZet3P7993E9evTwhaeP99JLL7oTTxmYvN9Ur+Vuu+XaSoVK++P55BpTp0732y++9IaP5ZkE9959S26IEpoXZ8rFl97oJk380o+AuXzYQLfzzjvmBOerr8Z58tF1cO+dwxNTpmOi+Wa5Xfc43JMfc/jMM07y5OOb9N1uPzd71s+VyAf0DrXhKRZExGLImpUuBiqLQtBxYWz32bSNi4WIV0jj/SpjNX+cvCAR5plVNjXrCiIcaNe+i7vlpmvc73+/RSKoi/wal4ccdrJf2wQP4i677OzJZG10TDyGiGFaLlgwz5OWznNAedx1193usTHPe4JZMzI0K9nGRAwJC+6591534UVXJ+U2w2u/c885PTkmJf1HH33k+h94rFt1lV45zTd16lS3zx+P9e3GoZcmZN1pR0++0aNHu6GXpXPNssxxyIfzpTZJaCHS2XRVYiHcrg5ELqHQdgi7n3Q+4tXJ7ISqaDxMTZZ8+OC958vPXrqwms1q3M5dVnAP3n+7W3PNNf3zj3niCXfKqWdX0n4AwiHEL7/8snvrn++7W2+7I1eBbL/Drt7NT2Gi4ehcR/N07baqXzuF8ZZNmlQU9Pz5c927732YlMvn7o3XX/Z5mLCnnXLsEiYq1zv62NP96BU06jXDhyQ1aGpC04bbfc9+bqedd/P5VAzjx3/jCdmmTSf32N9u9s8NIbfZbo+cE8tqPYDwVBUhUeuStCFESJuOxSCWVx1kkZO483JpMyHmXPmf1Xgh0YDy0HRPPfFQrpP6tDP+nGiHe9xlQwd7LQcg06OPPua11+uvv7LEtXr0WtO9/uoTueXnWHj288+/cjvttH2lWQtZoAzpGL939CNee+LdHHDw7u7gg/evNOKebokLLhzs+m6zs/deqvZk7tm1I250J590rDvqyAH+41J5nH3OIHf2Wae4/vv18x97h50O9m1YnFDAOluAhEHCVFewhA1jYWmQOEbUfCTNl9d52Z5RjVdbbby81UWq8eLqGS9g85IF3hOEWbY0ALmAtBwI8yAdnkMKQaR7+slHXb9++3hhpQI57IiT3Iknneqee/YJrwUfenC0vwZAWz779P05DQSJGKfJ8LFiSAeouBgozSyDt954wa/xgjNnq236eUeKwDUfeuA+73zhmdDOlPnpp53ktSXke+211/03YEoR2hGnCissk9e9e5fc1CO0nvr3BAhnSafaPYxrCkiVFSuIjGHQcTauLiBNViyCkVa+EDsuC02bVvThIWN8M0AZIyvFIu9dYDK1bWxsGq73eaVNvetV3sW6gCWYJVwI8o8/7ricu56xl7fdeqO79ZaR3uTEpHzooYfddjvs7gnXe/VN3Csvv+DbcLOStp2uwQgTOqzzAQ3I2E0CnebMYqBDnW3acJiSEmquhUfy+Wcfdyt07+T6bLWdn98nYIbeesvV3uzEIyry0cbr0HF5N3DQVb7PEaIxbYnhbox+wVG0cEE6dpI8O1veAoHgWSzZlGf3xYKOt3F1kUWqGPliQftsXBWEhLNkC2N7XL6RKwC5ApRPsWYmaDgoQXnaA8NzmWXoZ2IEPCMjFid5/0nMzVI/xGnevHluRtLmm/TDT27O3F/8wFnaPna0fG2C64p0gDXtyYvFo26/yZsAaJU9997PXTLk4kSj7ZsIWAP38N8edscdd5IrTdpiZ555trv7zhtyHeznD7zEfT3uC3fnHbf5xY44HqTvvjgpjwbu6aefcecNvNwdf/xx7s4773KvvPKKD19+8Yk/97NPP/LbY8Y86a65ZoR77/1PkyuUuVVX7e2vQ7/f9tttlVy7SaL9LvPl/Pst0rlmaNKSpCa98MJBflhat27LJcc3dxtvtI674847kvKemxy7iTdTO3dskxD3zuT8Zdy/PvgyKZeZXps0SJ6R2prnTb6g/2YV2ykgGtvKi+2zscim6xCTRzor6BhiYNM1gVpENi4m8O0gqo0Lgedt0ZL2W9JudtOTdyhLZKVrUv4tXcuWLb15iebTVCM0X1puKXeKQUGNl2VqAkzNutB40mqhdottSwt26ryC7/hmXN7e+x7uTUjNLnjqqWfcUUcd55bv3ttruYsuTKcJAcZkogEvuOACvwARGoc2LZUOeODBB916G2zr+u3b3z055n6fB+wzxgLX5J7bbN/fsbASoOP+qCMP8VqYSa9oSIFnxaFz/IlnJO/wvS/3tdZaw3s+MZc//vjj5JnKvMmMGXrDyJFu/NcfJnkLvLnJCBy0XpbmA0wryoJIFsYgzEPIsmJ7LEF5Cnaf0jaubcS0ZeGQVkgyI2njCQsWVCgYvkd1Nd4SzhVBXs2skSv/eOPDpCZe5J0rX3z+z5xGqikQWpEpNC3tdrgP4l13zWB3xFGn+tkF8khiFu63/6Fu9TU389OArHODUf+Yo2jAE44/0ueJkAj/MccPzPVR2udZeZUN3IYbrObXxgzxxpvveYeNBedBbBwlADORWeoHDzjez0JglA3ARF1/wz6u+wqre+8lz4KZifeSeXr070FeljHA82lhKz8NKLAjfwScL7QDbQzy5YXIyl8asORW2sZZKLQ/RNflV/nt9uOpA/3HH752P02uPFazqrCCbUll01kIj/nko/e89kOQN9lsOz/y47Khg3LDvDR2E60E6dBCAoI96o573OVXpNpI16Yb4dSTDvYaJ1wLxDaq+cCpln3a3XTL3f4eerYtttjKD8ZmP+WLFqOioOtD040475ABR3kvLEPT6Mu7fdRd7k9/Os9deuklbu+9dvfetD/sfLDXeBYxy0N9jCIjECGBSGlJVygGsby6gEhlYfOUjh0Hwv2x2EJ5Il6hfyfU2UrSIOZcwasp54rtPK4qYqQiD4FXGmg7BnuNgX/+U26s5ZnnDPLaDweKSEf773cbbl2JdKl2TwNjOC+88EJ/LPfE/MMrytQgNFNIOkBFpaDC5zddOGrGPP43ryEBmpD+O1Vqa621lnes0LFPJQE4jz68iy4e7vtOqfQOPmh/38Vx1dU3eo8m559xWsW6kBAuJB1Es6QDpfPneLOUznsGEhCYhkRgX1lirpaV6R/tqWkWi0U25QHlK9g8pasDiBDC5imtWERSHJ5vjxf5bFAeq6QDJsLKiSXUxuyEgm08YG8k4NXkAYE+bFVQLOGE2PEWnNd9hTXc8celPxzExGQCKyanAOnwav4wcZy7/LLL3IBD9/fCjd3+88/T3GlnDPSmp+6FhuF8O/kVguC5xIu5zu+28YNpFZgUiocTj6pAV8RrLz/ktR0Q+SAoAfINOKSfzxMuGXxe8lzT/YwIKj2INnTIn3zemCf+7k3VHRJtKEKH3TkinNLAEtDuFyAj7cRKZCyd7clINwXBQkSyBLSaL9yvWAFkxcCmqwLJpGLBboek1LZIR8zqYpCKpR/qoo1XI43XqkXVC6eqhCsWnDfkotO8MFMgmHBDh5zltwHm5X4HHO87+iEdneEqxEmTJnqto7ZZrxXXdW+/9ao75eQTcuczTAyyrbn2Bn4UDMvxMYLlrDNPzwX+jc66nEccdZxfJkIE5BoQ2JLv6mtG+vYB+wYceqA32SE0wNtK1wgjadBwlH+fPlv452IA9uzZiXZK3vHUk9N5hVkmpkXWdkhQoDy0oMgoQoqMIqQ0JIiRJUYqEObbOEzHtsP8fHGI0MkkAoYxpAo13lLrx8O7FtN4YPbcqtn2IpiNheoSTsA8w0wDrNLFjAJtgxNOPsd99cV7lUiHQH/xxZdJm+o43yXCM+2z7wF+Aqw6y9FwEG7b7Xd2Tz81xpPnheeecuO+eN+bsMxMVxj457PdF5+/7e4cdYtr2bKdJyBeUxCSD1LJ28m+EVcPdH8ZdEXO5MTZgya7464HPclENLQeP0hB6/G7L5xKFiHBBDt7wyJ2vPJi+0TGkJCWjNKOYVwTZJGoEOmIFbRttbRiQdt00cQ0HrCKqM40HrVyFqTxsj4qEKFCYtltabtCUM0exuDM047zMZpt+DU3ub+cf6zfBrjtH37wXt+m22abrXKk++zzz737XsPdrhtxtZ8hDhEAs80377OTJxxm7P333eHbbVqTJYTOg/CvvPiQrwxw+6vbgP1XXTnYPzekOvf8iu4EftfF2p7X3/BXv007FS1KVwJmMETbLjFbOXfEDffltPW22/Tx14rBezbLA207pe0+pYsFZJRGtOaqTFVmdEBGNCOrb0NGYEmYRcwwrgms2at0SDYbKwh0K8Q0HuW+VNp4+frxYhovi2iC8i3Zso4FlmQIWCxGi4gMjP7o1Kl7TtuhQfBQ4iRhChCAdN98860748w/+2swTOzxRx/KufUB3kVc9sw3pE/w7Tef9O01rsfIE9pyBNp23bqv6rUi+awjAnDm3HTDcP9sI2+8PdFu6br/aFLGYAK8ks8+VzHAfP8/7u41oa7B0DHe78WXXvXbgGFjE7771I0fP96TkR+gcEyIkEx2O5YmViiEmEYUIZWX5chRX6MlGZ7VWBwLQlZaKGQCVwVW41lTs1bbePZkaTyrWoVwHQpLKNJhrH1CPrKBmDDFAHGYxAooCNpARx+xp98GeDa57zFHHeS3RTo0HediEqLF7PLeOGGOOuYUv4/Obk0Not+PNt7Z5w707TS1CbkOWpH8tdfd1GtKngXy0X2AQPIvPAFC0V4D/CCFYwHjO1u36eiefuYZv42GZOY6q1FLSzMDnrKhq4K8tdde06/FUpuwJCyWjMASURAhATFa0ZJRWjEkI1BXh43Zl0U6e76O1XYsjkH70HQyNUONJ/B9ak3j2ZPzeTW12BGDpOkXEsFCslmCFUs2YmkzbYex9tPGYUIp4N91fFwWDgI4RCAE2m611Xr7PIT33PMvzZ3/9JMPVjIdmXnOyBdPgGQfK4RBjD5b9/MzDeiu+PqrT73zBW1Ge+6HieN9QGsyqgRNyYgXzsNkhDyfffKm97QCPthBB6QzJSCvugio5PbdZxf3zLOv+X2Alck4FwcQx7DALRNpGdtJvyrXYkmLLPg+uzyhWFSViFna0MYENKP1qBKkFWNmqoXdzjpGIF9ktATW8YoBGhLCydQMNZ5VRHXWxstnagJWY2aQrkhlSQesloshRiYbW9htnYegInwIJdoDIdc2k1rByScenpybFhbOChwp4MorLq70rwS8in222tFPRP3nG8/k9h1+1Ml+eYs7k/Yfnk768jAZWSNFSzgALdXHKBmm8KQriJX5X3EB/scn7LB9ujI17/HM31Nzkz67DdZfx3tMOQ+giWlfPvLYs7l32GGHvj5+7R9v+OP4rzqQsIsYxRArJGIYshASUSELejYb2yAiEiCiJaOISCgWMULF8kCYb/czSPpX6cfLMjUBzpWyZJ8+kCWdCJdPy8XIpnwbC+E259AXB1g6Ae2BhgCM2aSTHKHt1auXz0ND4KwAOD609B+gjUY3AW0oyKOOclafRmtCUi3jrr68ffc70mu3niuu6ZcEZB7dp59+5vpuuZ5/tnvve9CTiZ9aYrayeJHab5C6TdvOPv3xp18mgpZ+3E6dOvl2Je8jDDhkD/fCi6/57wDR9tpjB399Jt1CxnXXSTU2QhsDo1Q0UkVxsbAEzEfEiulJ+Qko6FntM1tSgpCIBJmnMTJWhZjFoKGLr0Id40Ott/FAVnfCjFn/8RoPhJouH+GAJZuNqwLOkdufZfnoUFZbjX/P8Qxnnp6OjwRMTBVoKwkiF2ak9WpiGg6++FLfp2bX52Q2OiuXHXF4f+95RMsC5s/R7YCDhGdj3CYWA+TDnEWImCArdO22kn9nht4Jyy6bkvHNN1kgKRXm3XbdyWvp6dNneqJRkXB95vEhBJg/jO+UwIaQQFryZYUsWPKFwecHZBMBs4gYkiz27LE8ytCap2lIiQhExjBon2DTFpWOca39upohxAe+j0zNWm/j5TM127Zexms8UIhoAGEhhFBebJ+Q9YFwZNBXhrazTpXRDzzjx1dutummXlittgNqFwLWw2RYGGakgBeSTng8msxmEFjuj8HY77z1ZK7/DucLWhJTlHsK/GlI5Fl3nTU8yVhiIpe3dlppcBzPCIkYh0k5vPTq234foHJBO06cNMEfA1isCSHEUQRWWSX98QfwXQc5QuQnlAVCZ48vdJ7+/a575UMWAUPwfXkvGys/BPtDIuqZgH0PvRtxmAaKQ2BqZvXjqYIGtdrGKwS6ExirWQwQplCj5SOaQIHHPoY+xL77HZLTMNapgsud/x0Iz/w9dWzonrbQIJYdFka3wJ57H+AHV8ujCfBqYsrK5IScEB8vKNcj/x+vPOpJAUpKWvqPhMbjD7Hc+8N/84/09N789IQ8FuAFEJLB6IB2nn3GtdZc3X3//Y8+DUn5Iy3gPxZ+e41V/DbIEnCcCjaEsESzQmuDhSWctF8YQoiA+Yiob2tjvrvSWbAklFlqJwlbcpHW+2SRj/YbGm+pt/EKdaDDciaNhh9EQKgk6IC0zEohZl6GBS+ygVgeYN6aBPXhv43x99h9twpzcvT9j5Wn8gNy0S1AW48ZDcDPZkjagBBFpixaFnJCfGaVY64C2oaDBp7k0z9N/sbHFgwNk8YDvH/7thUfEu8leQgQfYkCGnPC9+nwMdCrx/L+uMk/TfV5/JAlhL5LFtEsCW3IBxHQhnzIIqCQj4AWfGtC+N1jkExxLO1la5ZahEQTyGeF9Bio5GKoE42njx0Cloc/exBEMoLSyrew21kFGstXnuJ99t7Nxwg1JKPdRduHgqK9NG3apEr3otsgBKTDHKWtyOrN9MPhpNl2h/19O+yoIw/3x0EItCxdDvfcdatvA9548z05QuHyB/SvkUf5MZ2EZ2UKlSoIfvXFM/EXIZUxiyqpvOir0zXxdjJHEOhYjhv/bZrXs2cPH2cJsUZvhHEMVSEiKIaI+bQgEAGznh8SASsLMbkAKj+lAUPtuIa0YWiWCspT245uBYusDvRa92qCLOcKXk0tey3oRQFpbdt8i5BAYVwMWMVLfXGM04RkeP4EVhMTVBF8/vnY8pwUEAzS0ZZ6cHT683rydtn9UNd1ubZ+qJemFqWd1/N8W481U/gvHkOlIBQfgxkPPD8jaFRDEkt4NB4TInGcnVCLBrts2CDfR0hfHc8A8HaO/+YHnwZdOncsT6VgYiaQd9ECktE3FSOfgrZjCIlYiIx1QcJQHux2TFasvOmbi4zEfIuwbWiJKMLRjxdCFZ9tCtS6VzOfcwWvptp4MWLZF80CBUDBSSgVW+gD2I9hY1bxAn542JXX+a4C/k+OsDO0CscL3Qo3XHdl7jnHj/+uUg3Fsu6AGeFai4VfNa+7bm//+y55TyEChICgW265pc9buDAVdlaMpsxw5PAeXTqnZJDWkoDQYc6z8hMVjuvUMe0L5HlpCx54wAG+7xH8+ONP/vwWLZonccUwKH6VJiAIIrgvI4Q6EPosUgmWfDYoL0RVSRhCQp5FQNs9EYPkpBABgb65jZFJySXaEBJyTx+SZ5OpGVvsqE7aePbkfP14NDi5mRYG4iX0QrEXDUEhKWjbxkJINBB+DNpetMM0p+24ow/1wopZgHbi/kceto8fhcKoD4BmoZbiuMXJO8+ZO9e1b98156BhSs/+++3guxe0vib3OOCQ9B6MFlGNx88r0bp8BMK//pXODLcmpMXHn3zsl4jnI/O+PXqs4D8mz7vqKqlXlIoDiNRotMaNK/7jHYPKxdbc9pz0e1UE5eWDJV+MgMCSMIuIIqBI2KRJ5XcRAUXC8HsrCKGcWGTtCxWAlVdiCEjgu4jYDJYOEfumtdrGy9ePJxcrbTwK275EFiy5YpoNqHDDggZhzaj9dAewlAOaiH8MrLRS2mHOqH79z4BZCYAfg4Bp0yt3juK4YJ/I9PPPUyt1L9DxzT2+/upDPyyMJfsAZKRjHHNUfXafjU3bj+3bpZ3waCNGsQhM/6EPDvAOrOEBUo1X0R1BOf3yS+oVzUKbyIz4mAaJEcySLwzKDyECWiKGhCyGhDYOEZLQIiYXwMpWLAZWNpWO5UE+/ksxZ9Z0v6BXCPGBSrvO2nhZpiYaL2zjFSIdZIsVSIhYwVrogyi+576HPcFYh5KRLNRIECidy5b+DWjllVP3uwUCTeVCbQVat2ntC5PuAdZWsWDBWYgdjmwhZrzotBkLk/bCXH9vtd169ugarR2HDD7XVxCAPxlJ2+HR1HWFZs1a+G+AycwfboGuyT1EbkBNbYVV2k4E8ssAmqC8GCz5YgQULOlCAgJLwBgRrRaMIUY+kEVAkFWph5AGtFpPMsxKY8gF3zVERflX3L/W23hZQOPZNh7Qi1hYghUiW6wgKXgFbdvYgsWIWICGTmj6w/T/O2YmqJDCgsQ01HvSd/bBBx8m7a8plQhAv55IZ0e2CLQxp05JBzETAB+fP/4IU8r/LMTPTFbovoL3wvL3VzQlpOOaeDSFL774wsft2rX115wy9edct4O1QFq0SB0+c+bMyZWfBNlOh6kgWrr+JlBtHZIxBhHQBgur/WxasOTLR8AYCUMZsIjJjeTMxjHZE8lsHFptsWe15V+nbbwY1MazsA8MeFmr5WLIIhyIFXQIHYO223PPPXLPy8BjaTvNzUOAJ/9QPtIjaRei8dAmFN7MxGSkgY2WtD8ZoZN8yNAR/vr8RATw80nbx8a1GLaEqSgnB+/ctWv633KAKcvz0P9GuVJr9uq5nG8HQjo+Ju1OgUHRoGXL9Pdin376pd+mkuBczGsgxwx/GrLlhcCkJEjzLOGA0jZOQ9W0YigDQox8FlkEBNXRgCAmR9J+heQwVBqxtp0Qs2LqpI0XuxEaTyaaLVy9XL6XBFmEo2AVLGyNaIPflxz7x37bO/3vANxz3xOeLHgkhddff8u7j3m2nj0gSzroGPJ9/PE4nz/w/NMrVT4XX3KVJ+S1V12Yc7Jcdc2N7suvKvoBIQFdB2gdlRVLTwDVjjI/paGUj6lImrUZ6ZOjzUh7kl80Y8JKgzLiRdqa4/mHOJBW/fiLST5WmVhIswFLFEtKoYKAadC5xCEhBRFQQXlCWgFUbhcKImBIwvAbW8RkRLIUylUoj2EshNovq7IB+nagztp4wN5IQOMxVjPsxwtrlvAFCxEuRFbhAzvsR6NUEGCmA/Gv8quuOD9HFvDQ357wz8P96XBGqCEK/87j/3MMEeN41VwyMemMlxZE05HXpUvqEAEQhgVugYjH2ElVXJiS6oNrmZjBAmM06Y+T6UonPb/koj1J39KCBYSF7rvvJvpjMWcBXlH+EsQvuujf4/uMG8uS8Slo26VCbgQzIEVWOgYISJuHWEAwRcYQsWtbWAIqZipOlhaUDMTkICY3vq2bIWcgi3xgSc2XVnyCLBqgShEsVY1HDaw2Hi+hkIWsgggLTgUcK2gLu793797+IzMZlrYdzguNqQQ4TJ5+5jmfZtyjrUxYWoEKg3+UC75PcPgtfvQJ8+4Euid4x5XK+/Uo/H++9Z7vBFd5MSxMJiVgVTAqAt6/Q7lpOHHixKRcS/025jFaFwfR3vsO8P17HIt2fvHFV9y551/hKxmOf+fd99ywy/+aPH+Ja9O2k78HsxYgdqy8rLYDWWNrQ7LYbSDSSRNaEubThiC8pmC1n+32iJFPKCQTwMpZTObymZ8VGi9ODSpRgQqz1tp4FoU0XuPGLF1dcQm9UAyxAojVVhSs1WQWqhFtABw7Z85sN+K6G9z5A4d6M48VvywuGXaNrwl5xh2229JXJtReEAezFMeJ/qkHWNiWQbZHH3lQTmsyTQhthwmoQdU4YyAIYyX5OSXkY9IsHk0REQ0FIMuyXdJ2H7MUQKeOHbzgYoqqjFQuhOtG3uFmetI28uenQ9PSjvSSZs39t/nn2+/4PITXejKtGQREOmKbzoLOC2MLBFT/GhBi5LMIr2MJqHT4jS0kG1ZGbJmFCGVPZLOkCwmod4rd3yoilXGtezWzuhPQeGVl85MbVhR6+PC8sEKIeAEtWaD5PgBQPj9p5N9xYMhFJyfPUnE8JiP/PQe0+zbeOJ2xDcY88bTXRiefcITf5jy/ZESiHXlu1rwE1GbXXnebf0ct2wBYYBYHTsuWzb3rn85zjuH3XKq43nwr7VBnZrvaeLTZgDrKmd5DmTzx2L1u3fXSsZ62HIBIZbUDS/0xBcoSjiDh9+kkaN6kRUhEux1CZNH1lQZWC0pTcH9pQgudA2wahOanEPv+MVkRssgXk0MgubXyq/cITU1gFVGdejVjpiYaD1iNZ8FLomEsVCOFBUPhxQpwicJOPoj9OEpznLQCZqQ1MSER/wpXoWqqkArv1tsf9i5+ZokDNCBtRBwqaDstB//SSy/6a6HtDhtwsM9LteXD7o/77uJJB+g8Z9xo8+bpcDHu8+FHX/vyYIYBldmsWTO9Ocmz6rfQn4/90hOOmeksJMW7MF2I5ft4P4jVtGkzPz6U/jy258ye6a4ecZc/nw9PqBD4Bul2uXBTQfqZJJEAFFvyKWjbQqTRfZUGlQlIurIZShw738J+XyFGQJBFviwCxmCtNUvAEGEbr9Y0noVMpZipqZErwBacrVnsS8YLIZtwKmBLNCFME3T85ptVaDM8hPzxR9NBNtp4M7dN3y39+1CZsES61XaAQdYQjKFlobbDmXH/vSNyfXw3jLzZk6dXz7S9B1iigWfQ/9FZMHfSxHQZhzXWYGRMI/fKq2/5bYhIxUYe3Q377LWdz2c0CsR6aPR1/q+yel80LZUK/XmUOR8dISFWkMCzX2SxBIvBks+mBUs+hRDcD+GLkUhEFAnTvIpvCDhPwULvbr95jIBZshSv6JfUfvnIZrHU2nhZpqY0XgyhpouhEOEAhW1H1YcIPxLnbrLxRj5NbcTq0f4f4Ukh85urE45NNRXAucH0IbQdf4wFDOuiTQV22KFvJW2HI+nB+/+aGyyNy5/21v799/DbgMm2tE833GBd394D773/b18eEJSOc/DSqx94YWCqj/DPtz92++ydLiEBWB6e+/Nx0XD0+UnTMsKmQoAhS4XQEhonbUFMS0skla0tY8UhLPksAS1iBNT3sM8SQgRM0/HvGiJGviwvaEyushCSDxRDwKXSxsuC1XjA1iK5uLy2UY2jQskinWALuHK64mMuGaeajzYUswT4/zneRsDaJsOGnOHatWuT0954JxlMjLZTW+z0swYnhZo6Lk44rmJx280229y99lLFMoCQGpc/K5zJWQLGPPmK22TTVONielJ+5FEe2/TdPLl2mZs06YdcJz7z9vhwLGy00x829yQDr7/xL7f+emn3BFp75oyfvRa1o2ks4fx2EitYssSEEyhP+7OOAyJgjISWgIot7DNaiICplq5MQJ0TO0/f2T5r+NwxOQtlUYiRLx8wNa0FWKdtvBhiGs9quvAFhZB04QenUEMtF36A2LbyGMFxzPGne5MPMBZy+GXnJIRM3cQU2i233uO9k7ThpO1YB/P999/170B/Hm0tQfPwAN0MLPeH1mEenkxKFlKaNWuq23GHPrn2HsvvkQfxWQmMY70GTAjPgGy17+gy0CrXTNAtLZ2TaNaV/fb773/oy0P9lJB+3Nc/+bRgtZvIoXJVudgyygf7Pex3Eex9dC9gyVcVAsp7KALGSJgFKyPhs+ar5ENUhXzW1KzzNl7MuRJqPMALxGoVUAzhVJAx0tkPoI9ErBdnm2NG3HBf0kYb66/NPS/8y4mO/1ZDOALtOvr56BQ/7tgjfeWC2XjxJdf56zB+8pyzTvRpCwjH8g7b77i/++bbqW7Awf28OYkW+/zzz7wXlKlCzDQnj32j7kzX0ezfbztPOu7FiBO6BejSUPtu3ISpOaK/+dZbCdHbuC22SJeYoI9xjTV65/azfCDdHAJCLs8y70wXT9rNUyHotuyUHwbtE/Rt9J0UQuQjYoyE4X0rm56KKxPQHi/EZCXzGQPZy9J8ImA+IlrnSp228YBVrUK+Np7ACysI8Y9XUXggVtD6GAQ7ioJ0SsTKr8I18QiuvfZavpYiPD7mKe+FxGSkU1ykZZl32ma+n+z6S3ITYQETX1lfhZ+XXHvdrX5i7KA/p/8+aNiwiZs5c4b3LKJZmfVOHiRjrCXX5Eckq62Waq8vvvzCe19xnOy++87+/vQDbvy7ivVSHnjwSbfVNr/3H5UKAVP1oP3TZS0A3QcCtSywAi+o7Gw52vIMER6TdWzs+wnynMYQ04KCvZf9jiEBQey5QvkphnwgS0mArPdHjmqjjZf3V8xoPBg9c+ZMx3IG9lfML770Rm7s4Ly5c/z8JYGXjHWCF0u60DtmCz8kWAiZLriHBw86zW266cbuu+8muMuuvNnPgYN0LOOw7LLL+YoFL+Y1I2715t+Iq4fkBlTTthp541/dnXc/5v98wwc64fhD3VprVpigc+bMcxdfemPSBpvizj37OD+hFeKxDJ806JWXDfSrTXOva6+/1bc7WY8TbctHGzpsuDvzjJN8+40B2f0PPNrdNeoGv6gSfxl65LFX/I8tISLfZLsdD3UsM8G5lBECjbBTtiqzLKGJQWUtEsdQzDGx/i7B9vUK3bp28M6ujTfeMClfpmelw/dUyRdKE3MOQAtBCP2TfMwTT/jRPZqdEXs25JNvLuLZycOAsbdNS2inL3CdOpT4NnZt/gM9rxQjLHg1YxovH4ohHYSLkc7GYY23pFar0Iw6p3Hj9FnZfuiRp1y//if6n06OHftVIuyH+Z+IiHQML+OXXmD45RfmSMfsAzrkb71ttDfzTj/lmOS8K91GG26QXJcBzS3cj4npOWjwCE+6/vvt4UlH/rx5c9wVw0clglHqjj36wFybgLYnpKNtd8D+6ZLu3377rZuzIJ3TB5gZwQdnKXgcRA/97QX/Tzw5XWiHTp+WTqhVBaOxsnp/xSCmMULY8+y5FuG1s47Lpw1DTUhf5dwF6XXkR7ByVkyaciGojCEiM07aJRUdlkmrVm3zVghW22VpvhDW1LSgUqrVNl6WcyXWxgMQLka6fAUAsj9m2gaIkS6E8jgWjcCMAzyCG264rrv/3hvcSScel3wM+sgauaeeeiYxIa/wx18+bKBfFgKw5MNxJ57j/+56z103uIsuON39/vebeW8pgFh0G1Cj4jiBdFttuaknHe06vKVz58zw7T2IKkcLCy4x7pO1VHCq8HwMYzvx6HQJesaS4hA6+ICdvTB98skn/j/nWsHad1/ckq6EnRIqLQ8cKxJ43l9ka1ReAQFta59CDFzDhhDKC2M9QxgDSzql+elNi6ZppUFZ8M5oDpEplrZ5lCEBIrINmINJ6Natm/dW77XHVsm+kkrPIoRyarWfEJNZkRxAdJ4dUA612sYrph8PIcginP0Q0nLSdDysggUvQ4iRzR6vdkMY6xiEi/4wlurr0aOHfx8w+OLL3FnnDPZpNN1uu6WjWa6//iavxfjfOH9k7dChYmYDo00g3LnnX+77/zSyRaQDtOsYkeK1Wvk/HLgnHs9JP8zwU4t+97vfJe/WKGlvjvGL0Kpf8PqRt/sy2r9cGzIWVKTjA59y+vm+EtG7A9tu0vs2SMqWAJQOt3NpQ0KFECpLe19BeeEx9psrDUQ6Ymk8fRNV8MQlJWklR9rmK1bgOMgoLYj5ydSs9u3b+fJjsMTqa27sRxHpWezzAMmsSEesdHgsCJ0rQo01nj05Xz9eISzxguUfHMQ+YjEfX7ACl0U+gNm5845bl9eUjbwj49DDT3EPPvyka9W6g9doaDreGdL99faH3c0jL/HtQv1EhJEnV1w10i9OxHkMRm7Rsq1v7/X5/eY50kEu5tDhTDntlNT5wj3ffjt1hvz1pksTQq7qBYYugiuvusMddWT6Xwe0LNrukIP2yA3Itjhn4GWu75Ybe+IKaZlUbtuJVIWQRUT/F9QMzUis72BDiFi+BF4BLFzUxms8K2OqcAHfzG7HII+iNKAISEWF9qGr6LyzDvAjfpo0seMwA9ksJ5+F5GjJ5SsrNB6o0348apIshA1nW7jAajjAA6qxLlR83MomZfQj8oLULn5fRQ2qANingvvsyynurrvu9h3qA444w3366Vhvej768M25GQYI/k1/vT/RjBe5FVbonntffnxy3sArEqJUzHXDU3rFsHO8GUn5EEQ6Rruwwpm6DgAezdNPPcbXwgjI2LFfuJNPu8CbkZAME/LSy/6a1N4tc0QUMD/xqJ52wiH+b7XvfTjel1WsjELTktA4ETal80Hkiy3sAwqdH0Ps2wHMN+SjSaOZ5TkVwMkye/YsHxhFRExeltUlIKPSPhCZaVgzZkxPyrTErb322v5bseQ95EMW9QwWMfIByZFgNZ41Nauq8YryatJgxXbO8mqWzk+XRgMh6WxneOxD6KPGzMolCBqcL6JlQT9UKStbmLzXL27llXt617zac4CZC3QHDB1ylttgg/W9pqNwMf1eevkt/5EAhOO3x0w8BRBr7tz5fjY6k1RxpIiMQLVvuixfWiPz22U0Xb+9t/U/O6GsTz71XH+f8849xq+nSV5paakbcd1I9/fnP3APjb7aExQvK6ucfT9xWnK9pF1T3rajfDTMqXWrZdy80iSvXIhwcgG25fBSnkW+ZQ4E1pn0WrHcUwiyzuO7hQjzll1uBXfIwXu4vn3W82WGjE2cOMk1aP+jG/fefPd942fdSg129X9GkvcwHyDn5Mk/+fVyAKOUVPZ45Mn/8N//dg898rKb9nPFAISwHadyatOmk/dqLiid69dH/VW8moVQcdPKpKsclwtD+QfIqok5jmBJFxIOZJHOPoM0X/MWLd0pp5zg7r/3pkqkQ5uMvPkhP1Od/j40HbUlv/zC9OOjMJXngoGnJmTZ1ZOOMmEUDF7Ks84d6ttu7N98s038Pgt9+HHjvvFttMFDrvdDw8468zS/f8yYJzzp8Jzu3z91sowdO9Zts31/341w312X+64IKkHGnXKvmLaDEGi8kHSkQ9Jpv0XWtxCySBc7J0Y6oG+pGI3XLqkoVGbIGe2zV/79mBvbbLib2+hjN27xE36JxhkzZnjNIu0SxgJmINYGYe7ceX4xYBYPJp8BCYweWrZLxY9E80EyF8rer+7VBNbMlMBDNJEtBhU8kGkpYbL7UoGqMBmJQ5NS4N4KdlvHnnDsvm5AUruqYJh9wE9IPhv7rW97aU7chAkT3YmnDnZfjWN9lBI/FpP2GoOb+ZgQbtzXX/s2H1qSFcKGDjk9NxsdoOkYKQOJn376OT/+84ST/+w9rGecOsD/mYjnwIzExGzVqq0bdsm5Po/RMUcfP9DNmzc7ue6ZfpD0xInf+yFqn376TSLsdFAnGq5c2wEJv0gmxNI2DgOwpqkCkClKrCDTllhpjuf5wiAoTVz2n05u+uzU2GIbcs1q/oEnnED6XzPucWUt0j/4YjpCNsiqdjsxAUcLGqh79265wL8G+RYAWWaNUpyCklGClRugsgBUvPnaeNbU5B2q0sbLa2qC2bNn+3Q+UxOTbvbsdNUrSzpb6CD3ISNmZYiwpgnJBmyBCVzL1roUHmMlt9ysl1u0TGv3j1dfcj9NmeMOPXB7t8suO3uC8H78S+GiITd6occ83mevHfxYTMAHfuPNf/p3ZokFZgv022trr+UECDd16hT38Sefu3ff/9i9++6H/vm4PwQ+6shDciNiIBj9i5jod95+pR8OJlOS6x9z5H7uhBOO8ccxE/79D75KyrjUv5sqIA0LQ+i9wCcCgxDQNJAwKC0HQBZCjWhjiyzT0mpCITw21ITdurbw7WHmQUKoKVN+co/9e2gl4gnrdN7PbdT9j/5daPMBvhnWhORU7XKZ+EB5gPxXXv/M3XPXLbn1b9QMinW0t2tPX2+6Sp7tQKePkO4KmZoQXlpb7cxisATxBF5IbbyskStTfkYYGuSIZ0kHsogHQpMphIgXIxwQ6UQ0XSNMAxUoz0k/Wb9+6Q8sRTqcKMzi5ng+wsorLe/OOSv91RbjMG++9VFPSAjHb5ZxU9OG4Hw+6Geff+6efPolP0aU87kfDpxddurrNt5ow1yXAUDbolV5luGX/8mPUKGyO/O8S9zzf3/BbZeQffjQdJVqRrLgmWPQ95dfpquI2bZd05LmOdIBEc7CEhFUlYxNG83PmbAiYr42YbFtwDVWW87ttMuebodtNvTvAvE+njrG/fun+8uPStFi0Vpuq3X2cN1bbZKYjT+4dz9ItR8oLS3z5b0oKe/FppJokDxr4waLXafOnd06ayzvV2KDsK+99rq7bdToHPEEEU/g+0E8ZI/KEcvGtvFat27ju5pq0sYrqPFo9GY5VyzxEEwLPYgQE4rwmOpoufAaMfChKcydEw13wtH7JEK3yK8sRjvt7tEvualT0l9dCb17r+xW793Dm6KMeGF76z4b+I50C9oReDRffe0dv81oCX7x3KfPFkt0C1CeDE/De7rn7tu6U085LnfM6Psf8B3yeN5uu+XaSjUnJulhR56T03QiHbUxJh/mIYiVbzEohohZmlDtvJBgIh/Pt6hsyTYR36Pzcj3dsYdt79tevA9r5vww/333/dSvcuQT6dq61b1w4xF+/98TXOncSQmRKjywk6fNdy2TYmAUEDFo1qpr0gTo5bbaYnVvsmNR/OMfr7vrb37CTfr+S/8MFlbrUcZt2nb05U1zKmvIGA4zDcgANdJ4lnhoPI2jqwrxLBn0YYgLmZhWy8UG3BZDOvIoVO0jrUK2ms/H5d5OHU8Mybp0budXDWMBI/13Ds1mTRcWMGIkCZ3aIZEsmOaDRn3sidf9rIIBh+zhTjrxeF/GgOUCz//LVW7A4Ye5U45PHSyA7/DNN+PdkccOSr4B7ZK0LKyJaUnXOCFEWUKIrDgfLPmqQkIhptmsQyYkIN0WzVqv5InHWE0E18raDPdZ+ZEplmu2vn8u/meBs4RjAbNA6ITHSaP2In2DGoq24gqYhV2Tdl6r5Nql7uWXX3a33/mI++qr9IehkgvBaj6IR+U2b+7MShovNDXrVOPlMzUBDVCIp5sLIpudTSABt8daTReSDVjCxc4H4XYIziFY8rFNR/rvN+vtNt1k/dwalYLSNKjxZhHzDwNGqOCN7Lv1pn4BXM1UFxjryXQeFjT6bkLq3gaUx913XOXbdLTf7h79d/f448+4SwefnPvTLOXOwrv02T355PM50knTEcJ2HYBgMYh8Nl2IiKAYEgJLQJBFQkGV8CortfeeYks8GwM0CPLIdxLZtC8GyYaFvd6zL77rRt1+u7diJC/2eEu89h06+zKPdSdYU7PW2nihxqPgs0xN1o+kzYF28v+bTl7CEoACTuMKMtn9ANJBXF3HEi/UcCA8f4nrJffUx7UxUCETQ8CePTq6M087LkcwtdkArm3elTLgfVktGiKpfcCiSfTFCZgyd911n3vgb6/42QPcd+VV13UH7LuFn2l+1fV3utdefsM/r56D/jzGjzLRlkHRo0eP9qav1XDAko7rQjyRzhJumYZN3H9+WZiLbZ5giQiKIWMhEsbagSCLhOR37b6q++M+W+XaeGgkOszpRx0//0Xnfuzlll+rYc7MlFZBNpFRoZCGkQLhO7755huJlXJ/TuMJIfnwVegHMbE2Xm304xXUePm8mjI1RTwB4QjNSqCHA1Vtz9lzhVge9xZCU0ckpKAJVww93S27LAvRpl7N519936/ITCe1ff7cTIByQeq73VbuikvOS45JC/mNN95yfx50g585QCc97UHm2+HFVI3NdB5qT9Cj1+pu0PkD/CK8gDl2fxn8Vz/TIUY4AdMnRjrIZWHJFyNjCEu+mpBQZmjZwgW57xCST9pPGi/Wxhs36RPv3ez8w2Fuw227evKpLSUNRhyD3SdNBMh76bUPvMaDeFYWuL8lH4B4VuOxMBU/Dc1yroBa03ggH/HQeCKQiFdJ8PNoOmDbdCFEOhVKeH64HRIuBn10XMScf/45h/mJrM+98A/vsvf7Fpb6v/+sstp6rlVJqZtf1tLNmTnBT9FB2HCA3HTDcO8CL7Z2o6OemeftOiznTjp2j9z0I4aLXX3NSL/4EYhVNIpj5mWTppV/EpMPIp9FjIjFkrAqWhAihui8bM+cxkNgKYt//fC3TK/miu238MPI6GulPWfbcsIyv8xwc0pTErRo0dQtv2wL16tXTz/tChl+9dVXvcb7+uv099a2UgiJ17IVQ/yWbONlOVf0nWpF41FLULDFmpoA4YBwYbtOCNtzhcxLey5gOySiSAfh+Gd1+MP4GNTY1+JGXO+IATu6nXbccQknyai7HnPXXHO912Y33TA0Kez0+nqGWGEjSG++M9aNvu9Ov0bKfv37ueOP6perFXGqjLjxseTDzlrinSqum5RleSUSOlJCEhWLUAsqL4ZiNWAIaT6lBSvoK/Vs4zXellv+3m/n68fbeY3zfXfCl19+6f7x1ljvhFm0IP2zEsP2BLyaAM8m07h6rby+227rdfz3RJ7VxhPxQBb5ZGriC7BtvDrrx4sRL8u5IuIBFlfNESBD04l0xbbp7Lkg3JZgypy00LM0LynzNS9AGBAEFbbaGxT4X847qtLvuYDaXQwro9bTzHVAYUMuZrfTLcHfehbOm+V/9/X559/5Z+V9qTUxaTUgGy/n8Ktvcp9+XtGXVKmMyt9Jz281XBbhWO9f/3WzcXVgiRlDVTWgSEisb0GZo/EOO2ALb2oWo/FW6bSV9/J+9uVkt6g0Jd30WUnl3rB58h3n5eKyxak80Y+36kpdEgtljSU03jffpD9/CZsQAvLQrv2ySX7Zr9fGy9ePZzXegtL0Q+czL0NtJ8QIF2q1Ja4lkkeIp33A1rwSAGK1Qyh0tN+OO26d1I7p0un0z73zwXj31JMvJqb2NLdd3/X9n2YxLSjkd955J9GCD+U6tVVT2mfUux591CGJSbWDe/vtd/0/Dhj4bI/DhLTPzzPpmfMRTj/XACKbTWflFYt8BMynCWMaEFDuFr1WaJlr40E8KrkJs/9ZqR8PMGplrY67ea0lWbTdOhaSWWme1BRslZMnabx8xJPctWzVxm9L49V5G0+QxsvXj2c1HuuuAIinF40JIgjbdPk0nU0LlnQWyrcEKwS1P6z2I1DbtWzVwZ1z+oFupZV6+mPQ+oOGjHLfjv/Mbd5nY7fOmmu5363Ty/FzSbxx77//gRt25Sh/LO8Yttn0LjxnrKKwhEOwgSVcFqGErO18cTGIkbAYMxRkmaLdVujt9thlo5xXkzLHnzClLP1nPQRcvmO6SBT9eBJuOU7yQdoXqP3F9SEepj8WSYjwOSEe32/O7Olu+W7ta72NV5kBCRYnGk/ggjA6q4YJIW0Xkk4ICQeyhNOC6wE6XrNIZ5GPdPogQm5gcHI97zEsfwY6qnGEQDoqnsefesudfPplfjl2BjDj1WTgNfO9qI27dVvemz68ox9VkrwX12HlspKSFj6P63snSXIv7sm9CTxr06StwLM1o82QbCPoBBEpjIFNg6xtG4fkU34+iHS2EpBjRxVEiCzNJzRxE33HtwXaCScKYds1j3S9u2ztA6ai5AKZLBQgKTEOMJ0HYUsazUsUCd0FlZ859UfE5clacKDOZqBbqHaxncpZ0APyUnoxabl82s5CBBN0HcWlC9OPHdN0KjiEuBDpiG3geBEQYkAS7nn/ox+6YZdf5845b2jS1nvAO2Ig1DrrrJnEaSHjBn/y72/6sZa3j7o/OTe19yEcYym5XtNmaSyiESAa0DMgwAgzwl3SvK3fVywxioG0m71mVUhoyae0IPJZEvJOipUWKO/Zpe2S8kzJqbJE3mjrfT3tdTd28st+kAEmqDUhY4HyjuVbQMTSRRXvJpkCkt2QfFg9MkcFOzsBqILheouN0iqEvMTjYQvNx6N9lw+WdBYIsLQdD61gt4G0nA9oCkM65YMswunDhx/fQvtFQBHlx0S7fTlumpsxM6ktS9K2AoTq1/9Ut80Oh/iwZ78T3WWXjXAfvD/W74e0IpxIxrUhGtqMtLRa8xZtPNlEOCv0IQG4Zr64EGKEyke2WB7PKIiASlvS2bSF/QYd2ld2aADaeAyUZk4egTR5tOvyIUvTkK8AtLhSTCatZkvlKn1W8mfPrZC52pqBvgTx7MnF2NPSYCJKFnScXigLXMdqPmm5LFiy2Qa8/cgWCIUEw6aBiAEsAZs0TfLRXImQ81FEMGICpqTyqBgs4QiWXIoltAAhl6C3bpP+09wSi4DzKl9sj1XaxvmQTxvavGJQiHSK58xr5WMBWbOd5wTS5NGxjlyiDRk0zgwPBWZwMIAhDOxjMWLIsbhcE9HvxyJLmmOn72fB9w29nK1aVGxbjYdWrTWNZ09G49HGywIEkcYjzc2LMS+tprNgW9cB0mb5NB0Q+UKNp48sIBRyBkAAIDJYMoqABDSVNKHIKCIS2zT7OAZIq+k+EuJYyIIlTRahbCzPcgw6LobwGazpGTNHLWwFYtO8u8rUQo6Pls1neyLoW0uAbT8eaXk4FydyydIOr77xmXv59U/c8y9/4J567j1338N/dw89/oIbNfrtSjH7PvroY68trcabW9qikmzaSj40Oa01Z/sLrc9DMsZ1aqTxLKTxspwrFFqo8eyM3SzCWeg8wW5T80A4PI6CrZEgROimBiHhLCQM1llg2y4KIiMBEoVkDAPPov0cq+sgrDGBBZY0CtouBEsype35VhNakGePi8E+b+zZ8xFQ760KLiQf5QPJ0Hg4V6zgo+HyAW3TfbkS16VDQ9dt2RLXvl1b13uVNVyPFVZ0a67WyXXq2NX1Xqmt32Yfy2ZwP4EZ6C1KKv96IJXhys8oIL9q42ldVWB9HtXVeDXqx2MNEP7DDaE0DrEYTQfsy4YvbjVdCPaJcIU0HAg/PEIReuiqCjkWdA1dL7xuKKBZgl6XCAmo7VgcQz7tRxwiLIuFyTF8g7D7oWfPdm73HbfM9eMhbzhVaNtZrad+PGaAIJs4s4RC/gdGlehPT1xf3Qn625JVErYCALS/Yx3oduRKTebj1UjjAdQxD1gI+dp24UvHAOGySBcjHLAf2sKSQ5BwxeIwD6+jrkEeaRsr+P2JUCv8Ggjvq+3Y80Tzyt8DkA5NTpsGKhdiyCdTO6wA0XjpMojptyOmG4FRKpCNwFAx+vI0hA+FQNeCAvk2oOHstv29GtfH1GQ9T6GyksjWfFriBNRZG89CXs183QloNZEqn7YTwpcLX5j2EohpOyHUdCAknz40MUIAASUUMViBCmMQ2xfLExBiQpYm+TVhn0nPaON80Dvm03qCyAdC05M2njSFgCDTb0cfnu3HEzkLoVAby69A1mhmpmxmKQB+fS2Eq4xJ7qraxqvRIGlMTf/b38bpojCobsiXZWLGSMcDK18mJhDxbB4INR3Pl6XxqG0xdVTrxhAKUpjOgiVVsUL73wD7HpaQxSIfEYGIiNWwdZ/1fJtMPw0FquRZX3PxtGV9WhYXMftjcQx2H7L8r48muL8/9w83/edJ3lITrMkJkEmZmoxBXqF7p6U/VjPftKCwjSfS8VIiX9ius0RTDLwpWe5IsdpOxCtGywHVqNS2lnRqc1ioxi5EMsES7P8L0YQswimOQWVnyRZuA5ENqK0H+B4d2yxwk39KF0PG1c/IEsVZYKA1A64By/XpBzpKEzNDhZkqgvJnzPpPrmkk8oVtPeSSxWxjbTyN1WQeJ8SutTVXhCyNx9LY48d/5559/lU/VhOySeMBq+3Cdp0lWkg6IYt0VXGm6OPmMy1D0uUjYCiQvyX0WqGVG/9dhYDVNooloRAjYwxUigtK5/vpZGVl872AZwHPovdwJ/IgjzYEAciR0iG0lAMzyj2ZmjZLLLRUJqQcssiHxkOmeV+N1ezRY3nXqWOHutV4xDyA9WpqOQQRz2q8kHgiHbUGaUs0YLdp14WaDlDQmkoSmpghbC0q7Zal5UA+ogErbMCmaxsheaq6bVEXRLSky0c+S7os8lntJ8QcYHJaCKp4icMObnU3haQUwm3rDMwyOfVTSiZGS+Ox+FXLls1d167dkjj9TVh15+PFW5kJwoeVN4e4WbPKwgyJIJwfuZGQTKQj3/6PW0EjASBc6Exp2TwdsEpHNAW9YFHlPjJLOsimAMFEsjAWwSzRYqQTsayQCTZdHUAIC7sdEqWq2xZZ+8L749woFlnlEpZJWM7ECoK+kwKwfaYEYL83QRUvsQYzICcEZAj5kTzxXMgiAXljmJ+VP2SSkCqEitXJ0YZYcGmTiVBBj5YJyQA/Jo2B4xdXwatZsI2HucnUIJbY5r8CrJbM31Cfefa13Hw0agdezhdERGsBFVwICjXmINEHAHygmPbKgv3QoJB2i4GxhD9PS59daQke2xryhAAXSv8ayLp/mJ/v+Xln++7MKFjouuXKwJZJdRDTkIrzoVitKYTaE2RpUE0PY0A8yz4AlgJZf73Vknbdsn4lOpaF5+9PmJjILRoP4hVrZoK8bbw0TonHfDPmo8ncnJ609SAfnZHMWeK/cdJ0McjkLAS7pHY+6Lhw9WoQnl/omvmuYe9jY4vY+YCPIctB54bQMcRCuB1C+wsdJ+gZQOw+dr99Nz1v+P5ZeSHCY2wM7HnKA+H1wvNAuA1iedUFv/RiTh4r0fFvQkjHDy71FyJNiiYAlWu123hgcbnK5INYBwvkQ+sxQxsnC+SbMT2pJZN8YMez1aMe/63Q8DDMy7btWiVxEpK2Hd5MaTvac9Vt34FMjQdiWo88kY9/ftOhyP75yX4LW5uGMcjaV91YCLdB7Ngwr6b7qhvba+ZLC7V9bCxd0/Oqco4Qnhs7tqpxvnPtPqUtGG8LIBztOsgI6XCq0I0QMzNRWDXWeLoQDyatxygWSz4AAYEmNTIQtR71+G+FdZ6kQ9pwztBfl/7rMCQdIL8qpAOZGk/mJgjJB/EYEUBsh9BkjSAIYUcU1AbC69nt2L2y7p/vufLtqy6qcj+7nW8fKLQdotB+i9ixVb1+oW2h0HULoSrXjT0TwIsvM5I8temq27YT8pqaIfkAbT0gAoKaFE496vFbhcgHRDSr6UBV23ZCQeJZk1NA+wHrpi00RaMe9fhvQjgBPCSc2nWgqmYmyEs8QZoP8tkGqQgo8GBhXj3q8d8MSzZBbTpQVcIJRRPPshuIhErXox7/n2AVjNLSctXRcCGKIp4QslzbvybCCqCYNDUW7dMw1jEh7Pm1ifBZKE+bFz6/fY6qpmsL4TXZDt/Bwu4v5hnD7Zogdq1C1xexlA7BvpqSDlSJeIJ9MPsgShcTg2KPzReHsPnFHBPCXh+E16qNGJC20H6LWJ5F1v4w394zlhZi+8M8QfssYudaxPKEcJ+2Y9csNgbF5BUTA9K1A+f+D17cZIOy/c/jAAAAAElFTkSuQmCC;" vertex="1" parent="1">
          <mxGeometry x="42" y="111" width="105.71" height="80" as="geometry" />
        </mxCell>
        <mxCell id="-4wKffS4rpttlF0J5WD3-4" value="" style="shape=image;verticalLabelPosition=bottom;labelBackgroundColor=default;verticalAlign=top;aspect=fixed;imageAspect=0;image=data:image/png,iVBORw0KGgoAAAANSUhEUgAAAN4AAACoCAYAAACPHFBrAAAAAXNSR0IArs4c6QAAAARnQU1BAACxjwv8YQUAAAAJcEhZcwAADsMAAA7DAcdvqGQAAGpOSURBVHhe7Z0HmFbF9cZH6tI7KIiADbvGXoKKLfaKETv23ms0RBRRsGBBxRIVO7ZYsMVeYoktGisqoiIogvSysEj+9zd332/PDnO/79uG5p99n2eemTu3zz3vnDNnyl3mPwlcPepRj6WKBuVxPepRj6WIeuLVox6/AuqJV496/Ar4zbTxFi+ub2rWo3bRoMEy5anfHn4VjQfJwgBUUPVxfVwbcUzGfitYqhrPvjyF81srjHr8/4WVNxHz10TDQQnK03UKXpoXFs2Jf/llURIvrhQWLlzolknKpT6uj2sSW5lq0KBBEqeEI1ZYhgN/JSwVjRdqNggnlJWl6UWLynxcj3rUFI0aNfbyRNy4caPy3BQNGzb6TWi/OidejHSWbIsWVZAQlJXVE7Ae1Ufjxo29DBGDRo1S4lkS/hbIV6fEs6STloN0IpxIhnkQI9yCBQtd06ZN6tP16aLTgojXpEkTn4aAkA9AQMgHRMClTb46I55ehjhGurlz53qyUWgQDyjmONVO9en6dFYahNsChCNASIgnApaUNMsdL/KB/xfEs5oOyLwsLZ2fxGWeYHPmzPXx3LnzkrgsOSYlHUQshKzCrs9P8b+Qn3UMgGwNG0K81Lxs2bKlz2vRokWynWq/Zs2a+WN/LfLVGfF4CZmPFBKabv78+Z5s06ZNLyfdfDdv3hw3a/bsnFZcULrAx/WoR3XRtKSpJ1SzRLu1bNk8IVmLhHTNvdZr376dJx+aD5SUlPhYWFrkq3XiWW0nTRcj3ZQpU/y+77+f5OYkZicknFPPuXrUEC2bOi9HXdonpEs0XIeO7VzrVq1c27btPPlatWqZ03wyO217b2mhVomX1a7DxKRNh3k5ffqMhIRz3ZSpP7ufp0534yZMdXPmtXLLtpvtmrXq6s9p0rihW1j2i083bzLPzVvY3KdDxPaFeYW2Qf11/vuvYzFl6qTylHMrde/o2rZr5dolxAvJh7kpb+fSNjlrnXhC2K5D082Zk5iVs2Z60s1LiPjxF2kBUTstbtDOEy4EBFR+o2Vmu0X/aeXTwO4TwrxC26D+Ov+91wllQpj4w4Ty1JLka9eubWKCYn62WKK9J8VR1+SrtbGaWSYmpEPbqU03Z05SWyXb33w7yS2cN8ubBiIdBQpsrAImrQLW/vADAXs8yNoG9df5774O26FMKO62XHcfI2OTf5rqZkyf7X0JWFsoAKwvZDPt1qroS7ZyXJeoNY0XEo82nboNZGLOmDHdTU/C99//6CZ8P9k1ad7aderY1TVvXuIWlTti6lGP2gIklNmJVdUpae916NDRO1w6duyUaXIuDa1XKxpPDwnhKrQdcZknHTUMNQ2km5q06yZPm+9ml7bzpKP2qiddPWobjei7S2QLi8prvUTmpiSyN2fubN9lRTeW+pCRVawzgPwuDa1XY40XajqZmGg8tN3s2XMSbTfTzZw5w/3881RvYk6bPquStqsOICuFG6ZBvu1i0qAq2/XXWTrXKRb2nHnzSr3Wg3zt27V2XTqn7b1lu3RxrVu38X18tothaTlaakXjSdsJ1CDUJKpZ6KujpvE1zoLERs8gHQUmKJ0V24+hdLgv37GgOtco9pr116n96yivUGzPQca8ZZXIHBU+XVf0FeNrwNGX+h7U3sMnkVptQl1pvxoRTw+lmIeWF9OamDRqMTFp1wGZmCFsgSmdFQMVtGD3gaxjw/Psdr5rgGKvWX+d2r+O8grFIZA1ZA4gg7MT0mF9xUxOQeT7zWm8LBMTxLyYP/88w+8D1EJZhVQVVOUa9tjwvOo+S75rVgX118mPmpwLOB/yofUAsjh//sKolzNVHJU1Xl1ovRppvLA2kBczZmLadl2jchtasWC3w2OKjUGxxxaKQSxdKAZVSWfFoCrprBhUJZ0Vg6qks2JQKF3dWLDbpGm/IXs49WRyohBQDCgImZwgNDmR89omX7WIx0PwMNQQ0nYyMVMzs7KJyYtNndnUv7jadRTGouRcYgW7HR4Tg91vzw3zLIrJj10rtt8i69h86fC8cLvYdHheuF1sOjwv3C42HZ4XbudLx2CPsbD59hrhNmAb2Vtj5XT6EDKJyYliQEHI5IR81uQEdaHxquzVtA9hTUwedsaMGXm9mD1WWDFXEPWox9IGo1TmzJntxo6b4Zq4id7L2aFDW9elS6dEKXTwXs4OHdp7D2ebNm1yfXuAPCmc2kCVNV7sxlkmJjUKpFvouuVIVzEjOKi9gu18yHduVlrIdy4o5lq1lc7C//J1hHz7q3q8gJxicvZeqa3fRjZLSxdUMjlRHCAdAFLhEJLCqS3tVyWNl6Xt1Gf388/TcmMxNQCa/pNuK6zm1XxJ0xL/8hSMYiHczod852alhXzngmKuVVvpLPwvX0fIt7+qx4dg/7jxX/g08rnKyiu4jh3bRcdyqm8P1KbWK1rjhaQDlnTUFBBRXkzGx/FSmJgh6UC+gmQ7X2wLGLCdlRbynQuKuVZN0oBtpYH2h/H/8nUU57t2uA3yHR/GTUpKvAUm4OWkb896OeWvkKMF1KbWq5KpaZmusZhAJiZjMWNezOYtWvrjeOEYwnxtZ8WC3c5KC/nOBcVcqyZpkLUdxiArDbK2wxhkpUHWdhiDrDTI2g5jkJUGhY4H1d228eJEbpFJ6+VEZmVyQjQUCQrFmpy16eUsiniW6TIxATWCJrbKi0nNYb2YrVulpGuQ1EK8MDFBebH8Qoidp7SF9llkHRO7Vk3SFrHj8sEea6Fz/79fJ+sYi2K2CeE17bWRzZiXEwWCTKtjHUBAYaloPHuT0MTkoQh4MWViyou5as+m3sRUTWNfHNi0YAtFsIUVXkOw58WOs3nhto4Rappvr22R77gwtgj3W8SOF8Lr/TdcJ98xVd0mDvMsyEM2S1ou551/yKw1OTWcDOUi0qFw4AChplqvKOeKbsAN9RAzZ0K21B5mGQfNPPjyq++8+l5nzUTbJQ3VetTjtwwIOG36DDfxu8/9dvfluySWWjp9qE2btKuBhZLatm3r2461tUhSXo0H4SzpZGJCPnWUUzOQz0TDbyelw8J6LPeLa9++s0/Xox6/ZTRp0sx17NQxN5xMJuf80nQhLmRcHetAHBCq6+Esqo1nTUwcKqhg68Wko5whOPJidum6qlu0uMw1atA4F0CYDuNi92WlwzjfPsV1kc6Ki91Xlf02rTiWp7iYtOJYXhhnpRXH8sK4mGOqGlf1GLycyK5MTppNyHdocsrLKU5Y5VQVZJqa9mLSdnbRopiJCeiz69Z1+eScdAp+PeoWquBqitq6zn8T7DuTnjpl6hIm57LLLpt3nZbq9u0V1HhW28F6QA1gTUxqiCnTlvGkQ23XY+mhtsjyv0Y6YN+5aeMS7+VEhmfOmuVNTmYwoFjCGQwA2QdSUFXVelHihRfhJuqz4+YaUIrrFRMT9dyp/X+8F5MXkLZr2HDJOXdCdfdloSrXq871i4G9btY9ijlGyLdf+8LYotD1QVWvU5VrWoR51TmmmGuEsMfE0oqR2ebNW3kZbtCkh5fprEmzcMH27VWnnRc1NUU8aTtsW4JGqEydOsUPC5s8eUolLyYOlWIKox71+K1iQVlpJZPTDifr1KlTbqmImq7JWdDUlEoFGqFCDCkxMQFezE6dlvOkKyn53zNZshC2c+12oTZwvv3aF8YWha4PirnO/xqw2KyXExmnOQUPMD/RegSr9YSqaL4lNJ41M0OnCqNUIN53E77zg6DfeucD16z16n60t7oPbIMVIvIx82lBiFpaWpYjrE1XFy1aNE2eM10PXul8MbDpetQuYuVclbimkEzZuBAmTvp+Ca2nBZKYOqRlAavrZIkSj5OJIV7MzPxx8mQ3dux4bwdjZnZo/4tfhr1l86TNV74c+4/TW7leK7RKTNJ0XUOGj82fPSm3TLtNF4twnRam9LMeR6GlAezEyCzgqVI7VrCDbfMha3RE4waLXdniBtE4H/7jmrplXCpwNg20HcZ2n03HjrOwzxN71izofW1cVVDesXIXwm/GdohwLRfW0kROtLBtVTD+u9k5mUVe2Z4/6zPXq8fyrmePrpU8nDFzs9Y0XmlpqY9nz8bLk077oQvhxx9/dO9/8Lmb/NP0pNDb+87GX5LCa2gEj+3Fi39xjZukNR3bgDzQoEFKIm0LyhfsNasDCgaTIBZXBdU5J0Tj5F3KknLIF4Os9H8rlmnYxP2n/Dds+VDMceEx2s6K7TEWlGuIJk2b585duGCe3268zBTXpnVrr/V69ljBt/Ni04bUzquRxhMgHgKHxtO/DyZN+sH/4eezsV8nNcIc17ykLNFyDdzi8vYBRArJE8urLTRIzFjdW+kwDhHLt+eA8DohsvJD8N5h5QKy8oH2hbFg86sLKjRVlrG40DHApi1ix/4aUCVr02HFG1ao4b6mjeYn5GroNlx/rdxMdVahRuOFxKuKxlvCltDJmJmaACjQ3lMefR2Qbl5p4yUEA7CtvJoISCGIQJYkYRwGHR/LE2J5wN5PUF4IS5AwaH8saF8Yx/ZXByIFCEmiWISxedoGNo+0jcNjqwMJf3ViBZFI+0JoP7EQHotSAcxULwSrtAphCeIVOtl6OUOIaJaEImChUFNI+GNxVYLOEbL258vT9qKy1Lzh/UiH7xwGHWtjYNO1gZAgIXGIbRBsHueGacUW2rb54TExiAzViRWytkOyCeGxoEnD2T4uKWnqlZGgjnQdy74aaTygC0CyrIavQGEXKxixWlp5XEMh3A7zbVxbkAYLiRSDfabYc9jzwuvErmnLIIwJ7Fc6DIJNF4tiCCDYYy3BQtIpVrDHApsGWfuUDuPaAGSRZhNxFFuNh5m56D/p+ixZGk/HY2rWSONZYFYW8uxRIAgGjFfw+ZEY4dA2iOWBLCFSvo2LDTo+C1Y7KQ7PVeB5bSgrW5AL9jgb/DXKSScyKuTubfYr9oFrlOeFqHT9JK6JZi0WVSFI7FhA2p5DsKRVvuKQ0MovJo5hQWnFxFYLq+0WLGrmGi1TsRCzQD+eUKsaT5BZaW8UggLh48mrQ8xDgFis/TYdnmPTNgZZ6UKwghYL2mdjAUJxLwXB5tmwcGHpEnn2XgoWEAuta0kXQ7jfxoRi2p7+/hxf/gz2mYoNOk+I5VUVMaIgXyDcV4hc5GeRVfsEu8/GYOEvrcpTFeBf6gBzs840HtCNBPWnUCMICJeNs6D9WQQl36ZtbNMWdjvfvkLg2FgQbF5Z2fykoMuWCOTbYwW7rVhCnAtZRCnPLxSLuAoxIisO9yltQV5W80AE07MrHZrFNYUlQT6EpBHplAZs27SCtmNQG88CRUSHOaHONF6sjadOTWxggmAFrRCyjrX5SivOIqtigiWphfLsvlieEO4jiFxNmpS4gw46wD352K3utZce9GHPPXdzZckH+eWXxV5DVoT5la6BNgyvL9RUWEPyWGIptuRUHghJSyDPm67lxyiO5QFIJ7MZsI/3Kcb8DUNNYYmUlbZazxJSQLazNB7ark41Hm280NSUxqMrQVpPAmQFSkH5QiwPhNshCu0H+e5D4Qixa5GnACq0WEoiSEW47eYL3TFH7OVat07H81Hgm220qj+vLCEWYf31Vnb77LOHW3ftFZP2BNNJKhrn4X1sGsQEUUH7LcLtfLBEsahEoIRwwOYprVhEtYSFYHY7PAYoBjYdohiyAsXVQRYhBWQ7S+MBNJ7A96uKxsscMpYyOh0Iqg50fqfMyBU60BmnWVqavjR9HfPmzvJpIWYSFkK+c7TPxiArXSxi94NsEMxisTluh+02drvt+gdf8/ERGFRwzfUPug7tS9wuu+zidt+ljx9aJDz06Ctu+JVX+XSD8udr2LCBv0fjxhXjQ8Nnr+q7FAuZgzEz8reAGGGFRo2bVCK4PSbMC2Oda2OVgy0P0s2at/SyX7ZwgevYfhm31hqruOWXX9aP19RvnO06LPpWxZIvL/HA7NmMzE6X8RPxvvn2O/fu+x+7aTMaeBXNw4XEqwl4CRHCpi2Un3VsuN/uiyEkm4jWo9fqfq6hwLKFHdssyMVg4023c337rOa6d09/eA+mTZvmxo37OkfOU8641GvC5i3auLXX7O7Pn/jdZ/6ehcgXvgew6bqCFci6JKolTwwhgWJ5WXGMbDa2x1toqOMyv0x1rdu0rkQ8DZQOF0CyGrAQCmo8/QUoS+OhjhfMn5ek53rhBQ0aMFK7zMdLGxLQYqBntGZgSUkLt99+e7k9d93cdUkKWVC5WMTyhKeeetrdfucjbuzYr/y2SHL9tRe5zTff1KdfeOEFN2TYHUmlNTP58Aw7apArsxip7LvF3lN5sRjYdHVx96hLXadOnf178/5AaZXFvHn8g2CWe+X1z9ytt97j87JwxBEHug3XW8FXWlZwJ0+e7H78cbK7/taX3bfjPirPrYw7b7s49yx++97n3D33PODTIS4edIzbYIMNcs+6025H+/wYYQHEo/02f96cTI3HkLFWrVonz131sZrV6scLR4n7hy4nHQgFOoyBPb42EQpjFrg/2sY+U6tW7d0dtw5xRx22ZyXSgViB5ivknXfeyT04+mZ3/703uGOOPc5tsfnvXNOmzdzIm+9wEyZM8Mdsu+227pCD9/FpNKx9nth72DylLZFErFgcpgk6x8YgXxrtrfcmtmmhefNmvvz+uPfW7r67hrm27Tok5V25bUYe+zhmxRVXXEJbcP66667jbr72ZHfyyYfnzsuHPXfdxLXruFz5Vjb8c5cTDLIpFvkIkK6hi1txtdHGq1Y/Xtb0GgQHwkmAMKFisY4FbCtoOxaLqGFcDMJzuKbuDxB6wmGHbO9rXhUgmh7N9ZcLhrgTTz7HHTzgOHfNtdf7PExJ1fiKBbu9+uqruROO2dddd+0w99brj7kL/3KWe+Hl992oux5zL7/8mpv8w7jkPunEYpm3emfyrODHEO7XdhgDpUXW2LGELLKSDruWCqF9+/Zu0PkDyrdSQKKR157t9xWDnbbf1B1wwB/9eTYAK+w4u844cffyrSVhjxXhLGwe7bss54otA3UnUDahHORDwTae5uPF2njW1Jw3b0bycSo7JICcCIoFkVDmlYRNyCJtGNtjbTqMw/sDCTpAsE444Wi35mrd3E/Tytw/33jRPfv824nJNMMt331V17lTI/fdhJlu6pSJSRkl2nLRooRUq7gmTRmh3jA3dURz/8Dmm22S3HuRW2+9dZNjKtb0517k//jjD+7Bhx51jz3xemLSzE7KgUHQSbs5uUZoegKRgBgoHcurK2AR2LZssTj93CHug/fH+mc78IA93ICD9yjf47wFcPf9z7vnnn3J71973ZVcv923zZnkYNasWW6f/U4t30qBd7lbt+W9vArI7QlnjHTjv/zAb6t9eslFx+dMTfCHXY7ycRaaNmueMzVbNl/sNlx/taXbxoPRWjU6q42Hc2XmjCnlV0hhyWCRlQ9Csgh22xKIfGkx8sLzFYekE+EQ0vYdurpVVkpr3jff+rf/SOQzc/6Qg/Zwu++2s9daFh9++G83ceJEN358uqQhZSFQJhCR+OuvJ7gZMya7hg0auZJmLd2WfTZyv99iA9d3661824CypZ+UH3qOeeJpd+fdT/hrNE4a/vJ+At4jHyz5bJy1D9h0VXDfXZdXMsO32eGQ8lSKTp27un323tHttdsWyXNXCOIDf3vZ3XjjbT49bMjJbqONNvRp5G27HQ/1aYHngjBXX3FGpbLffqfDKz037c2wSQC+/vprd8wJF5dvpYB49p5/2OUIn85Cqzbt/feJOVdqo41XI42HV7NpSTM3d/bMRDNM88dXBzFtFIOIBOw5SodxCEu4FVde2x135C5u6637+HfG5X/x4Iv8/l49l3MXDTrHrbHG6sm10gL95pvxlRwAKidiIVbolOM777znl8v49tvvvXab/ON4t9OO27tDD97XrbTSirmyfu+9990FF12XXBOTvUHSwE+1pK1IagLehXcXwm2gPL13mL571LBKGi8knnDxoOMraax33nnXnXP+tT4d7vvss8/doCGj3JSf0tUKBPssek6bzqd9r7/pQffww2Nyz37hwKPdpptukvtGkDgfmrVo5eNYd4LVeOH/84pFtUauCMzHo1aoaKhWtFOsGVcIWaSDQBYiHbDnKG3j8Fz7PJtsvJa7+/bBnnRgypSf3IgR1/v0EYft4+67569ulVVW8dsChdrvjwPc6mtt7tt6J596rrv++pvcyJE3J4R5z4c33njL17YWnIeQ9d/vj+6cs093b7z6sHvisXv9gqmnnz3MHXP8ue6ll1/xx26wwfqu//77+feEfCpP+941gRVeoG0Q5hETJOhKx9p49hyhRYvm5akU8heA6bMrt4V69+7tv8dVl5/pVl4t1Uogdl2ls55FOHj/P+SeHUAOkU6VJfvCeygGmJq08bBeLJZaGy80NWNtvJkzfvLHYyIhLIpjsMcIdjvcV1PoOSjUtu26uKcevylXO+HgOPf8K3x6yEWYQBv5tIYCWTOC8x/+2yPuH6+/5z786Gs3+Ydv0/zFld/zl+RjNEzOX3/9DV2Xzu3c6r1XdGuuuUayvW5utIuA2XrLrfd4M/eP/bZ3a6+1ujvr3KHJx22afIe0zSfNB6hQaPdhYtv239JCqPG22vaA8lQqfOut39tt23cbt8M2G/ptCbs1NTFHIVqoISR7tPnefGdc7vgshBoPzWlN0yf//qa78sqRPh1qWZmtWWjZup2XgV8W/FDJ1GSZv27dunlTs87beKGpadt4v7jW3tQU8fIhHxljsMcrbeN8CO+jQsaBsvcefRPT5x036q6H3Pvvf5oQYg3vbcRmBxTg5Mk/+fcV5CCRIAkqL4AD4OOPP/VkZSm4Tz751P8Zd3xiYn7z7VQ34dvP3a677uy23/b3rm/frTwJVUuOHTvWXT/ydvcsDobkY0IqVmfDvKTNB8J3tqZ3LB2LRdiQuMUS+YF7r4q2q4DeBYTltHf/M93PUypMSb4DXQn5IDP9imsf8udKgym2z8K9zzzvEjds8NnJe6bvwfkHHTbQm7CF2pUhIB5jNRmVFTpXlkobr5iRK9J4KpTfEkQ4TLc0Ts2GhYntjlY5MjEt999/X/+OdJu8/sab7r7Rj7kvvhxfafwe77nTrrss4W2rCjBDcaI89MjLORLSzkMgVO7U2n+5cLj79NOx/hxpvpB8+chVlVgaNOsYYNNovNCTWAiY4H8amLbvLHbffUffZxpaASH4NsOvGuGe+vu75TkpYtr30sEn574PZUqFdsIpl3iNZ9t4WW1TyXCWxqutNt4SxBN4WTRebOSKNTWtxpOQC2ENFebVNXRP314qJ5zyevde2V10welJjdnZv99nn33hrrrmxiT+0u/vslyPpJDbeQ/lu+9+mJCyNGdCtm7d0a211ko5219eTMWr9+6RXL+XW2vNtXwnsCByAUhIV8Ktt4126663nvvzn07MHctxI667wd381weScmroyypGvhByKim2eUCEykoXE4fCXghUJMeemDqtsrTtYQP2c5ts2NutvPJKyT2WFF7Kg4W3Djp8YCWtGWpfiEdZPfrQdTky+7K8cbTbaL1elSpMayILVjYhHsC5kqXxrKkpeS62QqqRVxMhs208CXUI+0I6xqZBeIyNqwJ7TWk5oG4CCHfsUfu5zTbb3OdTsdx334PuupF3eA236557uBOP3t+PphBuu+12N2ToiPKt5B7lDeoYIKYIquMg1B/33cXttuuurmXLVj5PH4j2zHkDL0m0wj/d0Uce5B0wAs6bG266NymD1ORUHx+w5LPkslC+iCPYbZuOHa+04vvvubog8RhcQBfJI2P+4R5//Jmk7CsTLl/M9Krttl7P9erVcwlNGGrOUPuKTGjSM06p0GgMPxs3bnwl4qHxrKxYUMbW1LRezaXaxivGuTLt50nJuakbvDYhAuZD7BhrWopwJxx7sNtyy9/njmV90GGXX+eefua55KNs4s4755RKjXMcH38ZNMx9/MlnfrtFi7b+Olv32cCtttrKbtVVV11CCCHShAkTfTl9PvZL98TTb3qzUsC87Lf3rv45gIRm2GXDEw13t+9muOrKi/1H5Fvsd8Ax3uyU5sP8EflAobZubeORB2+opGX69N03Kc/KXuSs7TA/BkvEs88+ye3yh83K96Rle9CAc3IVQdjG67v9gT4Nbr/lYl95kg/QmAxlA+GxMbRp1ylnajJIorbbeHlLQbZrVYYJVQh8RRzmVQX5aiXF+UgHtvvDtu7eu67PCTvnvP76W27f/ie6V197xw2//EJ3x2035EiHecQQsT32OtC39SDDzSMvd//+14t+/OUJJxzjx1nGan7yaEvsttuuXnsxSfbF5x9zp516rOveYzX3xBNPuQGHH+/22ucg98wzz/gKDkE468zTvMZj/8033+bz+IgH7b9bkmZcafouvJt936o4q2oD4fBBSyoFuy1AJIBG0+RhwrnnVmh4IE3LOw8dOtxrT5FHkPblWbRPAq/zh199ky9b5duRQ5Yc3EcgbbfVVRDiVxurCdS+oVZAwC2pYkSzeTYor5jYgvGNgBe2x1WkU0238so93fCh5/tComCo+Wg/HX3sGa5xUqEwiBmSsA+TBMLttMu+3rt41hknJmR7xY+zhGgAQcDkYcymxm/u2/9oHxjTSf5bb/3Td7gjFISePXu5k0483r3ywgOehIcc3D9pN77jjj/xbN83CAF51pNOPM6T85oRt/ptsP7663kTGOAQQrB4R70/gHxhKJRv42KBwMcggkmbWcIpLUI8+ugYP3tB6LPZmq5dh3Qpf44VaQH5jOeUQKdWWMW4XhSC9qVlXUGUjz6Z4D2igGN0nKBr2OdT5QC0sgIz0Gm7W9RGP161NZ4extYKKQFTQhYLS5pCsQ2C3Z/G6TNIcDEL+WCMnIAUfbbe211/wx3eecLSDXTe8lEee2yM23rbvbzGwRx87ZUxXrNBWEwcTEE6zzfdfEd31bW3+d+TMTZzl536urPPONqddvLhbsdEs2604QbunXff897LQxPNRkf7mDFPJKb6bP9MaMRBF5yXXP8Z1yfRwJizIuDjY8a4fnttnRBsvhcaPiTH86y2NrbvqPcMIVKFpmiMfLG8WMxM+nywhMsCx3z7bdr/CWjH3XL9ee6Iww9y3bp28Ps7dl7eb5Nv8e4H6RA9wSoESyyRc+jw+3wXTwzSmiH0DjShQKwDPaaI+A4hufOhYBsvaz7ey6+ltQlezdkzpyVtvB+8MGhQajHQscQ1hb1nKIxdlu3ptuu7llut9yrurHMG+w5vTMe+fbfx++n/uf+eO9yGG27kh4rJu0jn+q2j7k3IMdYduP+ubpu+W+b6goqBakCId9uo0QmJlndHHXGgH4oGqCXRjsMuH+EJCFq0bJ+U+Wx3/rknuQEDBvhvgWZFA4PGTfCgVXg61aZmuy4hAofOlU23SAc7s18EVTqr/QnB7rjtmlybqxAoxxkzprtd96wY2AxxQg/r5lvuk5RDhcYERx91SKUB2QLHAh1vzyPduk1nPxzyV2vj4bUJGc7o+1DjqQYulnRAxxLHgvbFYhDLE+loE7Vp28Gdd+6x7rmnb/Ptre9/TBcaos2GV5Nj0Uh/e2C0J93tt45wa6+9tq9oMBsZQdJvr519247zGd1eCAiJAh+BsMceu7nHHrnHHdB/L3fFVSO9dnvuuee92bvRRhu4hx4Y5f7y57StM3fONO8N/fiLSeXl+R93zlknuvYd0nlmaD3eTWUtTc92xbtXjmsDEEnEshC57D6ldU4YJk762Q0dFm+/xTBx4vduwNEX+nOFmLYClnTg5lvu9BZLFnR8eB79tqB0YeWhb2CptfFipmaofkFt17ohsWwc5oEKgfsl0Sq93YvP3uvHSAJMjtGjH/BmHFoHDL74Mu/RbJJokZtvHO5YJwWTEGKAN1571Lf/BAqW9h1ufrXtfrfhDm6lVdfPtfMwL0eNGpVr4wHFuLPvGjXSa1UGQx96+Cnes0o5H3zwQe6G6y5LatpO/tjn//6C38c78Xuo2/86zM9woL2XRT5QUQYVXTI2aJ9Nx+IYQg3Ge1kyFAvOYcrVzrsd5gen06cZmoS0t3FyMW9xvwNPdT/98E0lrVoV4LmuCiAhbTyUSkmTeXXSxqvRyJWp0yj4X3xXwpSfKtvfCDO1BoJCbN3EAiZTGlefsAiKBCzd/sV17NStkhnCRz340ON8t8CB++/jTj3lON/PtOPO/T0RcXbQ7mKUw7nnDXaHD+ifIxxlgQDcN/ph9+jjL7hZM6f4PjrGYdJR3qFDusQ34O+hY558xU2f9oOvkbt2W8X123tbd8D++y4x2oNnOu/PQ7wJecFfTnV77bmXz6f9c/TxA30XxEYbb+ZuumFoYs608vsg4t77HuuYgoXJCTSyRahud47K0JZlDOG30jnVRU3Ot9o2JKW2l6gsInkW2k87EzAtKDQ162Q+npCvjSfizZo5y035udR9O/6jRNgml59ZGM1btHLz5s72sUXTpqlax35HuJnHJtKqXRODFRSId8apA9zhhx/mvWePPPqIu/rae5Ln/8GbmJht1FiDhwz3jhSAkwMNTs12xbBBub4hkeORRx7x29tsu603PbfffrtKfUKWULQLDzz4CP8O1hzaa6+9vKbFlOV4nTf6/gfcuX8a7B06aEJIRmV3yunnu9de/Yd/tuuvHea9x5j+OF0GHH6yv6bae4CyEQEhH1rQxr8F8IyW3LE4RFZ+bcMSV8Qr1I9nh4zpGa0s5EONRq78NGWRH7Ey4bvPqkS8msCSNSSqgOPk47E/ufvuGZ087wTXvv1y7s9/OtZtuunG3j5//PGn3CVDr8yRg/adtJwKDvNnvwNO8pp82eVWdEOHnJmbRpQFiHrFlSPcnXeNdu2Se9KVAd55+80cCY84/FCvcbX8H/dDo+6x1yGOGe3XXTvUtWnTxu9DS+N0gZSXXHx+jnw3jLzZe2ZjlVLMUSUCCjFi1oSoIk5Wuir7BbsPxNJhXJvo0Gn53FzT1q2WyRHPjlyxzhVQI41niYfGw4bNGrmCxpv80xz31ZfveQ32W4HVqP37H+hOP/UYX0j81faCiy53L77wguvcpafbbZet3P7993E9evTwhaeP99JLL7oTTxmYvN9Ur+Vuu+XaSoVK++P55BpTp0732y++9IaP5ZkE9959S26IEpoXZ8rFl97oJk380o+AuXzYQLfzzjvmBOerr8Z58tF1cO+dwxNTpmOi+Wa5Xfc43JMfc/jMM07y5OOb9N1uPzd71s+VyAf0DrXhKRZExGLImpUuBiqLQtBxYWz32bSNi4WIV0jj/SpjNX+cvCAR5plVNjXrCiIcaNe+i7vlpmvc73+/RSKoi/wal4ccdrJf2wQP4i677OzJZG10TDyGiGFaLlgwz5OWznNAedx1193usTHPe4JZMzI0K9nGRAwJC+6591534UVXJ+U2w2u/c885PTkmJf1HH33k+h94rFt1lV45zTd16lS3zx+P9e3GoZcmZN1pR0++0aNHu6GXpXPNssxxyIfzpTZJaCHS2XRVYiHcrg5ELqHQdgi7n3Q+4tXJ7ISqaDxMTZZ8+OC958vPXrqwms1q3M5dVnAP3n+7W3PNNf3zj3niCXfKqWdX0n4AwiHEL7/8snvrn++7W2+7I1eBbL/Drt7NT2Gi4ehcR/N07baqXzuF8ZZNmlQU9Pz5c927732YlMvn7o3XX/Z5mLCnnXLsEiYq1zv62NP96BU06jXDhyQ1aGpC04bbfc9+bqedd/P5VAzjx3/jCdmmTSf32N9u9s8NIbfZbo+cE8tqPYDwVBUhUeuStCFESJuOxSCWVx1kkZO483JpMyHmXPmf1Xgh0YDy0HRPPfFQrpP6tDP+nGiHe9xlQwd7LQcg06OPPua11+uvv7LEtXr0WtO9/uoTueXnWHj288+/cjvttH2lWQtZoAzpGL939CNee+LdHHDw7u7gg/evNOKebokLLhzs+m6zs/deqvZk7tm1I250J590rDvqyAH+41J5nH3OIHf2Wae4/vv18x97h50O9m1YnFDAOluAhEHCVFewhA1jYWmQOEbUfCTNl9d52Z5RjVdbbby81UWq8eLqGS9g85IF3hOEWbY0ALmAtBwI8yAdnkMKQaR7+slHXb9++3hhpQI57IiT3Iknneqee/YJrwUfenC0vwZAWz779P05DQSJGKfJ8LFiSAeouBgozSyDt954wa/xgjNnq236eUeKwDUfeuA+73zhmdDOlPnpp53ktSXke+211/03YEoR2hGnCissk9e9e5fc1CO0nvr3BAhnSafaPYxrCkiVFSuIjGHQcTauLiBNViyCkVa+EDsuC02bVvThIWN8M0AZIyvFIu9dYDK1bWxsGq73eaVNvetV3sW6gCWYJVwI8o8/7ricu56xl7fdeqO79ZaR3uTEpHzooYfddjvs7gnXe/VN3Csvv+DbcLOStp2uwQgTOqzzAQ3I2E0CnebMYqBDnW3acJiSEmquhUfy+Wcfdyt07+T6bLWdn98nYIbeesvV3uzEIyry0cbr0HF5N3DQVb7PEaIxbYnhbox+wVG0cEE6dpI8O1veAoHgWSzZlGf3xYKOt3F1kUWqGPliQftsXBWEhLNkC2N7XL6RKwC5ApRPsWYmaDgoQXnaA8NzmWXoZ2IEPCMjFid5/0nMzVI/xGnevHluRtLmm/TDT27O3F/8wFnaPna0fG2C64p0gDXtyYvFo26/yZsAaJU9997PXTLk4kSj7ZsIWAP38N8edscdd5IrTdpiZ555trv7zhtyHeznD7zEfT3uC3fnHbf5xY44HqTvvjgpjwbu6aefcecNvNwdf/xx7s4773KvvPKKD19+8Yk/97NPP/LbY8Y86a65ZoR77/1PkyuUuVVX7e2vQ7/f9tttlVy7SaL9LvPl/Pst0rlmaNKSpCa98MJBflhat27LJcc3dxtvtI674847kvKemxy7iTdTO3dskxD3zuT8Zdy/PvgyKZeZXps0SJ6R2prnTb6g/2YV2ykgGtvKi+2zscim6xCTRzor6BhiYNM1gVpENi4m8O0gqo0Lgedt0ZL2W9JudtOTdyhLZKVrUv4tXcuWLb15iebTVCM0X1puKXeKQUGNl2VqAkzNutB40mqhdottSwt26ryC7/hmXN7e+x7uTUjNLnjqqWfcUUcd55bv3ttruYsuTKcJAcZkogEvuOACvwARGoc2LZUOeODBB916G2zr+u3b3z055n6fB+wzxgLX5J7bbN/fsbASoOP+qCMP8VqYSa9oSIFnxaFz/IlnJO/wvS/3tdZaw3s+MZc//vjj5JnKvMmMGXrDyJFu/NcfJnkLvLnJCBy0XpbmA0wryoJIFsYgzEPIsmJ7LEF5Cnaf0jaubcS0ZeGQVkgyI2njCQsWVCgYvkd1Nd4SzhVBXs2skSv/eOPDpCZe5J0rX3z+z5xGqikQWpEpNC3tdrgP4l13zWB3xFGn+tkF8khiFu63/6Fu9TU389OArHODUf+Yo2jAE44/0ueJkAj/MccPzPVR2udZeZUN3IYbrObXxgzxxpvveYeNBedBbBwlADORWeoHDzjez0JglA3ARF1/wz6u+wqre+8lz4KZifeSeXr070FeljHA82lhKz8NKLAjfwScL7QDbQzy5YXIyl8asORW2sZZKLQ/RNflV/nt9uOpA/3HH752P02uPFazqrCCbUll01kIj/nko/e89kOQN9lsOz/y47Khg3LDvDR2E60E6dBCAoI96o573OVXpNpI16Yb4dSTDvYaJ1wLxDaq+cCpln3a3XTL3f4eerYtttjKD8ZmP+WLFqOioOtD040475ABR3kvLEPT6Mu7fdRd7k9/Os9deuklbu+9dvfetD/sfLDXeBYxy0N9jCIjECGBSGlJVygGsby6gEhlYfOUjh0Hwv2x2EJ5Il6hfyfU2UrSIOZcwasp54rtPK4qYqQiD4FXGmg7BnuNgX/+U26s5ZnnDPLaDweKSEf773cbbl2JdKl2TwNjOC+88EJ/LPfE/MMrytQgNFNIOkBFpaDC5zddOGrGPP43ryEBmpD+O1Vqa621lnes0LFPJQE4jz68iy4e7vtOqfQOPmh/38Vx1dU3eo8m559xWsW6kBAuJB1Es6QDpfPneLOUznsGEhCYhkRgX1lirpaV6R/tqWkWi0U25QHlK9g8pasDiBDC5imtWERSHJ5vjxf5bFAeq6QDJsLKiSXUxuyEgm08YG8k4NXkAYE+bFVQLOGE2PEWnNd9hTXc8celPxzExGQCKyanAOnwav4wcZy7/LLL3IBD9/fCjd3+88/T3GlnDPSmp+6FhuF8O/kVguC5xIu5zu+28YNpFZgUiocTj6pAV8RrLz/ktR0Q+SAoAfINOKSfzxMuGXxe8lzT/YwIKj2INnTIn3zemCf+7k3VHRJtKEKH3TkinNLAEtDuFyAj7cRKZCyd7clINwXBQkSyBLSaL9yvWAFkxcCmqwLJpGLBboek1LZIR8zqYpCKpR/qoo1XI43XqkXVC6eqhCsWnDfkotO8MFMgmHBDh5zltwHm5X4HHO87+iEdneEqxEmTJnqto7ZZrxXXdW+/9ao75eQTcuczTAyyrbn2Bn4UDMvxMYLlrDNPzwX+jc66nEccdZxfJkIE5BoQ2JLv6mtG+vYB+wYceqA32SE0wNtK1wgjadBwlH+fPlv452IA9uzZiXZK3vHUk9N5hVkmpkXWdkhQoDy0oMgoQoqMIqQ0JIiRJUYqEObbOEzHtsP8fHGI0MkkAoYxpAo13lLrx8O7FtN4YPbcqtn2IpiNheoSTsA8w0wDrNLFjAJtgxNOPsd99cV7lUiHQH/xxZdJm+o43yXCM+2z7wF+Aqw6y9FwEG7b7Xd2Tz81xpPnheeecuO+eN+bsMxMVxj457PdF5+/7e4cdYtr2bKdJyBeUxCSD1LJ28m+EVcPdH8ZdEXO5MTZgya7464HPclENLQeP0hB6/G7L5xKFiHBBDt7wyJ2vPJi+0TGkJCWjNKOYVwTZJGoEOmIFbRttbRiQdt00cQ0HrCKqM40HrVyFqTxsj4qEKFCYtltabtCUM0exuDM047zMZpt+DU3ub+cf6zfBrjtH37wXt+m22abrXKk++zzz737XsPdrhtxtZ8hDhEAs80377OTJxxm7P333eHbbVqTJYTOg/CvvPiQrwxw+6vbgP1XXTnYPzekOvf8iu4EftfF2p7X3/BXv007FS1KVwJmMETbLjFbOXfEDffltPW22/Tx14rBezbLA207pe0+pYsFZJRGtOaqTFVmdEBGNCOrb0NGYEmYRcwwrgms2at0SDYbKwh0K8Q0HuW+VNp4+frxYhovi2iC8i3Zso4FlmQIWCxGi4gMjP7o1Kl7TtuhQfBQ4iRhChCAdN98860748w/+2swTOzxRx/KufUB3kVc9sw3pE/w7Tef9O01rsfIE9pyBNp23bqv6rUi+awjAnDm3HTDcP9sI2+8PdFu6br/aFLGYAK8ks8+VzHAfP8/7u41oa7B0DHe78WXXvXbgGFjE7771I0fP96TkR+gcEyIkEx2O5YmViiEmEYUIZWX5chRX6MlGZ7VWBwLQlZaKGQCVwVW41lTs1bbePZkaTyrWoVwHQpLKNJhrH1CPrKBmDDFAHGYxAooCNpARx+xp98GeDa57zFHHeS3RTo0HediEqLF7PLeOGGOOuYUv4/Obk0Not+PNt7Z5w707TS1CbkOWpH8tdfd1GtKngXy0X2AQPIvPAFC0V4D/CCFYwHjO1u36eiefuYZv42GZOY6q1FLSzMDnrKhq4K8tdde06/FUpuwJCyWjMASURAhATFa0ZJRWjEkI1BXh43Zl0U6e76O1XYsjkH70HQyNUONJ/B9ak3j2ZPzeTW12BGDpOkXEsFCslmCFUs2YmkzbYex9tPGYUIp4N91fFwWDgI4RCAE2m611Xr7PIT33PMvzZ3/9JMPVjIdmXnOyBdPgGQfK4RBjD5b9/MzDeiu+PqrT73zBW1Ge+6HieN9QGsyqgRNyYgXzsNkhDyfffKm97QCPthBB6QzJSCvugio5PbdZxf3zLOv+X2Alck4FwcQx7DALRNpGdtJvyrXYkmLLPg+uzyhWFSViFna0MYENKP1qBKkFWNmqoXdzjpGIF9ktATW8YoBGhLCydQMNZ5VRHXWxstnagJWY2aQrkhlSQesloshRiYbW9htnYegInwIJdoDIdc2k1rByScenpybFhbOChwp4MorLq70rwS8in222tFPRP3nG8/k9h1+1Ml+eYs7k/Yfnk768jAZWSNFSzgALdXHKBmm8KQriJX5X3EB/scn7LB9ujI17/HM31Nzkz67DdZfx3tMOQ+giWlfPvLYs7l32GGHvj5+7R9v+OP4rzqQsIsYxRArJGIYshASUSELejYb2yAiEiCiJaOISCgWMULF8kCYb/czSPpX6cfLMjUBzpWyZJ8+kCWdCJdPy8XIpnwbC+E259AXB1g6Ae2BhgCM2aSTHKHt1auXz0ND4KwAOD609B+gjUY3AW0oyKOOclafRmtCUi3jrr68ffc70mu3niuu6ZcEZB7dp59+5vpuuZ5/tnvve9CTiZ9aYrayeJHab5C6TdvOPv3xp18mgpZ+3E6dOvl2Je8jDDhkD/fCi6/57wDR9tpjB399Jt1CxnXXSTU2QhsDo1Q0UkVxsbAEzEfEiulJ+Qko6FntM1tSgpCIBJmnMTJWhZjFoKGLr0Id40Ott/FAVnfCjFn/8RoPhJouH+GAJZuNqwLOkdufZfnoUFZbjX/P8Qxnnp6OjwRMTBVoKwkiF2ak9WpiGg6++FLfp2bX52Q2OiuXHXF4f+95RMsC5s/R7YCDhGdj3CYWA+TDnEWImCArdO22kn9nht4Jyy6bkvHNN1kgKRXm3XbdyWvp6dNneqJRkXB95vEhBJg/jO+UwIaQQFryZYUsWPKFwecHZBMBs4gYkiz27LE8ytCap2lIiQhExjBon2DTFpWOca39upohxAe+j0zNWm/j5TM127Zexms8UIhoAGEhhFBebJ+Q9YFwZNBXhrazTpXRDzzjx1dutummXlittgNqFwLWw2RYGGakgBeSTng8msxmEFjuj8HY77z1ZK7/DucLWhJTlHsK/GlI5Fl3nTU8yVhiIpe3dlppcBzPCIkYh0k5vPTq234foHJBO06cNMEfA1isCSHEUQRWWSX98QfwXQc5QuQnlAVCZ48vdJ7+/a575UMWAUPwfXkvGys/BPtDIuqZgH0PvRtxmAaKQ2BqZvXjqYIGtdrGKwS6ExirWQwQplCj5SOaQIHHPoY+xL77HZLTMNapgsud/x0Iz/w9dWzonrbQIJYdFka3wJ57H+AHV8ujCfBqYsrK5IScEB8vKNcj/x+vPOpJAUpKWvqPhMbjD7Hc+8N/84/09N789IQ8FuAFEJLB6IB2nn3GtdZc3X3//Y8+DUn5Iy3gPxZ+e41V/DbIEnCcCjaEsESzQmuDhSWctF8YQoiA+Yiob2tjvrvSWbAklFlqJwlbcpHW+2SRj/YbGm+pt/EKdaDDciaNhh9EQKgk6IC0zEohZl6GBS+ygVgeYN6aBPXhv43x99h9twpzcvT9j5Wn8gNy0S1AW48ZDcDPZkjagBBFpixaFnJCfGaVY64C2oaDBp7k0z9N/sbHFgwNk8YDvH/7thUfEu8leQgQfYkCGnPC9+nwMdCrx/L+uMk/TfV5/JAlhL5LFtEsCW3IBxHQhnzIIqCQj4AWfGtC+N1jkExxLO1la5ZahEQTyGeF9Bio5GKoE42njx0Cloc/exBEMoLSyrew21kFGstXnuJ99t7Nxwg1JKPdRduHgqK9NG3apEr3otsgBKTDHKWtyOrN9MPhpNl2h/19O+yoIw/3x0EItCxdDvfcdatvA9548z05QuHyB/SvkUf5MZ2EZ2UKlSoIfvXFM/EXIZUxiyqpvOir0zXxdjJHEOhYjhv/bZrXs2cPH2cJsUZvhHEMVSEiKIaI+bQgEAGznh8SASsLMbkAKj+lAUPtuIa0YWiWCspT245uBYusDvRa92qCLOcKXk0tey3oRQFpbdt8i5BAYVwMWMVLfXGM04RkeP4EVhMTVBF8/vnY8pwUEAzS0ZZ6cHT683rydtn9UNd1ubZ+qJemFqWd1/N8W481U/gvHkOlIBQfgxkPPD8jaFRDEkt4NB4TInGcnVCLBrts2CDfR0hfHc8A8HaO/+YHnwZdOncsT6VgYiaQd9ECktE3FSOfgrZjCIlYiIx1QcJQHux2TFasvOmbi4zEfIuwbWiJKMLRjxdCFZ9tCtS6VzOfcwWvptp4MWLZF80CBUDBSSgVW+gD2I9hY1bxAn542JXX+a4C/k+OsDO0CscL3Qo3XHdl7jnHj/+uUg3Fsu6AGeFai4VfNa+7bm//+y55TyEChICgW265pc9buDAVdlaMpsxw5PAeXTqnZJDWkoDQYc6z8hMVjuvUMe0L5HlpCx54wAG+7xH8+ONP/vwWLZonccUwKH6VJiAIIrgvI4Q6EPosUgmWfDYoL0RVSRhCQp5FQNs9EYPkpBABgb65jZFJySXaEBJyTx+SZ5OpGVvsqE7aePbkfP14NDi5mRYG4iX0QrEXDUEhKWjbxkJINBB+DNpetMM0p+24ow/1wopZgHbi/kceto8fhcKoD4BmoZbiuMXJO8+ZO9e1b98156BhSs/+++3guxe0vib3OOCQ9B6MFlGNx88r0bp8BMK//pXODLcmpMXHn3zsl4jnI/O+PXqs4D8mz7vqKqlXlIoDiNRotMaNK/7jHYPKxdbc9pz0e1UE5eWDJV+MgMCSMIuIIqBI2KRJ5XcRAUXC8HsrCKGcWGTtCxWAlVdiCEjgu4jYDJYOEfumtdrGy9ePJxcrbTwK275EFiy5YpoNqHDDggZhzaj9dAewlAOaiH8MrLRS2mHOqH79z4BZCYAfg4Bp0yt3juK4YJ/I9PPPUyt1L9DxzT2+/upDPyyMJfsAZKRjHHNUfXafjU3bj+3bpZ3waCNGsQhM/6EPDvAOrOEBUo1X0R1BOf3yS+oVzUKbyIz4mAaJEcySLwzKDyECWiKGhCyGhDYOEZLQIiYXwMpWLAZWNpWO5UE+/ksxZ9Z0v6BXCPGBSrvO2nhZpiYaL2zjFSIdZIsVSIhYwVrogyi+576HPcFYh5KRLNRIECidy5b+DWjllVP3uwUCTeVCbQVat2ntC5PuAdZWsWDBWYgdjmwhZrzotBkLk/bCXH9vtd169ugarR2HDD7XVxCAPxlJ2+HR1HWFZs1a+G+AycwfboGuyT1EbkBNbYVV2k4E8ssAmqC8GCz5YgQULOlCAgJLwBgRrRaMIUY+kEVAkFWph5AGtFpPMsxKY8gF3zVERflX3L/W23hZQOPZNh7Qi1hYghUiW6wgKXgFbdvYgsWIWICGTmj6w/T/O2YmqJDCgsQ01HvSd/bBBx8m7a8plQhAv55IZ0e2CLQxp05JBzETAB+fP/4IU8r/LMTPTFbovoL3wvL3VzQlpOOaeDSFL774wsft2rX115wy9edct4O1QFq0SB0+c+bMyZWfBNlOh6kgWrr+JlBtHZIxBhHQBgur/WxasOTLR8AYCUMZsIjJjeTMxjHZE8lsHFptsWe15V+nbbwY1MazsA8MeFmr5WLIIhyIFXQIHYO223PPPXLPy8BjaTvNzUOAJ/9QPtIjaRei8dAmFN7MxGSkgY2WtD8ZoZN8yNAR/vr8RATw80nbx8a1GLaEqSgnB+/ctWv633KAKcvz0P9GuVJr9uq5nG8HQjo+Ju1OgUHRoGXL9Pdin376pd+mkuBczGsgxwx/GrLlhcCkJEjzLOGA0jZOQ9W0YigDQox8FlkEBNXRgCAmR9J+heQwVBqxtp0Qs2LqpI0XuxEaTyaaLVy9XL6XBFmEo2AVLGyNaIPflxz7x37bO/3vANxz3xOeLHgkhddff8u7j3m2nj0gSzroGPJ9/PE4nz/w/NMrVT4XX3KVJ+S1V12Yc7Jcdc2N7suvKvoBIQFdB2gdlRVLTwDVjjI/paGUj6lImrUZ6ZOjzUh7kl80Y8JKgzLiRdqa4/mHOJBW/fiLST5WmVhIswFLFEtKoYKAadC5xCEhBRFQQXlCWgFUbhcKImBIwvAbW8RkRLIUylUoj2EshNovq7IB+nagztp4wN5IQOMxVjPsxwtrlvAFCxEuRFbhAzvsR6NUEGCmA/Gv8quuOD9HFvDQ357wz8P96XBGqCEK/87j/3MMEeN41VwyMemMlxZE05HXpUvqEAEQhgVugYjH2ElVXJiS6oNrmZjBAmM06Y+T6UonPb/koj1J39KCBYSF7rvvJvpjMWcBXlH+EsQvuujf4/uMG8uS8Slo26VCbgQzIEVWOgYISJuHWEAwRcYQsWtbWAIqZipOlhaUDMTkICY3vq2bIWcgi3xgSc2XVnyCLBqgShEsVY1HDaw2Hi+hkIWsgggLTgUcK2gLu793797+IzMZlrYdzguNqQQ4TJ5+5jmfZtyjrUxYWoEKg3+UC75PcPgtfvQJ8+4Euid4x5XK+/Uo/H++9Z7vBFd5MSxMJiVgVTAqAt6/Q7lpOHHixKRcS/025jFaFwfR3vsO8P17HIt2fvHFV9y551/hKxmOf+fd99ywy/+aPH+Ja9O2k78HsxYgdqy8rLYDWWNrQ7LYbSDSSRNaEubThiC8pmC1n+32iJFPKCQTwMpZTObymZ8VGi9ODSpRgQqz1tp4FoU0XuPGLF1dcQm9UAyxAojVVhSs1WQWqhFtABw7Z85sN+K6G9z5A4d6M48VvywuGXaNrwl5xh2229JXJtReEAezFMeJ/qkHWNiWQbZHH3lQTmsyTQhthwmoQdU4YyAIYyX5OSXkY9IsHk0REQ0FIMuyXdJ2H7MUQKeOHbzgYoqqjFQuhOtG3uFmetI28uenQ9PSjvSSZs39t/nn2+/4PITXejKtGQREOmKbzoLOC2MLBFT/GhBi5LMIr2MJqHT4jS0kG1ZGbJmFCGVPZLOkCwmod4rd3yoilXGtezWzuhPQeGVl85MbVhR6+PC8sEKIeAEtWaD5PgBQPj9p5N9xYMhFJyfPUnE8JiP/PQe0+zbeOJ2xDcY88bTXRiefcITf5jy/ZESiHXlu1rwE1GbXXnebf0ct2wBYYBYHTsuWzb3rn85zjuH3XKq43nwr7VBnZrvaeLTZgDrKmd5DmTzx2L1u3fXSsZ62HIBIZbUDS/0xBcoSjiDh9+kkaN6kRUhEux1CZNH1lQZWC0pTcH9pQgudA2wahOanEPv+MVkRssgXk0MgubXyq/cITU1gFVGdejVjpiYaD1iNZ8FLomEsVCOFBUPhxQpwicJOPoj9OEpznLQCZqQ1MSER/wpXoWqqkArv1tsf9i5+ZokDNCBtRBwqaDstB//SSy/6a6HtDhtwsM9LteXD7o/77uJJB+g8Z9xo8+bpcDHu8+FHX/vyYIYBldmsWTO9Ocmz6rfQn4/90hOOmeksJMW7MF2I5ft4P4jVtGkzPz6U/jy258ye6a4ecZc/nw9PqBD4Bul2uXBTQfqZJJEAFFvyKWjbQqTRfZUGlQlIurIZShw738J+XyFGQJBFviwCxmCtNUvAEGEbr9Y0noVMpZipqZErwBacrVnsS8YLIZtwKmBLNCFME3T85ptVaDM8hPzxR9NBNtp4M7dN3y39+1CZsES61XaAQdYQjKFlobbDmXH/vSNyfXw3jLzZk6dXz7S9B1iigWfQ/9FZMHfSxHQZhzXWYGRMI/fKq2/5bYhIxUYe3Q377LWdz2c0CsR6aPR1/q+yel80LZUK/XmUOR8dISFWkMCzX2SxBIvBks+mBUs+hRDcD+GLkUhEFAnTvIpvCDhPwULvbr95jIBZshSv6JfUfvnIZrHU2nhZpqY0XgyhpouhEOEAhW1H1YcIPxLnbrLxRj5NbcTq0f4f4Ukh85urE45NNRXAucH0IbQdf4wFDOuiTQV22KFvJW2HI+nB+/+aGyyNy5/21v799/DbgMm2tE833GBd394D773/b18eEJSOc/DSqx94YWCqj/DPtz92++ydLiEBWB6e+/Nx0XD0+UnTMsKmQoAhS4XQEhonbUFMS0skla0tY8UhLPksAS1iBNT3sM8SQgRM0/HvGiJGviwvaEyushCSDxRDwKXSxsuC1XjA1iK5uLy2UY2jQskinWALuHK64mMuGaeajzYUswT4/zneRsDaJsOGnOHatWuT0954JxlMjLZTW+z0swYnhZo6Lk44rmJx280229y99lLFMoCQGpc/K5zJWQLGPPmK22TTVONielJ+5FEe2/TdPLl2mZs06YdcJz7z9vhwLGy00x829yQDr7/xL7f+emn3BFp75oyfvRa1o2ks4fx2EitYssSEEyhP+7OOAyJgjISWgIot7DNaiICplq5MQJ0TO0/f2T5r+NwxOQtlUYiRLx8wNa0FWKdtvBhiGs9quvAFhZB04QenUEMtF36A2LbyGMFxzPGne5MPMBZy+GXnJIRM3cQU2i233uO9k7ThpO1YB/P999/170B/Hm0tQfPwAN0MLPeH1mEenkxKFlKaNWuq23GHPrn2HsvvkQfxWQmMY70GTAjPgGy17+gy0CrXTNAtLZ2TaNaV/fb773/oy0P9lJB+3Nc/+bRgtZvIoXJVudgyygf7Pex3Eex9dC9gyVcVAsp7KALGSJgFKyPhs+ar5ENUhXzW1KzzNl7MuRJqPMALxGoVUAzhVJAx0tkPoI9ErBdnm2NG3HBf0kYb66/NPS/8y4mO/1ZDOALtOvr56BQ/7tgjfeWC2XjxJdf56zB+8pyzTvRpCwjH8g7b77i/++bbqW7Awf28OYkW+/zzz7wXlKlCzDQnj32j7kzX0ezfbztPOu7FiBO6BejSUPtu3ISpOaK/+dZbCdHbuC22SJeYoI9xjTV65/azfCDdHAJCLs8y70wXT9rNUyHotuyUHwbtE/Rt9J0UQuQjYoyE4X0rm56KKxPQHi/EZCXzGQPZy9J8ImA+IlrnSp228YBVrUK+Np7ACysI8Y9XUXggVtD6GAQ7ioJ0SsTKr8I18QiuvfZavpYiPD7mKe+FxGSkU1ykZZl32ma+n+z6S3ITYQETX1lfhZ+XXHvdrX5i7KA/p/8+aNiwiZs5c4b3LKJZmfVOHiRjrCXX5Eckq62Waq8vvvzCe19xnOy++87+/vQDbvy7ivVSHnjwSbfVNr/3H5UKAVP1oP3TZS0A3QcCtSywAi+o7Gw52vIMER6TdWzs+wnynMYQ04KCvZf9jiEBQey5QvkphnwgS0mArPdHjmqjjZf3V8xoPBg9c+ZMx3IG9lfML770Rm7s4Ly5c/z8JYGXjHWCF0u60DtmCz8kWAiZLriHBw86zW266cbuu+8muMuuvNnPgYN0LOOw7LLL+YoFL+Y1I2715t+Iq4fkBlTTthp541/dnXc/5v98wwc64fhD3VprVpigc+bMcxdfemPSBpvizj37OD+hFeKxDJ806JWXDfSrTXOva6+/1bc7WY8TbctHGzpsuDvzjJN8+40B2f0PPNrdNeoGv6gSfxl65LFX/I8tISLfZLsdD3UsM8G5lBECjbBTtiqzLKGJQWUtEsdQzDGx/i7B9vUK3bp28M6ujTfeMClfpmelw/dUyRdKE3MOQAtBCP2TfMwTT/jRPZqdEXs25JNvLuLZycOAsbdNS2inL3CdOpT4NnZt/gM9rxQjLHg1YxovH4ohHYSLkc7GYY23pFar0Iw6p3Hj9FnZfuiRp1y//if6n06OHftVIuyH+Z+IiHQML+OXXmD45RfmSMfsAzrkb71ttDfzTj/lmOS8K91GG26QXJcBzS3cj4npOWjwCE+6/vvt4UlH/rx5c9wVw0clglHqjj36wFybgLYnpKNtd8D+6ZLu3377rZuzIJ3TB5gZwQdnKXgcRA/97QX/Tzw5XWiHTp+WTqhVBaOxsnp/xSCmMULY8+y5FuG1s47Lpw1DTUhf5dwF6XXkR7ByVkyaciGojCEiM07aJRUdlkmrVm3zVghW22VpvhDW1LSgUqrVNl6WcyXWxgMQLka6fAUAsj9m2gaIkS6E8jgWjcCMAzyCG264rrv/3hvcSScel3wM+sgauaeeeiYxIa/wx18+bKBfFgKw5MNxJ57j/+56z103uIsuON39/vebeW8pgFh0G1Cj4jiBdFttuaknHe06vKVz58zw7T2IKkcLCy4x7pO1VHCq8HwMYzvx6HQJesaS4hA6+ICdvTB98skn/j/nWsHad1/ckq6EnRIqLQ8cKxJ43l9ka1ReAQFta59CDFzDhhDKC2M9QxgDSzql+elNi6ZppUFZ8M5oDpEplrZ5lCEBIrINmINJ6Natm/dW77XHVsm+kkrPIoRyarWfEJNZkRxAdJ4dUA612sYrph8PIcginP0Q0nLSdDysggUvQ4iRzR6vdkMY6xiEi/4wlurr0aOHfx8w+OLL3FnnDPZpNN1uu6WjWa6//iavxfjfOH9k7dChYmYDo00g3LnnX+77/zSyRaQDtOsYkeK1Wvk/HLgnHs9JP8zwU4t+97vfJe/WKGlvjvGL0Kpf8PqRt/sy2r9cGzIWVKTjA59y+vm+EtG7A9tu0vs2SMqWAJQOt3NpQ0KFECpLe19BeeEx9psrDUQ6Ymk8fRNV8MQlJWklR9rmK1bgOMgoLYj5ydSs9u3b+fJjsMTqa27sRxHpWezzAMmsSEesdHgsCJ0rQo01nj05Xz9eISzxguUfHMQ+YjEfX7ACl0U+gNm5845bl9eUjbwj49DDT3EPPvyka9W6g9doaDreGdL99faH3c0jL/HtQv1EhJEnV1w10i9OxHkMRm7Rsq1v7/X5/eY50kEu5tDhTDntlNT5wj3ffjt1hvz1pksTQq7qBYYugiuvusMddWT6Xwe0LNrukIP2yA3Itjhn4GWu75Ybe+IKaZlUbtuJVIWQRUT/F9QMzUis72BDiFi+BF4BLFzUxms8K2OqcAHfzG7HII+iNKAISEWF9qGr6LyzDvAjfpo0seMwA9ksJ5+F5GjJ5SsrNB6o0348apIshA1nW7jAajjAA6qxLlR83MomZfQj8oLULn5fRQ2qANingvvsyynurrvu9h3qA444w3366Vhvej768M25GQYI/k1/vT/RjBe5FVbonntffnxy3sArEqJUzHXDU3rFsHO8GUn5EEQ6Rruwwpm6DgAezdNPPcbXwgjI2LFfuJNPu8CbkZAME/LSy/6a1N4tc0QUMD/xqJ52wiH+b7XvfTjel1WsjELTktA4ETal80Hkiy3sAwqdH0Ps2wHMN+SjSaOZ5TkVwMkye/YsHxhFRExeltUlIKPSPhCZaVgzZkxPyrTErb322v5bseQ95EMW9QwWMfIByZFgNZ41Nauq8YryatJgxXbO8mqWzk+XRgMh6WxneOxD6KPGzMolCBqcL6JlQT9UKStbmLzXL27llXt617zac4CZC3QHDB1ylttgg/W9pqNwMf1eevkt/5EAhOO3x0w8BRBr7tz5fjY6k1RxpIiMQLVvuixfWiPz22U0Xb+9t/U/O6GsTz71XH+f8849xq+nSV5paakbcd1I9/fnP3APjb7aExQvK6ucfT9xWnK9pF1T3rajfDTMqXWrZdy80iSvXIhwcgG25fBSnkW+ZQ4E1pn0WrHcUwiyzuO7hQjzll1uBXfIwXu4vn3W82WGjE2cOMk1aP+jG/fefPd942fdSg129X9GkvcwHyDn5Mk/+fVyAKOUVPZ45Mn/8N//dg898rKb9nPFAISwHadyatOmk/dqLiid69dH/VW8moVQcdPKpKsclwtD+QfIqok5jmBJFxIOZJHOPoM0X/MWLd0pp5zg7r/3pkqkQ5uMvPkhP1Od/j40HbUlv/zC9OOjMJXngoGnJmTZ1ZOOMmEUDF7Ks84d6ttu7N98s038Pgt9+HHjvvFttMFDrvdDw8468zS/f8yYJzzp8Jzu3z91sowdO9Zts31/341w312X+64IKkHGnXKvmLaDEGi8kHSkQ9Jpv0XWtxCySBc7J0Y6oG+pGI3XLqkoVGbIGe2zV/79mBvbbLib2+hjN27xE36JxhkzZnjNIu0SxgJmINYGYe7ceX4xYBYPJp8BCYweWrZLxY9E80EyF8rer+7VBNbMlMBDNJEtBhU8kGkpYbL7UoGqMBmJQ5NS4N4KdlvHnnDsvm5AUruqYJh9wE9IPhv7rW97aU7chAkT3YmnDnZfjWN9lBI/FpP2GoOb+ZgQbtzXX/s2H1qSFcKGDjk9NxsdoOkYKQOJn376OT/+84ST/+w9rGecOsD/mYjnwIzExGzVqq0bdsm5Po/RMUcfP9DNmzc7ue6ZfpD0xInf+yFqn376TSLsdFAnGq5c2wEJv0gmxNI2DgOwpqkCkClKrCDTllhpjuf5wiAoTVz2n05u+uzU2GIbcs1q/oEnnED6XzPucWUt0j/4YjpCNsiqdjsxAUcLGqh79265wL8G+RYAWWaNUpyCklGClRugsgBUvPnaeNbU5B2q0sbLa2qC2bNn+3Q+UxOTbvbsdNUrSzpb6CD3ISNmZYiwpgnJBmyBCVzL1roUHmMlt9ysl1u0TGv3j1dfcj9NmeMOPXB7t8suO3uC8H78S+GiITd6occ83mevHfxYTMAHfuPNf/p3ZokFZgv022trr+UECDd16hT38Sefu3ff/9i9++6H/vm4PwQ+6shDciNiIBj9i5jod95+pR8OJlOS6x9z5H7uhBOO8ccxE/79D75KyrjUv5sqIA0LQ+i9wCcCgxDQNJAwKC0HQBZCjWhjiyzT0mpCITw21ITdurbw7WHmQUKoKVN+co/9e2gl4gnrdN7PbdT9j/5daPMBvhnWhORU7XKZ+EB5gPxXXv/M3XPXLbn1b9QMinW0t2tPX2+6Sp7tQKePkO4KmZoQXlpb7cxisATxBF5IbbyskStTfkYYGuSIZ0kHsogHQpMphIgXIxwQ6UQ0XSNMAxUoz0k/Wb9+6Q8sRTqcKMzi5ng+wsorLe/OOSv91RbjMG++9VFPSAjHb5ZxU9OG4Hw+6Geff+6efPolP0aU87kfDpxddurrNt5ow1yXAUDbolV5luGX/8mPUKGyO/O8S9zzf3/BbZeQffjQdJVqRrLgmWPQ95dfpquI2bZd05LmOdIBEc7CEhFUlYxNG83PmbAiYr42YbFtwDVWW87ttMuebodtNvTvAvE+njrG/fun+8uPStFi0Vpuq3X2cN1bbZKYjT+4dz9ItR8oLS3z5b0oKe/FppJokDxr4waLXafOnd06ayzvV2KDsK+99rq7bdToHPEEEU/g+0E8ZI/KEcvGtvFat27ju5pq0sYrqPFo9GY5VyzxEEwLPYgQE4rwmOpoufAaMfChKcydEw13wtH7JEK3yK8sRjvt7tEvualT0l9dCb17r+xW793Dm6KMeGF76z4b+I50C9oReDRffe0dv81oCX7x3KfPFkt0C1CeDE/De7rn7tu6U085LnfM6Psf8B3yeN5uu+XaSjUnJulhR56T03QiHbUxJh/mIYiVbzEohohZmlDtvJBgIh/Pt6hsyTYR36Pzcj3dsYdt79tevA9r5vww/333/dSvcuQT6dq61b1w4xF+/98TXOncSQmRKjywk6fNdy2TYmAUEDFo1qpr0gTo5bbaYnVvsmNR/OMfr7vrb37CTfr+S/8MFlbrUcZt2nb05U1zKmvIGA4zDcgANdJ4lnhoPI2jqwrxLBn0YYgLmZhWy8UG3BZDOvIoVO0jrUK2ms/H5d5OHU8Mybp0budXDWMBI/13Ds1mTRcWMGIkCZ3aIZEsmOaDRn3sidf9rIIBh+zhTjrxeF/GgOUCz//LVW7A4Ye5U45PHSyA7/DNN+PdkccOSr4B7ZK0LKyJaUnXOCFEWUKIrDgfLPmqQkIhptmsQyYkIN0WzVqv5InHWE0E18raDPdZ+ZEplmu2vn8u/meBs4RjAbNA6ITHSaP2In2DGoq24gqYhV2Tdl6r5Nql7uWXX3a33/mI++qr9IehkgvBaj6IR+U2b+7MShovNDXrVOPlMzUBDVCIp5sLIpudTSABt8daTReSDVjCxc4H4XYIziFY8rFNR/rvN+vtNt1k/dwalYLSNKjxZhHzDwNGqOCN7Lv1pn4BXM1UFxjryXQeFjT6bkLq3gaUx913XOXbdLTf7h79d/f448+4SwefnPvTLOXOwrv02T355PM50knTEcJ2HYBgMYh8Nl2IiKAYEgJLQJBFQkGV8CortfeeYks8GwM0CPLIdxLZtC8GyYaFvd6zL77rRt1+u7diJC/2eEu89h06+zKPdSdYU7PW2nihxqPgs0xN1o+kzYF28v+bTl7CEoACTuMKMtn9ANJBXF3HEi/UcCA8f4nrJffUx7UxUCETQ8CePTq6M087LkcwtdkArm3elTLgfVktGiKpfcCiSfTFCZgyd911n3vgb6/42QPcd+VV13UH7LuFn2l+1fV3utdefsM/r56D/jzGjzLRlkHRo0eP9qav1XDAko7rQjyRzhJumYZN3H9+WZiLbZ5giQiKIWMhEsbagSCLhOR37b6q++M+W+XaeGgkOszpRx0//0Xnfuzlll+rYc7MlFZBNpFRoZCGkQLhO7755huJlXJ/TuMJIfnwVegHMbE2Xm304xXUePm8mjI1RTwB4QjNSqCHA1Vtz9lzhVge9xZCU0ckpKAJVww93S27LAvRpl7N519936/ITCe1ff7cTIByQeq73VbuikvOS45JC/mNN95yfx50g585QCc97UHm2+HFVI3NdB5qT9Cj1+pu0PkD/CK8gDl2fxn8Vz/TIUY4AdMnRjrIZWHJFyNjCEu+mpBQZmjZwgW57xCST9pPGi/Wxhs36RPv3ez8w2Fuw227evKpLSUNRhyD3SdNBMh76bUPvMaDeFYWuL8lH4B4VuOxMBU/Dc1yroBa03ggH/HQeCKQiFdJ8PNoOmDbdCFEOhVKeH64HRIuBn10XMScf/45h/mJrM+98A/vsvf7Fpb6v/+sstp6rlVJqZtf1tLNmTnBT9FB2HCA3HTDcO8CL7Z2o6OemeftOiznTjp2j9z0I4aLXX3NSL/4EYhVNIpj5mWTppV/EpMPIp9FjIjFkrAqWhAihui8bM+cxkNgKYt//fC3TK/miu238MPI6GulPWfbcsIyv8xwc0pTErRo0dQtv2wL16tXTz/tChl+9dVXvcb7+uv099a2UgiJ17IVQ/yWbONlOVf0nWpF41FLULDFmpoA4YBwYbtOCNtzhcxLey5gOySiSAfh+Gd1+MP4GNTY1+JGXO+IATu6nXbccQknyai7HnPXXHO912Y33TA0Kez0+nqGWGEjSG++M9aNvu9Ov0bKfv37ueOP6perFXGqjLjxseTDzlrinSqum5RleSUSOlJCEhWLUAsqL4ZiNWAIaT6lBSvoK/Vs4zXellv+3m/n68fbeY3zfXfCl19+6f7x1ljvhFm0IP2zEsP2BLyaAM8m07h6rby+227rdfz3RJ7VxhPxQBb5ZGriC7BtvDrrx4sRL8u5IuIBFlfNESBD04l0xbbp7Lkg3JZgypy00LM0LynzNS9AGBAEFbbaGxT4X847qtLvuYDaXQwro9bTzHVAYUMuZrfTLcHfehbOm+V/9/X559/5Z+V9qTUxaTUgGy/n8Ktvcp9+XtGXVKmMyt9Jz281XBbhWO9f/3WzcXVgiRlDVTWgSEisb0GZo/EOO2ALb2oWo/FW6bSV9/J+9uVkt6g0Jd30WUnl3rB58h3n5eKyxak80Y+36kpdEgtljSU03jffpD9/CZsQAvLQrv2ySX7Zr9fGy9ePZzXegtL0Q+czL0NtJ8QIF2q1Ja4lkkeIp33A1rwSAGK1Qyh0tN+OO26d1I7p0un0z73zwXj31JMvJqb2NLdd3/X9n2YxLSjkd955J9GCD+U6tVVT2mfUux591CGJSbWDe/vtd/0/Dhj4bI/DhLTPzzPpmfMRTj/XACKbTWflFYt8BMynCWMaEFDuFr1WaJlr40E8KrkJs/9ZqR8PMGplrY67ea0lWbTdOhaSWWme1BRslZMnabx8xJPctWzVxm9L49V5G0+QxsvXj2c1HuuuAIinF40JIgjbdPk0nU0LlnQWyrcEKwS1P6z2I1DbtWzVwZ1z+oFupZV6+mPQ+oOGjHLfjv/Mbd5nY7fOmmu5363Ty/FzSbxx77//gRt25Sh/LO8Yttn0LjxnrKKwhEOwgSVcFqGErO18cTGIkbAYMxRkmaLdVujt9thlo5xXkzLHnzClLP1nPQRcvmO6SBT9eBJuOU7yQdoXqP3F9SEepj8WSYjwOSEe32/O7Olu+W7ta72NV5kBCRYnGk/ggjA6q4YJIW0Xkk4ICQeyhNOC6wE6XrNIZ5GPdPogQm5gcHI97zEsfwY6qnGEQDoqnsefesudfPplfjl2BjDj1WTgNfO9qI27dVvemz68ox9VkrwX12HlspKSFj6P63snSXIv7sm9CTxr06StwLM1o82QbCPoBBEpjIFNg6xtG4fkU34+iHS2EpBjRxVEiCzNJzRxE33HtwXaCScKYds1j3S9u2ztA6ai5AKZLBQgKTEOMJ0HYUsazUsUCd0FlZ859UfE5clacKDOZqBbqHaxncpZ0APyUnoxabl82s5CBBN0HcWlC9OPHdN0KjiEuBDpiG3geBEQYkAS7nn/ox+6YZdf5845b2jS1nvAO2Ig1DrrrJnEaSHjBn/y72/6sZa3j7o/OTe19yEcYym5XtNmaSyiESAa0DMgwAgzwl3SvK3fVywxioG0m71mVUhoyae0IPJZEvJOipUWKO/Zpe2S8kzJqbJE3mjrfT3tdTd28st+kAEmqDUhY4HyjuVbQMTSRRXvJpkCkt2QfFg9MkcFOzsBqILheouN0iqEvMTjYQvNx6N9lw+WdBYIsLQdD61gt4G0nA9oCkM65YMswunDhx/fQvtFQBHlx0S7fTlumpsxM6ktS9K2AoTq1/9Ut80Oh/iwZ78T3WWXjXAfvD/W74e0IpxIxrUhGtqMtLRa8xZtPNlEOCv0IQG4Zr64EGKEyke2WB7PKIiASlvS2bSF/QYd2ld2aADaeAyUZk4egTR5tOvyIUvTkK8AtLhSTCatZkvlKn1W8mfPrZC52pqBvgTx7MnF2NPSYCJKFnScXigLXMdqPmm5LFiy2Qa8/cgWCIUEw6aBiAEsAZs0TfLRXImQ81FEMGICpqTyqBgs4QiWXIoltAAhl6C3bpP+09wSi4DzKl9sj1XaxvmQTxvavGJQiHSK58xr5WMBWbOd5wTS5NGxjlyiDRk0zgwPBWZwMIAhDOxjMWLIsbhcE9HvxyJLmmOn72fB9w29nK1aVGxbjYdWrTWNZ09G49HGywIEkcYjzc2LMS+tprNgW9cB0mb5NB0Q+UKNp48sIBRyBkAAIDJYMoqABDSVNKHIKCIS2zT7OAZIq+k+EuJYyIIlTRahbCzPcgw6LobwGazpGTNHLWwFYtO8u8rUQo6Pls1neyLoW0uAbT8eaXk4FydyydIOr77xmXv59U/c8y9/4J567j1338N/dw89/oIbNfrtSjH7PvroY68trcabW9qikmzaSj40Oa01Z/sLrc9DMsZ1aqTxLKTxspwrFFqo8eyM3SzCWeg8wW5T80A4PI6CrZEgROimBiHhLCQM1llg2y4KIiMBEoVkDAPPov0cq+sgrDGBBZY0CtouBEsype35VhNakGePi8E+b+zZ8xFQ760KLiQf5QPJ0Hg4V6zgo+HyAW3TfbkS16VDQ9dt2RLXvl1b13uVNVyPFVZ0a67WyXXq2NX1Xqmt32Yfy2ZwP4EZ6C1KKv96IJXhys8oIL9q42ldVWB9HtXVeDXqx2MNEP7DDaE0DrEYTQfsy4YvbjVdCPaJcIU0HAg/PEIReuiqCjkWdA1dL7xuKKBZgl6XCAmo7VgcQz7tRxwiLIuFyTF8g7D7oWfPdm73HbfM9eMhbzhVaNtZrad+PGaAIJs4s4RC/gdGlehPT1xf3Qn625JVErYCALS/Yx3oduRKTebj1UjjAdQxD1gI+dp24UvHAOGySBcjHLAf2sKSQ5BwxeIwD6+jrkEeaRsr+P2JUCv8Ggjvq+3Y80Tzyt8DkA5NTpsGKhdiyCdTO6wA0XjpMojptyOmG4FRKpCNwFAx+vI0hA+FQNeCAvk2oOHstv29GtfH1GQ9T6GyksjWfFriBNRZG89CXs183QloNZEqn7YTwpcLX5j2EohpOyHUdCAknz40MUIAASUUMViBCmMQ2xfLExBiQpYm+TVhn0nPaON80Dvm03qCyAdC05M2njSFgCDTb0cfnu3HEzkLoVAby69A1mhmpmxmKQB+fS2Eq4xJ7qraxqvRIGlMTf/b38bpojCobsiXZWLGSMcDK18mJhDxbB4INR3Pl6XxqG0xdVTrxhAKUpjOgiVVsUL73wD7HpaQxSIfEYGIiNWwdZ/1fJtMPw0FquRZX3PxtGV9WhYXMftjcQx2H7L8r48muL8/9w83/edJ3lITrMkJkEmZmoxBXqF7p6U/VjPftKCwjSfS8VIiX9ius0RTDLwpWe5IsdpOxCtGywHVqNS2lnRqc1ioxi5EMsES7P8L0YQswimOQWVnyRZuA5ENqK0H+B4d2yxwk39KF0PG1c/IEsVZYKA1A64By/XpBzpKEzNDhZkqgvJnzPpPrmkk8oVtPeSSxWxjbTyN1WQeJ8SutTVXhCyNx9LY48d/5559/lU/VhOySeMBq+3Cdp0lWkg6IYt0VXGm6OPmMy1D0uUjYCiQvyX0WqGVG/9dhYDVNooloRAjYwxUigtK5/vpZGVl872AZwHPovdwJ/IgjzYEAciR0iG0lAMzyj2ZmjZLLLRUJqQcssiHxkOmeV+N1ezRY3nXqWOHutV4xDyA9WpqOQQRz2q8kHgiHbUGaUs0YLdp14WaDlDQmkoSmpghbC0q7Zal5UA+ogErbMCmaxsheaq6bVEXRLSky0c+S7os8lntJ8QcYHJaCKp4icMObnU3haQUwm3rDMwyOfVTSiZGS+Ox+FXLls1d167dkjj9TVh15+PFW5kJwoeVN4e4WbPKwgyJIJwfuZGQTKQj3/6PW0EjASBc6Exp2TwdsEpHNAW9YFHlPjJLOsimAMFEsjAWwSzRYqQTsayQCTZdHUAIC7sdEqWq2xZZ+8L749woFlnlEpZJWM7ECoK+kwKwfaYEYL83QRUvsQYzICcEZAj5kTzxXMgiAXljmJ+VP2SSkCqEitXJ0YZYcGmTiVBBj5YJyQA/Jo2B4xdXwatZsI2HucnUIJbY5r8CrJbM31Cfefa13Hw0agdezhdERGsBFVwICjXmINEHAHygmPbKgv3QoJB2i4GxhD9PS59daQke2xryhAAXSv8ayLp/mJ/v+Xln++7MKFjouuXKwJZJdRDTkIrzoVitKYTaE2RpUE0PY0A8yz4AlgJZf73Vknbdsn4lOpaF5+9PmJjILRoP4hVrZoK8bbw0TonHfDPmo8ncnJ609SAfnZHMWeK/cdJ0McjkLAS7pHY+6Lhw9WoQnl/omvmuYe9jY4vY+YCPIctB54bQMcRCuB1C+wsdJ+gZQOw+dr99Nz1v+P5ZeSHCY2wM7HnKA+H1wvNAuA1iedUFv/RiTh4r0fFvQkjHDy71FyJNiiYAlWu123hgcbnK5INYBwvkQ+sxQxsnC+SbMT2pJZN8YMez1aMe/63Q8DDMy7btWiVxEpK2Hd5MaTvac9Vt34FMjQdiWo88kY9/ftOhyP75yX4LW5uGMcjaV91YCLdB7Ngwr6b7qhvba+ZLC7V9bCxd0/Oqco4Qnhs7tqpxvnPtPqUtGG8LIBztOsgI6XCq0I0QMzNRWDXWeLoQDyatxygWSz4AAYEmNTIQtR71+G+FdZ6kQ9pwztBfl/7rMCQdIL8qpAOZGk/mJgjJB/EYEUBsh9BkjSAIYUcU1AbC69nt2L2y7p/vufLtqy6qcj+7nW8fKLQdotB+i9ixVb1+oW2h0HULoSrXjT0TwIsvM5I8temq27YT8pqaIfkAbT0gAoKaFE496vFbhcgHRDSr6UBV23ZCQeJZk1NA+wHrpi00RaMe9fhvQjgBPCSc2nWgqmYmyEs8QZoP8tkGqQgo8GBhXj3q8d8MSzZBbTpQVcIJRRPPshuIhErXox7/n2AVjNLSctXRcCGKIp4QslzbvybCCqCYNDUW7dMw1jEh7Pm1ifBZKE+bFz6/fY6qpmsL4TXZDt/Bwu4v5hnD7Zogdq1C1xexlA7BvpqSDlSJeIJ9MPsgShcTg2KPzReHsPnFHBPCXh+E16qNGJC20H6LWJ5F1v4w394zlhZi+8M8QfssYudaxPKEcJ+2Y9csNgbF5BUTA9K1A+f+D17cZIOy/c/jAAAAAElFTkSuQmCC;" vertex="1" parent="1">
          <mxGeometry x="182" y="111" width="105.71" height="80" as="geometry" />
        </mxCell>
        <mxCell id="-4wKffS4rpttlF0J5WD3-5" value="" style="shape=image;verticalLabelPosition=bottom;labelBackgroundColor=default;verticalAlign=top;aspect=fixed;imageAspect=0;image=data:image/png,iVBORw0KGgoAAAANSUhEUgAAAN4AAACoCAYAAACPHFBrAAAAAXNSR0IArs4c6QAAAARnQU1BAACxjwv8YQUAAAAJcEhZcwAADsMAAA7DAcdvqGQAAGpOSURBVHhe7Z0HmFbF9cZH6tI7KIiADbvGXoKKLfaKETv23ms0RBRRsGBBxRIVO7ZYsMVeYoktGisqoiIogvSysEj+9zd332/PDnO/79uG5p99n2eemTu3zz3vnDNnyl3mPwlcPepRj6WKBuVxPepRj6WIeuLVox6/AuqJV496/Ar4zbTxFi+ub2rWo3bRoMEy5anfHn4VjQfJwgBUUPVxfVwbcUzGfitYqhrPvjyF81srjHr8/4WVNxHz10TDQQnK03UKXpoXFs2Jf/llURIvrhQWLlzolknKpT6uj2sSW5lq0KBBEqeEI1ZYhgN/JSwVjRdqNggnlJWl6UWLynxcj3rUFI0aNfbyRNy4caPy3BQNGzb6TWi/OidejHSWbIsWVZAQlJXVE7Ae1Ufjxo29DBGDRo1S4lkS/hbIV6fEs6STloN0IpxIhnkQI9yCBQtd06ZN6tP16aLTgojXpEkTn4aAkA9AQMgHRMClTb46I55ehjhGurlz53qyUWgQDyjmONVO9en6dFYahNsChCNASIgnApaUNMsdL/KB/xfEs5oOyLwsLZ2fxGWeYHPmzPXx3LnzkrgsOSYlHUQshKzCrs9P8b+Qn3UMgGwNG0K81Lxs2bKlz2vRokWynWq/Zs2a+WN/LfLVGfF4CZmPFBKabv78+Z5s06ZNLyfdfDdv3hw3a/bsnFZcULrAx/WoR3XRtKSpJ1SzRLu1bNk8IVmLhHTNvdZr376dJx+aD5SUlPhYWFrkq3XiWW0nTRcj3ZQpU/y+77+f5OYkZicknFPPuXrUEC2bOi9HXdonpEs0XIeO7VzrVq1c27btPPlatWqZ03wyO217b2mhVomX1a7DxKRNh3k5ffqMhIRz3ZSpP7ufp0534yZMdXPmtXLLtpvtmrXq6s9p0rihW1j2i083bzLPzVvY3KdDxPaFeYW2Qf11/vuvYzFl6qTylHMrde/o2rZr5dolxAvJh7kpb+fSNjlrnXhC2K5D082Zk5iVs2Z60s1LiPjxF2kBUTstbtDOEy4EBFR+o2Vmu0X/aeXTwO4TwrxC26D+Ov+91wllQpj4w4Ty1JLka9eubWKCYn62WKK9J8VR1+SrtbGaWSYmpEPbqU03Z05SWyXb33w7yS2cN8ubBiIdBQpsrAImrQLW/vADAXs8yNoG9df5774O26FMKO62XHcfI2OTf5rqZkyf7X0JWFsoAKwvZDPt1qroS7ZyXJeoNY0XEo82nboNZGLOmDHdTU/C99//6CZ8P9k1ad7aderY1TVvXuIWlTti6lGP2gIklNmJVdUpae916NDRO1w6duyUaXIuDa1XKxpPDwnhKrQdcZknHTUMNQ2km5q06yZPm+9ml7bzpKP2qiddPWobjei7S2QLi8prvUTmpiSyN2fubN9lRTeW+pCRVawzgPwuDa1XY40XajqZmGg8tN3s2XMSbTfTzZw5w/3881RvYk6bPquStqsOICuFG6ZBvu1i0qAq2/XXWTrXKRb2nHnzSr3Wg3zt27V2XTqn7b1lu3RxrVu38X18tothaTlaakXjSdsJ1CDUJKpZ6KujpvE1zoLERs8gHQUmKJ0V24+hdLgv37GgOtco9pr116n96yivUGzPQca8ZZXIHBU+XVf0FeNrwNGX+h7U3sMnkVptQl1pvxoRTw+lmIeWF9OamDRqMTFp1wGZmCFsgSmdFQMVtGD3gaxjw/Psdr5rgGKvWX+d2r+O8grFIZA1ZA4gg7MT0mF9xUxOQeT7zWm8LBMTxLyYP/88w+8D1EJZhVQVVOUa9tjwvOo+S75rVgX118mPmpwLOB/yofUAsjh//sKolzNVHJU1Xl1ovRppvLA2kBczZmLadl2jchtasWC3w2OKjUGxxxaKQSxdKAZVSWfFoCrprBhUJZ0Vg6qks2JQKF3dWLDbpGm/IXs49WRyohBQDCgImZwgNDmR89omX7WIx0PwMNQQ0nYyMVMzs7KJyYtNndnUv7jadRTGouRcYgW7HR4Tg91vzw3zLIrJj10rtt8i69h86fC8cLvYdHheuF1sOjwv3C42HZ4XbudLx2CPsbD59hrhNmAb2Vtj5XT6EDKJyYliQEHI5IR81uQEdaHxquzVtA9hTUwedsaMGXm9mD1WWDFXEPWox9IGo1TmzJntxo6b4Zq4id7L2aFDW9elS6dEKXTwXs4OHdp7D2ebNm1yfXuAPCmc2kCVNV7sxlkmJjUKpFvouuVIVzEjOKi9gu18yHduVlrIdy4o5lq1lc7C//J1hHz7q3q8gJxicvZeqa3fRjZLSxdUMjlRHCAdAFLhEJLCqS3tVyWNl6Xt1Gf388/TcmMxNQCa/pNuK6zm1XxJ0xL/8hSMYiHczod852alhXzngmKuVVvpLPwvX0fIt7+qx4dg/7jxX/g08rnKyiu4jh3bRcdyqm8P1KbWK1rjhaQDlnTUFBBRXkzGx/FSmJgh6UC+gmQ7X2wLGLCdlRbynQuKuVZN0oBtpYH2h/H/8nUU57t2uA3yHR/GTUpKvAUm4OWkb896OeWvkKMF1KbWq5KpaZmusZhAJiZjMWNezOYtWvrjeOEYwnxtZ8WC3c5KC/nOBcVcqyZpkLUdxiArDbK2wxhkpUHWdhiDrDTI2g5jkJUGhY4H1d228eJEbpFJ6+VEZmVyQjQUCQrFmpy16eUsiniW6TIxATWCJrbKi0nNYb2YrVulpGuQ1EK8MDFBebH8Qoidp7SF9llkHRO7Vk3SFrHj8sEea6Fz/79fJ+sYi2K2CeE17bWRzZiXEwWCTKtjHUBAYaloPHuT0MTkoQh4MWViyou5as+m3sRUTWNfHNi0YAtFsIUVXkOw58WOs3nhto4Rappvr22R77gwtgj3W8SOF8Lr/TdcJ98xVd0mDvMsyEM2S1ou551/yKw1OTWcDOUi0qFw4AChplqvKOeKbsAN9RAzZ0K21B5mGQfNPPjyq++8+l5nzUTbJQ3VetTjtwwIOG36DDfxu8/9dvfluySWWjp9qE2btKuBhZLatm3r2461tUhSXo0H4SzpZGJCPnWUUzOQz0TDbyelw8J6LPeLa9++s0/Xox6/ZTRp0sx17NQxN5xMJuf80nQhLmRcHetAHBCq6+Esqo1nTUwcKqhg68Wko5whOPJidum6qlu0uMw1atA4F0CYDuNi92WlwzjfPsV1kc6Ki91Xlf02rTiWp7iYtOJYXhhnpRXH8sK4mGOqGlf1GLycyK5MTppNyHdocsrLKU5Y5VQVZJqa9mLSdnbRopiJCeiz69Z1+eScdAp+PeoWquBqitq6zn8T7DuTnjpl6hIm57LLLpt3nZbq9u0V1HhW28F6QA1gTUxqiCnTlvGkQ23XY+mhtsjyv0Y6YN+5aeMS7+VEhmfOmuVNTmYwoFjCGQwA2QdSUFXVelHihRfhJuqz4+YaUIrrFRMT9dyp/X+8F5MXkLZr2HDJOXdCdfdloSrXq871i4G9btY9ijlGyLdf+8LYotD1QVWvU5VrWoR51TmmmGuEsMfE0oqR2ebNW3kZbtCkh5fprEmzcMH27VWnnRc1NUU8aTtsW4JGqEydOsUPC5s8eUolLyYOlWIKox71+K1iQVlpJZPTDifr1KlTbqmImq7JWdDUlEoFGqFCDCkxMQFezE6dlvOkKyn53zNZshC2c+12oTZwvv3aF8YWha4PirnO/xqw2KyXExmnOQUPMD/RegSr9YSqaL4lNJ41M0OnCqNUIN53E77zg6DfeucD16z16n60t7oPbIMVIvIx82lBiFpaWpYjrE1XFy1aNE2eM10PXul8MbDpetQuYuVclbimkEzZuBAmTvp+Ca2nBZKYOqRlAavrZIkSj5OJIV7MzPxx8mQ3dux4bwdjZnZo/4tfhr1l86TNV74c+4/TW7leK7RKTNJ0XUOGj82fPSm3TLtNF4twnRam9LMeR6GlAezEyCzgqVI7VrCDbfMha3RE4waLXdniBtE4H/7jmrplXCpwNg20HcZ2n03HjrOwzxN71izofW1cVVDesXIXwm/GdohwLRfW0kROtLBtVTD+u9k5mUVe2Z4/6zPXq8fyrmePrpU8nDFzs9Y0XmlpqY9nz8bLk077oQvhxx9/dO9/8Lmb/NP0pNDb+87GX5LCa2gEj+3Fi39xjZukNR3bgDzQoEFKIm0LyhfsNasDCgaTIBZXBdU5J0Tj5F3KknLIF4Os9H8rlmnYxP2n/Dds+VDMceEx2s6K7TEWlGuIJk2b585duGCe3268zBTXpnVrr/V69ljBt/Ni04bUzquRxhMgHgKHxtO/DyZN+sH/4eezsV8nNcIc17ykLNFyDdzi8vYBRArJE8urLTRIzFjdW+kwDhHLt+eA8DohsvJD8N5h5QKy8oH2hbFg86sLKjRVlrG40DHApi1ix/4aUCVr02HFG1ao4b6mjeYn5GroNlx/rdxMdVahRuOFxKuKxlvCltDJmJmaACjQ3lMefR2Qbl5p4yUEA7CtvJoISCGIQJYkYRwGHR/LE2J5wN5PUF4IS5AwaH8saF8Yx/ZXByIFCEmiWISxedoGNo+0jcNjqwMJf3ViBZFI+0JoP7EQHotSAcxULwSrtAphCeIVOtl6OUOIaJaEImChUFNI+GNxVYLOEbL258vT9qKy1Lzh/UiH7xwGHWtjYNO1gZAgIXGIbRBsHueGacUW2rb54TExiAzViRWytkOyCeGxoEnD2T4uKWnqlZGgjnQdy74aaTygC0CyrIavQGEXKxixWlp5XEMh3A7zbVxbkAYLiRSDfabYc9jzwuvErmnLIIwJ7Fc6DIJNF4tiCCDYYy3BQtIpVrDHApsGWfuUDuPaAGSRZhNxFFuNh5m56D/p+ixZGk/HY2rWSONZYFYW8uxRIAgGjFfw+ZEY4dA2iOWBLCFSvo2LDTo+C1Y7KQ7PVeB5bSgrW5AL9jgb/DXKSScyKuTubfYr9oFrlOeFqHT9JK6JZi0WVSFI7FhA2p5DsKRVvuKQ0MovJo5hQWnFxFYLq+0WLGrmGi1TsRCzQD+eUKsaT5BZaW8UggLh48mrQ8xDgFis/TYdnmPTNgZZ6UKwghYL2mdjAUJxLwXB5tmwcGHpEnn2XgoWEAuta0kXQ7jfxoRi2p7+/hxf/gz2mYoNOk+I5VUVMaIgXyDcV4hc5GeRVfsEu8/GYOEvrcpTFeBf6gBzs840HtCNBPWnUCMICJeNs6D9WQQl36ZtbNMWdjvfvkLg2FgQbF5Z2fykoMuWCOTbYwW7rVhCnAtZRCnPLxSLuAoxIisO9yltQV5W80AE07MrHZrFNYUlQT6EpBHplAZs27SCtmNQG88CRUSHOaHONF6sjadOTWxggmAFrRCyjrX5SivOIqtigiWphfLsvlieEO4jiFxNmpS4gw46wD352K3utZce9GHPPXdzZckH+eWXxV5DVoT5la6BNgyvL9RUWEPyWGIptuRUHghJSyDPm67lxyiO5QFIJ7MZsI/3Kcb8DUNNYYmUlbZazxJSQLazNB7ark41Hm280NSUxqMrQVpPAmQFSkH5QiwPhNshCu0H+e5D4Qixa5GnACq0WEoiSEW47eYL3TFH7OVat07H81Hgm220qj+vLCEWYf31Vnb77LOHW3ftFZP2BNNJKhrn4X1sGsQEUUH7LcLtfLBEsahEoIRwwOYprVhEtYSFYHY7PAYoBjYdohiyAsXVQRYhBWQ7S+MBNJ7A96uKxsscMpYyOh0Iqg50fqfMyBU60BmnWVqavjR9HfPmzvJpIWYSFkK+c7TPxiArXSxi94NsEMxisTluh+02drvt+gdf8/ERGFRwzfUPug7tS9wuu+zidt+ljx9aJDz06Ctu+JVX+XSD8udr2LCBv0fjxhXjQ8Nnr+q7FAuZgzEz8reAGGGFRo2bVCK4PSbMC2Oda2OVgy0P0s2at/SyX7ZwgevYfhm31hqruOWXX9aP19RvnO06LPpWxZIvL/HA7NmMzE6X8RPxvvn2O/fu+x+7aTMaeBXNw4XEqwl4CRHCpi2Un3VsuN/uiyEkm4jWo9fqfq6hwLKFHdssyMVg4023c337rOa6d09/eA+mTZvmxo37OkfOU8641GvC5i3auLXX7O7Pn/jdZ/6ehcgXvgew6bqCFci6JKolTwwhgWJ5WXGMbDa2x1toqOMyv0x1rdu0rkQ8DZQOF0CyGrAQCmo8/QUoS+OhjhfMn5ek53rhBQ0aMFK7zMdLGxLQYqBntGZgSUkLt99+e7k9d93cdUkKWVC5WMTyhKeeetrdfucjbuzYr/y2SHL9tRe5zTff1KdfeOEFN2TYHUmlNTP58Aw7apArsxip7LvF3lN5sRjYdHVx96hLXadOnf178/5AaZXFvHn8g2CWe+X1z9ytt97j87JwxBEHug3XW8FXWlZwJ0+e7H78cbK7/taX3bfjPirPrYw7b7s49yx++97n3D33PODTIS4edIzbYIMNcs+6025H+/wYYQHEo/02f96cTI3HkLFWrVonz131sZrV6scLR4n7hy4nHQgFOoyBPb42EQpjFrg/2sY+U6tW7d0dtw5xRx22ZyXSgViB5ivknXfeyT04+mZ3/703uGOOPc5tsfnvXNOmzdzIm+9wEyZM8Mdsu+227pCD9/FpNKx9nth72DylLZFErFgcpgk6x8YgXxrtrfcmtmmhefNmvvz+uPfW7r67hrm27Tok5V25bUYe+zhmxRVXXEJbcP66667jbr72ZHfyyYfnzsuHPXfdxLXruFz5Vjb8c5cTDLIpFvkIkK6hi1txtdHGq1Y/Xtb0GgQHwkmAMKFisY4FbCtoOxaLqGFcDMJzuKbuDxB6wmGHbO9rXhUgmh7N9ZcLhrgTTz7HHTzgOHfNtdf7PExJ1fiKBbu9+uqruROO2dddd+0w99brj7kL/3KWe+Hl992oux5zL7/8mpv8w7jkPunEYpm3emfyrODHEO7XdhgDpUXW2LGELLKSDruWCqF9+/Zu0PkDyrdSQKKR157t9xWDnbbf1B1wwB/9eTYAK+w4u844cffyrSVhjxXhLGwe7bss54otA3UnUDahHORDwTae5uPF2njW1Jw3b0bycSo7JICcCIoFkVDmlYRNyCJtGNtjbTqMw/sDCTpAsE444Wi35mrd3E/Tytw/33jRPfv824nJNMMt331V17lTI/fdhJlu6pSJSRkl2nLRooRUq7gmTRmh3jA3dURz/8Dmm22S3HuRW2+9dZNjKtb0517k//jjD+7Bhx51jz3xemLSzE7KgUHQSbs5uUZoegKRgBgoHcurK2AR2LZssTj93CHug/fH+mc78IA93ICD9yjf47wFcPf9z7vnnn3J71973ZVcv923zZnkYNasWW6f/U4t30qBd7lbt+W9vArI7QlnjHTjv/zAb6t9eslFx+dMTfCHXY7ycRaaNmueMzVbNl/sNlx/taXbxoPRWjU6q42Hc2XmjCnlV0hhyWCRlQ9Csgh22xKIfGkx8sLzFYekE+EQ0vYdurpVVkpr3jff+rf/SOQzc/6Qg/Zwu++2s9daFh9++G83ceJEN358uqQhZSFQJhCR+OuvJ7gZMya7hg0auZJmLd2WfTZyv99iA9d3661824CypZ+UH3qOeeJpd+fdT/hrNE4a/vJ+At4jHyz5bJy1D9h0VXDfXZdXMsO32eGQ8lSKTp27un323tHttdsWyXNXCOIDf3vZ3XjjbT49bMjJbqONNvRp5G27HQ/1aYHngjBXX3FGpbLffqfDKz037c2wSQC+/vprd8wJF5dvpYB49p5/2OUIn85Cqzbt/feJOVdqo41XI42HV7NpSTM3d/bMRDNM88dXBzFtFIOIBOw5SodxCEu4FVde2x135C5u6637+HfG5X/x4Iv8/l49l3MXDTrHrbHG6sm10gL95pvxlRwAKidiIVbolOM777znl8v49tvvvXab/ON4t9OO27tDD97XrbTSirmyfu+9990FF12XXBOTvUHSwE+1pK1IagLehXcXwm2gPL13mL571LBKGi8knnDxoOMraax33nnXnXP+tT4d7vvss8/doCGj3JSf0tUKBPssek6bzqd9r7/pQffww2Nyz37hwKPdpptukvtGkDgfmrVo5eNYd4LVeOH/84pFtUauCMzHo1aoaKhWtFOsGVcIWaSDQBYiHbDnKG3j8Fz7PJtsvJa7+/bBnnRgypSf3IgR1/v0EYft4+67569ulVVW8dsChdrvjwPc6mtt7tt6J596rrv++pvcyJE3J4R5z4c33njL17YWnIeQ9d/vj+6cs093b7z6sHvisXv9gqmnnz3MHXP8ue6ll1/xx26wwfqu//77+feEfCpP+941gRVeoG0Q5hETJOhKx9p49hyhRYvm5akU8heA6bMrt4V69+7tv8dVl5/pVl4t1Uogdl2ls55FOHj/P+SeHUAOkU6VJfvCeygGmJq08bBeLJZaGy80NWNtvJkzfvLHYyIhLIpjsMcIdjvcV1PoOSjUtu26uKcevylXO+HgOPf8K3x6yEWYQBv5tIYCWTOC8x/+2yPuH6+/5z786Gs3+Ydv0/zFld/zl+RjNEzOX3/9DV2Xzu3c6r1XdGuuuUayvW5utIuA2XrLrfd4M/eP/bZ3a6+1ujvr3KHJx22afIe0zSfNB6hQaPdhYtv239JCqPG22vaA8lQqfOut39tt23cbt8M2G/ptCbs1NTFHIVqoISR7tPnefGdc7vgshBoPzWlN0yf//qa78sqRPh1qWZmtWWjZup2XgV8W/FDJ1GSZv27dunlTs87beKGpadt4v7jW3tQU8fIhHxljsMcrbeN8CO+jQsaBsvcefRPT5x036q6H3Pvvf5oQYg3vbcRmBxTg5Mk/+fcV5CCRIAkqL4AD4OOPP/VkZSm4Tz751P8Zd3xiYn7z7VQ34dvP3a677uy23/b3rm/frTwJVUuOHTvWXT/ydvcsDobkY0IqVmfDvKTNB8J3tqZ3LB2LRdiQuMUS+YF7r4q2q4DeBYTltHf/M93PUypMSb4DXQn5IDP9imsf8udKgym2z8K9zzzvEjds8NnJe6bvwfkHHTbQm7CF2pUhIB5jNRmVFTpXlkobr5iRK9J4KpTfEkQ4TLc0Ts2GhYntjlY5MjEt999/X/+OdJu8/sab7r7Rj7kvvhxfafwe77nTrrss4W2rCjBDcaI89MjLORLSzkMgVO7U2n+5cLj79NOx/hxpvpB8+chVlVgaNOsYYNNovNCTWAiY4H8amLbvLHbffUffZxpaASH4NsOvGuGe+vu75TkpYtr30sEn574PZUqFdsIpl3iNZ9t4WW1TyXCWxqutNt4SxBN4WTRebOSKNTWtxpOQC2ENFebVNXRP314qJ5zyevde2V10welJjdnZv99nn33hrrrmxiT+0u/vslyPpJDbeQ/lu+9+mJCyNGdCtm7d0a211ko5219eTMWr9+6RXL+XW2vNtXwnsCByAUhIV8Ktt4126663nvvzn07MHctxI667wd381weScmroyypGvhByKim2eUCEykoXE4fCXghUJMeemDqtsrTtYQP2c5ts2NutvPJKyT2WFF7Kg4W3Djp8YCWtGWpfiEdZPfrQdTky+7K8cbTbaL1elSpMayILVjYhHsC5kqXxrKkpeS62QqqRVxMhs208CXUI+0I6xqZBeIyNqwJ7TWk5oG4CCHfsUfu5zTbb3OdTsdx334PuupF3eA236557uBOP3t+PphBuu+12N2ToiPKt5B7lDeoYIKYIquMg1B/33cXttuuurmXLVj5PH4j2zHkDL0m0wj/d0Uce5B0wAs6bG266NymD1ORUHx+w5LPkslC+iCPYbZuOHa+04vvvubog8RhcQBfJI2P+4R5//Jmk7CsTLl/M9Krttl7P9erVcwlNGGrOUPuKTGjSM06p0GgMPxs3bnwl4qHxrKxYUMbW1LRezaXaxivGuTLt50nJuakbvDYhAuZD7BhrWopwJxx7sNtyy9/njmV90GGXX+eefua55KNs4s4755RKjXMcH38ZNMx9/MlnfrtFi7b+Olv32cCtttrKbtVVV11CCCHShAkTfTl9PvZL98TTb3qzUsC87Lf3rv45gIRm2GXDEw13t+9muOrKi/1H5Fvsd8Ax3uyU5sP8EflAobZubeORB2+opGX69N03Kc/KXuSs7TA/BkvEs88+ye3yh83K96Rle9CAc3IVQdjG67v9gT4Nbr/lYl95kg/QmAxlA+GxMbRp1ylnajJIorbbeHlLQbZrVYYJVQh8RRzmVQX5aiXF+UgHtvvDtu7eu67PCTvnvP76W27f/ie6V197xw2//EJ3x2035EiHecQQsT32OtC39SDDzSMvd//+14t+/OUJJxzjx1nGan7yaEvsttuuXnsxSfbF5x9zp516rOveYzX3xBNPuQGHH+/22ucg98wzz/gKDkE468zTvMZj/8033+bz+IgH7b9bkmZcafouvJt936o4q2oD4fBBSyoFuy1AJIBG0+RhwrnnVmh4IE3LOw8dOtxrT5FHkPblWbRPAq/zh199ky9b5duRQ5Yc3EcgbbfVVRDiVxurCdS+oVZAwC2pYkSzeTYor5jYgvGNgBe2x1WkU0238so93fCh5/tComCo+Wg/HX3sGa5xUqEwiBmSsA+TBMLttMu+3rt41hknJmR7xY+zhGgAQcDkYcymxm/u2/9oHxjTSf5bb/3Td7gjFISePXu5k0483r3ywgOehIcc3D9pN77jjj/xbN83CAF51pNOPM6T85oRt/ptsP7663kTGOAQQrB4R70/gHxhKJRv42KBwMcggkmbWcIpLUI8+ugYP3tB6LPZmq5dh3Qpf44VaQH5jOeUQKdWWMW4XhSC9qVlXUGUjz6Z4D2igGN0nKBr2OdT5QC0sgIz0Gm7W9RGP161NZ4extYKKQFTQhYLS5pCsQ2C3Z/G6TNIcDEL+WCMnIAUfbbe211/wx3eecLSDXTe8lEee2yM23rbvbzGwRx87ZUxXrNBWEwcTEE6zzfdfEd31bW3+d+TMTZzl536urPPONqddvLhbsdEs2604QbunXff897LQxPNRkf7mDFPJKb6bP9MaMRBF5yXXP8Z1yfRwJizIuDjY8a4fnttnRBsvhcaPiTH86y2NrbvqPcMIVKFpmiMfLG8WMxM+nywhMsCx3z7bdr/CWjH3XL9ee6Iww9y3bp28Ps7dl7eb5Nv8e4H6RA9wSoESyyRc+jw+3wXTwzSmiH0DjShQKwDPaaI+A4hufOhYBsvaz7ey6+ltQlezdkzpyVtvB+8MGhQajHQscQ1hb1nKIxdlu3ptuu7llut9yrurHMG+w5vTMe+fbfx++n/uf+eO9yGG27kh4rJu0jn+q2j7k3IMdYduP+ubpu+W+b6goqBakCId9uo0QmJlndHHXGgH4oGqCXRjsMuH+EJCFq0bJ+U+Wx3/rknuQEDBvhvgWZFA4PGTfCgVXg61aZmuy4hAofOlU23SAc7s18EVTqr/QnB7rjtmlybqxAoxxkzprtd96wY2AxxQg/r5lvuk5RDhcYERx91SKUB2QLHAh1vzyPduk1nPxzyV2vj4bUJGc7o+1DjqQYulnRAxxLHgvbFYhDLE+loE7Vp28Gdd+6x7rmnb/Ptre9/TBcaos2GV5Nj0Uh/e2C0J93tt45wa6+9tq9oMBsZQdJvr519247zGd1eCAiJAh+BsMceu7nHHrnHHdB/L3fFVSO9dnvuuee92bvRRhu4hx4Y5f7y57StM3fONO8N/fiLSeXl+R93zlknuvYd0nlmaD3eTWUtTc92xbtXjmsDEEnEshC57D6ldU4YJk762Q0dFm+/xTBx4vduwNEX+nOFmLYClnTg5lvu9BZLFnR8eB79tqB0YeWhb2CptfFipmaofkFt17ohsWwc5oEKgfsl0Sq93YvP3uvHSAJMjtGjH/BmHFoHDL74Mu/RbJJokZtvHO5YJwWTEGKAN1571Lf/BAqW9h1ufrXtfrfhDm6lVdfPtfMwL0eNGpVr4wHFuLPvGjXSa1UGQx96+Cnes0o5H3zwQe6G6y5LatpO/tjn//6C38c78Xuo2/86zM9woL2XRT5QUQYVXTI2aJ9Nx+IYQg3Ge1kyFAvOYcrVzrsd5gen06cZmoS0t3FyMW9xvwNPdT/98E0lrVoV4LmuCiAhbTyUSkmTeXXSxqvRyJWp0yj4X3xXwpSfKtvfCDO1BoJCbN3EAiZTGlefsAiKBCzd/sV17NStkhnCRz340ON8t8CB++/jTj3lON/PtOPO/T0RcXbQ7mKUw7nnDXaHD+ifIxxlgQDcN/ph9+jjL7hZM6f4PjrGYdJR3qFDusQ34O+hY558xU2f9oOvkbt2W8X123tbd8D++y4x2oNnOu/PQ7wJecFfTnV77bmXz6f9c/TxA30XxEYbb+ZuumFoYs608vsg4t77HuuYgoXJCTSyRahud47K0JZlDOG30jnVRU3Ot9o2JKW2l6gsInkW2k87EzAtKDQ162Q+npCvjSfizZo5y035udR9O/6jRNgml59ZGM1btHLz5s72sUXTpqlax35HuJnHJtKqXRODFRSId8apA9zhhx/mvWePPPqIu/rae5Ln/8GbmJht1FiDhwz3jhSAkwMNTs12xbBBub4hkeORRx7x29tsu603PbfffrtKfUKWULQLDzz4CP8O1hzaa6+9vKbFlOV4nTf6/gfcuX8a7B06aEJIRmV3yunnu9de/Yd/tuuvHea9x5j+OF0GHH6yv6bae4CyEQEhH1rQxr8F8IyW3LE4RFZ+bcMSV8Qr1I9nh4zpGa0s5EONRq78NGWRH7Ey4bvPqkS8msCSNSSqgOPk47E/ufvuGZ087wTXvv1y7s9/OtZtuunG3j5//PGn3CVDr8yRg/adtJwKDvNnvwNO8pp82eVWdEOHnJmbRpQFiHrFlSPcnXeNdu2Se9KVAd55+80cCY84/FCvcbX8H/dDo+6x1yGOGe3XXTvUtWnTxu9DS+N0gZSXXHx+jnw3jLzZe2ZjlVLMUSUCCjFi1oSoIk5Wuir7BbsPxNJhXJvo0Gn53FzT1q2WyRHPjlyxzhVQI41niYfGw4bNGrmCxpv80xz31ZfveQ32W4HVqP37H+hOP/UYX0j81faCiy53L77wguvcpafbbZet3P7993E9evTwhaeP99JLL7oTTxmYvN9Ur+Vuu+XaSoVK++P55BpTp0732y++9IaP5ZkE9959S26IEpoXZ8rFl97oJk380o+AuXzYQLfzzjvmBOerr8Z58tF1cO+dwxNTpmOi+Wa5Xfc43JMfc/jMM07y5OOb9N1uPzd71s+VyAf0DrXhKRZExGLImpUuBiqLQtBxYWz32bSNi4WIV0jj/SpjNX+cvCAR5plVNjXrCiIcaNe+i7vlpmvc73+/RSKoi/wal4ccdrJf2wQP4i677OzJZG10TDyGiGFaLlgwz5OWznNAedx1193usTHPe4JZMzI0K9nGRAwJC+6591534UVXJ+U2w2u/c885PTkmJf1HH33k+h94rFt1lV45zTd16lS3zx+P9e3GoZcmZN1pR0++0aNHu6GXpXPNssxxyIfzpTZJaCHS2XRVYiHcrg5ELqHQdgi7n3Q+4tXJ7ISqaDxMTZZ8+OC958vPXrqwms1q3M5dVnAP3n+7W3PNNf3zj3niCXfKqWdX0n4AwiHEL7/8snvrn++7W2+7I1eBbL/Drt7NT2Gi4ehcR/N07baqXzuF8ZZNmlQU9Pz5c927732YlMvn7o3XX/Z5mLCnnXLsEiYq1zv62NP96BU06jXDhyQ1aGpC04bbfc9+bqedd/P5VAzjx3/jCdmmTSf32N9u9s8NIbfZbo+cE8tqPYDwVBUhUeuStCFESJuOxSCWVx1kkZO483JpMyHmXPmf1Xgh0YDy0HRPPfFQrpP6tDP+nGiHe9xlQwd7LQcg06OPPua11+uvv7LEtXr0WtO9/uoTueXnWHj288+/cjvttH2lWQtZoAzpGL939CNee+LdHHDw7u7gg/evNOKebokLLhzs+m6zs/deqvZk7tm1I250J590rDvqyAH+41J5nH3OIHf2Wae4/vv18x97h50O9m1YnFDAOluAhEHCVFewhA1jYWmQOEbUfCTNl9d52Z5RjVdbbby81UWq8eLqGS9g85IF3hOEWbY0ALmAtBwI8yAdnkMKQaR7+slHXb9++3hhpQI57IiT3Iknneqee/YJrwUfenC0vwZAWz779P05DQSJGKfJ8LFiSAeouBgozSyDt954wa/xgjNnq236eUeKwDUfeuA+73zhmdDOlPnpp53ktSXke+211/03YEoR2hGnCissk9e9e5fc1CO0nvr3BAhnSafaPYxrCkiVFSuIjGHQcTauLiBNViyCkVa+EDsuC02bVvThIWN8M0AZIyvFIu9dYDK1bWxsGq73eaVNvetV3sW6gCWYJVwI8o8/7ricu56xl7fdeqO79ZaR3uTEpHzooYfddjvs7gnXe/VN3Csvv+DbcLOStp2uwQgTOqzzAQ3I2E0CnebMYqBDnW3acJiSEmquhUfy+Wcfdyt07+T6bLWdn98nYIbeesvV3uzEIyry0cbr0HF5N3DQVb7PEaIxbYnhbox+wVG0cEE6dpI8O1veAoHgWSzZlGf3xYKOt3F1kUWqGPliQftsXBWEhLNkC2N7XL6RKwC5ApRPsWYmaDgoQXnaA8NzmWXoZ2IEPCMjFid5/0nMzVI/xGnevHluRtLmm/TDT27O3F/8wFnaPna0fG2C64p0gDXtyYvFo26/yZsAaJU9997PXTLk4kSj7ZsIWAP38N8edscdd5IrTdpiZ555trv7zhtyHeznD7zEfT3uC3fnHbf5xY44HqTvvjgpjwbu6aefcecNvNwdf/xx7s4773KvvPKKD19+8Yk/97NPP/LbY8Y86a65ZoR77/1PkyuUuVVX7e2vQ7/f9tttlVy7SaL9LvPl/Pst0rlmaNKSpCa98MJBflhat27LJcc3dxtvtI674847kvKemxy7iTdTO3dskxD3zuT8Zdy/PvgyKZeZXps0SJ6R2prnTb6g/2YV2ykgGtvKi+2zscim6xCTRzor6BhiYNM1gVpENi4m8O0gqo0Lgedt0ZL2W9JudtOTdyhLZKVrUv4tXcuWLb15iebTVCM0X1puKXeKQUGNl2VqAkzNutB40mqhdottSwt26ryC7/hmXN7e+x7uTUjNLnjqqWfcUUcd55bv3ttruYsuTKcJAcZkogEvuOACvwARGoc2LZUOeODBB916G2zr+u3b3z055n6fB+wzxgLX5J7bbN/fsbASoOP+qCMP8VqYSa9oSIFnxaFz/IlnJO/wvS/3tdZaw3s+MZc//vjj5JnKvMmMGXrDyJFu/NcfJnkLvLnJCBy0XpbmA0wryoJIFsYgzEPIsmJ7LEF5Cnaf0jaubcS0ZeGQVkgyI2njCQsWVCgYvkd1Nd4SzhVBXs2skSv/eOPDpCZe5J0rX3z+z5xGqikQWpEpNC3tdrgP4l13zWB3xFGn+tkF8khiFu63/6Fu9TU389OArHODUf+Yo2jAE44/0ueJkAj/MccPzPVR2udZeZUN3IYbrObXxgzxxpvveYeNBedBbBwlADORWeoHDzjez0JglA3ARF1/wz6u+wqre+8lz4KZifeSeXr070FeljHA82lhKz8NKLAjfwScL7QDbQzy5YXIyl8asORW2sZZKLQ/RNflV/nt9uOpA/3HH752P02uPFazqrCCbUll01kIj/nko/e89kOQN9lsOz/y47Khg3LDvDR2E60E6dBCAoI96o573OVXpNpI16Yb4dSTDvYaJ1wLxDaq+cCpln3a3XTL3f4eerYtttjKD8ZmP+WLFqOioOtD040475ABR3kvLEPT6Mu7fdRd7k9/Os9deuklbu+9dvfetD/sfLDXeBYxy0N9jCIjECGBSGlJVygGsby6gEhlYfOUjh0Hwv2x2EJ5Il6hfyfU2UrSIOZcwasp54rtPK4qYqQiD4FXGmg7BnuNgX/+U26s5ZnnDPLaDweKSEf773cbbl2JdKl2TwNjOC+88EJ/LPfE/MMrytQgNFNIOkBFpaDC5zddOGrGPP43ryEBmpD+O1Vqa621lnes0LFPJQE4jz68iy4e7vtOqfQOPmh/38Vx1dU3eo8m559xWsW6kBAuJB1Es6QDpfPneLOUznsGEhCYhkRgX1lirpaV6R/tqWkWi0U25QHlK9g8pasDiBDC5imtWERSHJ5vjxf5bFAeq6QDJsLKiSXUxuyEgm08YG8k4NXkAYE+bFVQLOGE2PEWnNd9hTXc8celPxzExGQCKyanAOnwav4wcZy7/LLL3IBD9/fCjd3+88/T3GlnDPSmp+6FhuF8O/kVguC5xIu5zu+28YNpFZgUiocTj6pAV8RrLz/ktR0Q+SAoAfINOKSfzxMuGXxe8lzT/YwIKj2INnTIn3zemCf+7k3VHRJtKEKH3TkinNLAEtDuFyAj7cRKZCyd7clINwXBQkSyBLSaL9yvWAFkxcCmqwLJpGLBboek1LZIR8zqYpCKpR/qoo1XI43XqkXVC6eqhCsWnDfkotO8MFMgmHBDh5zltwHm5X4HHO87+iEdneEqxEmTJnqto7ZZrxXXdW+/9ao75eQTcuczTAyyrbn2Bn4UDMvxMYLlrDNPzwX+jc66nEccdZxfJkIE5BoQ2JLv6mtG+vYB+wYceqA32SE0wNtK1wgjadBwlH+fPlv452IA9uzZiXZK3vHUk9N5hVkmpkXWdkhQoDy0oMgoQoqMIqQ0JIiRJUYqEObbOEzHtsP8fHGI0MkkAoYxpAo13lLrx8O7FtN4YPbcqtn2IpiNheoSTsA8w0wDrNLFjAJtgxNOPsd99cV7lUiHQH/xxZdJm+o43yXCM+2z7wF+Aqw6y9FwEG7b7Xd2Tz81xpPnheeecuO+eN+bsMxMVxj457PdF5+/7e4cdYtr2bKdJyBeUxCSD1LJ28m+EVcPdH8ZdEXO5MTZgya7464HPclENLQeP0hB6/G7L5xKFiHBBDt7wyJ2vPJi+0TGkJCWjNKOYVwTZJGoEOmIFbRttbRiQdt00cQ0HrCKqM40HrVyFqTxsj4qEKFCYtltabtCUM0exuDM047zMZpt+DU3ub+cf6zfBrjtH37wXt+m22abrXKk++zzz737XsPdrhtxtZ8hDhEAs80377OTJxxm7P333eHbbVqTJYTOg/CvvPiQrwxw+6vbgP1XXTnYPzekOvf8iu4EftfF2p7X3/BXv007FS1KVwJmMETbLjFbOXfEDffltPW22/Tx14rBezbLA207pe0+pYsFZJRGtOaqTFVmdEBGNCOrb0NGYEmYRcwwrgms2at0SDYbKwh0K8Q0HuW+VNp4+frxYhovi2iC8i3Zso4FlmQIWCxGi4gMjP7o1Kl7TtuhQfBQ4iRhChCAdN98860748w/+2swTOzxRx/KufUB3kVc9sw3pE/w7Tef9O01rsfIE9pyBNp23bqv6rUi+awjAnDm3HTDcP9sI2+8PdFu6br/aFLGYAK8ks8+VzHAfP8/7u41oa7B0DHe78WXXvXbgGFjE7771I0fP96TkR+gcEyIkEx2O5YmViiEmEYUIZWX5chRX6MlGZ7VWBwLQlZaKGQCVwVW41lTs1bbePZkaTyrWoVwHQpLKNJhrH1CPrKBmDDFAHGYxAooCNpARx+xp98GeDa57zFHHeS3RTo0HediEqLF7PLeOGGOOuYUv4/Obk0Not+PNt7Z5w707TS1CbkOWpH8tdfd1GtKngXy0X2AQPIvPAFC0V4D/CCFYwHjO1u36eiefuYZv42GZOY6q1FLSzMDnrKhq4K8tdde06/FUpuwJCyWjMASURAhATFa0ZJRWjEkI1BXh43Zl0U6e76O1XYsjkH70HQyNUONJ/B9ak3j2ZPzeTW12BGDpOkXEsFCslmCFUs2YmkzbYex9tPGYUIp4N91fFwWDgI4RCAE2m611Xr7PIT33PMvzZ3/9JMPVjIdmXnOyBdPgGQfK4RBjD5b9/MzDeiu+PqrT73zBW1Ge+6HieN9QGsyqgRNyYgXzsNkhDyfffKm97QCPthBB6QzJSCvugio5PbdZxf3zLOv+X2Alck4FwcQx7DALRNpGdtJvyrXYkmLLPg+uzyhWFSViFna0MYENKP1qBKkFWNmqoXdzjpGIF9ktATW8YoBGhLCydQMNZ5VRHXWxstnagJWY2aQrkhlSQesloshRiYbW9htnYegInwIJdoDIdc2k1rByScenpybFhbOChwp4MorLq70rwS8in222tFPRP3nG8/k9h1+1Ml+eYs7k/Yfnk768jAZWSNFSzgALdXHKBmm8KQriJX5X3EB/scn7LB9ujI17/HM31Nzkz67DdZfx3tMOQ+giWlfPvLYs7l32GGHvj5+7R9v+OP4rzqQsIsYxRArJGIYshASUSELejYb2yAiEiCiJaOISCgWMULF8kCYb/czSPpX6cfLMjUBzpWyZJ8+kCWdCJdPy8XIpnwbC+E259AXB1g6Ae2BhgCM2aSTHKHt1auXz0ND4KwAOD609B+gjUY3AW0oyKOOclafRmtCUi3jrr68ffc70mu3niuu6ZcEZB7dp59+5vpuuZ5/tnvve9CTiZ9aYrayeJHab5C6TdvOPv3xp18mgpZ+3E6dOvl2Je8jDDhkD/fCi6/57wDR9tpjB399Jt1CxnXXSTU2QhsDo1Q0UkVxsbAEzEfEiulJ+Qko6FntM1tSgpCIBJmnMTJWhZjFoKGLr0Id40Ott/FAVnfCjFn/8RoPhJouH+GAJZuNqwLOkdufZfnoUFZbjX/P8Qxnnp6OjwRMTBVoKwkiF2ak9WpiGg6++FLfp2bX52Q2OiuXHXF4f+95RMsC5s/R7YCDhGdj3CYWA+TDnEWImCArdO22kn9nht4Jyy6bkvHNN1kgKRXm3XbdyWvp6dNneqJRkXB95vEhBJg/jO+UwIaQQFryZYUsWPKFwecHZBMBs4gYkiz27LE8ytCap2lIiQhExjBon2DTFpWOca39upohxAe+j0zNWm/j5TM127Zexms8UIhoAGEhhFBebJ+Q9YFwZNBXhrazTpXRDzzjx1dutummXlittgNqFwLWw2RYGGakgBeSTng8msxmEFjuj8HY77z1ZK7/DucLWhJTlHsK/GlI5Fl3nTU8yVhiIpe3dlppcBzPCIkYh0k5vPTq234foHJBO06cNMEfA1isCSHEUQRWWSX98QfwXQc5QuQnlAVCZ48vdJ7+/a575UMWAUPwfXkvGys/BPtDIuqZgH0PvRtxmAaKQ2BqZvXjqYIGtdrGKwS6ExirWQwQplCj5SOaQIHHPoY+xL77HZLTMNapgsud/x0Iz/w9dWzonrbQIJYdFka3wJ57H+AHV8ujCfBqYsrK5IScEB8vKNcj/x+vPOpJAUpKWvqPhMbjD7Hc+8N/84/09N789IQ8FuAFEJLB6IB2nn3GtdZc3X3//Y8+DUn5Iy3gPxZ+e41V/DbIEnCcCjaEsESzQmuDhSWctF8YQoiA+Yiob2tjvrvSWbAklFlqJwlbcpHW+2SRj/YbGm+pt/EKdaDDciaNhh9EQKgk6IC0zEohZl6GBS+ygVgeYN6aBPXhv43x99h9twpzcvT9j5Wn8gNy0S1AW48ZDcDPZkjagBBFpixaFnJCfGaVY64C2oaDBp7k0z9N/sbHFgwNk8YDvH/7thUfEu8leQgQfYkCGnPC9+nwMdCrx/L+uMk/TfV5/JAlhL5LFtEsCW3IBxHQhnzIIqCQj4AWfGtC+N1jkExxLO1la5ZahEQTyGeF9Bio5GKoE42njx0Cloc/exBEMoLSyrew21kFGstXnuJ99t7Nxwg1JKPdRduHgqK9NG3apEr3otsgBKTDHKWtyOrN9MPhpNl2h/19O+yoIw/3x0EItCxdDvfcdatvA9548z05QuHyB/SvkUf5MZ2EZ2UKlSoIfvXFM/EXIZUxiyqpvOir0zXxdjJHEOhYjhv/bZrXs2cPH2cJsUZvhHEMVSEiKIaI+bQgEAGznh8SASsLMbkAKj+lAUPtuIa0YWiWCspT245uBYusDvRa92qCLOcKXk0tey3oRQFpbdt8i5BAYVwMWMVLfXGM04RkeP4EVhMTVBF8/vnY8pwUEAzS0ZZ6cHT683rydtn9UNd1ubZ+qJemFqWd1/N8W481U/gvHkOlIBQfgxkPPD8jaFRDEkt4NB4TInGcnVCLBrts2CDfR0hfHc8A8HaO/+YHnwZdOncsT6VgYiaQd9ECktE3FSOfgrZjCIlYiIx1QcJQHux2TFasvOmbi4zEfIuwbWiJKMLRjxdCFZ9tCtS6VzOfcwWvptp4MWLZF80CBUDBSSgVW+gD2I9hY1bxAn542JXX+a4C/k+OsDO0CscL3Qo3XHdl7jnHj/+uUg3Fsu6AGeFai4VfNa+7bm//+y55TyEChICgW265pc9buDAVdlaMpsxw5PAeXTqnZJDWkoDQYc6z8hMVjuvUMe0L5HlpCx54wAG+7xH8+ONP/vwWLZonccUwKH6VJiAIIrgvI4Q6EPosUgmWfDYoL0RVSRhCQp5FQNs9EYPkpBABgb65jZFJySXaEBJyTx+SZ5OpGVvsqE7aePbkfP14NDi5mRYG4iX0QrEXDUEhKWjbxkJINBB+DNpetMM0p+24ow/1wopZgHbi/kceto8fhcKoD4BmoZbiuMXJO8+ZO9e1b98156BhSs/+++3guxe0vib3OOCQ9B6MFlGNx88r0bp8BMK//pXODLcmpMXHn3zsl4jnI/O+PXqs4D8mz7vqKqlXlIoDiNRotMaNK/7jHYPKxdbc9pz0e1UE5eWDJV+MgMCSMIuIIqBI2KRJ5XcRAUXC8HsrCKGcWGTtCxWAlVdiCEjgu4jYDJYOEfumtdrGy9ePJxcrbTwK275EFiy5YpoNqHDDggZhzaj9dAewlAOaiH8MrLRS2mHOqH79z4BZCYAfg4Bp0yt3juK4YJ/I9PPPUyt1L9DxzT2+/upDPyyMJfsAZKRjHHNUfXafjU3bj+3bpZ3waCNGsQhM/6EPDvAOrOEBUo1X0R1BOf3yS+oVzUKbyIz4mAaJEcySLwzKDyECWiKGhCyGhDYOEZLQIiYXwMpWLAZWNpWO5UE+/ksxZ9Z0v6BXCPGBSrvO2nhZpiYaL2zjFSIdZIsVSIhYwVrogyi+576HPcFYh5KRLNRIECidy5b+DWjllVP3uwUCTeVCbQVat2ntC5PuAdZWsWDBWYgdjmwhZrzotBkLk/bCXH9vtd169ugarR2HDD7XVxCAPxlJ2+HR1HWFZs1a+G+AycwfboGuyT1EbkBNbYVV2k4E8ssAmqC8GCz5YgQULOlCAgJLwBgRrRaMIUY+kEVAkFWph5AGtFpPMsxKY8gF3zVERflX3L/W23hZQOPZNh7Qi1hYghUiW6wgKXgFbdvYgsWIWICGTmj6w/T/O2YmqJDCgsQ01HvSd/bBBx8m7a8plQhAv55IZ0e2CLQxp05JBzETAB+fP/4IU8r/LMTPTFbovoL3wvL3VzQlpOOaeDSFL774wsft2rX115wy9edct4O1QFq0SB0+c+bMyZWfBNlOh6kgWrr+JlBtHZIxBhHQBgur/WxasOTLR8AYCUMZsIjJjeTMxjHZE8lsHFptsWe15V+nbbwY1MazsA8MeFmr5WLIIhyIFXQIHYO223PPPXLPy8BjaTvNzUOAJ/9QPtIjaRei8dAmFN7MxGSkgY2WtD8ZoZN8yNAR/vr8RATw80nbx8a1GLaEqSgnB+/ctWv633KAKcvz0P9GuVJr9uq5nG8HQjo+Ju1OgUHRoGXL9Pdin376pd+mkuBczGsgxwx/GrLlhcCkJEjzLOGA0jZOQ9W0YigDQox8FlkEBNXRgCAmR9J+heQwVBqxtp0Qs2LqpI0XuxEaTyaaLVy9XL6XBFmEo2AVLGyNaIPflxz7x37bO/3vANxz3xOeLHgkhddff8u7j3m2nj0gSzroGPJ9/PE4nz/w/NMrVT4XX3KVJ+S1V12Yc7Jcdc2N7suvKvoBIQFdB2gdlRVLTwDVjjI/paGUj6lImrUZ6ZOjzUh7kl80Y8JKgzLiRdqa4/mHOJBW/fiLST5WmVhIswFLFEtKoYKAadC5xCEhBRFQQXlCWgFUbhcKImBIwvAbW8RkRLIUylUoj2EshNovq7IB+nagztp4wN5IQOMxVjPsxwtrlvAFCxEuRFbhAzvsR6NUEGCmA/Gv8quuOD9HFvDQ357wz8P96XBGqCEK/87j/3MMEeN41VwyMemMlxZE05HXpUvqEAEQhgVugYjH2ElVXJiS6oNrmZjBAmM06Y+T6UonPb/koj1J39KCBYSF7rvvJvpjMWcBXlH+EsQvuujf4/uMG8uS8Slo26VCbgQzIEVWOgYISJuHWEAwRcYQsWtbWAIqZipOlhaUDMTkICY3vq2bIWcgi3xgSc2XVnyCLBqgShEsVY1HDaw2Hi+hkIWsgggLTgUcK2gLu793797+IzMZlrYdzguNqQQ4TJ5+5jmfZtyjrUxYWoEKg3+UC75PcPgtfvQJ8+4Euid4x5XK+/Uo/H++9Z7vBFd5MSxMJiVgVTAqAt6/Q7lpOHHixKRcS/025jFaFwfR3vsO8P17HIt2fvHFV9y551/hKxmOf+fd99ywy/+aPH+Ja9O2k78HsxYgdqy8rLYDWWNrQ7LYbSDSSRNaEubThiC8pmC1n+32iJFPKCQTwMpZTObymZ8VGi9ODSpRgQqz1tp4FoU0XuPGLF1dcQm9UAyxAojVVhSs1WQWqhFtABw7Z85sN+K6G9z5A4d6M48VvywuGXaNrwl5xh2229JXJtReEAezFMeJ/qkHWNiWQbZHH3lQTmsyTQhthwmoQdU4YyAIYyX5OSXkY9IsHk0REQ0FIMuyXdJ2H7MUQKeOHbzgYoqqjFQuhOtG3uFmetI28uenQ9PSjvSSZs39t/nn2+/4PITXejKtGQREOmKbzoLOC2MLBFT/GhBi5LMIr2MJqHT4jS0kG1ZGbJmFCGVPZLOkCwmod4rd3yoilXGtezWzuhPQeGVl85MbVhR6+PC8sEKIeAEtWaD5PgBQPj9p5N9xYMhFJyfPUnE8JiP/PQe0+zbeOJ2xDcY88bTXRiefcITf5jy/ZESiHXlu1rwE1GbXXnebf0ct2wBYYBYHTsuWzb3rn85zjuH3XKq43nwr7VBnZrvaeLTZgDrKmd5DmTzx2L1u3fXSsZ62HIBIZbUDS/0xBcoSjiDh9+kkaN6kRUhEux1CZNH1lQZWC0pTcH9pQgudA2wahOanEPv+MVkRssgXk0MgubXyq/cITU1gFVGdejVjpiYaD1iNZ8FLomEsVCOFBUPhxQpwicJOPoj9OEpznLQCZqQ1MSER/wpXoWqqkArv1tsf9i5+ZokDNCBtRBwqaDstB//SSy/6a6HtDhtwsM9LteXD7o/77uJJB+g8Z9xo8+bpcDHu8+FHX/vyYIYBldmsWTO9Ocmz6rfQn4/90hOOmeksJMW7MF2I5ft4P4jVtGkzPz6U/jy258ye6a4ecZc/nw9PqBD4Bul2uXBTQfqZJJEAFFvyKWjbQqTRfZUGlQlIurIZShw738J+XyFGQJBFviwCxmCtNUvAEGEbr9Y0noVMpZipqZErwBacrVnsS8YLIZtwKmBLNCFME3T85ptVaDM8hPzxR9NBNtp4M7dN3y39+1CZsES61XaAQdYQjKFlobbDmXH/vSNyfXw3jLzZk6dXz7S9B1iigWfQ/9FZMHfSxHQZhzXWYGRMI/fKq2/5bYhIxUYe3Q377LWdz2c0CsR6aPR1/q+yel80LZUK/XmUOR8dISFWkMCzX2SxBIvBks+mBUs+hRDcD+GLkUhEFAnTvIpvCDhPwULvbr95jIBZshSv6JfUfvnIZrHU2nhZpqY0XgyhpouhEOEAhW1H1YcIPxLnbrLxRj5NbcTq0f4f4Ukh85urE45NNRXAucH0IbQdf4wFDOuiTQV22KFvJW2HI+nB+/+aGyyNy5/21v799/DbgMm2tE833GBd394D773/b18eEJSOc/DSqx94YWCqj/DPtz92++ydLiEBWB6e+/Nx0XD0+UnTMsKmQoAhS4XQEhonbUFMS0skla0tY8UhLPksAS1iBNT3sM8SQgRM0/HvGiJGviwvaEyushCSDxRDwKXSxsuC1XjA1iK5uLy2UY2jQskinWALuHK64mMuGaeajzYUswT4/zneRsDaJsOGnOHatWuT0954JxlMjLZTW+z0swYnhZo6Lk44rmJx280229y99lLFMoCQGpc/K5zJWQLGPPmK22TTVONielJ+5FEe2/TdPLl2mZs06YdcJz7z9vhwLGy00x829yQDr7/xL7f+emn3BFp75oyfvRa1o2ks4fx2EitYssSEEyhP+7OOAyJgjISWgIot7DNaiICplq5MQJ0TO0/f2T5r+NwxOQtlUYiRLx8wNa0FWKdtvBhiGs9quvAFhZB04QenUEMtF36A2LbyGMFxzPGne5MPMBZy+GXnJIRM3cQU2i233uO9k7ThpO1YB/P999/170B/Hm0tQfPwAN0MLPeH1mEenkxKFlKaNWuq23GHPrn2HsvvkQfxWQmMY70GTAjPgGy17+gy0CrXTNAtLZ2TaNaV/fb773/oy0P9lJB+3Nc/+bRgtZvIoXJVudgyygf7Pex3Eex9dC9gyVcVAsp7KALGSJgFKyPhs+ar5ENUhXzW1KzzNl7MuRJqPMALxGoVUAzhVJAx0tkPoI9ErBdnm2NG3HBf0kYb66/NPS/8y4mO/1ZDOALtOvr56BQ/7tgjfeWC2XjxJdf56zB+8pyzTvRpCwjH8g7b77i/++bbqW7Awf28OYkW+/zzz7wXlKlCzDQnj32j7kzX0ezfbztPOu7FiBO6BejSUPtu3ISpOaK/+dZbCdHbuC22SJeYoI9xjTV65/azfCDdHAJCLs8y70wXT9rNUyHotuyUHwbtE/Rt9J0UQuQjYoyE4X0rm56KKxPQHi/EZCXzGQPZy9J8ImA+IlrnSp228YBVrUK+Np7ACysI8Y9XUXggVtD6GAQ7ioJ0SsTKr8I18QiuvfZavpYiPD7mKe+FxGSkU1ykZZl32ma+n+z6S3ITYQETX1lfhZ+XXHvdrX5i7KA/p/8+aNiwiZs5c4b3LKJZmfVOHiRjrCXX5Eckq62Waq8vvvzCe19xnOy++87+/vQDbvy7ivVSHnjwSbfVNr/3H5UKAVP1oP3TZS0A3QcCtSywAi+o7Gw52vIMER6TdWzs+wnynMYQ04KCvZf9jiEBQey5QvkphnwgS0mArPdHjmqjjZf3V8xoPBg9c+ZMx3IG9lfML770Rm7s4Ly5c/z8JYGXjHWCF0u60DtmCz8kWAiZLriHBw86zW266cbuu+8muMuuvNnPgYN0LOOw7LLL+YoFL+Y1I2715t+Iq4fkBlTTthp541/dnXc/5v98wwc64fhD3VprVpigc+bMcxdfemPSBpvizj37OD+hFeKxDJ806JWXDfSrTXOva6+/1bc7WY8TbctHGzpsuDvzjJN8+40B2f0PPNrdNeoGv6gSfxl65LFX/I8tISLfZLsdD3UsM8G5lBECjbBTtiqzLKGJQWUtEsdQzDGx/i7B9vUK3bp28M6ujTfeMClfpmelw/dUyRdKE3MOQAtBCP2TfMwTT/jRPZqdEXs25JNvLuLZycOAsbdNS2inL3CdOpT4NnZt/gM9rxQjLHg1YxovH4ohHYSLkc7GYY23pFar0Iw6p3Hj9FnZfuiRp1y//if6n06OHftVIuyH+Z+IiHQML+OXXmD45RfmSMfsAzrkb71ttDfzTj/lmOS8K91GG26QXJcBzS3cj4npOWjwCE+6/vvt4UlH/rx5c9wVw0clglHqjj36wFybgLYnpKNtd8D+6ZLu3377rZuzIJ3TB5gZwQdnKXgcRA/97QX/Tzw5XWiHTp+WTqhVBaOxsnp/xSCmMULY8+y5FuG1s47Lpw1DTUhf5dwF6XXkR7ByVkyaciGojCEiM07aJRUdlkmrVm3zVghW22VpvhDW1LSgUqrVNl6WcyXWxgMQLka6fAUAsj9m2gaIkS6E8jgWjcCMAzyCG264rrv/3hvcSScel3wM+sgauaeeeiYxIa/wx18+bKBfFgKw5MNxJ57j/+56z103uIsuON39/vebeW8pgFh0G1Cj4jiBdFttuaknHe06vKVz58zw7T2IKkcLCy4x7pO1VHCq8HwMYzvx6HQJesaS4hA6+ICdvTB98skn/j/nWsHad1/ckq6EnRIqLQ8cKxJ43l9ka1ReAQFta59CDFzDhhDKC2M9QxgDSzql+elNi6ZppUFZ8M5oDpEplrZ5lCEBIrINmINJ6Natm/dW77XHVsm+kkrPIoRyarWfEJNZkRxAdJ4dUA612sYrph8PIcginP0Q0nLSdDysggUvQ4iRzR6vdkMY6xiEi/4wlurr0aOHfx8w+OLL3FnnDPZpNN1uu6WjWa6//iavxfjfOH9k7dChYmYDo00g3LnnX+77/zSyRaQDtOsYkeK1Wvk/HLgnHs9JP8zwU4t+97vfJe/WKGlvjvGL0Kpf8PqRt/sy2r9cGzIWVKTjA59y+vm+EtG7A9tu0vs2SMqWAJQOt3NpQ0KFECpLe19BeeEx9psrDUQ6Ymk8fRNV8MQlJWklR9rmK1bgOMgoLYj5ydSs9u3b+fJjsMTqa27sRxHpWezzAMmsSEesdHgsCJ0rQo01nj05Xz9eISzxguUfHMQ+YjEfX7ACl0U+gNm5845bl9eUjbwj49DDT3EPPvyka9W6g9doaDreGdL99faH3c0jL/HtQv1EhJEnV1w10i9OxHkMRm7Rsq1v7/X5/eY50kEu5tDhTDntlNT5wj3ffjt1hvz1pksTQq7qBYYugiuvusMddWT6Xwe0LNrukIP2yA3Itjhn4GWu75Ybe+IKaZlUbtuJVIWQRUT/F9QMzUis72BDiFi+BF4BLFzUxms8K2OqcAHfzG7HII+iNKAISEWF9qGr6LyzDvAjfpo0seMwA9ksJ5+F5GjJ5SsrNB6o0348apIshA1nW7jAajjAA6qxLlR83MomZfQj8oLULn5fRQ2qANingvvsyynurrvu9h3qA444w3366Vhvej768M25GQYI/k1/vT/RjBe5FVbonntffnxy3sArEqJUzHXDU3rFsHO8GUn5EEQ6Rruwwpm6DgAezdNPPcbXwgjI2LFfuJNPu8CbkZAME/LSy/6a1N4tc0QUMD/xqJ52wiH+b7XvfTjel1WsjELTktA4ETal80Hkiy3sAwqdH0Ps2wHMN+SjSaOZ5TkVwMkye/YsHxhFRExeltUlIKPSPhCZaVgzZkxPyrTErb322v5bseQ95EMW9QwWMfIByZFgNZ41Nauq8YryatJgxXbO8mqWzk+XRgMh6WxneOxD6KPGzMolCBqcL6JlQT9UKStbmLzXL27llXt617zac4CZC3QHDB1ylttgg/W9pqNwMf1eevkt/5EAhOO3x0w8BRBr7tz5fjY6k1RxpIiMQLVvuixfWiPz22U0Xb+9t/U/O6GsTz71XH+f8849xq+nSV5paakbcd1I9/fnP3APjb7aExQvK6ucfT9xWnK9pF1T3rajfDTMqXWrZdy80iSvXIhwcgG25fBSnkW+ZQ4E1pn0WrHcUwiyzuO7hQjzll1uBXfIwXu4vn3W82WGjE2cOMk1aP+jG/fefPd942fdSg129X9GkvcwHyDn5Mk/+fVyAKOUVPZ45Mn/8N//dg898rKb9nPFAISwHadyatOmk/dqLiid69dH/VW8moVQcdPKpKsclwtD+QfIqok5jmBJFxIOZJHOPoM0X/MWLd0pp5zg7r/3pkqkQ5uMvPkhP1Od/j40HbUlv/zC9OOjMJXngoGnJmTZ1ZOOMmEUDF7Ks84d6ttu7N98s038Pgt9+HHjvvFttMFDrvdDw8468zS/f8yYJzzp8Jzu3z91sowdO9Zts31/341w312X+64IKkHGnXKvmLaDEGi8kHSkQ9Jpv0XWtxCySBc7J0Y6oG+pGI3XLqkoVGbIGe2zV/79mBvbbLib2+hjN27xE36JxhkzZnjNIu0SxgJmINYGYe7ceX4xYBYPJp8BCYweWrZLxY9E80EyF8rer+7VBNbMlMBDNJEtBhU8kGkpYbL7UoGqMBmJQ5NS4N4KdlvHnnDsvm5AUruqYJh9wE9IPhv7rW97aU7chAkT3YmnDnZfjWN9lBI/FpP2GoOb+ZgQbtzXX/s2H1qSFcKGDjk9NxsdoOkYKQOJn376OT/+84ST/+w9rGecOsD/mYjnwIzExGzVqq0bdsm5Po/RMUcfP9DNmzc7ue6ZfpD0xInf+yFqn376TSLsdFAnGq5c2wEJv0gmxNI2DgOwpqkCkClKrCDTllhpjuf5wiAoTVz2n05u+uzU2GIbcs1q/oEnnED6XzPucWUt0j/4YjpCNsiqdjsxAUcLGqh79265wL8G+RYAWWaNUpyCklGClRugsgBUvPnaeNbU5B2q0sbLa2qC2bNn+3Q+UxOTbvbsdNUrSzpb6CD3ISNmZYiwpgnJBmyBCVzL1roUHmMlt9ysl1u0TGv3j1dfcj9NmeMOPXB7t8suO3uC8H78S+GiITd6occ83mevHfxYTMAHfuPNf/p3ZokFZgv022trr+UECDd16hT38Sefu3ff/9i9++6H/vm4PwQ+6shDciNiIBj9i5jod95+pR8OJlOS6x9z5H7uhBOO8ccxE/79D75KyrjUv5sqIA0LQ+i9wCcCgxDQNJAwKC0HQBZCjWhjiyzT0mpCITw21ITdurbw7WHmQUKoKVN+co/9e2gl4gnrdN7PbdT9j/5daPMBvhnWhORU7XKZ+EB5gPxXXv/M3XPXLbn1b9QMinW0t2tPX2+6Sp7tQKePkO4KmZoQXlpb7cxisATxBF5IbbyskStTfkYYGuSIZ0kHsogHQpMphIgXIxwQ6UQ0XSNMAxUoz0k/Wb9+6Q8sRTqcKMzi5ng+wsorLe/OOSv91RbjMG++9VFPSAjHb5ZxU9OG4Hw+6Geff+6efPolP0aU87kfDpxddurrNt5ow1yXAUDbolV5luGX/8mPUKGyO/O8S9zzf3/BbZeQffjQdJVqRrLgmWPQ95dfpquI2bZd05LmOdIBEc7CEhFUlYxNG83PmbAiYr42YbFtwDVWW87ttMuebodtNvTvAvE+njrG/fun+8uPStFi0Vpuq3X2cN1bbZKYjT+4dz9ItR8oLS3z5b0oKe/FppJokDxr4waLXafOnd06ayzvV2KDsK+99rq7bdToHPEEEU/g+0E8ZI/KEcvGtvFat27ju5pq0sYrqPFo9GY5VyzxEEwLPYgQE4rwmOpoufAaMfChKcydEw13wtH7JEK3yK8sRjvt7tEvualT0l9dCb17r+xW793Dm6KMeGF76z4b+I50C9oReDRffe0dv81oCX7x3KfPFkt0C1CeDE/De7rn7tu6U085LnfM6Psf8B3yeN5uu+XaSjUnJulhR56T03QiHbUxJh/mIYiVbzEohohZmlDtvJBgIh/Pt6hsyTYR36Pzcj3dsYdt79tevA9r5vww/333/dSvcuQT6dq61b1w4xF+/98TXOncSQmRKjywk6fNdy2TYmAUEDFo1qpr0gTo5bbaYnVvsmNR/OMfr7vrb37CTfr+S/8MFlbrUcZt2nb05U1zKmvIGA4zDcgANdJ4lnhoPI2jqwrxLBn0YYgLmZhWy8UG3BZDOvIoVO0jrUK2ms/H5d5OHU8Mybp0budXDWMBI/13Ds1mTRcWMGIkCZ3aIZEsmOaDRn3sidf9rIIBh+zhTjrxeF/GgOUCz//LVW7A4Ye5U45PHSyA7/DNN+PdkccOSr4B7ZK0LKyJaUnXOCFEWUKIrDgfLPmqQkIhptmsQyYkIN0WzVqv5InHWE0E18raDPdZ+ZEplmu2vn8u/meBs4RjAbNA6ITHSaP2In2DGoq24gqYhV2Tdl6r5Nql7uWXX3a33/mI++qr9IehkgvBaj6IR+U2b+7MShovNDXrVOPlMzUBDVCIp5sLIpudTSABt8daTReSDVjCxc4H4XYIziFY8rFNR/rvN+vtNt1k/dwalYLSNKjxZhHzDwNGqOCN7Lv1pn4BXM1UFxjryXQeFjT6bkLq3gaUx913XOXbdLTf7h79d/f448+4SwefnPvTLOXOwrv02T355PM50knTEcJ2HYBgMYh8Nl2IiKAYEgJLQJBFQkGV8CortfeeYks8GwM0CPLIdxLZtC8GyYaFvd6zL77rRt1+u7diJC/2eEu89h06+zKPdSdYU7PW2nihxqPgs0xN1o+kzYF28v+bTl7CEoACTuMKMtn9ANJBXF3HEi/UcCA8f4nrJffUx7UxUCETQ8CePTq6M087LkcwtdkArm3elTLgfVktGiKpfcCiSfTFCZgyd911n3vgb6/42QPcd+VV13UH7LuFn2l+1fV3utdefsM/r56D/jzGjzLRlkHRo0eP9qav1XDAko7rQjyRzhJumYZN3H9+WZiLbZ5giQiKIWMhEsbagSCLhOR37b6q++M+W+XaeGgkOszpRx0//0Xnfuzlll+rYc7MlFZBNpFRoZCGkQLhO7755huJlXJ/TuMJIfnwVegHMbE2Xm304xXUePm8mjI1RTwB4QjNSqCHA1Vtz9lzhVge9xZCU0ckpKAJVww93S27LAvRpl7N519936/ITCe1ff7cTIByQeq73VbuikvOS45JC/mNN95yfx50g585QCc97UHm2+HFVI3NdB5qT9Cj1+pu0PkD/CK8gDl2fxn8Vz/TIUY4AdMnRjrIZWHJFyNjCEu+mpBQZmjZwgW57xCST9pPGi/Wxhs36RPv3ez8w2Fuw227evKpLSUNRhyD3SdNBMh76bUPvMaDeFYWuL8lH4B4VuOxMBU/Dc1yroBa03ggH/HQeCKQiFdJ8PNoOmDbdCFEOhVKeH64HRIuBn10XMScf/45h/mJrM+98A/vsvf7Fpb6v/+sstp6rlVJqZtf1tLNmTnBT9FB2HCA3HTDcO8CL7Z2o6OemeftOiznTjp2j9z0I4aLXX3NSL/4EYhVNIpj5mWTppV/EpMPIp9FjIjFkrAqWhAihui8bM+cxkNgKYt//fC3TK/miu238MPI6GulPWfbcsIyv8xwc0pTErRo0dQtv2wL16tXTz/tChl+9dVXvcb7+uv099a2UgiJ17IVQ/yWbONlOVf0nWpF41FLULDFmpoA4YBwYbtOCNtzhcxLey5gOySiSAfh+Gd1+MP4GNTY1+JGXO+IATu6nXbccQknyai7HnPXXHO912Y33TA0Kez0+nqGWGEjSG++M9aNvu9Ov0bKfv37ueOP6perFXGqjLjxseTDzlrinSqum5RleSUSOlJCEhWLUAsqL4ZiNWAIaT6lBSvoK/Vs4zXellv+3m/n68fbeY3zfXfCl19+6f7x1ljvhFm0IP2zEsP2BLyaAM8m07h6rby+227rdfz3RJ7VxhPxQBb5ZGriC7BtvDrrx4sRL8u5IuIBFlfNESBD04l0xbbp7Lkg3JZgypy00LM0LynzNS9AGBAEFbbaGxT4X847qtLvuYDaXQwro9bTzHVAYUMuZrfTLcHfehbOm+V/9/X559/5Z+V9qTUxaTUgGy/n8Ktvcp9+XtGXVKmMyt9Jz281XBbhWO9f/3WzcXVgiRlDVTWgSEisb0GZo/EOO2ALb2oWo/FW6bSV9/J+9uVkt6g0Jd30WUnl3rB58h3n5eKyxak80Y+36kpdEgtljSU03jffpD9/CZsQAvLQrv2ySX7Zr9fGy9ePZzXegtL0Q+czL0NtJ8QIF2q1Ja4lkkeIp33A1rwSAGK1Qyh0tN+OO26d1I7p0un0z73zwXj31JMvJqb2NLdd3/X9n2YxLSjkd955J9GCD+U6tVVT2mfUux591CGJSbWDe/vtd/0/Dhj4bI/DhLTPzzPpmfMRTj/XACKbTWflFYt8BMynCWMaEFDuFr1WaJlr40E8KrkJs/9ZqR8PMGplrY67ea0lWbTdOhaSWWme1BRslZMnabx8xJPctWzVxm9L49V5G0+QxsvXj2c1HuuuAIinF40JIgjbdPk0nU0LlnQWyrcEKwS1P6z2I1DbtWzVwZ1z+oFupZV6+mPQ+oOGjHLfjv/Mbd5nY7fOmmu5363Ty/FzSbxx77//gRt25Sh/LO8Yttn0LjxnrKKwhEOwgSVcFqGErO18cTGIkbAYMxRkmaLdVujt9thlo5xXkzLHnzClLP1nPQRcvmO6SBT9eBJuOU7yQdoXqP3F9SEepj8WSYjwOSEe32/O7Olu+W7ta72NV5kBCRYnGk/ggjA6q4YJIW0Xkk4ICQeyhNOC6wE6XrNIZ5GPdPogQm5gcHI97zEsfwY6qnGEQDoqnsefesudfPplfjl2BjDj1WTgNfO9qI27dVvemz68ox9VkrwX12HlspKSFj6P63snSXIv7sm9CTxr06StwLM1o82QbCPoBBEpjIFNg6xtG4fkU34+iHS2EpBjRxVEiCzNJzRxE33HtwXaCScKYds1j3S9u2ztA6ai5AKZLBQgKTEOMJ0HYUsazUsUCd0FlZ859UfE5clacKDOZqBbqHaxncpZ0APyUnoxabl82s5CBBN0HcWlC9OPHdN0KjiEuBDpiG3geBEQYkAS7nn/ox+6YZdf5845b2jS1nvAO2Ig1DrrrJnEaSHjBn/y72/6sZa3j7o/OTe19yEcYym5XtNmaSyiESAa0DMgwAgzwl3SvK3fVywxioG0m71mVUhoyae0IPJZEvJOipUWKO/Zpe2S8kzJqbJE3mjrfT3tdTd28st+kAEmqDUhY4HyjuVbQMTSRRXvJpkCkt2QfFg9MkcFOzsBqILheouN0iqEvMTjYQvNx6N9lw+WdBYIsLQdD61gt4G0nA9oCkM65YMswunDhx/fQvtFQBHlx0S7fTlumpsxM6ktS9K2AoTq1/9Ut80Oh/iwZ78T3WWXjXAfvD/W74e0IpxIxrUhGtqMtLRa8xZtPNlEOCv0IQG4Zr64EGKEyke2WB7PKIiASlvS2bSF/QYd2ld2aADaeAyUZk4egTR5tOvyIUvTkK8AtLhSTCatZkvlKn1W8mfPrZC52pqBvgTx7MnF2NPSYCJKFnScXigLXMdqPmm5LFiy2Qa8/cgWCIUEw6aBiAEsAZs0TfLRXImQ81FEMGICpqTyqBgs4QiWXIoltAAhl6C3bpP+09wSi4DzKl9sj1XaxvmQTxvavGJQiHSK58xr5WMBWbOd5wTS5NGxjlyiDRk0zgwPBWZwMIAhDOxjMWLIsbhcE9HvxyJLmmOn72fB9w29nK1aVGxbjYdWrTWNZ09G49HGywIEkcYjzc2LMS+tprNgW9cB0mb5NB0Q+UKNp48sIBRyBkAAIDJYMoqABDSVNKHIKCIS2zT7OAZIq+k+EuJYyIIlTRahbCzPcgw6LobwGazpGTNHLWwFYtO8u8rUQo6Pls1neyLoW0uAbT8eaXk4FydyydIOr77xmXv59U/c8y9/4J567j1338N/dw89/oIbNfrtSjH7PvroY68trcabW9qikmzaSj40Oa01Z/sLrc9DMsZ1aqTxLKTxspwrFFqo8eyM3SzCWeg8wW5T80A4PI6CrZEgROimBiHhLCQM1llg2y4KIiMBEoVkDAPPov0cq+sgrDGBBZY0CtouBEsype35VhNakGePi8E+b+zZ8xFQ760KLiQf5QPJ0Hg4V6zgo+HyAW3TfbkS16VDQ9dt2RLXvl1b13uVNVyPFVZ0a67WyXXq2NX1Xqmt32Yfy2ZwP4EZ6C1KKv96IJXhys8oIL9q42ldVWB9HtXVeDXqx2MNEP7DDaE0DrEYTQfsy4YvbjVdCPaJcIU0HAg/PEIReuiqCjkWdA1dL7xuKKBZgl6XCAmo7VgcQz7tRxwiLIuFyTF8g7D7oWfPdm73HbfM9eMhbzhVaNtZrad+PGaAIJs4s4RC/gdGlehPT1xf3Qn625JVErYCALS/Yx3oduRKTebj1UjjAdQxD1gI+dp24UvHAOGySBcjHLAf2sKSQ5BwxeIwD6+jrkEeaRsr+P2JUCv8Ggjvq+3Y80Tzyt8DkA5NTpsGKhdiyCdTO6wA0XjpMojptyOmG4FRKpCNwFAx+vI0hA+FQNeCAvk2oOHstv29GtfH1GQ9T6GyksjWfFriBNRZG89CXs183QloNZEqn7YTwpcLX5j2EohpOyHUdCAknz40MUIAASUUMViBCmMQ2xfLExBiQpYm+TVhn0nPaON80Dvm03qCyAdC05M2njSFgCDTb0cfnu3HEzkLoVAby69A1mhmpmxmKQB+fS2Eq4xJ7qraxqvRIGlMTf/b38bpojCobsiXZWLGSMcDK18mJhDxbB4INR3Pl6XxqG0xdVTrxhAKUpjOgiVVsUL73wD7HpaQxSIfEYGIiNWwdZ/1fJtMPw0FquRZX3PxtGV9WhYXMftjcQx2H7L8r48muL8/9w83/edJ3lITrMkJkEmZmoxBXqF7p6U/VjPftKCwjSfS8VIiX9ius0RTDLwpWe5IsdpOxCtGywHVqNS2lnRqc1ioxi5EMsES7P8L0YQswimOQWVnyRZuA5ENqK0H+B4d2yxwk39KF0PG1c/IEsVZYKA1A64By/XpBzpKEzNDhZkqgvJnzPpPrmkk8oVtPeSSxWxjbTyN1WQeJ8SutTVXhCyNx9LY48d/5559/lU/VhOySeMBq+3Cdp0lWkg6IYt0VXGm6OPmMy1D0uUjYCiQvyX0WqGVG/9dhYDVNooloRAjYwxUigtK5/vpZGVl872AZwHPovdwJ/IgjzYEAciR0iG0lAMzyj2ZmjZLLLRUJqQcssiHxkOmeV+N1ezRY3nXqWOHutV4xDyA9WpqOQQRz2q8kHgiHbUGaUs0YLdp14WaDlDQmkoSmpghbC0q7Zal5UA+ogErbMCmaxsheaq6bVEXRLSky0c+S7os8lntJ8QcYHJaCKp4icMObnU3haQUwm3rDMwyOfVTSiZGS+Ox+FXLls1d167dkjj9TVh15+PFW5kJwoeVN4e4WbPKwgyJIJwfuZGQTKQj3/6PW0EjASBc6Exp2TwdsEpHNAW9YFHlPjJLOsimAMFEsjAWwSzRYqQTsayQCTZdHUAIC7sdEqWq2xZZ+8L749woFlnlEpZJWM7ECoK+kwKwfaYEYL83QRUvsQYzICcEZAj5kTzxXMgiAXljmJ+VP2SSkCqEitXJ0YZYcGmTiVBBj5YJyQA/Jo2B4xdXwatZsI2HucnUIJbY5r8CrJbM31Cfefa13Hw0agdezhdERGsBFVwICjXmINEHAHygmPbKgv3QoJB2i4GxhD9PS59daQke2xryhAAXSv8ayLp/mJ/v+Xln++7MKFjouuXKwJZJdRDTkIrzoVitKYTaE2RpUE0PY0A8yz4AlgJZf73Vknbdsn4lOpaF5+9PmJjILRoP4hVrZoK8bbw0TonHfDPmo8ncnJ609SAfnZHMWeK/cdJ0McjkLAS7pHY+6Lhw9WoQnl/omvmuYe9jY4vY+YCPIctB54bQMcRCuB1C+wsdJ+gZQOw+dr99Nz1v+P5ZeSHCY2wM7HnKA+H1wvNAuA1iedUFv/RiTh4r0fFvQkjHDy71FyJNiiYAlWu123hgcbnK5INYBwvkQ+sxQxsnC+SbMT2pJZN8YMez1aMe/63Q8DDMy7btWiVxEpK2Hd5MaTvac9Vt34FMjQdiWo88kY9/ftOhyP75yX4LW5uGMcjaV91YCLdB7Ngwr6b7qhvba+ZLC7V9bCxd0/Oqco4Qnhs7tqpxvnPtPqUtGG8LIBztOsgI6XCq0I0QMzNRWDXWeLoQDyatxygWSz4AAYEmNTIQtR71+G+FdZ6kQ9pwztBfl/7rMCQdIL8qpAOZGk/mJgjJB/EYEUBsh9BkjSAIYUcU1AbC69nt2L2y7p/vufLtqy6qcj+7nW8fKLQdotB+i9ixVb1+oW2h0HULoSrXjT0TwIsvM5I8temq27YT8pqaIfkAbT0gAoKaFE496vFbhcgHRDSr6UBV23ZCQeJZk1NA+wHrpi00RaMe9fhvQjgBPCSc2nWgqmYmyEs8QZoP8tkGqQgo8GBhXj3q8d8MSzZBbTpQVcIJRRPPshuIhErXox7/n2AVjNLSctXRcCGKIp4QslzbvybCCqCYNDUW7dMw1jEh7Pm1ifBZKE+bFz6/fY6qpmsL4TXZDt/Bwu4v5hnD7Zogdq1C1xexlA7BvpqSDlSJeIJ9MPsgShcTg2KPzReHsPnFHBPCXh+E16qNGJC20H6LWJ5F1v4w394zlhZi+8M8QfssYudaxPKEcJ+2Y9csNgbF5BUTA9K1A+f+D17cZIOy/c/jAAAAAElFTkSuQmCC;" vertex="1" parent="1">
          <mxGeometry x="677" y="111" width="105.71" height="80" as="geometry" />
        </mxCell>
        <mxCell id="-4wKffS4rpttlF0J5WD3-6" value="" style="shape=image;verticalLabelPosition=bottom;labelBackgroundColor=default;verticalAlign=top;aspect=fixed;imageAspect=0;image=data:image/png,iVBORw0KGgoAAAANSUhEUgAAAN4AAACoCAYAAACPHFBrAAAAAXNSR0IArs4c6QAAAARnQU1BAACxjwv8YQUAAAAJcEhZcwAADsMAAA7DAcdvqGQAAGpOSURBVHhe7Z0HmFbF9cZH6tI7KIiADbvGXoKKLfaKETv23ms0RBRRsGBBxRIVO7ZYsMVeYoktGisqoiIogvSysEj+9zd332/PDnO/79uG5p99n2eemTu3zz3vnDNnyl3mPwlcPepRj6WKBuVxPepRj6WIeuLVox6/AuqJV496/Ar4zbTxFi+ub2rWo3bRoMEy5anfHn4VjQfJwgBUUPVxfVwbcUzGfitYqhrPvjyF81srjHr8/4WVNxHz10TDQQnK03UKXpoXFs2Jf/llURIvrhQWLlzolknKpT6uj2sSW5lq0KBBEqeEI1ZYhgN/JSwVjRdqNggnlJWl6UWLynxcj3rUFI0aNfbyRNy4caPy3BQNGzb6TWi/OidejHSWbIsWVZAQlJXVE7Ae1Ufjxo29DBGDRo1S4lkS/hbIV6fEs6STloN0IpxIhnkQI9yCBQtd06ZN6tP16aLTgojXpEkTn4aAkA9AQMgHRMClTb46I55ehjhGurlz53qyUWgQDyjmONVO9en6dFYahNsChCNASIgnApaUNMsdL/KB/xfEs5oOyLwsLZ2fxGWeYHPmzPXx3LnzkrgsOSYlHUQshKzCrs9P8b+Qn3UMgGwNG0K81Lxs2bKlz2vRokWynWq/Zs2a+WN/LfLVGfF4CZmPFBKabv78+Z5s06ZNLyfdfDdv3hw3a/bsnFZcULrAx/WoR3XRtKSpJ1SzRLu1bNk8IVmLhHTNvdZr376dJx+aD5SUlPhYWFrkq3XiWW0nTRcj3ZQpU/y+77+f5OYkZicknFPPuXrUEC2bOi9HXdonpEs0XIeO7VzrVq1c27btPPlatWqZ03wyO217b2mhVomX1a7DxKRNh3k5ffqMhIRz3ZSpP7ufp0534yZMdXPmtXLLtpvtmrXq6s9p0rihW1j2i083bzLPzVvY3KdDxPaFeYW2Qf11/vuvYzFl6qTylHMrde/o2rZr5dolxAvJh7kpb+fSNjlrnXhC2K5D082Zk5iVs2Z60s1LiPjxF2kBUTstbtDOEy4EBFR+o2Vmu0X/aeXTwO4TwrxC26D+Ov+91wllQpj4w4Ty1JLka9eubWKCYn62WKK9J8VR1+SrtbGaWSYmpEPbqU03Z05SWyXb33w7yS2cN8ubBiIdBQpsrAImrQLW/vADAXs8yNoG9df5774O26FMKO62XHcfI2OTf5rqZkyf7X0JWFsoAKwvZDPt1qroS7ZyXJeoNY0XEo82nboNZGLOmDHdTU/C99//6CZ8P9k1ad7aderY1TVvXuIWlTti6lGP2gIklNmJVdUpae916NDRO1w6duyUaXIuDa1XKxpPDwnhKrQdcZknHTUMNQ2km5q06yZPm+9ml7bzpKP2qiddPWobjei7S2QLi8prvUTmpiSyN2fubN9lRTeW+pCRVawzgPwuDa1XY40XajqZmGg8tN3s2XMSbTfTzZw5w/3881RvYk6bPquStqsOICuFG6ZBvu1i0qAq2/XXWTrXKRb2nHnzSr3Wg3zt27V2XTqn7b1lu3RxrVu38X18tothaTlaakXjSdsJ1CDUJKpZ6KujpvE1zoLERs8gHQUmKJ0V24+hdLgv37GgOtco9pr116n96yivUGzPQca8ZZXIHBU+XVf0FeNrwNGX+h7U3sMnkVptQl1pvxoRTw+lmIeWF9OamDRqMTFp1wGZmCFsgSmdFQMVtGD3gaxjw/Psdr5rgGKvWX+d2r+O8grFIZA1ZA4gg7MT0mF9xUxOQeT7zWm8LBMTxLyYP/88w+8D1EJZhVQVVOUa9tjwvOo+S75rVgX118mPmpwLOB/yofUAsjh//sKolzNVHJU1Xl1ovRppvLA2kBczZmLadl2jchtasWC3w2OKjUGxxxaKQSxdKAZVSWfFoCrprBhUJZ0Vg6qks2JQKF3dWLDbpGm/IXs49WRyohBQDCgImZwgNDmR89omX7WIx0PwMNQQ0nYyMVMzs7KJyYtNndnUv7jadRTGouRcYgW7HR4Tg91vzw3zLIrJj10rtt8i69h86fC8cLvYdHheuF1sOjwv3C42HZ4XbudLx2CPsbD59hrhNmAb2Vtj5XT6EDKJyYliQEHI5IR81uQEdaHxquzVtA9hTUwedsaMGXm9mD1WWDFXEPWox9IGo1TmzJntxo6b4Zq4id7L2aFDW9elS6dEKXTwXs4OHdp7D2ebNm1yfXuAPCmc2kCVNV7sxlkmJjUKpFvouuVIVzEjOKi9gu18yHduVlrIdy4o5lq1lc7C//J1hHz7q3q8gJxicvZeqa3fRjZLSxdUMjlRHCAdAFLhEJLCqS3tVyWNl6Xt1Gf388/TcmMxNQCa/pNuK6zm1XxJ0xL/8hSMYiHczod852alhXzngmKuVVvpLPwvX0fIt7+qx4dg/7jxX/g08rnKyiu4jh3bRcdyqm8P1KbWK1rjhaQDlnTUFBBRXkzGx/FSmJgh6UC+gmQ7X2wLGLCdlRbynQuKuVZN0oBtpYH2h/H/8nUU57t2uA3yHR/GTUpKvAUm4OWkb896OeWvkKMF1KbWq5KpaZmusZhAJiZjMWNezOYtWvrjeOEYwnxtZ8WC3c5KC/nOBcVcqyZpkLUdxiArDbK2wxhkpUHWdhiDrDTI2g5jkJUGhY4H1d228eJEbpFJ6+VEZmVyQjQUCQrFmpy16eUsiniW6TIxATWCJrbKi0nNYb2YrVulpGuQ1EK8MDFBebH8Qoidp7SF9llkHRO7Vk3SFrHj8sEea6Fz/79fJ+sYi2K2CeE17bWRzZiXEwWCTKtjHUBAYaloPHuT0MTkoQh4MWViyou5as+m3sRUTWNfHNi0YAtFsIUVXkOw58WOs3nhto4Rappvr22R77gwtgj3W8SOF8Lr/TdcJ98xVd0mDvMsyEM2S1ou551/yKw1OTWcDOUi0qFw4AChplqvKOeKbsAN9RAzZ0K21B5mGQfNPPjyq++8+l5nzUTbJQ3VetTjtwwIOG36DDfxu8/9dvfluySWWjp9qE2btKuBhZLatm3r2461tUhSXo0H4SzpZGJCPnWUUzOQz0TDbyelw8J6LPeLa9++s0/Xox6/ZTRp0sx17NQxN5xMJuf80nQhLmRcHetAHBCq6+Esqo1nTUwcKqhg68Wko5whOPJidum6qlu0uMw1atA4F0CYDuNi92WlwzjfPsV1kc6Ki91Xlf02rTiWp7iYtOJYXhhnpRXH8sK4mGOqGlf1GLycyK5MTppNyHdocsrLKU5Y5VQVZJqa9mLSdnbRopiJCeiz69Z1+eScdAp+PeoWquBqitq6zn8T7DuTnjpl6hIm57LLLpt3nZbq9u0V1HhW28F6QA1gTUxqiCnTlvGkQ23XY+mhtsjyv0Y6YN+5aeMS7+VEhmfOmuVNTmYwoFjCGQwA2QdSUFXVelHihRfhJuqz4+YaUIrrFRMT9dyp/X+8F5MXkLZr2HDJOXdCdfdloSrXq871i4G9btY9ijlGyLdf+8LYotD1QVWvU5VrWoR51TmmmGuEsMfE0oqR2ebNW3kZbtCkh5fprEmzcMH27VWnnRc1NUU8aTtsW4JGqEydOsUPC5s8eUolLyYOlWIKox71+K1iQVlpJZPTDifr1KlTbqmImq7JWdDUlEoFGqFCDCkxMQFezE6dlvOkKyn53zNZshC2c+12oTZwvv3aF8YWha4PirnO/xqw2KyXExmnOQUPMD/RegSr9YSqaL4lNJ41M0OnCqNUIN53E77zg6DfeucD16z16n60t7oPbIMVIvIx82lBiFpaWpYjrE1XFy1aNE2eM10PXul8MbDpetQuYuVclbimkEzZuBAmTvp+Ca2nBZKYOqRlAavrZIkSj5OJIV7MzPxx8mQ3dux4bwdjZnZo/4tfhr1l86TNV74c+4/TW7leK7RKTNJ0XUOGj82fPSm3TLtNF4twnRam9LMeR6GlAezEyCzgqVI7VrCDbfMha3RE4waLXdniBtE4H/7jmrplXCpwNg20HcZ2n03HjrOwzxN71izofW1cVVDesXIXwm/GdohwLRfW0kROtLBtVTD+u9k5mUVe2Z4/6zPXq8fyrmePrpU8nDFzs9Y0XmlpqY9nz8bLk077oQvhxx9/dO9/8Lmb/NP0pNDb+87GX5LCa2gEj+3Fi39xjZukNR3bgDzQoEFKIm0LyhfsNasDCgaTIBZXBdU5J0Tj5F3KknLIF4Os9H8rlmnYxP2n/Dds+VDMceEx2s6K7TEWlGuIJk2b585duGCe3268zBTXpnVrr/V69ljBt/Ni04bUzquRxhMgHgKHxtO/DyZN+sH/4eezsV8nNcIc17ykLNFyDdzi8vYBRArJE8urLTRIzFjdW+kwDhHLt+eA8DohsvJD8N5h5QKy8oH2hbFg86sLKjRVlrG40DHApi1ix/4aUCVr02HFG1ao4b6mjeYn5GroNlx/rdxMdVahRuOFxKuKxlvCltDJmJmaACjQ3lMefR2Qbl5p4yUEA7CtvJoISCGIQJYkYRwGHR/LE2J5wN5PUF4IS5AwaH8saF8Yx/ZXByIFCEmiWISxedoGNo+0jcNjqwMJf3ViBZFI+0JoP7EQHotSAcxULwSrtAphCeIVOtl6OUOIaJaEImChUFNI+GNxVYLOEbL258vT9qKy1Lzh/UiH7xwGHWtjYNO1gZAgIXGIbRBsHueGacUW2rb54TExiAzViRWytkOyCeGxoEnD2T4uKWnqlZGgjnQdy74aaTygC0CyrIavQGEXKxixWlp5XEMh3A7zbVxbkAYLiRSDfabYc9jzwuvErmnLIIwJ7Fc6DIJNF4tiCCDYYy3BQtIpVrDHApsGWfuUDuPaAGSRZhNxFFuNh5m56D/p+ixZGk/HY2rWSONZYFYW8uxRIAgGjFfw+ZEY4dA2iOWBLCFSvo2LDTo+C1Y7KQ7PVeB5bSgrW5AL9jgb/DXKSScyKuTubfYr9oFrlOeFqHT9JK6JZi0WVSFI7FhA2p5DsKRVvuKQ0MovJo5hQWnFxFYLq+0WLGrmGi1TsRCzQD+eUKsaT5BZaW8UggLh48mrQ8xDgFis/TYdnmPTNgZZ6UKwghYL2mdjAUJxLwXB5tmwcGHpEnn2XgoWEAuta0kXQ7jfxoRi2p7+/hxf/gz2mYoNOk+I5VUVMaIgXyDcV4hc5GeRVfsEu8/GYOEvrcpTFeBf6gBzs840HtCNBPWnUCMICJeNs6D9WQQl36ZtbNMWdjvfvkLg2FgQbF5Z2fykoMuWCOTbYwW7rVhCnAtZRCnPLxSLuAoxIisO9yltQV5W80AE07MrHZrFNYUlQT6EpBHplAZs27SCtmNQG88CRUSHOaHONF6sjadOTWxggmAFrRCyjrX5SivOIqtigiWphfLsvlieEO4jiFxNmpS4gw46wD352K3utZce9GHPPXdzZckH+eWXxV5DVoT5la6BNgyvL9RUWEPyWGIptuRUHghJSyDPm67lxyiO5QFIJ7MZsI/3Kcb8DUNNYYmUlbZazxJSQLazNB7ark41Hm280NSUxqMrQVpPAmQFSkH5QiwPhNshCu0H+e5D4Qixa5GnACq0WEoiSEW47eYL3TFH7OVat07H81Hgm220qj+vLCEWYf31Vnb77LOHW3ftFZP2BNNJKhrn4X1sGsQEUUH7LcLtfLBEsahEoIRwwOYprVhEtYSFYHY7PAYoBjYdohiyAsXVQRYhBWQ7S+MBNJ7A96uKxsscMpYyOh0Iqg50fqfMyBU60BmnWVqavjR9HfPmzvJpIWYSFkK+c7TPxiArXSxi94NsEMxisTluh+02drvt+gdf8/ERGFRwzfUPug7tS9wuu+zidt+ljx9aJDz06Ctu+JVX+XSD8udr2LCBv0fjxhXjQ8Nnr+q7FAuZgzEz8reAGGGFRo2bVCK4PSbMC2Oda2OVgy0P0s2at/SyX7ZwgevYfhm31hqruOWXX9aP19RvnO06LPpWxZIvL/HA7NmMzE6X8RPxvvn2O/fu+x+7aTMaeBXNw4XEqwl4CRHCpi2Un3VsuN/uiyEkm4jWo9fqfq6hwLKFHdssyMVg4023c337rOa6d09/eA+mTZvmxo37OkfOU8641GvC5i3auLXX7O7Pn/jdZ/6ehcgXvgew6bqCFci6JKolTwwhgWJ5WXGMbDa2x1toqOMyv0x1rdu0rkQ8DZQOF0CyGrAQCmo8/QUoS+OhjhfMn5ek53rhBQ0aMFK7zMdLGxLQYqBntGZgSUkLt99+e7k9d93cdUkKWVC5WMTyhKeeetrdfucjbuzYr/y2SHL9tRe5zTff1KdfeOEFN2TYHUmlNTP58Aw7apArsxip7LvF3lN5sRjYdHVx96hLXadOnf178/5AaZXFvHn8g2CWe+X1z9ytt97j87JwxBEHug3XW8FXWlZwJ0+e7H78cbK7/taX3bfjPirPrYw7b7s49yx++97n3D33PODTIS4edIzbYIMNcs+6025H+/wYYQHEo/02f96cTI3HkLFWrVonz131sZrV6scLR4n7hy4nHQgFOoyBPb42EQpjFrg/2sY+U6tW7d0dtw5xRx22ZyXSgViB5ivknXfeyT04+mZ3/703uGOOPc5tsfnvXNOmzdzIm+9wEyZM8Mdsu+227pCD9/FpNKx9nth72DylLZFErFgcpgk6x8YgXxrtrfcmtmmhefNmvvz+uPfW7r67hrm27Tok5V25bUYe+zhmxRVXXEJbcP66667jbr72ZHfyyYfnzsuHPXfdxLXruFz5Vjb8c5cTDLIpFvkIkK6hi1txtdHGq1Y/Xtb0GgQHwkmAMKFisY4FbCtoOxaLqGFcDMJzuKbuDxB6wmGHbO9rXhUgmh7N9ZcLhrgTTz7HHTzgOHfNtdf7PExJ1fiKBbu9+uqruROO2dddd+0w99brj7kL/3KWe+Hl992oux5zL7/8mpv8w7jkPunEYpm3emfyrODHEO7XdhgDpUXW2LGELLKSDruWCqF9+/Zu0PkDyrdSQKKR157t9xWDnbbf1B1wwB/9eTYAK+w4u844cffyrSVhjxXhLGwe7bss54otA3UnUDahHORDwTae5uPF2njW1Jw3b0bycSo7JICcCIoFkVDmlYRNyCJtGNtjbTqMw/sDCTpAsE444Wi35mrd3E/Tytw/33jRPfv824nJNMMt331V17lTI/fdhJlu6pSJSRkl2nLRooRUq7gmTRmh3jA3dURz/8Dmm22S3HuRW2+9dZNjKtb0517k//jjD+7Bhx51jz3xemLSzE7KgUHQSbs5uUZoegKRgBgoHcurK2AR2LZssTj93CHug/fH+mc78IA93ICD9yjf47wFcPf9z7vnnn3J71973ZVcv923zZnkYNasWW6f/U4t30qBd7lbt+W9vArI7QlnjHTjv/zAb6t9eslFx+dMTfCHXY7ycRaaNmueMzVbNl/sNlx/taXbxoPRWjU6q42Hc2XmjCnlV0hhyWCRlQ9Csgh22xKIfGkx8sLzFYekE+EQ0vYdurpVVkpr3jff+rf/SOQzc/6Qg/Zwu++2s9daFh9++G83ceJEN358uqQhZSFQJhCR+OuvJ7gZMya7hg0auZJmLd2WfTZyv99iA9d3661824CypZ+UH3qOeeJpd+fdT/hrNE4a/vJ+At4jHyz5bJy1D9h0VXDfXZdXMsO32eGQ8lSKTp27un323tHttdsWyXNXCOIDf3vZ3XjjbT49bMjJbqONNvRp5G27HQ/1aYHngjBXX3FGpbLffqfDKz037c2wSQC+/vprd8wJF5dvpYB49p5/2OUIn85Cqzbt/feJOVdqo41XI42HV7NpSTM3d/bMRDNM88dXBzFtFIOIBOw5SodxCEu4FVde2x135C5u6637+HfG5X/x4Iv8/l49l3MXDTrHrbHG6sm10gL95pvxlRwAKidiIVbolOM777znl8v49tvvvXab/ON4t9OO27tDD97XrbTSirmyfu+9990FF12XXBOTvUHSwE+1pK1IagLehXcXwm2gPL13mL571LBKGi8knnDxoOMraax33nnXnXP+tT4d7vvss8/doCGj3JSf0tUKBPssek6bzqd9r7/pQffww2Nyz37hwKPdpptukvtGkDgfmrVo5eNYd4LVeOH/84pFtUauCMzHo1aoaKhWtFOsGVcIWaSDQBYiHbDnKG3j8Fz7PJtsvJa7+/bBnnRgypSf3IgR1/v0EYft4+67569ulVVW8dsChdrvjwPc6mtt7tt6J596rrv++pvcyJE3J4R5z4c33njL17YWnIeQ9d/vj+6cs093b7z6sHvisXv9gqmnnz3MHXP8ue6ll1/xx26wwfqu//77+feEfCpP+941gRVeoG0Q5hETJOhKx9p49hyhRYvm5akU8heA6bMrt4V69+7tv8dVl5/pVl4t1Uogdl2ls55FOHj/P+SeHUAOkU6VJfvCeygGmJq08bBeLJZaGy80NWNtvJkzfvLHYyIhLIpjsMcIdjvcV1PoOSjUtu26uKcevylXO+HgOPf8K3x6yEWYQBv5tIYCWTOC8x/+2yPuH6+/5z786Gs3+Ydv0/zFld/zl+RjNEzOX3/9DV2Xzu3c6r1XdGuuuUayvW5utIuA2XrLrfd4M/eP/bZ3a6+1ujvr3KHJx22afIe0zSfNB6hQaPdhYtv239JCqPG22vaA8lQqfOut39tt23cbt8M2G/ptCbs1NTFHIVqoISR7tPnefGdc7vgshBoPzWlN0yf//qa78sqRPh1qWZmtWWjZup2XgV8W/FDJ1GSZv27dunlTs87beKGpadt4v7jW3tQU8fIhHxljsMcrbeN8CO+jQsaBsvcefRPT5x036q6H3Pvvf5oQYg3vbcRmBxTg5Mk/+fcV5CCRIAkqL4AD4OOPP/VkZSm4Tz751P8Zd3xiYn7z7VQ34dvP3a677uy23/b3rm/frTwJVUuOHTvWXT/ydvcsDobkY0IqVmfDvKTNB8J3tqZ3LB2LRdiQuMUS+YF7r4q2q4DeBYTltHf/M93PUypMSb4DXQn5IDP9imsf8udKgym2z8K9zzzvEjds8NnJe6bvwfkHHTbQm7CF2pUhIB5jNRmVFTpXlkobr5iRK9J4KpTfEkQ4TLc0Ts2GhYntjlY5MjEt999/X/+OdJu8/sab7r7Rj7kvvhxfafwe77nTrrss4W2rCjBDcaI89MjLORLSzkMgVO7U2n+5cLj79NOx/hxpvpB8+chVlVgaNOsYYNNovNCTWAiY4H8amLbvLHbffUffZxpaASH4NsOvGuGe+vu75TkpYtr30sEn574PZUqFdsIpl3iNZ9t4WW1TyXCWxqutNt4SxBN4WTRebOSKNTWtxpOQC2ENFebVNXRP314qJ5zyevde2V10welJjdnZv99nn33hrrrmxiT+0u/vslyPpJDbeQ/lu+9+mJCyNGdCtm7d0a211ko5219eTMWr9+6RXL+XW2vNtXwnsCByAUhIV8Ktt4126663nvvzn07MHctxI667wd381weScmroyypGvhByKim2eUCEykoXE4fCXghUJMeemDqtsrTtYQP2c5ts2NutvPJKyT2WFF7Kg4W3Djp8YCWtGWpfiEdZPfrQdTky+7K8cbTbaL1elSpMayILVjYhHsC5kqXxrKkpeS62QqqRVxMhs208CXUI+0I6xqZBeIyNqwJ7TWk5oG4CCHfsUfu5zTbb3OdTsdx334PuupF3eA236557uBOP3t+PphBuu+12N2ToiPKt5B7lDeoYIKYIquMg1B/33cXttuuurmXLVj5PH4j2zHkDL0m0wj/d0Uce5B0wAs6bG266NymD1ORUHx+w5LPkslC+iCPYbZuOHa+04vvvubog8RhcQBfJI2P+4R5//Jmk7CsTLl/M9Krttl7P9erVcwlNGGrOUPuKTGjSM06p0GgMPxs3bnwl4qHxrKxYUMbW1LRezaXaxivGuTLt50nJuakbvDYhAuZD7BhrWopwJxx7sNtyy9/njmV90GGXX+eefua55KNs4s4755RKjXMcH38ZNMx9/MlnfrtFi7b+Olv32cCtttrKbtVVV11CCCHShAkTfTl9PvZL98TTb3qzUsC87Lf3rv45gIRm2GXDEw13t+9muOrKi/1H5Fvsd8Ax3uyU5sP8EflAobZubeORB2+opGX69N03Kc/KXuSs7TA/BkvEs88+ye3yh83K96Rle9CAc3IVQdjG67v9gT4Nbr/lYl95kg/QmAxlA+GxMbRp1ylnajJIorbbeHlLQbZrVYYJVQh8RRzmVQX5aiXF+UgHtvvDtu7eu67PCTvnvP76W27f/ie6V197xw2//EJ3x2035EiHecQQsT32OtC39SDDzSMvd//+14t+/OUJJxzjx1nGan7yaEvsttuuXnsxSfbF5x9zp516rOveYzX3xBNPuQGHH+/22ucg98wzz/gKDkE468zTvMZj/8033+bz+IgH7b9bkmZcafouvJt936o4q2oD4fBBSyoFuy1AJIBG0+RhwrnnVmh4IE3LOw8dOtxrT5FHkPblWbRPAq/zh199ky9b5duRQ5Yc3EcgbbfVVRDiVxurCdS+oVZAwC2pYkSzeTYor5jYgvGNgBe2x1WkU0238so93fCh5/tComCo+Wg/HX3sGa5xUqEwiBmSsA+TBMLttMu+3rt41hknJmR7xY+zhGgAQcDkYcymxm/u2/9oHxjTSf5bb/3Td7gjFISePXu5k0483r3ywgOehIcc3D9pN77jjj/xbN83CAF51pNOPM6T85oRt/ptsP7663kTGOAQQrB4R70/gHxhKJRv42KBwMcggkmbWcIpLUI8+ugYP3tB6LPZmq5dh3Qpf44VaQH5jOeUQKdWWMW4XhSC9qVlXUGUjz6Z4D2igGN0nKBr2OdT5QC0sgIz0Gm7W9RGP161NZ4extYKKQFTQhYLS5pCsQ2C3Z/G6TNIcDEL+WCMnIAUfbbe211/wx3eecLSDXTe8lEee2yM23rbvbzGwRx87ZUxXrNBWEwcTEE6zzfdfEd31bW3+d+TMTZzl536urPPONqddvLhbsdEs2604QbunXff897LQxPNRkf7mDFPJKb6bP9MaMRBF5yXXP8Z1yfRwJizIuDjY8a4fnttnRBsvhcaPiTH86y2NrbvqPcMIVKFpmiMfLG8WMxM+nywhMsCx3z7bdr/CWjH3XL9ee6Iww9y3bp28Ps7dl7eb5Nv8e4H6RA9wSoESyyRc+jw+3wXTwzSmiH0DjShQKwDPaaI+A4hufOhYBsvaz7ey6+ltQlezdkzpyVtvB+8MGhQajHQscQ1hb1nKIxdlu3ptuu7llut9yrurHMG+w5vTMe+fbfx++n/uf+eO9yGG27kh4rJu0jn+q2j7k3IMdYduP+ubpu+W+b6goqBakCId9uo0QmJlndHHXGgH4oGqCXRjsMuH+EJCFq0bJ+U+Wx3/rknuQEDBvhvgWZFA4PGTfCgVXg61aZmuy4hAofOlU23SAc7s18EVTqr/QnB7rjtmlybqxAoxxkzprtd96wY2AxxQg/r5lvuk5RDhcYERx91SKUB2QLHAh1vzyPduk1nPxzyV2vj4bUJGc7o+1DjqQYulnRAxxLHgvbFYhDLE+loE7Vp28Gdd+6x7rmnb/Ptre9/TBcaos2GV5Nj0Uh/e2C0J93tt45wa6+9tq9oMBsZQdJvr519247zGd1eCAiJAh+BsMceu7nHHrnHHdB/L3fFVSO9dnvuuee92bvRRhu4hx4Y5f7y57StM3fONO8N/fiLSeXl+R93zlknuvYd0nlmaD3eTWUtTc92xbtXjmsDEEnEshC57D6ldU4YJk762Q0dFm+/xTBx4vduwNEX+nOFmLYClnTg5lvu9BZLFnR8eB79tqB0YeWhb2CptfFipmaofkFt17ohsWwc5oEKgfsl0Sq93YvP3uvHSAJMjtGjH/BmHFoHDL74Mu/RbJJokZtvHO5YJwWTEGKAN1571Lf/BAqW9h1ufrXtfrfhDm6lVdfPtfMwL0eNGpVr4wHFuLPvGjXSa1UGQx96+Cnes0o5H3zwQe6G6y5LatpO/tjn//6C38c78Xuo2/86zM9woL2XRT5QUQYVXTI2aJ9Nx+IYQg3Ge1kyFAvOYcrVzrsd5gen06cZmoS0t3FyMW9xvwNPdT/98E0lrVoV4LmuCiAhbTyUSkmTeXXSxqvRyJWp0yj4X3xXwpSfKtvfCDO1BoJCbN3EAiZTGlefsAiKBCzd/sV17NStkhnCRz340ON8t8CB++/jTj3lON/PtOPO/T0RcXbQ7mKUw7nnDXaHD+ifIxxlgQDcN/ph9+jjL7hZM6f4PjrGYdJR3qFDusQ34O+hY558xU2f9oOvkbt2W8X123tbd8D++y4x2oNnOu/PQ7wJecFfTnV77bmXz6f9c/TxA30XxEYbb+ZuumFoYs608vsg4t77HuuYgoXJCTSyRahud47K0JZlDOG30jnVRU3Ot9o2JKW2l6gsInkW2k87EzAtKDQ162Q+npCvjSfizZo5y035udR9O/6jRNgml59ZGM1btHLz5s72sUXTpqlax35HuJnHJtKqXRODFRSId8apA9zhhx/mvWePPPqIu/rae5Ln/8GbmJht1FiDhwz3jhSAkwMNTs12xbBBub4hkeORRx7x29tsu603PbfffrtKfUKWULQLDzz4CP8O1hzaa6+9vKbFlOV4nTf6/gfcuX8a7B06aEJIRmV3yunnu9de/Yd/tuuvHea9x5j+OF0GHH6yv6bae4CyEQEhH1rQxr8F8IyW3LE4RFZ+bcMSV8Qr1I9nh4zpGa0s5EONRq78NGWRH7Ey4bvPqkS8msCSNSSqgOPk47E/ufvuGZ087wTXvv1y7s9/OtZtuunG3j5//PGn3CVDr8yRg/adtJwKDvNnvwNO8pp82eVWdEOHnJmbRpQFiHrFlSPcnXeNdu2Se9KVAd55+80cCY84/FCvcbX8H/dDo+6x1yGOGe3XXTvUtWnTxu9DS+N0gZSXXHx+jnw3jLzZe2ZjlVLMUSUCCjFi1oSoIk5Wuir7BbsPxNJhXJvo0Gn53FzT1q2WyRHPjlyxzhVQI41niYfGw4bNGrmCxpv80xz31ZfveQ32W4HVqP37H+hOP/UYX0j81faCiy53L77wguvcpafbbZet3P7993E9evTwhaeP99JLL7oTTxmYvN9Ur+Vuu+XaSoVK++P55BpTp0732y++9IaP5ZkE9959S26IEpoXZ8rFl97oJk380o+AuXzYQLfzzjvmBOerr8Z58tF1cO+dwxNTpmOi+Wa5Xfc43JMfc/jMM07y5OOb9N1uPzd71s+VyAf0DrXhKRZExGLImpUuBiqLQtBxYWz32bSNi4WIV0jj/SpjNX+cvCAR5plVNjXrCiIcaNe+i7vlpmvc73+/RSKoi/wal4ccdrJf2wQP4i677OzJZG10TDyGiGFaLlgwz5OWznNAedx1193usTHPe4JZMzI0K9nGRAwJC+6591534UVXJ+U2w2u/c885PTkmJf1HH33k+h94rFt1lV45zTd16lS3zx+P9e3GoZcmZN1pR0++0aNHu6GXpXPNssxxyIfzpTZJaCHS2XRVYiHcrg5ELqHQdgi7n3Q+4tXJ7ISqaDxMTZZ8+OC958vPXrqwms1q3M5dVnAP3n+7W3PNNf3zj3niCXfKqWdX0n4AwiHEL7/8snvrn++7W2+7I1eBbL/Drt7NT2Gi4ehcR/N07baqXzuF8ZZNmlQU9Pz5c927732YlMvn7o3XX/Z5mLCnnXLsEiYq1zv62NP96BU06jXDhyQ1aGpC04bbfc9+bqedd/P5VAzjx3/jCdmmTSf32N9u9s8NIbfZbo+cE8tqPYDwVBUhUeuStCFESJuOxSCWVx1kkZO483JpMyHmXPmf1Xgh0YDy0HRPPfFQrpP6tDP+nGiHe9xlQwd7LQcg06OPPua11+uvv7LEtXr0WtO9/uoTueXnWHj288+/cjvttH2lWQtZoAzpGL939CNee+LdHHDw7u7gg/evNOKebokLLhzs+m6zs/deqvZk7tm1I250J590rDvqyAH+41J5nH3OIHf2Wae4/vv18x97h50O9m1YnFDAOluAhEHCVFewhA1jYWmQOEbUfCTNl9d52Z5RjVdbbby81UWq8eLqGS9g85IF3hOEWbY0ALmAtBwI8yAdnkMKQaR7+slHXb9++3hhpQI57IiT3Iknneqee/YJrwUfenC0vwZAWz779P05DQSJGKfJ8LFiSAeouBgozSyDt954wa/xgjNnq236eUeKwDUfeuA+73zhmdDOlPnpp53ktSXke+211/03YEoR2hGnCissk9e9e5fc1CO0nvr3BAhnSafaPYxrCkiVFSuIjGHQcTauLiBNViyCkVa+EDsuC02bVvThIWN8M0AZIyvFIu9dYDK1bWxsGq73eaVNvetV3sW6gCWYJVwI8o8/7ricu56xl7fdeqO79ZaR3uTEpHzooYfddjvs7gnXe/VN3Csvv+DbcLOStp2uwQgTOqzzAQ3I2E0CnebMYqBDnW3acJiSEmquhUfy+Wcfdyt07+T6bLWdn98nYIbeesvV3uzEIyry0cbr0HF5N3DQVb7PEaIxbYnhbox+wVG0cEE6dpI8O1veAoHgWSzZlGf3xYKOt3F1kUWqGPliQftsXBWEhLNkC2N7XL6RKwC5ApRPsWYmaDgoQXnaA8NzmWXoZ2IEPCMjFid5/0nMzVI/xGnevHluRtLmm/TDT27O3F/8wFnaPna0fG2C64p0gDXtyYvFo26/yZsAaJU9997PXTLk4kSj7ZsIWAP38N8edscdd5IrTdpiZ555trv7zhtyHeznD7zEfT3uC3fnHbf5xY44HqTvvjgpjwbu6aefcecNvNwdf/xx7s4773KvvPKKD19+8Yk/97NPP/LbY8Y86a65ZoR77/1PkyuUuVVX7e2vQ7/f9tttlVy7SaL9LvPl/Pst0rlmaNKSpCa98MJBflhat27LJcc3dxtvtI674847kvKemxy7iTdTO3dskxD3zuT8Zdy/PvgyKZeZXps0SJ6R2prnTb6g/2YV2ykgGtvKi+2zscim6xCTRzor6BhiYNM1gVpENi4m8O0gqo0Lgedt0ZL2W9JudtOTdyhLZKVrUv4tXcuWLb15iebTVCM0X1puKXeKQUGNl2VqAkzNutB40mqhdottSwt26ryC7/hmXN7e+x7uTUjNLnjqqWfcUUcd55bv3ttruYsuTKcJAcZkogEvuOACvwARGoc2LZUOeODBB916G2zr+u3b3z055n6fB+wzxgLX5J7bbN/fsbASoOP+qCMP8VqYSa9oSIFnxaFz/IlnJO/wvS/3tdZaw3s+MZc//vjj5JnKvMmMGXrDyJFu/NcfJnkLvLnJCBy0XpbmA0wryoJIFsYgzEPIsmJ7LEF5Cnaf0jaubcS0ZeGQVkgyI2njCQsWVCgYvkd1Nd4SzhVBXs2skSv/eOPDpCZe5J0rX3z+z5xGqikQWpEpNC3tdrgP4l13zWB3xFGn+tkF8khiFu63/6Fu9TU389OArHODUf+Yo2jAE44/0ueJkAj/MccPzPVR2udZeZUN3IYbrObXxgzxxpvveYeNBedBbBwlADORWeoHDzjez0JglA3ARF1/wz6u+wqre+8lz4KZifeSeXr070FeljHA82lhKz8NKLAjfwScL7QDbQzy5YXIyl8asORW2sZZKLQ/RNflV/nt9uOpA/3HH752P02uPFazqrCCbUll01kIj/nko/e89kOQN9lsOz/y47Khg3LDvDR2E60E6dBCAoI96o573OVXpNpI16Yb4dSTDvYaJ1wLxDaq+cCpln3a3XTL3f4eerYtttjKD8ZmP+WLFqOioOtD040475ABR3kvLEPT6Mu7fdRd7k9/Os9deuklbu+9dvfetD/sfLDXeBYxy0N9jCIjECGBSGlJVygGsby6gEhlYfOUjh0Hwv2x2EJ5Il6hfyfU2UrSIOZcwasp54rtPK4qYqQiD4FXGmg7BnuNgX/+U26s5ZnnDPLaDweKSEf773cbbl2JdKl2TwNjOC+88EJ/LPfE/MMrytQgNFNIOkBFpaDC5zddOGrGPP43ryEBmpD+O1Vqa621lnes0LFPJQE4jz68iy4e7vtOqfQOPmh/38Vx1dU3eo8m559xWsW6kBAuJB1Es6QDpfPneLOUznsGEhCYhkRgX1lirpaV6R/tqWkWi0U25QHlK9g8pasDiBDC5imtWERSHJ5vjxf5bFAeq6QDJsLKiSXUxuyEgm08YG8k4NXkAYE+bFVQLOGE2PEWnNd9hTXc8celPxzExGQCKyanAOnwav4wcZy7/LLL3IBD9/fCjd3+88/T3GlnDPSmp+6FhuF8O/kVguC5xIu5zu+28YNpFZgUiocTj6pAV8RrLz/ktR0Q+SAoAfINOKSfzxMuGXxe8lzT/YwIKj2INnTIn3zemCf+7k3VHRJtKEKH3TkinNLAEtDuFyAj7cRKZCyd7clINwXBQkSyBLSaL9yvWAFkxcCmqwLJpGLBboek1LZIR8zqYpCKpR/qoo1XI43XqkXVC6eqhCsWnDfkotO8MFMgmHBDh5zltwHm5X4HHO87+iEdneEqxEmTJnqto7ZZrxXXdW+/9ao75eQTcuczTAyyrbn2Bn4UDMvxMYLlrDNPzwX+jc66nEccdZxfJkIE5BoQ2JLv6mtG+vYB+wYceqA32SE0wNtK1wgjadBwlH+fPlv452IA9uzZiXZK3vHUk9N5hVkmpkXWdkhQoDy0oMgoQoqMIqQ0JIiRJUYqEObbOEzHtsP8fHGI0MkkAoYxpAo13lLrx8O7FtN4YPbcqtn2IpiNheoSTsA8w0wDrNLFjAJtgxNOPsd99cV7lUiHQH/xxZdJm+o43yXCM+2z7wF+Aqw6y9FwEG7b7Xd2Tz81xpPnheeecuO+eN+bsMxMVxj457PdF5+/7e4cdYtr2bKdJyBeUxCSD1LJ28m+EVcPdH8ZdEXO5MTZgya7464HPclENLQeP0hB6/G7L5xKFiHBBDt7wyJ2vPJi+0TGkJCWjNKOYVwTZJGoEOmIFbRttbRiQdt00cQ0HrCKqM40HrVyFqTxsj4qEKFCYtltabtCUM0exuDM047zMZpt+DU3ub+cf6zfBrjtH37wXt+m22abrXKk++zzz737XsPdrhtxtZ8hDhEAs80377OTJxxm7P333eHbbVqTJYTOg/CvvPiQrwxw+6vbgP1XXTnYPzekOvf8iu4EftfF2p7X3/BXv007FS1KVwJmMETbLjFbOXfEDffltPW22/Tx14rBezbLA207pe0+pYsFZJRGtOaqTFVmdEBGNCOrb0NGYEmYRcwwrgms2at0SDYbKwh0K8Q0HuW+VNp4+frxYhovi2iC8i3Zso4FlmQIWCxGi4gMjP7o1Kl7TtuhQfBQ4iRhChCAdN98860748w/+2swTOzxRx/KufUB3kVc9sw3pE/w7Tef9O01rsfIE9pyBNp23bqv6rUi+awjAnDm3HTDcP9sI2+8PdFu6br/aFLGYAK8ks8+VzHAfP8/7u41oa7B0DHe78WXXvXbgGFjE7771I0fP96TkR+gcEyIkEx2O5YmViiEmEYUIZWX5chRX6MlGZ7VWBwLQlZaKGQCVwVW41lTs1bbePZkaTyrWoVwHQpLKNJhrH1CPrKBmDDFAHGYxAooCNpARx+xp98GeDa57zFHHeS3RTo0HediEqLF7PLeOGGOOuYUv4/Obk0Not+PNt7Z5w707TS1CbkOWpH8tdfd1GtKngXy0X2AQPIvPAFC0V4D/CCFYwHjO1u36eiefuYZv42GZOY6q1FLSzMDnrKhq4K8tdde06/FUpuwJCyWjMASURAhATFa0ZJRWjEkI1BXh43Zl0U6e76O1XYsjkH70HQyNUONJ/B9ak3j2ZPzeTW12BGDpOkXEsFCslmCFUs2YmkzbYex9tPGYUIp4N91fFwWDgI4RCAE2m611Xr7PIT33PMvzZ3/9JMPVjIdmXnOyBdPgGQfK4RBjD5b9/MzDeiu+PqrT73zBW1Ge+6HieN9QGsyqgRNyYgXzsNkhDyfffKm97QCPthBB6QzJSCvugio5PbdZxf3zLOv+X2Alck4FwcQx7DALRNpGdtJvyrXYkmLLPg+uzyhWFSViFna0MYENKP1qBKkFWNmqoXdzjpGIF9ktATW8YoBGhLCydQMNZ5VRHXWxstnagJWY2aQrkhlSQesloshRiYbW9htnYegInwIJdoDIdc2k1rByScenpybFhbOChwp4MorLq70rwS8in222tFPRP3nG8/k9h1+1Ml+eYs7k/Yfnk768jAZWSNFSzgALdXHKBmm8KQriJX5X3EB/scn7LB9ujI17/HM31Nzkz67DdZfx3tMOQ+giWlfPvLYs7l32GGHvj5+7R9v+OP4rzqQsIsYxRArJGIYshASUSELejYb2yAiEiCiJaOISCgWMULF8kCYb/czSPpX6cfLMjUBzpWyZJ8+kCWdCJdPy8XIpnwbC+E259AXB1g6Ae2BhgCM2aSTHKHt1auXz0ND4KwAOD609B+gjUY3AW0oyKOOclafRmtCUi3jrr68ffc70mu3niuu6ZcEZB7dp59+5vpuuZ5/tnvve9CTiZ9aYrayeJHab5C6TdvOPv3xp18mgpZ+3E6dOvl2Je8jDDhkD/fCi6/57wDR9tpjB399Jt1CxnXXSTU2QhsDo1Q0UkVxsbAEzEfEiulJ+Qko6FntM1tSgpCIBJmnMTJWhZjFoKGLr0Id40Ott/FAVnfCjFn/8RoPhJouH+GAJZuNqwLOkdufZfnoUFZbjX/P8Qxnnp6OjwRMTBVoKwkiF2ak9WpiGg6++FLfp2bX52Q2OiuXHXF4f+95RMsC5s/R7YCDhGdj3CYWA+TDnEWImCArdO22kn9nht4Jyy6bkvHNN1kgKRXm3XbdyWvp6dNneqJRkXB95vEhBJg/jO+UwIaQQFryZYUsWPKFwecHZBMBs4gYkiz27LE8ytCap2lIiQhExjBon2DTFpWOca39upohxAe+j0zNWm/j5TM127Zexms8UIhoAGEhhFBebJ+Q9YFwZNBXhrazTpXRDzzjx1dutummXlittgNqFwLWw2RYGGakgBeSTng8msxmEFjuj8HY77z1ZK7/DucLWhJTlHsK/GlI5Fl3nTU8yVhiIpe3dlppcBzPCIkYh0k5vPTq234foHJBO06cNMEfA1isCSHEUQRWWSX98QfwXQc5QuQnlAVCZ48vdJ7+/a575UMWAUPwfXkvGys/BPtDIuqZgH0PvRtxmAaKQ2BqZvXjqYIGtdrGKwS6ExirWQwQplCj5SOaQIHHPoY+xL77HZLTMNapgsud/x0Iz/w9dWzonrbQIJYdFka3wJ57H+AHV8ujCfBqYsrK5IScEB8vKNcj/x+vPOpJAUpKWvqPhMbjD7Hc+8N/84/09N789IQ8FuAFEJLB6IB2nn3GtdZc3X3//Y8+DUn5Iy3gPxZ+e41V/DbIEnCcCjaEsESzQmuDhSWctF8YQoiA+Yiob2tjvrvSWbAklFlqJwlbcpHW+2SRj/YbGm+pt/EKdaDDciaNhh9EQKgk6IC0zEohZl6GBS+ygVgeYN6aBPXhv43x99h9twpzcvT9j5Wn8gNy0S1AW48ZDcDPZkjagBBFpixaFnJCfGaVY64C2oaDBp7k0z9N/sbHFgwNk8YDvH/7thUfEu8leQgQfYkCGnPC9+nwMdCrx/L+uMk/TfV5/JAlhL5LFtEsCW3IBxHQhnzIIqCQj4AWfGtC+N1jkExxLO1la5ZahEQTyGeF9Bio5GKoE42njx0Cloc/exBEMoLSyrew21kFGstXnuJ99t7Nxwg1JKPdRduHgqK9NG3apEr3otsgBKTDHKWtyOrN9MPhpNl2h/19O+yoIw/3x0EItCxdDvfcdatvA9548z05QuHyB/SvkUf5MZ2EZ2UKlSoIfvXFM/EXIZUxiyqpvOir0zXxdjJHEOhYjhv/bZrXs2cPH2cJsUZvhHEMVSEiKIaI+bQgEAGznh8SASsLMbkAKj+lAUPtuIa0YWiWCspT245uBYusDvRa92qCLOcKXk0tey3oRQFpbdt8i5BAYVwMWMVLfXGM04RkeP4EVhMTVBF8/vnY8pwUEAzS0ZZ6cHT683rydtn9UNd1ubZ+qJemFqWd1/N8W481U/gvHkOlIBQfgxkPPD8jaFRDEkt4NB4TInGcnVCLBrts2CDfR0hfHc8A8HaO/+YHnwZdOncsT6VgYiaQd9ECktE3FSOfgrZjCIlYiIx1QcJQHux2TFasvOmbi4zEfIuwbWiJKMLRjxdCFZ9tCtS6VzOfcwWvptp4MWLZF80CBUDBSSgVW+gD2I9hY1bxAn542JXX+a4C/k+OsDO0CscL3Qo3XHdl7jnHj/+uUg3Fsu6AGeFai4VfNa+7bm//+y55TyEChICgW265pc9buDAVdlaMpsxw5PAeXTqnZJDWkoDQYc6z8hMVjuvUMe0L5HlpCx54wAG+7xH8+ONP/vwWLZonccUwKH6VJiAIIrgvI4Q6EPosUgmWfDYoL0RVSRhCQp5FQNs9EYPkpBABgb65jZFJySXaEBJyTx+SZ5OpGVvsqE7aePbkfP14NDi5mRYG4iX0QrEXDUEhKWjbxkJINBB+DNpetMM0p+24ow/1wopZgHbi/kceto8fhcKoD4BmoZbiuMXJO8+ZO9e1b98156BhSs/+++3guxe0vib3OOCQ9B6MFlGNx88r0bp8BMK//pXODLcmpMXHn3zsl4jnI/O+PXqs4D8mz7vqKqlXlIoDiNRotMaNK/7jHYPKxdbc9pz0e1UE5eWDJV+MgMCSMIuIIqBI2KRJ5XcRAUXC8HsrCKGcWGTtCxWAlVdiCEjgu4jYDJYOEfumtdrGy9ePJxcrbTwK275EFiy5YpoNqHDDggZhzaj9dAewlAOaiH8MrLRS2mHOqH79z4BZCYAfg4Bp0yt3juK4YJ/I9PPPUyt1L9DxzT2+/upDPyyMJfsAZKRjHHNUfXafjU3bj+3bpZ3waCNGsQhM/6EPDvAOrOEBUo1X0R1BOf3yS+oVzUKbyIz4mAaJEcySLwzKDyECWiKGhCyGhDYOEZLQIiYXwMpWLAZWNpWO5UE+/ksxZ9Z0v6BXCPGBSrvO2nhZpiYaL2zjFSIdZIsVSIhYwVrogyi+576HPcFYh5KRLNRIECidy5b+DWjllVP3uwUCTeVCbQVat2ntC5PuAdZWsWDBWYgdjmwhZrzotBkLk/bCXH9vtd169ugarR2HDD7XVxCAPxlJ2+HR1HWFZs1a+G+AycwfboGuyT1EbkBNbYVV2k4E8ssAmqC8GCz5YgQULOlCAgJLwBgRrRaMIUY+kEVAkFWph5AGtFpPMsxKY8gF3zVERflX3L/W23hZQOPZNh7Qi1hYghUiW6wgKXgFbdvYgsWIWICGTmj6w/T/O2YmqJDCgsQ01HvSd/bBBx8m7a8plQhAv55IZ0e2CLQxp05JBzETAB+fP/4IU8r/LMTPTFbovoL3wvL3VzQlpOOaeDSFL774wsft2rX115wy9edct4O1QFq0SB0+c+bMyZWfBNlOh6kgWrr+JlBtHZIxBhHQBgur/WxasOTLR8AYCUMZsIjJjeTMxjHZE8lsHFptsWe15V+nbbwY1MazsA8MeFmr5WLIIhyIFXQIHYO223PPPXLPy8BjaTvNzUOAJ/9QPtIjaRei8dAmFN7MxGSkgY2WtD8ZoZN8yNAR/vr8RATw80nbx8a1GLaEqSgnB+/ctWv633KAKcvz0P9GuVJr9uq5nG8HQjo+Ju1OgUHRoGXL9Pdin376pd+mkuBczGsgxwx/GrLlhcCkJEjzLOGA0jZOQ9W0YigDQox8FlkEBNXRgCAmR9J+heQwVBqxtp0Qs2LqpI0XuxEaTyaaLVy9XL6XBFmEo2AVLGyNaIPflxz7x37bO/3vANxz3xOeLHgkhddff8u7j3m2nj0gSzroGPJ9/PE4nz/w/NMrVT4XX3KVJ+S1V12Yc7Jcdc2N7suvKvoBIQFdB2gdlRVLTwDVjjI/paGUj6lImrUZ6ZOjzUh7kl80Y8JKgzLiRdqa4/mHOJBW/fiLST5WmVhIswFLFEtKoYKAadC5xCEhBRFQQXlCWgFUbhcKImBIwvAbW8RkRLIUylUoj2EshNovq7IB+nagztp4wN5IQOMxVjPsxwtrlvAFCxEuRFbhAzvsR6NUEGCmA/Gv8quuOD9HFvDQ357wz8P96XBGqCEK/87j/3MMEeN41VwyMemMlxZE05HXpUvqEAEQhgVugYjH2ElVXJiS6oNrmZjBAmM06Y+T6UonPb/koj1J39KCBYSF7rvvJvpjMWcBXlH+EsQvuujf4/uMG8uS8Slo26VCbgQzIEVWOgYISJuHWEAwRcYQsWtbWAIqZipOlhaUDMTkICY3vq2bIWcgi3xgSc2XVnyCLBqgShEsVY1HDaw2Hi+hkIWsgggLTgUcK2gLu793797+IzMZlrYdzguNqQQ4TJ5+5jmfZtyjrUxYWoEKg3+UC75PcPgtfvQJ8+4Euid4x5XK+/Uo/H++9Z7vBFd5MSxMJiVgVTAqAt6/Q7lpOHHixKRcS/025jFaFwfR3vsO8P17HIt2fvHFV9y551/hKxmOf+fd99ywy/+aPH+Ja9O2k78HsxYgdqy8rLYDWWNrQ7LYbSDSSRNaEubThiC8pmC1n+32iJFPKCQTwMpZTObymZ8VGi9ODSpRgQqz1tp4FoU0XuPGLF1dcQm9UAyxAojVVhSs1WQWqhFtABw7Z85sN+K6G9z5A4d6M48VvywuGXaNrwl5xh2229JXJtReEAezFMeJ/qkHWNiWQbZHH3lQTmsyTQhthwmoQdU4YyAIYyX5OSXkY9IsHk0REQ0FIMuyXdJ2H7MUQKeOHbzgYoqqjFQuhOtG3uFmetI28uenQ9PSjvSSZs39t/nn2+/4PITXejKtGQREOmKbzoLOC2MLBFT/GhBi5LMIr2MJqHT4jS0kG1ZGbJmFCGVPZLOkCwmod4rd3yoilXGtezWzuhPQeGVl85MbVhR6+PC8sEKIeAEtWaD5PgBQPj9p5N9xYMhFJyfPUnE8JiP/PQe0+zbeOJ2xDcY88bTXRiefcITf5jy/ZESiHXlu1rwE1GbXXnebf0ct2wBYYBYHTsuWzb3rn85zjuH3XKq43nwr7VBnZrvaeLTZgDrKmd5DmTzx2L1u3fXSsZ62HIBIZbUDS/0xBcoSjiDh9+kkaN6kRUhEux1CZNH1lQZWC0pTcH9pQgudA2wahOanEPv+MVkRssgXk0MgubXyq/cITU1gFVGdejVjpiYaD1iNZ8FLomEsVCOFBUPhxQpwicJOPoj9OEpznLQCZqQ1MSER/wpXoWqqkArv1tsf9i5+ZokDNCBtRBwqaDstB//SSy/6a6HtDhtwsM9LteXD7o/77uJJB+g8Z9xo8+bpcDHu8+FHX/vyYIYBldmsWTO9Ocmz6rfQn4/90hOOmeksJMW7MF2I5ft4P4jVtGkzPz6U/jy258ye6a4ecZc/nw9PqBD4Bul2uXBTQfqZJJEAFFvyKWjbQqTRfZUGlQlIurIZShw738J+XyFGQJBFviwCxmCtNUvAEGEbr9Y0noVMpZipqZErwBacrVnsS8YLIZtwKmBLNCFME3T85ptVaDM8hPzxR9NBNtp4M7dN3y39+1CZsES61XaAQdYQjKFlobbDmXH/vSNyfXw3jLzZk6dXz7S9B1iigWfQ/9FZMHfSxHQZhzXWYGRMI/fKq2/5bYhIxUYe3Q377LWdz2c0CsR6aPR1/q+yel80LZUK/XmUOR8dISFWkMCzX2SxBIvBks+mBUs+hRDcD+GLkUhEFAnTvIpvCDhPwULvbr95jIBZshSv6JfUfvnIZrHU2nhZpqY0XgyhpouhEOEAhW1H1YcIPxLnbrLxRj5NbcTq0f4f4Ukh85urE45NNRXAucH0IbQdf4wFDOuiTQV22KFvJW2HI+nB+/+aGyyNy5/21v799/DbgMm2tE833GBd394D773/b18eEJSOc/DSqx94YWCqj/DPtz92++ydLiEBWB6e+/Nx0XD0+UnTMsKmQoAhS4XQEhonbUFMS0skla0tY8UhLPksAS1iBNT3sM8SQgRM0/HvGiJGviwvaEyushCSDxRDwKXSxsuC1XjA1iK5uLy2UY2jQskinWALuHK64mMuGaeajzYUswT4/zneRsDaJsOGnOHatWuT0954JxlMjLZTW+z0swYnhZo6Lk44rmJx280229y99lLFMoCQGpc/K5zJWQLGPPmK22TTVONielJ+5FEe2/TdPLl2mZs06YdcJz7z9vhwLGy00x829yQDr7/xL7f+emn3BFp75oyfvRa1o2ks4fx2EitYssSEEyhP+7OOAyJgjISWgIot7DNaiICplq5MQJ0TO0/f2T5r+NwxOQtlUYiRLx8wNa0FWKdtvBhiGs9quvAFhZB04QenUEMtF36A2LbyGMFxzPGne5MPMBZy+GXnJIRM3cQU2i233uO9k7ThpO1YB/P999/170B/Hm0tQfPwAN0MLPeH1mEenkxKFlKaNWuq23GHPrn2HsvvkQfxWQmMY70GTAjPgGy17+gy0CrXTNAtLZ2TaNaV/fb773/oy0P9lJB+3Nc/+bRgtZvIoXJVudgyygf7Pex3Eex9dC9gyVcVAsp7KALGSJgFKyPhs+ar5ENUhXzW1KzzNl7MuRJqPMALxGoVUAzhVJAx0tkPoI9ErBdnm2NG3HBf0kYb66/NPS/8y4mO/1ZDOALtOvr56BQ/7tgjfeWC2XjxJdf56zB+8pyzTvRpCwjH8g7b77i/++bbqW7Awf28OYkW+/zzz7wXlKlCzDQnj32j7kzX0ezfbztPOu7FiBO6BejSUPtu3ISpOaK/+dZbCdHbuC22SJeYoI9xjTV65/azfCDdHAJCLs8y70wXT9rNUyHotuyUHwbtE/Rt9J0UQuQjYoyE4X0rm56KKxPQHi/EZCXzGQPZy9J8ImA+IlrnSp228YBVrUK+Np7ACysI8Y9XUXggVtD6GAQ7ioJ0SsTKr8I18QiuvfZavpYiPD7mKe+FxGSkU1ykZZl32ma+n+z6S3ITYQETX1lfhZ+XXHvdrX5i7KA/p/8+aNiwiZs5c4b3LKJZmfVOHiRjrCXX5Eckq62Waq8vvvzCe19xnOy++87+/vQDbvy7ivVSHnjwSbfVNr/3H5UKAVP1oP3TZS0A3QcCtSywAi+o7Gw52vIMER6TdWzs+wnynMYQ04KCvZf9jiEBQey5QvkphnwgS0mArPdHjmqjjZf3V8xoPBg9c+ZMx3IG9lfML770Rm7s4Ly5c/z8JYGXjHWCF0u60DtmCz8kWAiZLriHBw86zW266cbuu+8muMuuvNnPgYN0LOOw7LLL+YoFL+Y1I2715t+Iq4fkBlTTthp541/dnXc/5v98wwc64fhD3VprVpigc+bMcxdfemPSBpvizj37OD+hFeKxDJ806JWXDfSrTXOva6+/1bc7WY8TbctHGzpsuDvzjJN8+40B2f0PPNrdNeoGv6gSfxl65LFX/I8tISLfZLsdD3UsM8G5lBECjbBTtiqzLKGJQWUtEsdQzDGx/i7B9vUK3bp28M6ujTfeMClfpmelw/dUyRdKE3MOQAtBCP2TfMwTT/jRPZqdEXs25JNvLuLZycOAsbdNS2inL3CdOpT4NnZt/gM9rxQjLHg1YxovH4ohHYSLkc7GYY23pFar0Iw6p3Hj9FnZfuiRp1y//if6n06OHftVIuyH+Z+IiHQML+OXXmD45RfmSMfsAzrkb71ttDfzTj/lmOS8K91GG26QXJcBzS3cj4npOWjwCE+6/vvt4UlH/rx5c9wVw0clglHqjj36wFybgLYnpKNtd8D+6ZLu3377rZuzIJ3TB5gZwQdnKXgcRA/97QX/Tzw5XWiHTp+WTqhVBaOxsnp/xSCmMULY8+y5FuG1s47Lpw1DTUhf5dwF6XXkR7ByVkyaciGojCEiM07aJRUdlkmrVm3zVghW22VpvhDW1LSgUqrVNl6WcyXWxgMQLka6fAUAsj9m2gaIkS6E8jgWjcCMAzyCG264rrv/3hvcSScel3wM+sgauaeeeiYxIa/wx18+bKBfFgKw5MNxJ57j/+56z103uIsuON39/vebeW8pgFh0G1Cj4jiBdFttuaknHe06vKVz58zw7T2IKkcLCy4x7pO1VHCq8HwMYzvx6HQJesaS4hA6+ICdvTB98skn/j/nWsHad1/ckq6EnRIqLQ8cKxJ43l9ka1ReAQFta59CDFzDhhDKC2M9QxgDSzql+elNi6ZppUFZ8M5oDpEplrZ5lCEBIrINmINJ6Natm/dW77XHVsm+kkrPIoRyarWfEJNZkRxAdJ4dUA612sYrph8PIcginP0Q0nLSdDysggUvQ4iRzR6vdkMY6xiEi/4wlurr0aOHfx8w+OLL3FnnDPZpNN1uu6WjWa6//iavxfjfOH9k7dChYmYDo00g3LnnX+77/zSyRaQDtOsYkeK1Wvk/HLgnHs9JP8zwU4t+97vfJe/WKGlvjvGL0Kpf8PqRt/sy2r9cGzIWVKTjA59y+vm+EtG7A9tu0vs2SMqWAJQOt3NpQ0KFECpLe19BeeEx9psrDUQ6Ymk8fRNV8MQlJWklR9rmK1bgOMgoLYj5ydSs9u3b+fJjsMTqa27sRxHpWezzAMmsSEesdHgsCJ0rQo01nj05Xz9eISzxguUfHMQ+YjEfX7ACl0U+gNm5845bl9eUjbwj49DDT3EPPvyka9W6g9doaDreGdL99faH3c0jL/HtQv1EhJEnV1w10i9OxHkMRm7Rsq1v7/X5/eY50kEu5tDhTDntlNT5wj3ffjt1hvz1pksTQq7qBYYugiuvusMddWT6Xwe0LNrukIP2yA3Itjhn4GWu75Ybe+IKaZlUbtuJVIWQRUT/F9QMzUis72BDiFi+BF4BLFzUxms8K2OqcAHfzG7HII+iNKAISEWF9qGr6LyzDvAjfpo0seMwA9ksJ5+F5GjJ5SsrNB6o0348apIshA1nW7jAajjAA6qxLlR83MomZfQj8oLULn5fRQ2qANingvvsyynurrvu9h3qA444w3366Vhvej768M25GQYI/k1/vT/RjBe5FVbonntffnxy3sArEqJUzHXDU3rFsHO8GUn5EEQ6Rruwwpm6DgAezdNPPcbXwgjI2LFfuJNPu8CbkZAME/LSy/6a1N4tc0QUMD/xqJ52wiH+b7XvfTjel1WsjELTktA4ETal80Hkiy3sAwqdH0Ps2wHMN+SjSaOZ5TkVwMkye/YsHxhFRExeltUlIKPSPhCZaVgzZkxPyrTErb322v5bseQ95EMW9QwWMfIByZFgNZ41Nauq8YryatJgxXbO8mqWzk+XRgMh6WxneOxD6KPGzMolCBqcL6JlQT9UKStbmLzXL27llXt617zac4CZC3QHDB1ylttgg/W9pqNwMf1eevkt/5EAhOO3x0w8BRBr7tz5fjY6k1RxpIiMQLVvuixfWiPz22U0Xb+9t/U/O6GsTz71XH+f8849xq+nSV5paakbcd1I9/fnP3APjb7aExQvK6ucfT9xWnK9pF1T3rajfDTMqXWrZdy80iSvXIhwcgG25fBSnkW+ZQ4E1pn0WrHcUwiyzuO7hQjzll1uBXfIwXu4vn3W82WGjE2cOMk1aP+jG/fefPd942fdSg129X9GkvcwHyDn5Mk/+fVyAKOUVPZ45Mn/8N//dg898rKb9nPFAISwHadyatOmk/dqLiid69dH/VW8moVQcdPKpKsclwtD+QfIqok5jmBJFxIOZJHOPoM0X/MWLd0pp5zg7r/3pkqkQ5uMvPkhP1Od/j40HbUlv/zC9OOjMJXngoGnJmTZ1ZOOMmEUDF7Ks84d6ttu7N98s038Pgt9+HHjvvFttMFDrvdDw8468zS/f8yYJzzp8Jzu3z91sowdO9Zts31/341w312X+64IKkHGnXKvmLaDEGi8kHSkQ9Jpv0XWtxCySBc7J0Y6oG+pGI3XLqkoVGbIGe2zV/79mBvbbLib2+hjN27xE36JxhkzZnjNIu0SxgJmINYGYe7ceX4xYBYPJp8BCYweWrZLxY9E80EyF8rer+7VBNbMlMBDNJEtBhU8kGkpYbL7UoGqMBmJQ5NS4N4KdlvHnnDsvm5AUruqYJh9wE9IPhv7rW97aU7chAkT3YmnDnZfjWN9lBI/FpP2GoOb+ZgQbtzXX/s2H1qSFcKGDjk9NxsdoOkYKQOJn376OT/+84ST/+w9rGecOsD/mYjnwIzExGzVqq0bdsm5Po/RMUcfP9DNmzc7ue6ZfpD0xInf+yFqn376TSLsdFAnGq5c2wEJv0gmxNI2DgOwpqkCkClKrCDTllhpjuf5wiAoTVz2n05u+uzU2GIbcs1q/oEnnED6XzPucWUt0j/4YjpCNsiqdjsxAUcLGqh79265wL8G+RYAWWaNUpyCklGClRugsgBUvPnaeNbU5B2q0sbLa2qC2bNn+3Q+UxOTbvbsdNUrSzpb6CD3ISNmZYiwpgnJBmyBCVzL1roUHmMlt9ysl1u0TGv3j1dfcj9NmeMOPXB7t8suO3uC8H78S+GiITd6occ83mevHfxYTMAHfuPNf/p3ZokFZgv022trr+UECDd16hT38Sefu3ff/9i9++6H/vm4PwQ+6shDciNiIBj9i5jod95+pR8OJlOS6x9z5H7uhBOO8ccxE/79D75KyrjUv5sqIA0LQ+i9wCcCgxDQNJAwKC0HQBZCjWhjiyzT0mpCITw21ITdurbw7WHmQUKoKVN+co/9e2gl4gnrdN7PbdT9j/5daPMBvhnWhORU7XKZ+EB5gPxXXv/M3XPXLbn1b9QMinW0t2tPX2+6Sp7tQKePkO4KmZoQXlpb7cxisATxBF5IbbyskStTfkYYGuSIZ0kHsogHQpMphIgXIxwQ6UQ0XSNMAxUoz0k/Wb9+6Q8sRTqcKMzi5ng+wsorLe/OOSv91RbjMG++9VFPSAjHb5ZxU9OG4Hw+6Geff+6efPolP0aU87kfDpxddurrNt5ow1yXAUDbolV5luGX/8mPUKGyO/O8S9zzf3/BbZeQffjQdJVqRrLgmWPQ95dfpquI2bZd05LmOdIBEc7CEhFUlYxNG83PmbAiYr42YbFtwDVWW87ttMuebodtNvTvAvE+njrG/fun+8uPStFi0Vpuq3X2cN1bbZKYjT+4dz9ItR8oLS3z5b0oKe/FppJokDxr4waLXafOnd06ayzvV2KDsK+99rq7bdToHPEEEU/g+0E8ZI/KEcvGtvFat27ju5pq0sYrqPFo9GY5VyzxEEwLPYgQE4rwmOpoufAaMfChKcydEw13wtH7JEK3yK8sRjvt7tEvualT0l9dCb17r+xW793Dm6KMeGF76z4b+I50C9oReDRffe0dv81oCX7x3KfPFkt0C1CeDE/De7rn7tu6U085LnfM6Psf8B3yeN5uu+XaSjUnJulhR56T03QiHbUxJh/mIYiVbzEohohZmlDtvJBgIh/Pt6hsyTYR36Pzcj3dsYdt79tevA9r5vww/333/dSvcuQT6dq61b1w4xF+/98TXOncSQmRKjywk6fNdy2TYmAUEDFo1qpr0gTo5bbaYnVvsmNR/OMfr7vrb37CTfr+S/8MFlbrUcZt2nb05U1zKmvIGA4zDcgANdJ4lnhoPI2jqwrxLBn0YYgLmZhWy8UG3BZDOvIoVO0jrUK2ms/H5d5OHU8Mybp0budXDWMBI/13Ds1mTRcWMGIkCZ3aIZEsmOaDRn3sidf9rIIBh+zhTjrxeF/GgOUCz//LVW7A4Ye5U45PHSyA7/DNN+PdkccOSr4B7ZK0LKyJaUnXOCFEWUKIrDgfLPmqQkIhptmsQyYkIN0WzVqv5InHWE0E18raDPdZ+ZEplmu2vn8u/meBs4RjAbNA6ITHSaP2In2DGoq24gqYhV2Tdl6r5Nql7uWXX3a33/mI++qr9IehkgvBaj6IR+U2b+7MShovNDXrVOPlMzUBDVCIp5sLIpudTSABt8daTReSDVjCxc4H4XYIziFY8rFNR/rvN+vtNt1k/dwalYLSNKjxZhHzDwNGqOCN7Lv1pn4BXM1UFxjryXQeFjT6bkLq3gaUx913XOXbdLTf7h79d/f448+4SwefnPvTLOXOwrv02T355PM50knTEcJ2HYBgMYh8Nl2IiKAYEgJLQJBFQkGV8CortfeeYks8GwM0CPLIdxLZtC8GyYaFvd6zL77rRt1+u7diJC/2eEu89h06+zKPdSdYU7PW2nihxqPgs0xN1o+kzYF28v+bTl7CEoACTuMKMtn9ANJBXF3HEi/UcCA8f4nrJffUx7UxUCETQ8CePTq6M087LkcwtdkArm3elTLgfVktGiKpfcCiSfTFCZgyd911n3vgb6/42QPcd+VV13UH7LuFn2l+1fV3utdefsM/r56D/jzGjzLRlkHRo0eP9qav1XDAko7rQjyRzhJumYZN3H9+WZiLbZ5giQiKIWMhEsbagSCLhOR37b6q++M+W+XaeGgkOszpRx0//0Xnfuzlll+rYc7MlFZBNpFRoZCGkQLhO7755huJlXJ/TuMJIfnwVegHMbE2Xm304xXUePm8mjI1RTwB4QjNSqCHA1Vtz9lzhVge9xZCU0ckpKAJVww93S27LAvRpl7N519936/ITCe1ff7cTIByQeq73VbuikvOS45JC/mNN95yfx50g585QCc97UHm2+HFVI3NdB5qT9Cj1+pu0PkD/CK8gDl2fxn8Vz/TIUY4AdMnRjrIZWHJFyNjCEu+mpBQZmjZwgW57xCST9pPGi/Wxhs36RPv3ez8w2Fuw227evKpLSUNRhyD3SdNBMh76bUPvMaDeFYWuL8lH4B4VuOxMBU/Dc1yroBa03ggH/HQeCKQiFdJ8PNoOmDbdCFEOhVKeH64HRIuBn10XMScf/45h/mJrM+98A/vsvf7Fpb6v/+sstp6rlVJqZtf1tLNmTnBT9FB2HCA3HTDcO8CL7Z2o6OemeftOiznTjp2j9z0I4aLXX3NSL/4EYhVNIpj5mWTppV/EpMPIp9FjIjFkrAqWhAihui8bM+cxkNgKYt//fC3TK/miu238MPI6GulPWfbcsIyv8xwc0pTErRo0dQtv2wL16tXTz/tChl+9dVXvcb7+uv099a2UgiJ17IVQ/yWbONlOVf0nWpF41FLULDFmpoA4YBwYbtOCNtzhcxLey5gOySiSAfh+Gd1+MP4GNTY1+JGXO+IATu6nXbccQknyai7HnPXXHO912Y33TA0Kez0+nqGWGEjSG++M9aNvu9Ov0bKfv37ueOP6perFXGqjLjxseTDzlrinSqum5RleSUSOlJCEhWLUAsqL4ZiNWAIaT6lBSvoK/Vs4zXellv+3m/n68fbeY3zfXfCl19+6f7x1ljvhFm0IP2zEsP2BLyaAM8m07h6rby+227rdfz3RJ7VxhPxQBb5ZGriC7BtvDrrx4sRL8u5IuIBFlfNESBD04l0xbbp7Lkg3JZgypy00LM0LynzNS9AGBAEFbbaGxT4X847qtLvuYDaXQwro9bTzHVAYUMuZrfTLcHfehbOm+V/9/X559/5Z+V9qTUxaTUgGy/n8Ktvcp9+XtGXVKmMyt9Jz281XBbhWO9f/3WzcXVgiRlDVTWgSEisb0GZo/EOO2ALb2oWo/FW6bSV9/J+9uVkt6g0Jd30WUnl3rB58h3n5eKyxak80Y+36kpdEgtljSU03jffpD9/CZsQAvLQrv2ySX7Zr9fGy9ePZzXegtL0Q+czL0NtJ8QIF2q1Ja4lkkeIp33A1rwSAGK1Qyh0tN+OO26d1I7p0un0z73zwXj31JMvJqb2NLdd3/X9n2YxLSjkd955J9GCD+U6tVVT2mfUux591CGJSbWDe/vtd/0/Dhj4bI/DhLTPzzPpmfMRTj/XACKbTWflFYt8BMynCWMaEFDuFr1WaJlr40E8KrkJs/9ZqR8PMGplrY67ea0lWbTdOhaSWWme1BRslZMnabx8xJPctWzVxm9L49V5G0+QxsvXj2c1HuuuAIinF40JIgjbdPk0nU0LlnQWyrcEKwS1P6z2I1DbtWzVwZ1z+oFupZV6+mPQ+oOGjHLfjv/Mbd5nY7fOmmu5363Ty/FzSbxx77//gRt25Sh/LO8Yttn0LjxnrKKwhEOwgSVcFqGErO18cTGIkbAYMxRkmaLdVujt9thlo5xXkzLHnzClLP1nPQRcvmO6SBT9eBJuOU7yQdoXqP3F9SEepj8WSYjwOSEe32/O7Olu+W7ta72NV5kBCRYnGk/ggjA6q4YJIW0Xkk4ICQeyhNOC6wE6XrNIZ5GPdPogQm5gcHI97zEsfwY6qnGEQDoqnsefesudfPplfjl2BjDj1WTgNfO9qI27dVvemz68ox9VkrwX12HlspKSFj6P63snSXIv7sm9CTxr06StwLM1o82QbCPoBBEpjIFNg6xtG4fkU34+iHS2EpBjRxVEiCzNJzRxE33HtwXaCScKYds1j3S9u2ztA6ai5AKZLBQgKTEOMJ0HYUsazUsUCd0FlZ859UfE5clacKDOZqBbqHaxncpZ0APyUnoxabl82s5CBBN0HcWlC9OPHdN0KjiEuBDpiG3geBEQYkAS7nn/ox+6YZdf5845b2jS1nvAO2Ig1DrrrJnEaSHjBn/y72/6sZa3j7o/OTe19yEcYym5XtNmaSyiESAa0DMgwAgzwl3SvK3fVywxioG0m71mVUhoyae0IPJZEvJOipUWKO/Zpe2S8kzJqbJE3mjrfT3tdTd28st+kAEmqDUhY4HyjuVbQMTSRRXvJpkCkt2QfFg9MkcFOzsBqILheouN0iqEvMTjYQvNx6N9lw+WdBYIsLQdD61gt4G0nA9oCkM65YMswunDhx/fQvtFQBHlx0S7fTlumpsxM6ktS9K2AoTq1/9Ut80Oh/iwZ78T3WWXjXAfvD/W74e0IpxIxrUhGtqMtLRa8xZtPNlEOCv0IQG4Zr64EGKEyke2WB7PKIiASlvS2bSF/QYd2ld2aADaeAyUZk4egTR5tOvyIUvTkK8AtLhSTCatZkvlKn1W8mfPrZC52pqBvgTx7MnF2NPSYCJKFnScXigLXMdqPmm5LFiy2Qa8/cgWCIUEw6aBiAEsAZs0TfLRXImQ81FEMGICpqTyqBgs4QiWXIoltAAhl6C3bpP+09wSi4DzKl9sj1XaxvmQTxvavGJQiHSK58xr5WMBWbOd5wTS5NGxjlyiDRk0zgwPBWZwMIAhDOxjMWLIsbhcE9HvxyJLmmOn72fB9w29nK1aVGxbjYdWrTWNZ09G49HGywIEkcYjzc2LMS+tprNgW9cB0mb5NB0Q+UKNp48sIBRyBkAAIDJYMoqABDSVNKHIKCIS2zT7OAZIq+k+EuJYyIIlTRahbCzPcgw6LobwGazpGTNHLWwFYtO8u8rUQo6Pls1neyLoW0uAbT8eaXk4FydyydIOr77xmXv59U/c8y9/4J567j1338N/dw89/oIbNfrtSjH7PvroY68trcabW9qikmzaSj40Oa01Z/sLrc9DMsZ1aqTxLKTxspwrFFqo8eyM3SzCWeg8wW5T80A4PI6CrZEgROimBiHhLCQM1llg2y4KIiMBEoVkDAPPov0cq+sgrDGBBZY0CtouBEsype35VhNakGePi8E+b+zZ8xFQ760KLiQf5QPJ0Hg4V6zgo+HyAW3TfbkS16VDQ9dt2RLXvl1b13uVNVyPFVZ0a67WyXXq2NX1Xqmt32Yfy2ZwP4EZ6C1KKv96IJXhys8oIL9q42ldVWB9HtXVeDXqx2MNEP7DDaE0DrEYTQfsy4YvbjVdCPaJcIU0HAg/PEIReuiqCjkWdA1dL7xuKKBZgl6XCAmo7VgcQz7tRxwiLIuFyTF8g7D7oWfPdm73HbfM9eMhbzhVaNtZrad+PGaAIJs4s4RC/gdGlehPT1xf3Qn625JVErYCALS/Yx3oduRKTebj1UjjAdQxD1gI+dp24UvHAOGySBcjHLAf2sKSQ5BwxeIwD6+jrkEeaRsr+P2JUCv8Ggjvq+3Y80Tzyt8DkA5NTpsGKhdiyCdTO6wA0XjpMojptyOmG4FRKpCNwFAx+vI0hA+FQNeCAvk2oOHstv29GtfH1GQ9T6GyksjWfFriBNRZG89CXs183QloNZEqn7YTwpcLX5j2EohpOyHUdCAknz40MUIAASUUMViBCmMQ2xfLExBiQpYm+TVhn0nPaON80Dvm03qCyAdC05M2njSFgCDTb0cfnu3HEzkLoVAby69A1mhmpmxmKQB+fS2Eq4xJ7qraxqvRIGlMTf/b38bpojCobsiXZWLGSMcDK18mJhDxbB4INR3Pl6XxqG0xdVTrxhAKUpjOgiVVsUL73wD7HpaQxSIfEYGIiNWwdZ/1fJtMPw0FquRZX3PxtGV9WhYXMftjcQx2H7L8r48muL8/9w83/edJ3lITrMkJkEmZmoxBXqF7p6U/VjPftKCwjSfS8VIiX9ius0RTDLwpWe5IsdpOxCtGywHVqNS2lnRqc1ioxi5EMsES7P8L0YQswimOQWVnyRZuA5ENqK0H+B4d2yxwk39KF0PG1c/IEsVZYKA1A64By/XpBzpKEzNDhZkqgvJnzPpPrmkk8oVtPeSSxWxjbTyN1WQeJ8SutTVXhCyNx9LY48d/5559/lU/VhOySeMBq+3Cdp0lWkg6IYt0VXGm6OPmMy1D0uUjYCiQvyX0WqGVG/9dhYDVNooloRAjYwxUigtK5/vpZGVl872AZwHPovdwJ/IgjzYEAciR0iG0lAMzyj2ZmjZLLLRUJqQcssiHxkOmeV+N1ezRY3nXqWOHutV4xDyA9WpqOQQRz2q8kHgiHbUGaUs0YLdp14WaDlDQmkoSmpghbC0q7Zal5UA+ogErbMCmaxsheaq6bVEXRLSky0c+S7os8lntJ8QcYHJaCKp4icMObnU3haQUwm3rDMwyOfVTSiZGS+Ox+FXLls1d167dkjj9TVh15+PFW5kJwoeVN4e4WbPKwgyJIJwfuZGQTKQj3/6PW0EjASBc6Exp2TwdsEpHNAW9YFHlPjJLOsimAMFEsjAWwSzRYqQTsayQCTZdHUAIC7sdEqWq2xZZ+8L749woFlnlEpZJWM7ECoK+kwKwfaYEYL83QRUvsQYzICcEZAj5kTzxXMgiAXljmJ+VP2SSkCqEitXJ0YZYcGmTiVBBj5YJyQA/Jo2B4xdXwatZsI2HucnUIJbY5r8CrJbM31Cfefa13Hw0agdezhdERGsBFVwICjXmINEHAHygmPbKgv3QoJB2i4GxhD9PS59daQke2xryhAAXSv8ayLp/mJ/v+Xln++7MKFjouuXKwJZJdRDTkIrzoVitKYTaE2RpUE0PY0A8yz4AlgJZf73Vknbdsn4lOpaF5+9PmJjILRoP4hVrZoK8bbw0TonHfDPmo8ncnJ609SAfnZHMWeK/cdJ0McjkLAS7pHY+6Lhw9WoQnl/omvmuYe9jY4vY+YCPIctB54bQMcRCuB1C+wsdJ+gZQOw+dr99Nz1v+P5ZeSHCY2wM7HnKA+H1wvNAuA1iedUFv/RiTh4r0fFvQkjHDy71FyJNiiYAlWu123hgcbnK5INYBwvkQ+sxQxsnC+SbMT2pJZN8YMez1aMe/63Q8DDMy7btWiVxEpK2Hd5MaTvac9Vt34FMjQdiWo88kY9/ftOhyP75yX4LW5uGMcjaV91YCLdB7Ngwr6b7qhvba+ZLC7V9bCxd0/Oqco4Qnhs7tqpxvnPtPqUtGG8LIBztOsgI6XCq0I0QMzNRWDXWeLoQDyatxygWSz4AAYEmNTIQtR71+G+FdZ6kQ9pwztBfl/7rMCQdIL8qpAOZGk/mJgjJB/EYEUBsh9BkjSAIYUcU1AbC69nt2L2y7p/vufLtqy6qcj+7nW8fKLQdotB+i9ixVb1+oW2h0HULoSrXjT0TwIsvM5I8temq27YT8pqaIfkAbT0gAoKaFE496vFbhcgHRDSr6UBV23ZCQeJZk1NA+wHrpi00RaMe9fhvQjgBPCSc2nWgqmYmyEs8QZoP8tkGqQgo8GBhXj3q8d8MSzZBbTpQVcIJRRPPshuIhErXox7/n2AVjNLSctXRcCGKIp4QslzbvybCCqCYNDUW7dMw1jEh7Pm1ifBZKE+bFz6/fY6qpmsL4TXZDt/Bwu4v5hnD7Zogdq1C1xexlA7BvpqSDlSJeIJ9MPsgShcTg2KPzReHsPnFHBPCXh+E16qNGJC20H6LWJ5F1v4w394zlhZi+8M8QfssYudaxPKEcJ+2Y9csNgbF5BUTA9K1A+f+D17cZIOy/c/jAAAAAElFTkSuQmCC;" vertex="1" parent="1">
          <mxGeometry x="552.01" y="111" width="105.71" height="80" as="geometry" />
        </mxCell>
        <mxCell id="-4wKffS4rpttlF0J5WD3-7" value="" style="shape=image;verticalLabelPosition=bottom;labelBackgroundColor=default;verticalAlign=top;aspect=fixed;imageAspect=0;image=data:image/png,iVBORw0KGgoAAAANSUhEUgAAAN4AAACoCAYAAACPHFBrAAAAAXNSR0IArs4c6QAAAARnQU1BAACxjwv8YQUAAAAJcEhZcwAADsMAAA7DAcdvqGQAAGpOSURBVHhe7Z0HmFbF9cZH6tI7KIiADbvGXoKKLfaKETv23ms0RBRRsGBBxRIVO7ZYsMVeYoktGisqoiIogvSysEj+9zd332/PDnO/79uG5p99n2eemTu3zz3vnDNnyl3mPwlcPepRj6WKBuVxPepRj6WIeuLVox6/AuqJV496/Ar4zbTxFi+ub2rWo3bRoMEy5anfHn4VjQfJwgBUUPVxfVwbcUzGfitYqhrPvjyF81srjHr8/4WVNxHz10TDQQnK03UKXpoXFs2Jf/llURIvrhQWLlzolknKpT6uj2sSW5lq0KBBEqeEI1ZYhgN/JSwVjRdqNggnlJWl6UWLynxcj3rUFI0aNfbyRNy4caPy3BQNGzb6TWi/OidejHSWbIsWVZAQlJXVE7Ae1Ufjxo29DBGDRo1S4lkS/hbIV6fEs6STloN0IpxIhnkQI9yCBQtd06ZN6tP16aLTgojXpEkTn4aAkA9AQMgHRMClTb46I55ehjhGurlz53qyUWgQDyjmONVO9en6dFYahNsChCNASIgnApaUNMsdL/KB/xfEs5oOyLwsLZ2fxGWeYHPmzPXx3LnzkrgsOSYlHUQshKzCrs9P8b+Qn3UMgGwNG0K81Lxs2bKlz2vRokWynWq/Zs2a+WN/LfLVGfF4CZmPFBKabv78+Z5s06ZNLyfdfDdv3hw3a/bsnFZcULrAx/WoR3XRtKSpJ1SzRLu1bNk8IVmLhHTNvdZr376dJx+aD5SUlPhYWFrkq3XiWW0nTRcj3ZQpU/y+77+f5OYkZicknFPPuXrUEC2bOi9HXdonpEs0XIeO7VzrVq1c27btPPlatWqZ03wyO217b2mhVomX1a7DxKRNh3k5ffqMhIRz3ZSpP7ufp0534yZMdXPmtXLLtpvtmrXq6s9p0rihW1j2i083bzLPzVvY3KdDxPaFeYW2Qf11/vuvYzFl6qTylHMrde/o2rZr5dolxAvJh7kpb+fSNjlrnXhC2K5D082Zk5iVs2Z60s1LiPjxF2kBUTstbtDOEy4EBFR+o2Vmu0X/aeXTwO4TwrxC26D+Ov+91wllQpj4w4Ty1JLka9eubWKCYn62WKK9J8VR1+SrtbGaWSYmpEPbqU03Z05SWyXb33w7yS2cN8ubBiIdBQpsrAImrQLW/vADAXs8yNoG9df5774O26FMKO62XHcfI2OTf5rqZkyf7X0JWFsoAKwvZDPt1qroS7ZyXJeoNY0XEo82nboNZGLOmDHdTU/C99//6CZ8P9k1ad7aderY1TVvXuIWlTti6lGP2gIklNmJVdUpae916NDRO1w6duyUaXIuDa1XKxpPDwnhKrQdcZknHTUMNQ2km5q06yZPm+9ml7bzpKP2qiddPWobjei7S2QLi8prvUTmpiSyN2fubN9lRTeW+pCRVawzgPwuDa1XY40XajqZmGg8tN3s2XMSbTfTzZw5w/3881RvYk6bPquStqsOICuFG6ZBvu1i0qAq2/XXWTrXKRb2nHnzSr3Wg3zt27V2XTqn7b1lu3RxrVu38X18tothaTlaakXjSdsJ1CDUJKpZ6KujpvE1zoLERs8gHQUmKJ0V24+hdLgv37GgOtco9pr116n96yivUGzPQca8ZZXIHBU+XVf0FeNrwNGX+h7U3sMnkVptQl1pvxoRTw+lmIeWF9OamDRqMTFp1wGZmCFsgSmdFQMVtGD3gaxjw/Psdr5rgGKvWX+d2r+O8grFIZA1ZA4gg7MT0mF9xUxOQeT7zWm8LBMTxLyYP/88w+8D1EJZhVQVVOUa9tjwvOo+S75rVgX118mPmpwLOB/yofUAsjh//sKolzNVHJU1Xl1ovRppvLA2kBczZmLadl2jchtasWC3w2OKjUGxxxaKQSxdKAZVSWfFoCrprBhUJZ0Vg6qks2JQKF3dWLDbpGm/IXs49WRyohBQDCgImZwgNDmR89omX7WIx0PwMNQQ0nYyMVMzs7KJyYtNndnUv7jadRTGouRcYgW7HR4Tg91vzw3zLIrJj10rtt8i69h86fC8cLvYdHheuF1sOjwv3C42HZ4XbudLx2CPsbD59hrhNmAb2Vtj5XT6EDKJyYliQEHI5IR81uQEdaHxquzVtA9hTUwedsaMGXm9mD1WWDFXEPWox9IGo1TmzJntxo6b4Zq4id7L2aFDW9elS6dEKXTwXs4OHdp7D2ebNm1yfXuAPCmc2kCVNV7sxlkmJjUKpFvouuVIVzEjOKi9gu18yHduVlrIdy4o5lq1lc7C//J1hHz7q3q8gJxicvZeqa3fRjZLSxdUMjlRHCAdAFLhEJLCqS3tVyWNl6Xt1Gf388/TcmMxNQCa/pNuK6zm1XxJ0xL/8hSMYiHczod852alhXzngmKuVVvpLPwvX0fIt7+qx4dg/7jxX/g08rnKyiu4jh3bRcdyqm8P1KbWK1rjhaQDlnTUFBBRXkzGx/FSmJgh6UC+gmQ7X2wLGLCdlRbynQuKuVZN0oBtpYH2h/H/8nUU57t2uA3yHR/GTUpKvAUm4OWkb896OeWvkKMF1KbWq5KpaZmusZhAJiZjMWNezOYtWvrjeOEYwnxtZ8WC3c5KC/nOBcVcqyZpkLUdxiArDbK2wxhkpUHWdhiDrDTI2g5jkJUGhY4H1d228eJEbpFJ6+VEZmVyQjQUCQrFmpy16eUsiniW6TIxATWCJrbKi0nNYb2YrVulpGuQ1EK8MDFBebH8Qoidp7SF9llkHRO7Vk3SFrHj8sEea6Fz/79fJ+sYi2K2CeE17bWRzZiXEwWCTKtjHUBAYaloPHuT0MTkoQh4MWViyou5as+m3sRUTWNfHNi0YAtFsIUVXkOw58WOs3nhto4Rappvr22R77gwtgj3W8SOF8Lr/TdcJ98xVd0mDvMsyEM2S1ou551/yKw1OTWcDOUi0qFw4AChplqvKOeKbsAN9RAzZ0K21B5mGQfNPPjyq++8+l5nzUTbJQ3VetTjtwwIOG36DDfxu8/9dvfluySWWjp9qE2btKuBhZLatm3r2461tUhSXo0H4SzpZGJCPnWUUzOQz0TDbyelw8J6LPeLa9++s0/Xox6/ZTRp0sx17NQxN5xMJuf80nQhLmRcHetAHBCq6+Esqo1nTUwcKqhg68Wko5whOPJidum6qlu0uMw1atA4F0CYDuNi92WlwzjfPsV1kc6Ki91Xlf02rTiWp7iYtOJYXhhnpRXH8sK4mGOqGlf1GLycyK5MTppNyHdocsrLKU5Y5VQVZJqa9mLSdnbRopiJCeiz69Z1+eScdAp+PeoWquBqitq6zn8T7DuTnjpl6hIm57LLLpt3nZbq9u0V1HhW28F6QA1gTUxqiCnTlvGkQ23XY+mhtsjyv0Y6YN+5aeMS7+VEhmfOmuVNTmYwoFjCGQwA2QdSUFXVelHihRfhJuqz4+YaUIrrFRMT9dyp/X+8F5MXkLZr2HDJOXdCdfdloSrXq871i4G9btY9ijlGyLdf+8LYotD1QVWvU5VrWoR51TmmmGuEsMfE0oqR2ebNW3kZbtCkh5fprEmzcMH27VWnnRc1NUU8aTtsW4JGqEydOsUPC5s8eUolLyYOlWIKox71+K1iQVlpJZPTDifr1KlTbqmImq7JWdDUlEoFGqFCDCkxMQFezE6dlvOkKyn53zNZshC2c+12oTZwvv3aF8YWha4PirnO/xqw2KyXExmnOQUPMD/RegSr9YSqaL4lNJ41M0OnCqNUIN53E77zg6DfeucD16z16n60t7oPbIMVIvIx82lBiFpaWpYjrE1XFy1aNE2eM10PXul8MbDpetQuYuVclbimkEzZuBAmTvp+Ca2nBZKYOqRlAavrZIkSj5OJIV7MzPxx8mQ3dux4bwdjZnZo/4tfhr1l86TNV74c+4/TW7leK7RKTNJ0XUOGj82fPSm3TLtNF4twnRam9LMeR6GlAezEyCzgqVI7VrCDbfMha3RE4waLXdniBtE4H/7jmrplXCpwNg20HcZ2n03HjrOwzxN71izofW1cVVDesXIXwm/GdohwLRfW0kROtLBtVTD+u9k5mUVe2Z4/6zPXq8fyrmePrpU8nDFzs9Y0XmlpqY9nz8bLk077oQvhxx9/dO9/8Lmb/NP0pNDb+87GX5LCa2gEj+3Fi39xjZukNR3bgDzQoEFKIm0LyhfsNasDCgaTIBZXBdU5J0Tj5F3KknLIF4Os9H8rlmnYxP2n/Dds+VDMceEx2s6K7TEWlGuIJk2b585duGCe3268zBTXpnVrr/V69ljBt/Ni04bUzquRxhMgHgKHxtO/DyZN+sH/4eezsV8nNcIc17ykLNFyDdzi8vYBRArJE8urLTRIzFjdW+kwDhHLt+eA8DohsvJD8N5h5QKy8oH2hbFg86sLKjRVlrG40DHApi1ix/4aUCVr02HFG1ao4b6mjeYn5GroNlx/rdxMdVahRuOFxKuKxlvCltDJmJmaACjQ3lMefR2Qbl5p4yUEA7CtvJoISCGIQJYkYRwGHR/LE2J5wN5PUF4IS5AwaH8saF8Yx/ZXByIFCEmiWISxedoGNo+0jcNjqwMJf3ViBZFI+0JoP7EQHotSAcxULwSrtAphCeIVOtl6OUOIaJaEImChUFNI+GNxVYLOEbL258vT9qKy1Lzh/UiH7xwGHWtjYNO1gZAgIXGIbRBsHueGacUW2rb54TExiAzViRWytkOyCeGxoEnD2T4uKWnqlZGgjnQdy74aaTygC0CyrIavQGEXKxixWlp5XEMh3A7zbVxbkAYLiRSDfabYc9jzwuvErmnLIIwJ7Fc6DIJNF4tiCCDYYy3BQtIpVrDHApsGWfuUDuPaAGSRZhNxFFuNh5m56D/p+ixZGk/HY2rWSONZYFYW8uxRIAgGjFfw+ZEY4dA2iOWBLCFSvo2LDTo+C1Y7KQ7PVeB5bSgrW5AL9jgb/DXKSScyKuTubfYr9oFrlOeFqHT9JK6JZi0WVSFI7FhA2p5DsKRVvuKQ0MovJo5hQWnFxFYLq+0WLGrmGi1TsRCzQD+eUKsaT5BZaW8UggLh48mrQ8xDgFis/TYdnmPTNgZZ6UKwghYL2mdjAUJxLwXB5tmwcGHpEnn2XgoWEAuta0kXQ7jfxoRi2p7+/hxf/gz2mYoNOk+I5VUVMaIgXyDcV4hc5GeRVfsEu8/GYOEvrcpTFeBf6gBzs840HtCNBPWnUCMICJeNs6D9WQQl36ZtbNMWdjvfvkLg2FgQbF5Z2fykoMuWCOTbYwW7rVhCnAtZRCnPLxSLuAoxIisO9yltQV5W80AE07MrHZrFNYUlQT6EpBHplAZs27SCtmNQG88CRUSHOaHONF6sjadOTWxggmAFrRCyjrX5SivOIqtigiWphfLsvlieEO4jiFxNmpS4gw46wD352K3utZce9GHPPXdzZckH+eWXxV5DVoT5la6BNgyvL9RUWEPyWGIptuRUHghJSyDPm67lxyiO5QFIJ7MZsI/3Kcb8DUNNYYmUlbZazxJSQLazNB7ark41Hm280NSUxqMrQVpPAmQFSkH5QiwPhNshCu0H+e5D4Qixa5GnACq0WEoiSEW47eYL3TFH7OVat07H81Hgm220qj+vLCEWYf31Vnb77LOHW3ftFZP2BNNJKhrn4X1sGsQEUUH7LcLtfLBEsahEoIRwwOYprVhEtYSFYHY7PAYoBjYdohiyAsXVQRYhBWQ7S+MBNJ7A96uKxsscMpYyOh0Iqg50fqfMyBU60BmnWVqavjR9HfPmzvJpIWYSFkK+c7TPxiArXSxi94NsEMxisTluh+02drvt+gdf8/ERGFRwzfUPug7tS9wuu+zidt+ljx9aJDz06Ctu+JVX+XSD8udr2LCBv0fjxhXjQ8Nnr+q7FAuZgzEz8reAGGGFRo2bVCK4PSbMC2Oda2OVgy0P0s2at/SyX7ZwgevYfhm31hqruOWXX9aP19RvnO06LPpWxZIvL/HA7NmMzE6X8RPxvvn2O/fu+x+7aTMaeBXNw4XEqwl4CRHCpi2Un3VsuN/uiyEkm4jWo9fqfq6hwLKFHdssyMVg4023c337rOa6d09/eA+mTZvmxo37OkfOU8641GvC5i3auLXX7O7Pn/jdZ/6ehcgXvgew6bqCFci6JKolTwwhgWJ5WXGMbDa2x1toqOMyv0x1rdu0rkQ8DZQOF0CyGrAQCmo8/QUoS+OhjhfMn5ek53rhBQ0aMFK7zMdLGxLQYqBntGZgSUkLt99+e7k9d93cdUkKWVC5WMTyhKeeetrdfucjbuzYr/y2SHL9tRe5zTff1KdfeOEFN2TYHUmlNTP58Aw7apArsxip7LvF3lN5sRjYdHVx96hLXadOnf178/5AaZXFvHn8g2CWe+X1z9ytt97j87JwxBEHug3XW8FXWlZwJ0+e7H78cbK7/taX3bfjPirPrYw7b7s49yx++97n3D33PODTIS4edIzbYIMNcs+6025H+/wYYQHEo/02f96cTI3HkLFWrVonz131sZrV6scLR4n7hy4nHQgFOoyBPb42EQpjFrg/2sY+U6tW7d0dtw5xRx22ZyXSgViB5ivknXfeyT04+mZ3/703uGOOPc5tsfnvXNOmzdzIm+9wEyZM8Mdsu+227pCD9/FpNKx9nth72DylLZFErFgcpgk6x8YgXxrtrfcmtmmhefNmvvz+uPfW7r67hrm27Tok5V25bUYe+zhmxRVXXEJbcP66667jbr72ZHfyyYfnzsuHPXfdxLXruFz5Vjb8c5cTDLIpFvkIkK6hi1txtdHGq1Y/Xtb0GgQHwkmAMKFisY4FbCtoOxaLqGFcDMJzuKbuDxB6wmGHbO9rXhUgmh7N9ZcLhrgTTz7HHTzgOHfNtdf7PExJ1fiKBbu9+uqruROO2dddd+0w99brj7kL/3KWe+Hl992oux5zL7/8mpv8w7jkPunEYpm3emfyrODHEO7XdhgDpUXW2LGELLKSDruWCqF9+/Zu0PkDyrdSQKKR157t9xWDnbbf1B1wwB/9eTYAK+w4u844cffyrSVhjxXhLGwe7bss54otA3UnUDahHORDwTae5uPF2njW1Jw3b0bycSo7JICcCIoFkVDmlYRNyCJtGNtjbTqMw/sDCTpAsE444Wi35mrd3E/Tytw/33jRPfv824nJNMMt331V17lTI/fdhJlu6pSJSRkl2nLRooRUq7gmTRmh3jA3dURz/8Dmm22S3HuRW2+9dZNjKtb0517k//jjD+7Bhx51jz3xemLSzE7KgUHQSbs5uUZoegKRgBgoHcurK2AR2LZssTj93CHug/fH+mc78IA93ICD9yjf47wFcPf9z7vnnn3J71973ZVcv923zZnkYNasWW6f/U4t30qBd7lbt+W9vArI7QlnjHTjv/zAb6t9eslFx+dMTfCHXY7ycRaaNmueMzVbNl/sNlx/taXbxoPRWjU6q42Hc2XmjCnlV0hhyWCRlQ9Csgh22xKIfGkx8sLzFYekE+EQ0vYdurpVVkpr3jff+rf/SOQzc/6Qg/Zwu++2s9daFh9++G83ceJEN358uqQhZSFQJhCR+OuvJ7gZMya7hg0auZJmLd2WfTZyv99iA9d3661824CypZ+UH3qOeeJpd+fdT/hrNE4a/vJ+At4jHyz5bJy1D9h0VXDfXZdXMsO32eGQ8lSKTp27un323tHttdsWyXNXCOIDf3vZ3XjjbT49bMjJbqONNvRp5G27HQ/1aYHngjBXX3FGpbLffqfDKz037c2wSQC+/vprd8wJF5dvpYB49p5/2OUIn85Cqzbt/feJOVdqo41XI42HV7NpSTM3d/bMRDNM88dXBzFtFIOIBOw5SodxCEu4FVde2x135C5u6637+HfG5X/x4Iv8/l49l3MXDTrHrbHG6sm10gL95pvxlRwAKidiIVbolOM777znl8v49tvvvXab/ON4t9OO27tDD97XrbTSirmyfu+9990FF12XXBOTvUHSwE+1pK1IagLehXcXwm2gPL13mL571LBKGi8knnDxoOMraax33nnXnXP+tT4d7vvss8/doCGj3JSf0tUKBPssek6bzqd9r7/pQffww2Nyz37hwKPdpptukvtGkDgfmrVo5eNYd4LVeOH/84pFtUauCMzHo1aoaKhWtFOsGVcIWaSDQBYiHbDnKG3j8Fz7PJtsvJa7+/bBnnRgypSf3IgR1/v0EYft4+67569ulVVW8dsChdrvjwPc6mtt7tt6J596rrv++pvcyJE3J4R5z4c33njL17YWnIeQ9d/vj+6cs093b7z6sHvisXv9gqmnnz3MHXP8ue6ll1/xx26wwfqu//77+feEfCpP+941gRVeoG0Q5hETJOhKx9p49hyhRYvm5akU8heA6bMrt4V69+7tv8dVl5/pVl4t1Uogdl2ls55FOHj/P+SeHUAOkU6VJfvCeygGmJq08bBeLJZaGy80NWNtvJkzfvLHYyIhLIpjsMcIdjvcV1PoOSjUtu26uKcevylXO+HgOPf8K3x6yEWYQBv5tIYCWTOC8x/+2yPuH6+/5z786Gs3+Ydv0/zFld/zl+RjNEzOX3/9DV2Xzu3c6r1XdGuuuUayvW5utIuA2XrLrfd4M/eP/bZ3a6+1ujvr3KHJx22afIe0zSfNB6hQaPdhYtv239JCqPG22vaA8lQqfOut39tt23cbt8M2G/ptCbs1NTFHIVqoISR7tPnefGdc7vgshBoPzWlN0yf//qa78sqRPh1qWZmtWWjZup2XgV8W/FDJ1GSZv27dunlTs87beKGpadt4v7jW3tQU8fIhHxljsMcrbeN8CO+jQsaBsvcefRPT5x036q6H3Pvvf5oQYg3vbcRmBxTg5Mk/+fcV5CCRIAkqL4AD4OOPP/VkZSm4Tz751P8Zd3xiYn7z7VQ34dvP3a677uy23/b3rm/frTwJVUuOHTvWXT/ydvcsDobkY0IqVmfDvKTNB8J3tqZ3LB2LRdiQuMUS+YF7r4q2q4DeBYTltHf/M93PUypMSb4DXQn5IDP9imsf8udKgym2z8K9zzzvEjds8NnJe6bvwfkHHTbQm7CF2pUhIB5jNRmVFTpXlkobr5iRK9J4KpTfEkQ4TLc0Ts2GhYntjlY5MjEt999/X/+OdJu8/sab7r7Rj7kvvhxfafwe77nTrrss4W2rCjBDcaI89MjLORLSzkMgVO7U2n+5cLj79NOx/hxpvpB8+chVlVgaNOsYYNNovNCTWAiY4H8amLbvLHbffUffZxpaASH4NsOvGuGe+vu75TkpYtr30sEn574PZUqFdsIpl3iNZ9t4WW1TyXCWxqutNt4SxBN4WTRebOSKNTWtxpOQC2ENFebVNXRP314qJ5zyevde2V10welJjdnZv99nn33hrrrmxiT+0u/vslyPpJDbeQ/lu+9+mJCyNGdCtm7d0a211ko5219eTMWr9+6RXL+XW2vNtXwnsCByAUhIV8Ktt4126663nvvzn07MHctxI667wd381weScmroyypGvhByKim2eUCEykoXE4fCXghUJMeemDqtsrTtYQP2c5ts2NutvPJKyT2WFF7Kg4W3Djp8YCWtGWpfiEdZPfrQdTky+7K8cbTbaL1elSpMayILVjYhHsC5kqXxrKkpeS62QqqRVxMhs208CXUI+0I6xqZBeIyNqwJ7TWk5oG4CCHfsUfu5zTbb3OdTsdx334PuupF3eA236557uBOP3t+PphBuu+12N2ToiPKt5B7lDeoYIKYIquMg1B/33cXttuuurmXLVj5PH4j2zHkDL0m0wj/d0Uce5B0wAs6bG266NymD1ORUHx+w5LPkslC+iCPYbZuOHa+04vvvubog8RhcQBfJI2P+4R5//Jmk7CsTLl/M9Krttl7P9erVcwlNGGrOUPuKTGjSM06p0GgMPxs3bnwl4qHxrKxYUMbW1LRezaXaxivGuTLt50nJuakbvDYhAuZD7BhrWopwJxx7sNtyy9/njmV90GGXX+eefua55KNs4s4755RKjXMcH38ZNMx9/MlnfrtFi7b+Olv32cCtttrKbtVVV11CCCHShAkTfTl9PvZL98TTb3qzUsC87Lf3rv45gIRm2GXDEw13t+9muOrKi/1H5Fvsd8Ax3uyU5sP8EflAobZubeORB2+opGX69N03Kc/KXuSs7TA/BkvEs88+ye3yh83K96Rle9CAc3IVQdjG67v9gT4Nbr/lYl95kg/QmAxlA+GxMbRp1ylnajJIorbbeHlLQbZrVYYJVQh8RRzmVQX5aiXF+UgHtvvDtu7eu67PCTvnvP76W27f/ie6V197xw2//EJ3x2035EiHecQQsT32OtC39SDDzSMvd//+14t+/OUJJxzjx1nGan7yaEvsttuuXnsxSfbF5x9zp516rOveYzX3xBNPuQGHH+/22ucg98wzz/gKDkE468zTvMZj/8033+bz+IgH7b9bkmZcafouvJt936o4q2oD4fBBSyoFuy1AJIBG0+RhwrnnVmh4IE3LOw8dOtxrT5FHkPblWbRPAq/zh199ky9b5duRQ5Yc3EcgbbfVVRDiVxurCdS+oVZAwC2pYkSzeTYor5jYgvGNgBe2x1WkU0238so93fCh5/tComCo+Wg/HX3sGa5xUqEwiBmSsA+TBMLttMu+3rt41hknJmR7xY+zhGgAQcDkYcymxm/u2/9oHxjTSf5bb/3Td7gjFISePXu5k0483r3ywgOehIcc3D9pN77jjj/xbN83CAF51pNOPM6T85oRt/ptsP7663kTGOAQQrB4R70/gHxhKJRv42KBwMcggkmbWcIpLUI8+ugYP3tB6LPZmq5dh3Qpf44VaQH5jOeUQKdWWMW4XhSC9qVlXUGUjz6Z4D2igGN0nKBr2OdT5QC0sgIz0Gm7W9RGP161NZ4extYKKQFTQhYLS5pCsQ2C3Z/G6TNIcDEL+WCMnIAUfbbe211/wx3eecLSDXTe8lEee2yM23rbvbzGwRx87ZUxXrNBWEwcTEE6zzfdfEd31bW3+d+TMTZzl536urPPONqddvLhbsdEs2604QbunXff897LQxPNRkf7mDFPJKb6bP9MaMRBF5yXXP8Z1yfRwJizIuDjY8a4fnttnRBsvhcaPiTH86y2NrbvqPcMIVKFpmiMfLG8WMxM+nywhMsCx3z7bdr/CWjH3XL9ee6Iww9y3bp28Ps7dl7eb5Nv8e4H6RA9wSoESyyRc+jw+3wXTwzSmiH0DjShQKwDPaaI+A4hufOhYBsvaz7ey6+ltQlezdkzpyVtvB+8MGhQajHQscQ1hb1nKIxdlu3ptuu7llut9yrurHMG+w5vTMe+fbfx++n/uf+eO9yGG27kh4rJu0jn+q2j7k3IMdYduP+ubpu+W+b6goqBakCId9uo0QmJlndHHXGgH4oGqCXRjsMuH+EJCFq0bJ+U+Wx3/rknuQEDBvhvgWZFA4PGTfCgVXg61aZmuy4hAofOlU23SAc7s18EVTqr/QnB7rjtmlybqxAoxxkzprtd96wY2AxxQg/r5lvuk5RDhcYERx91SKUB2QLHAh1vzyPduk1nPxzyV2vj4bUJGc7o+1DjqQYulnRAxxLHgvbFYhDLE+loE7Vp28Gdd+6x7rmnb/Ptre9/TBcaos2GV5Nj0Uh/e2C0J93tt45wa6+9tq9oMBsZQdJvr519247zGd1eCAiJAh+BsMceu7nHHrnHHdB/L3fFVSO9dnvuuee92bvRRhu4hx4Y5f7y57StM3fONO8N/fiLSeXl+R93zlknuvYd0nlmaD3eTWUtTc92xbtXjmsDEEnEshC57D6ldU4YJk762Q0dFm+/xTBx4vduwNEX+nOFmLYClnTg5lvu9BZLFnR8eB79tqB0YeWhb2CptfFipmaofkFt17ohsWwc5oEKgfsl0Sq93YvP3uvHSAJMjtGjH/BmHFoHDL74Mu/RbJJokZtvHO5YJwWTEGKAN1571Lf/BAqW9h1ufrXtfrfhDm6lVdfPtfMwL0eNGpVr4wHFuLPvGjXSa1UGQx96+Cnes0o5H3zwQe6G6y5LatpO/tjn//6C38c78Xuo2/86zM9woL2XRT5QUQYVXTI2aJ9Nx+IYQg3Ge1kyFAvOYcrVzrsd5gen06cZmoS0t3FyMW9xvwNPdT/98E0lrVoV4LmuCiAhbTyUSkmTeXXSxqvRyJWp0yj4X3xXwpSfKtvfCDO1BoJCbN3EAiZTGlefsAiKBCzd/sV17NStkhnCRz340ON8t8CB++/jTj3lON/PtOPO/T0RcXbQ7mKUw7nnDXaHD+ifIxxlgQDcN/ph9+jjL7hZM6f4PjrGYdJR3qFDusQ34O+hY558xU2f9oOvkbt2W8X123tbd8D++y4x2oNnOu/PQ7wJecFfTnV77bmXz6f9c/TxA30XxEYbb+ZuumFoYs608vsg4t77HuuYgoXJCTSyRahud47K0JZlDOG30jnVRU3Ot9o2JKW2l6gsInkW2k87EzAtKDQ162Q+npCvjSfizZo5y035udR9O/6jRNgml59ZGM1btHLz5s72sUXTpqlax35HuJnHJtKqXRODFRSId8apA9zhhx/mvWePPPqIu/rae5Ln/8GbmJht1FiDhwz3jhSAkwMNTs12xbBBub4hkeORRx7x29tsu603PbfffrtKfUKWULQLDzz4CP8O1hzaa6+9vKbFlOV4nTf6/gfcuX8a7B06aEJIRmV3yunnu9de/Yd/tuuvHea9x5j+OF0GHH6yv6bae4CyEQEhH1rQxr8F8IyW3LE4RFZ+bcMSV8Qr1I9nh4zpGa0s5EONRq78NGWRH7Ey4bvPqkS8msCSNSSqgOPk47E/ufvuGZ087wTXvv1y7s9/OtZtuunG3j5//PGn3CVDr8yRg/adtJwKDvNnvwNO8pp82eVWdEOHnJmbRpQFiHrFlSPcnXeNdu2Se9KVAd55+80cCY84/FCvcbX8H/dDo+6x1yGOGe3XXTvUtWnTxu9DS+N0gZSXXHx+jnw3jLzZe2ZjlVLMUSUCCjFi1oSoIk5Wuir7BbsPxNJhXJvo0Gn53FzT1q2WyRHPjlyxzhVQI41niYfGw4bNGrmCxpv80xz31ZfveQ32W4HVqP37H+hOP/UYX0j81faCiy53L77wguvcpafbbZet3P7993E9evTwhaeP99JLL7oTTxmYvN9Ur+Vuu+XaSoVK++P55BpTp0732y++9IaP5ZkE9959S26IEpoXZ8rFl97oJk380o+AuXzYQLfzzjvmBOerr8Z58tF1cO+dwxNTpmOi+Wa5Xfc43JMfc/jMM07y5OOb9N1uPzd71s+VyAf0DrXhKRZExGLImpUuBiqLQtBxYWz32bSNi4WIV0jj/SpjNX+cvCAR5plVNjXrCiIcaNe+i7vlpmvc73+/RSKoi/wal4ccdrJf2wQP4i677OzJZG10TDyGiGFaLlgwz5OWznNAedx1193usTHPe4JZMzI0K9nGRAwJC+6591534UVXJ+U2w2u/c885PTkmJf1HH33k+h94rFt1lV45zTd16lS3zx+P9e3GoZcmZN1pR0++0aNHu6GXpXPNssxxyIfzpTZJaCHS2XRVYiHcrg5ELqHQdgi7n3Q+4tXJ7ISqaDxMTZZ8+OC958vPXrqwms1q3M5dVnAP3n+7W3PNNf3zj3niCXfKqWdX0n4AwiHEL7/8snvrn++7W2+7I1eBbL/Drt7NT2Gi4ehcR/N07baqXzuF8ZZNmlQU9Pz5c927732YlMvn7o3XX/Z5mLCnnXLsEiYq1zv62NP96BU06jXDhyQ1aGpC04bbfc9+bqedd/P5VAzjx3/jCdmmTSf32N9u9s8NIbfZbo+cE8tqPYDwVBUhUeuStCFESJuOxSCWVx1kkZO483JpMyHmXPmf1Xgh0YDy0HRPPfFQrpP6tDP+nGiHe9xlQwd7LQcg06OPPua11+uvv7LEtXr0WtO9/uoTueXnWHj288+/cjvttH2lWQtZoAzpGL939CNee+LdHHDw7u7gg/evNOKebokLLhzs+m6zs/deqvZk7tm1I250J590rDvqyAH+41J5nH3OIHf2Wae4/vv18x97h50O9m1YnFDAOluAhEHCVFewhA1jYWmQOEbUfCTNl9d52Z5RjVdbbby81UWq8eLqGS9g85IF3hOEWbY0ALmAtBwI8yAdnkMKQaR7+slHXb9++3hhpQI57IiT3Iknneqee/YJrwUfenC0vwZAWz779P05DQSJGKfJ8LFiSAeouBgozSyDt954wa/xgjNnq236eUeKwDUfeuA+73zhmdDOlPnpp53ktSXke+211/03YEoR2hGnCissk9e9e5fc1CO0nvr3BAhnSafaPYxrCkiVFSuIjGHQcTauLiBNViyCkVa+EDsuC02bVvThIWN8M0AZIyvFIu9dYDK1bWxsGq73eaVNvetV3sW6gCWYJVwI8o8/7ricu56xl7fdeqO79ZaR3uTEpHzooYfddjvs7gnXe/VN3Csvv+DbcLOStp2uwQgTOqzzAQ3I2E0CnebMYqBDnW3acJiSEmquhUfy+Wcfdyt07+T6bLWdn98nYIbeesvV3uzEIyry0cbr0HF5N3DQVb7PEaIxbYnhbox+wVG0cEE6dpI8O1veAoHgWSzZlGf3xYKOt3F1kUWqGPliQftsXBWEhLNkC2N7XL6RKwC5ApRPsWYmaDgoQXnaA8NzmWXoZ2IEPCMjFid5/0nMzVI/xGnevHluRtLmm/TDT27O3F/8wFnaPna0fG2C64p0gDXtyYvFo26/yZsAaJU9997PXTLk4kSj7ZsIWAP38N8edscdd5IrTdpiZ555trv7zhtyHeznD7zEfT3uC3fnHbf5xY44HqTvvjgpjwbu6aefcecNvNwdf/xx7s4773KvvPKKD19+8Yk/97NPP/LbY8Y86a65ZoR77/1PkyuUuVVX7e2vQ7/f9tttlVy7SaL9LvPl/Pst0rlmaNKSpCa98MJBflhat27LJcc3dxtvtI674847kvKemxy7iTdTO3dskxD3zuT8Zdy/PvgyKZeZXps0SJ6R2prnTb6g/2YV2ykgGtvKi+2zscim6xCTRzor6BhiYNM1gVpENi4m8O0gqo0Lgedt0ZL2W9JudtOTdyhLZKVrUv4tXcuWLb15iebTVCM0X1puKXeKQUGNl2VqAkzNutB40mqhdottSwt26ryC7/hmXN7e+x7uTUjNLnjqqWfcUUcd55bv3ttruYsuTKcJAcZkogEvuOACvwARGoc2LZUOeODBB916G2zr+u3b3z055n6fB+wzxgLX5J7bbN/fsbASoOP+qCMP8VqYSa9oSIFnxaFz/IlnJO/wvS/3tdZaw3s+MZc//vjj5JnKvMmMGXrDyJFu/NcfJnkLvLnJCBy0XpbmA0wryoJIFsYgzEPIsmJ7LEF5Cnaf0jaubcS0ZeGQVkgyI2njCQsWVCgYvkd1Nd4SzhVBXs2skSv/eOPDpCZe5J0rX3z+z5xGqikQWpEpNC3tdrgP4l13zWB3xFGn+tkF8khiFu63/6Fu9TU389OArHODUf+Yo2jAE44/0ueJkAj/MccPzPVR2udZeZUN3IYbrObXxgzxxpvveYeNBedBbBwlADORWeoHDzjez0JglA3ARF1/wz6u+wqre+8lz4KZifeSeXr070FeljHA82lhKz8NKLAjfwScL7QDbQzy5YXIyl8asORW2sZZKLQ/RNflV/nt9uOpA/3HH752P02uPFazqrCCbUll01kIj/nko/e89kOQN9lsOz/y47Khg3LDvDR2E60E6dBCAoI96o573OVXpNpI16Yb4dSTDvYaJ1wLxDaq+cCpln3a3XTL3f4eerYtttjKD8ZmP+WLFqOioOtD040475ABR3kvLEPT6Mu7fdRd7k9/Os9deuklbu+9dvfetD/sfLDXeBYxy0N9jCIjECGBSGlJVygGsby6gEhlYfOUjh0Hwv2x2EJ5Il6hfyfU2UrSIOZcwasp54rtPK4qYqQiD4FXGmg7BnuNgX/+U26s5ZnnDPLaDweKSEf773cbbl2JdKl2TwNjOC+88EJ/LPfE/MMrytQgNFNIOkBFpaDC5zddOGrGPP43ryEBmpD+O1Vqa621lnes0LFPJQE4jz68iy4e7vtOqfQOPmh/38Vx1dU3eo8m559xWsW6kBAuJB1Es6QDpfPneLOUznsGEhCYhkRgX1lirpaV6R/tqWkWi0U25QHlK9g8pasDiBDC5imtWERSHJ5vjxf5bFAeq6QDJsLKiSXUxuyEgm08YG8k4NXkAYE+bFVQLOGE2PEWnNd9hTXc8celPxzExGQCKyanAOnwav4wcZy7/LLL3IBD9/fCjd3+88/T3GlnDPSmp+6FhuF8O/kVguC5xIu5zu+28YNpFZgUiocTj6pAV8RrLz/ktR0Q+SAoAfINOKSfzxMuGXxe8lzT/YwIKj2INnTIn3zemCf+7k3VHRJtKEKH3TkinNLAEtDuFyAj7cRKZCyd7clINwXBQkSyBLSaL9yvWAFkxcCmqwLJpGLBboek1LZIR8zqYpCKpR/qoo1XI43XqkXVC6eqhCsWnDfkotO8MFMgmHBDh5zltwHm5X4HHO87+iEdneEqxEmTJnqto7ZZrxXXdW+/9ao75eQTcuczTAyyrbn2Bn4UDMvxMYLlrDNPzwX+jc66nEccdZxfJkIE5BoQ2JLv6mtG+vYB+wYceqA32SE0wNtK1wgjadBwlH+fPlv452IA9uzZiXZK3vHUk9N5hVkmpkXWdkhQoDy0oMgoQoqMIqQ0JIiRJUYqEObbOEzHtsP8fHGI0MkkAoYxpAo13lLrx8O7FtN4YPbcqtn2IpiNheoSTsA8w0wDrNLFjAJtgxNOPsd99cV7lUiHQH/xxZdJm+o43yXCM+2z7wF+Aqw6y9FwEG7b7Xd2Tz81xpPnheeecuO+eN+bsMxMVxj457PdF5+/7e4cdYtr2bKdJyBeUxCSD1LJ28m+EVcPdH8ZdEXO5MTZgya7464HPclENLQeP0hB6/G7L5xKFiHBBDt7wyJ2vPJi+0TGkJCWjNKOYVwTZJGoEOmIFbRttbRiQdt00cQ0HrCKqM40HrVyFqTxsj4qEKFCYtltabtCUM0exuDM047zMZpt+DU3ub+cf6zfBrjtH37wXt+m22abrXKk++zzz737XsPdrhtxtZ8hDhEAs80377OTJxxm7P333eHbbVqTJYTOg/CvvPiQrwxw+6vbgP1XXTnYPzekOvf8iu4EftfF2p7X3/BXv007FS1KVwJmMETbLjFbOXfEDffltPW22/Tx14rBezbLA207pe0+pYsFZJRGtOaqTFVmdEBGNCOrb0NGYEmYRcwwrgms2at0SDYbKwh0K8Q0HuW+VNp4+frxYhovi2iC8i3Zso4FlmQIWCxGi4gMjP7o1Kl7TtuhQfBQ4iRhChCAdN98860748w/+2swTOzxRx/KufUB3kVc9sw3pE/w7Tef9O01rsfIE9pyBNp23bqv6rUi+awjAnDm3HTDcP9sI2+8PdFu6br/aFLGYAK8ks8+VzHAfP8/7u41oa7B0DHe78WXXvXbgGFjE7771I0fP96TkR+gcEyIkEx2O5YmViiEmEYUIZWX5chRX6MlGZ7VWBwLQlZaKGQCVwVW41lTs1bbePZkaTyrWoVwHQpLKNJhrH1CPrKBmDDFAHGYxAooCNpARx+xp98GeDa57zFHHeS3RTo0HediEqLF7PLeOGGOOuYUv4/Obk0Not+PNt7Z5w707TS1CbkOWpH8tdfd1GtKngXy0X2AQPIvPAFC0V4D/CCFYwHjO1u36eiefuYZv42GZOY6q1FLSzMDnrKhq4K8tdde06/FUpuwJCyWjMASURAhATFa0ZJRWjEkI1BXh43Zl0U6e76O1XYsjkH70HQyNUONJ/B9ak3j2ZPzeTW12BGDpOkXEsFCslmCFUs2YmkzbYex9tPGYUIp4N91fFwWDgI4RCAE2m611Xr7PIT33PMvzZ3/9JMPVjIdmXnOyBdPgGQfK4RBjD5b9/MzDeiu+PqrT73zBW1Ge+6HieN9QGsyqgRNyYgXzsNkhDyfffKm97QCPthBB6QzJSCvugio5PbdZxf3zLOv+X2Alck4FwcQx7DALRNpGdtJvyrXYkmLLPg+uzyhWFSViFna0MYENKP1qBKkFWNmqoXdzjpGIF9ktATW8YoBGhLCydQMNZ5VRHXWxstnagJWY2aQrkhlSQesloshRiYbW9htnYegInwIJdoDIdc2k1rByScenpybFhbOChwp4MorLq70rwS8in222tFPRP3nG8/k9h1+1Ml+eYs7k/Yfnk768jAZWSNFSzgALdXHKBmm8KQriJX5X3EB/scn7LB9ujI17/HM31Nzkz67DdZfx3tMOQ+giWlfPvLYs7l32GGHvj5+7R9v+OP4rzqQsIsYxRArJGIYshASUSELejYb2yAiEiCiJaOISCgWMULF8kCYb/czSPpX6cfLMjUBzpWyZJ8+kCWdCJdPy8XIpnwbC+E259AXB1g6Ae2BhgCM2aSTHKHt1auXz0ND4KwAOD609B+gjUY3AW0oyKOOclafRmtCUi3jrr68ffc70mu3niuu6ZcEZB7dp59+5vpuuZ5/tnvve9CTiZ9aYrayeJHab5C6TdvOPv3xp18mgpZ+3E6dOvl2Je8jDDhkD/fCi6/57wDR9tpjB399Jt1CxnXXSTU2QhsDo1Q0UkVxsbAEzEfEiulJ+Qko6FntM1tSgpCIBJmnMTJWhZjFoKGLr0Id40Ott/FAVnfCjFn/8RoPhJouH+GAJZuNqwLOkdufZfnoUFZbjX/P8Qxnnp6OjwRMTBVoKwkiF2ak9WpiGg6++FLfp2bX52Q2OiuXHXF4f+95RMsC5s/R7YCDhGdj3CYWA+TDnEWImCArdO22kn9nht4Jyy6bkvHNN1kgKRXm3XbdyWvp6dNneqJRkXB95vEhBJg/jO+UwIaQQFryZYUsWPKFwecHZBMBs4gYkiz27LE8ytCap2lIiQhExjBon2DTFpWOca39upohxAe+j0zNWm/j5TM127Zexms8UIhoAGEhhFBebJ+Q9YFwZNBXhrazTpXRDzzjx1dutummXlittgNqFwLWw2RYGGakgBeSTng8msxmEFjuj8HY77z1ZK7/DucLWhJTlHsK/GlI5Fl3nTU8yVhiIpe3dlppcBzPCIkYh0k5vPTq234foHJBO06cNMEfA1isCSHEUQRWWSX98QfwXQc5QuQnlAVCZ48vdJ7+/a575UMWAUPwfXkvGys/BPtDIuqZgH0PvRtxmAaKQ2BqZvXjqYIGtdrGKwS6ExirWQwQplCj5SOaQIHHPoY+xL77HZLTMNapgsud/x0Iz/w9dWzonrbQIJYdFka3wJ57H+AHV8ujCfBqYsrK5IScEB8vKNcj/x+vPOpJAUpKWvqPhMbjD7Hc+8N/84/09N789IQ8FuAFEJLB6IB2nn3GtdZc3X3//Y8+DUn5Iy3gPxZ+e41V/DbIEnCcCjaEsESzQmuDhSWctF8YQoiA+Yiob2tjvrvSWbAklFlqJwlbcpHW+2SRj/YbGm+pt/EKdaDDciaNhh9EQKgk6IC0zEohZl6GBS+ygVgeYN6aBPXhv43x99h9twpzcvT9j5Wn8gNy0S1AW48ZDcDPZkjagBBFpixaFnJCfGaVY64C2oaDBp7k0z9N/sbHFgwNk8YDvH/7thUfEu8leQgQfYkCGnPC9+nwMdCrx/L+uMk/TfV5/JAlhL5LFtEsCW3IBxHQhnzIIqCQj4AWfGtC+N1jkExxLO1la5ZahEQTyGeF9Bio5GKoE42njx0Cloc/exBEMoLSyrew21kFGstXnuJ99t7Nxwg1JKPdRduHgqK9NG3apEr3otsgBKTDHKWtyOrN9MPhpNl2h/19O+yoIw/3x0EItCxdDvfcdatvA9548z05QuHyB/SvkUf5MZ2EZ2UKlSoIfvXFM/EXIZUxiyqpvOir0zXxdjJHEOhYjhv/bZrXs2cPH2cJsUZvhHEMVSEiKIaI+bQgEAGznh8SASsLMbkAKj+lAUPtuIa0YWiWCspT245uBYusDvRa92qCLOcKXk0tey3oRQFpbdt8i5BAYVwMWMVLfXGM04RkeP4EVhMTVBF8/vnY8pwUEAzS0ZZ6cHT683rydtn9UNd1ubZ+qJemFqWd1/N8W481U/gvHkOlIBQfgxkPPD8jaFRDEkt4NB4TInGcnVCLBrts2CDfR0hfHc8A8HaO/+YHnwZdOncsT6VgYiaQd9ECktE3FSOfgrZjCIlYiIx1QcJQHux2TFasvOmbi4zEfIuwbWiJKMLRjxdCFZ9tCtS6VzOfcwWvptp4MWLZF80CBUDBSSgVW+gD2I9hY1bxAn542JXX+a4C/k+OsDO0CscL3Qo3XHdl7jnHj/+uUg3Fsu6AGeFai4VfNa+7bm//+y55TyEChICgW265pc9buDAVdlaMpsxw5PAeXTqnZJDWkoDQYc6z8hMVjuvUMe0L5HlpCx54wAG+7xH8+ONP/vwWLZonccUwKH6VJiAIIrgvI4Q6EPosUgmWfDYoL0RVSRhCQp5FQNs9EYPkpBABgb65jZFJySXaEBJyTx+SZ5OpGVvsqE7aePbkfP14NDi5mRYG4iX0QrEXDUEhKWjbxkJINBB+DNpetMM0p+24ow/1wopZgHbi/kceto8fhcKoD4BmoZbiuMXJO8+ZO9e1b98156BhSs/+++3guxe0vib3OOCQ9B6MFlGNx88r0bp8BMK//pXODLcmpMXHn3zsl4jnI/O+PXqs4D8mz7vqKqlXlIoDiNRotMaNK/7jHYPKxdbc9pz0e1UE5eWDJV+MgMCSMIuIIqBI2KRJ5XcRAUXC8HsrCKGcWGTtCxWAlVdiCEjgu4jYDJYOEfumtdrGy9ePJxcrbTwK275EFiy5YpoNqHDDggZhzaj9dAewlAOaiH8MrLRS2mHOqH79z4BZCYAfg4Bp0yt3juK4YJ/I9PPPUyt1L9DxzT2+/upDPyyMJfsAZKRjHHNUfXafjU3bj+3bpZ3waCNGsQhM/6EPDvAOrOEBUo1X0R1BOf3yS+oVzUKbyIz4mAaJEcySLwzKDyECWiKGhCyGhDYOEZLQIiYXwMpWLAZWNpWO5UE+/ksxZ9Z0v6BXCPGBSrvO2nhZpiYaL2zjFSIdZIsVSIhYwVrogyi+576HPcFYh5KRLNRIECidy5b+DWjllVP3uwUCTeVCbQVat2ntC5PuAdZWsWDBWYgdjmwhZrzotBkLk/bCXH9vtd169ugarR2HDD7XVxCAPxlJ2+HR1HWFZs1a+G+AycwfboGuyT1EbkBNbYVV2k4E8ssAmqC8GCz5YgQULOlCAgJLwBgRrRaMIUY+kEVAkFWph5AGtFpPMsxKY8gF3zVERflX3L/W23hZQOPZNh7Qi1hYghUiW6wgKXgFbdvYgsWIWICGTmj6w/T/O2YmqJDCgsQ01HvSd/bBBx8m7a8plQhAv55IZ0e2CLQxp05JBzETAB+fP/4IU8r/LMTPTFbovoL3wvL3VzQlpOOaeDSFL774wsft2rX115wy9edct4O1QFq0SB0+c+bMyZWfBNlOh6kgWrr+JlBtHZIxBhHQBgur/WxasOTLR8AYCUMZsIjJjeTMxjHZE8lsHFptsWe15V+nbbwY1MazsA8MeFmr5WLIIhyIFXQIHYO223PPPXLPy8BjaTvNzUOAJ/9QPtIjaRei8dAmFN7MxGSkgY2WtD8ZoZN8yNAR/vr8RATw80nbx8a1GLaEqSgnB+/ctWv633KAKcvz0P9GuVJr9uq5nG8HQjo+Ju1OgUHRoGXL9Pdin376pd+mkuBczGsgxwx/GrLlhcCkJEjzLOGA0jZOQ9W0YigDQox8FlkEBNXRgCAmR9J+heQwVBqxtp0Qs2LqpI0XuxEaTyaaLVy9XL6XBFmEo2AVLGyNaIPflxz7x37bO/3vANxz3xOeLHgkhddff8u7j3m2nj0gSzroGPJ9/PE4nz/w/NMrVT4XX3KVJ+S1V12Yc7Jcdc2N7suvKvoBIQFdB2gdlRVLTwDVjjI/paGUj6lImrUZ6ZOjzUh7kl80Y8JKgzLiRdqa4/mHOJBW/fiLST5WmVhIswFLFEtKoYKAadC5xCEhBRFQQXlCWgFUbhcKImBIwvAbW8RkRLIUylUoj2EshNovq7IB+nagztp4wN5IQOMxVjPsxwtrlvAFCxEuRFbhAzvsR6NUEGCmA/Gv8quuOD9HFvDQ357wz8P96XBGqCEK/87j/3MMEeN41VwyMemMlxZE05HXpUvqEAEQhgVugYjH2ElVXJiS6oNrmZjBAmM06Y+T6UonPb/koj1J39KCBYSF7rvvJvpjMWcBXlH+EsQvuujf4/uMG8uS8Slo26VCbgQzIEVWOgYISJuHWEAwRcYQsWtbWAIqZipOlhaUDMTkICY3vq2bIWcgi3xgSc2XVnyCLBqgShEsVY1HDaw2Hi+hkIWsgggLTgUcK2gLu793797+IzMZlrYdzguNqQQ4TJ5+5jmfZtyjrUxYWoEKg3+UC75PcPgtfvQJ8+4Euid4x5XK+/Uo/H++9Z7vBFd5MSxMJiVgVTAqAt6/Q7lpOHHixKRcS/025jFaFwfR3vsO8P17HIt2fvHFV9y551/hKxmOf+fd99ywy/+aPH+Ja9O2k78HsxYgdqy8rLYDWWNrQ7LYbSDSSRNaEubThiC8pmC1n+32iJFPKCQTwMpZTObymZ8VGi9ODSpRgQqz1tp4FoU0XuPGLF1dcQm9UAyxAojVVhSs1WQWqhFtABw7Z85sN+K6G9z5A4d6M48VvywuGXaNrwl5xh2229JXJtReEAezFMeJ/qkHWNiWQbZHH3lQTmsyTQhthwmoQdU4YyAIYyX5OSXkY9IsHk0REQ0FIMuyXdJ2H7MUQKeOHbzgYoqqjFQuhOtG3uFmetI28uenQ9PSjvSSZs39t/nn2+/4PITXejKtGQREOmKbzoLOC2MLBFT/GhBi5LMIr2MJqHT4jS0kG1ZGbJmFCGVPZLOkCwmod4rd3yoilXGtezWzuhPQeGVl85MbVhR6+PC8sEKIeAEtWaD5PgBQPj9p5N9xYMhFJyfPUnE8JiP/PQe0+zbeOJ2xDcY88bTXRiefcITf5jy/ZESiHXlu1rwE1GbXXnebf0ct2wBYYBYHTsuWzb3rn85zjuH3XKq43nwr7VBnZrvaeLTZgDrKmd5DmTzx2L1u3fXSsZ62HIBIZbUDS/0xBcoSjiDh9+kkaN6kRUhEux1CZNH1lQZWC0pTcH9pQgudA2wahOanEPv+MVkRssgXk0MgubXyq/cITU1gFVGdejVjpiYaD1iNZ8FLomEsVCOFBUPhxQpwicJOPoj9OEpznLQCZqQ1MSER/wpXoWqqkArv1tsf9i5+ZokDNCBtRBwqaDstB//SSy/6a6HtDhtwsM9LteXD7o/77uJJB+g8Z9xo8+bpcDHu8+FHX/vyYIYBldmsWTO9Ocmz6rfQn4/90hOOmeksJMW7MF2I5ft4P4jVtGkzPz6U/jy258ye6a4ecZc/nw9PqBD4Bul2uXBTQfqZJJEAFFvyKWjbQqTRfZUGlQlIurIZShw738J+XyFGQJBFviwCxmCtNUvAEGEbr9Y0noVMpZipqZErwBacrVnsS8YLIZtwKmBLNCFME3T85ptVaDM8hPzxR9NBNtp4M7dN3y39+1CZsES61XaAQdYQjKFlobbDmXH/vSNyfXw3jLzZk6dXz7S9B1iigWfQ/9FZMHfSxHQZhzXWYGRMI/fKq2/5bYhIxUYe3Q377LWdz2c0CsR6aPR1/q+yel80LZUK/XmUOR8dISFWkMCzX2SxBIvBks+mBUs+hRDcD+GLkUhEFAnTvIpvCDhPwULvbr95jIBZshSv6JfUfvnIZrHU2nhZpqY0XgyhpouhEOEAhW1H1YcIPxLnbrLxRj5NbcTq0f4f4Ukh85urE45NNRXAucH0IbQdf4wFDOuiTQV22KFvJW2HI+nB+/+aGyyNy5/21v799/DbgMm2tE833GBd394D773/b18eEJSOc/DSqx94YWCqj/DPtz92++ydLiEBWB6e+/Nx0XD0+UnTMsKmQoAhS4XQEhonbUFMS0skla0tY8UhLPksAS1iBNT3sM8SQgRM0/HvGiJGviwvaEyushCSDxRDwKXSxsuC1XjA1iK5uLy2UY2jQskinWALuHK64mMuGaeajzYUswT4/zneRsDaJsOGnOHatWuT0954JxlMjLZTW+z0swYnhZo6Lk44rmJx280229y99lLFMoCQGpc/K5zJWQLGPPmK22TTVONielJ+5FEe2/TdPLl2mZs06YdcJz7z9vhwLGy00x829yQDr7/xL7f+emn3BFp75oyfvRa1o2ks4fx2EitYssSEEyhP+7OOAyJgjISWgIot7DNaiICplq5MQJ0TO0/f2T5r+NwxOQtlUYiRLx8wNa0FWKdtvBhiGs9quvAFhZB04QenUEMtF36A2LbyGMFxzPGne5MPMBZy+GXnJIRM3cQU2i233uO9k7ThpO1YB/P999/170B/Hm0tQfPwAN0MLPeH1mEenkxKFlKaNWuq23GHPrn2HsvvkQfxWQmMY70GTAjPgGy17+gy0CrXTNAtLZ2TaNaV/fb773/oy0P9lJB+3Nc/+bRgtZvIoXJVudgyygf7Pex3Eex9dC9gyVcVAsp7KALGSJgFKyPhs+ar5ENUhXzW1KzzNl7MuRJqPMALxGoVUAzhVJAx0tkPoI9ErBdnm2NG3HBf0kYb66/NPS/8y4mO/1ZDOALtOvr56BQ/7tgjfeWC2XjxJdf56zB+8pyzTvRpCwjH8g7b77i/++bbqW7Awf28OYkW+/zzz7wXlKlCzDQnj32j7kzX0ezfbztPOu7FiBO6BejSUPtu3ISpOaK/+dZbCdHbuC22SJeYoI9xjTV65/azfCDdHAJCLs8y70wXT9rNUyHotuyUHwbtE/Rt9J0UQuQjYoyE4X0rm56KKxPQHi/EZCXzGQPZy9J8ImA+IlrnSp228YBVrUK+Np7ACysI8Y9XUXggVtD6GAQ7ioJ0SsTKr8I18QiuvfZavpYiPD7mKe+FxGSkU1ykZZl32ma+n+z6S3ITYQETX1lfhZ+XXHvdrX5i7KA/p/8+aNiwiZs5c4b3LKJZmfVOHiRjrCXX5Eckq62Waq8vvvzCe19xnOy++87+/vQDbvy7ivVSHnjwSbfVNr/3H5UKAVP1oP3TZS0A3QcCtSywAi+o7Gw52vIMER6TdWzs+wnynMYQ04KCvZf9jiEBQey5QvkphnwgS0mArPdHjmqjjZf3V8xoPBg9c+ZMx3IG9lfML770Rm7s4Ly5c/z8JYGXjHWCF0u60DtmCz8kWAiZLriHBw86zW266cbuu+8muMuuvNnPgYN0LOOw7LLL+YoFL+Y1I2715t+Iq4fkBlTTthp541/dnXc/5v98wwc64fhD3VprVpigc+bMcxdfemPSBpvizj37OD+hFeKxDJ806JWXDfSrTXOva6+/1bc7WY8TbctHGzpsuDvzjJN8+40B2f0PPNrdNeoGv6gSfxl65LFX/I8tISLfZLsdD3UsM8G5lBECjbBTtiqzLKGJQWUtEsdQzDGx/i7B9vUK3bp28M6ujTfeMClfpmelw/dUyRdKE3MOQAtBCP2TfMwTT/jRPZqdEXs25JNvLuLZycOAsbdNS2inL3CdOpT4NnZt/gM9rxQjLHg1YxovH4ohHYSLkc7GYY23pFar0Iw6p3Hj9FnZfuiRp1y//if6n06OHftVIuyH+Z+IiHQML+OXXmD45RfmSMfsAzrkb71ttDfzTj/lmOS8K91GG26QXJcBzS3cj4npOWjwCE+6/vvt4UlH/rx5c9wVw0clglHqjj36wFybgLYnpKNtd8D+6ZLu3377rZuzIJ3TB5gZwQdnKXgcRA/97QX/Tzw5XWiHTp+WTqhVBaOxsnp/xSCmMULY8+y5FuG1s47Lpw1DTUhf5dwF6XXkR7ByVkyaciGojCEiM07aJRUdlkmrVm3zVghW22VpvhDW1LSgUqrVNl6WcyXWxgMQLka6fAUAsj9m2gaIkS6E8jgWjcCMAzyCG264rrv/3hvcSScel3wM+sgauaeeeiYxIa/wx18+bKBfFgKw5MNxJ57j/+56z103uIsuON39/vebeW8pgFh0G1Cj4jiBdFttuaknHe06vKVz58zw7T2IKkcLCy4x7pO1VHCq8HwMYzvx6HQJesaS4hA6+ICdvTB98skn/j/nWsHad1/ckq6EnRIqLQ8cKxJ43l9ka1ReAQFta59CDFzDhhDKC2M9QxgDSzql+elNi6ZppUFZ8M5oDpEplrZ5lCEBIrINmINJ6Natm/dW77XHVsm+kkrPIoRyarWfEJNZkRxAdJ4dUA612sYrph8PIcginP0Q0nLSdDysggUvQ4iRzR6vdkMY6xiEi/4wlurr0aOHfx8w+OLL3FnnDPZpNN1uu6WjWa6//iavxfjfOH9k7dChYmYDo00g3LnnX+77/zSyRaQDtOsYkeK1Wvk/HLgnHs9JP8zwU4t+97vfJe/WKGlvjvGL0Kpf8PqRt/sy2r9cGzIWVKTjA59y+vm+EtG7A9tu0vs2SMqWAJQOt3NpQ0KFECpLe19BeeEx9psrDUQ6Ymk8fRNV8MQlJWklR9rmK1bgOMgoLYj5ydSs9u3b+fJjsMTqa27sRxHpWezzAMmsSEesdHgsCJ0rQo01nj05Xz9eISzxguUfHMQ+YjEfX7ACl0U+gNm5845bl9eUjbwj49DDT3EPPvyka9W6g9doaDreGdL99faH3c0jL/HtQv1EhJEnV1w10i9OxHkMRm7Rsq1v7/X5/eY50kEu5tDhTDntlNT5wj3ffjt1hvz1pksTQq7qBYYugiuvusMddWT6Xwe0LNrukIP2yA3Itjhn4GWu75Ybe+IKaZlUbtuJVIWQRUT/F9QMzUis72BDiFi+BF4BLFzUxms8K2OqcAHfzG7HII+iNKAISEWF9qGr6LyzDvAjfpo0seMwA9ksJ5+F5GjJ5SsrNB6o0348apIshA1nW7jAajjAA6qxLlR83MomZfQj8oLULn5fRQ2qANingvvsyynurrvu9h3qA444w3366Vhvej768M25GQYI/k1/vT/RjBe5FVbonntffnxy3sArEqJUzHXDU3rFsHO8GUn5EEQ6Rruwwpm6DgAezdNPPcbXwgjI2LFfuJNPu8CbkZAME/LSy/6a1N4tc0QUMD/xqJ52wiH+b7XvfTjel1WsjELTktA4ETal80Hkiy3sAwqdH0Ps2wHMN+SjSaOZ5TkVwMkye/YsHxhFRExeltUlIKPSPhCZaVgzZkxPyrTErb322v5bseQ95EMW9QwWMfIByZFgNZ41Nauq8YryatJgxXbO8mqWzk+XRgMh6WxneOxD6KPGzMolCBqcL6JlQT9UKStbmLzXL27llXt617zac4CZC3QHDB1ylttgg/W9pqNwMf1eevkt/5EAhOO3x0w8BRBr7tz5fjY6k1RxpIiMQLVvuixfWiPz22U0Xb+9t/U/O6GsTz71XH+f8849xq+nSV5paakbcd1I9/fnP3APjb7aExQvK6ucfT9xWnK9pF1T3rajfDTMqXWrZdy80iSvXIhwcgG25fBSnkW+ZQ4E1pn0WrHcUwiyzuO7hQjzll1uBXfIwXu4vn3W82WGjE2cOMk1aP+jG/fefPd942fdSg129X9GkvcwHyDn5Mk/+fVyAKOUVPZ45Mn/8N//dg898rKb9nPFAISwHadyatOmk/dqLiid69dH/VW8moVQcdPKpKsclwtD+QfIqok5jmBJFxIOZJHOPoM0X/MWLd0pp5zg7r/3pkqkQ5uMvPkhP1Od/j40HbUlv/zC9OOjMJXngoGnJmTZ1ZOOMmEUDF7Ks84d6ttu7N98s038Pgt9+HHjvvFttMFDrvdDw8468zS/f8yYJzzp8Jzu3z91sowdO9Zts31/341w312X+64IKkHGnXKvmLaDEGi8kHSkQ9Jpv0XWtxCySBc7J0Y6oG+pGI3XLqkoVGbIGe2zV/79mBvbbLib2+hjN27xE36JxhkzZnjNIu0SxgJmINYGYe7ceX4xYBYPJp8BCYweWrZLxY9E80EyF8rer+7VBNbMlMBDNJEtBhU8kGkpYbL7UoGqMBmJQ5NS4N4KdlvHnnDsvm5AUruqYJh9wE9IPhv7rW97aU7chAkT3YmnDnZfjWN9lBI/FpP2GoOb+ZgQbtzXX/s2H1qSFcKGDjk9NxsdoOkYKQOJn376OT/+84ST/+w9rGecOsD/mYjnwIzExGzVqq0bdsm5Po/RMUcfP9DNmzc7ue6ZfpD0xInf+yFqn376TSLsdFAnGq5c2wEJv0gmxNI2DgOwpqkCkClKrCDTllhpjuf5wiAoTVz2n05u+uzU2GIbcs1q/oEnnED6XzPucWUt0j/4YjpCNsiqdjsxAUcLGqh79265wL8G+RYAWWaNUpyCklGClRugsgBUvPnaeNbU5B2q0sbLa2qC2bNn+3Q+UxOTbvbsdNUrSzpb6CD3ISNmZYiwpgnJBmyBCVzL1roUHmMlt9ysl1u0TGv3j1dfcj9NmeMOPXB7t8suO3uC8H78S+GiITd6occ83mevHfxYTMAHfuPNf/p3ZokFZgv022trr+UECDd16hT38Sefu3ff/9i9++6H/vm4PwQ+6shDciNiIBj9i5jod95+pR8OJlOS6x9z5H7uhBOO8ccxE/79D75KyrjUv5sqIA0LQ+i9wCcCgxDQNJAwKC0HQBZCjWhjiyzT0mpCITw21ITdurbw7WHmQUKoKVN+co/9e2gl4gnrdN7PbdT9j/5daPMBvhnWhORU7XKZ+EB5gPxXXv/M3XPXLbn1b9QMinW0t2tPX2+6Sp7tQKePkO4KmZoQXlpb7cxisATxBF5IbbyskStTfkYYGuSIZ0kHsogHQpMphIgXIxwQ6UQ0XSNMAxUoz0k/Wb9+6Q8sRTqcKMzi5ng+wsorLe/OOSv91RbjMG++9VFPSAjHb5ZxU9OG4Hw+6Geff+6efPolP0aU87kfDpxddurrNt5ow1yXAUDbolV5luGX/8mPUKGyO/O8S9zzf3/BbZeQffjQdJVqRrLgmWPQ95dfpquI2bZd05LmOdIBEc7CEhFUlYxNG83PmbAiYr42YbFtwDVWW87ttMuebodtNvTvAvE+njrG/fun+8uPStFi0Vpuq3X2cN1bbZKYjT+4dz9ItR8oLS3z5b0oKe/FppJokDxr4waLXafOnd06ayzvV2KDsK+99rq7bdToHPEEEU/g+0E8ZI/KEcvGtvFat27ju5pq0sYrqPFo9GY5VyzxEEwLPYgQE4rwmOpoufAaMfChKcydEw13wtH7JEK3yK8sRjvt7tEvualT0l9dCb17r+xW793Dm6KMeGF76z4b+I50C9oReDRffe0dv81oCX7x3KfPFkt0C1CeDE/De7rn7tu6U085LnfM6Psf8B3yeN5uu+XaSjUnJulhR56T03QiHbUxJh/mIYiVbzEohohZmlDtvJBgIh/Pt6hsyTYR36Pzcj3dsYdt79tevA9r5vww/333/dSvcuQT6dq61b1w4xF+/98TXOncSQmRKjywk6fNdy2TYmAUEDFo1qpr0gTo5bbaYnVvsmNR/OMfr7vrb37CTfr+S/8MFlbrUcZt2nb05U1zKmvIGA4zDcgANdJ4lnhoPI2jqwrxLBn0YYgLmZhWy8UG3BZDOvIoVO0jrUK2ms/H5d5OHU8Mybp0budXDWMBI/13Ds1mTRcWMGIkCZ3aIZEsmOaDRn3sidf9rIIBh+zhTjrxeF/GgOUCz//LVW7A4Ye5U45PHSyA7/DNN+PdkccOSr4B7ZK0LKyJaUnXOCFEWUKIrDgfLPmqQkIhptmsQyYkIN0WzVqv5InHWE0E18raDPdZ+ZEplmu2vn8u/meBs4RjAbNA6ITHSaP2In2DGoq24gqYhV2Tdl6r5Nql7uWXX3a33/mI++qr9IehkgvBaj6IR+U2b+7MShovNDXrVOPlMzUBDVCIp5sLIpudTSABt8daTReSDVjCxc4H4XYIziFY8rFNR/rvN+vtNt1k/dwalYLSNKjxZhHzDwNGqOCN7Lv1pn4BXM1UFxjryXQeFjT6bkLq3gaUx913XOXbdLTf7h79d/f448+4SwefnPvTLOXOwrv02T355PM50knTEcJ2HYBgMYh8Nl2IiKAYEgJLQJBFQkGV8CortfeeYks8GwM0CPLIdxLZtC8GyYaFvd6zL77rRt1+u7diJC/2eEu89h06+zKPdSdYU7PW2nihxqPgs0xN1o+kzYF28v+bTl7CEoACTuMKMtn9ANJBXF3HEi/UcCA8f4nrJffUx7UxUCETQ8CePTq6M087LkcwtdkArm3elTLgfVktGiKpfcCiSfTFCZgyd911n3vgb6/42QPcd+VV13UH7LuFn2l+1fV3utdefsM/r56D/jzGjzLRlkHRo0eP9qav1XDAko7rQjyRzhJumYZN3H9+WZiLbZ5giQiKIWMhEsbagSCLhOR37b6q++M+W+XaeGgkOszpRx0//0Xnfuzlll+rYc7MlFZBNpFRoZCGkQLhO7755huJlXJ/TuMJIfnwVegHMbE2Xm304xXUePm8mjI1RTwB4QjNSqCHA1Vtz9lzhVge9xZCU0ckpKAJVww93S27LAvRpl7N519936/ITCe1ff7cTIByQeq73VbuikvOS45JC/mNN95yfx50g585QCc97UHm2+HFVI3NdB5qT9Cj1+pu0PkD/CK8gDl2fxn8Vz/TIUY4AdMnRjrIZWHJFyNjCEu+mpBQZmjZwgW57xCST9pPGi/Wxhs36RPv3ez8w2Fuw227evKpLSUNRhyD3SdNBMh76bUPvMaDeFYWuL8lH4B4VuOxMBU/Dc1yroBa03ggH/HQeCKQiFdJ8PNoOmDbdCFEOhVKeH64HRIuBn10XMScf/45h/mJrM+98A/vsvf7Fpb6v/+sstp6rlVJqZtf1tLNmTnBT9FB2HCA3HTDcO8CL7Z2o6OemeftOiznTjp2j9z0I4aLXX3NSL/4EYhVNIpj5mWTppV/EpMPIp9FjIjFkrAqWhAihui8bM+cxkNgKYt//fC3TK/miu238MPI6GulPWfbcsIyv8xwc0pTErRo0dQtv2wL16tXTz/tChl+9dVXvcb7+uv099a2UgiJ17IVQ/yWbONlOVf0nWpF41FLULDFmpoA4YBwYbtOCNtzhcxLey5gOySiSAfh+Gd1+MP4GNTY1+JGXO+IATu6nXbccQknyai7HnPXXHO912Y33TA0Kez0+nqGWGEjSG++M9aNvu9Ov0bKfv37ueOP6perFXGqjLjxseTDzlrinSqum5RleSUSOlJCEhWLUAsqL4ZiNWAIaT6lBSvoK/Vs4zXellv+3m/n68fbeY3zfXfCl19+6f7x1ljvhFm0IP2zEsP2BLyaAM8m07h6rby+227rdfz3RJ7VxhPxQBb5ZGriC7BtvDrrx4sRL8u5IuIBFlfNESBD04l0xbbp7Lkg3JZgypy00LM0LynzNS9AGBAEFbbaGxT4X847qtLvuYDaXQwro9bTzHVAYUMuZrfTLcHfehbOm+V/9/X559/5Z+V9qTUxaTUgGy/n8Ktvcp9+XtGXVKmMyt9Jz281XBbhWO9f/3WzcXVgiRlDVTWgSEisb0GZo/EOO2ALb2oWo/FW6bSV9/J+9uVkt6g0Jd30WUnl3rB58h3n5eKyxak80Y+36kpdEgtljSU03jffpD9/CZsQAvLQrv2ySX7Zr9fGy9ePZzXegtL0Q+czL0NtJ8QIF2q1Ja4lkkeIp33A1rwSAGK1Qyh0tN+OO26d1I7p0un0z73zwXj31JMvJqb2NLdd3/X9n2YxLSjkd955J9GCD+U6tVVT2mfUux591CGJSbWDe/vtd/0/Dhj4bI/DhLTPzzPpmfMRTj/XACKbTWflFYt8BMynCWMaEFDuFr1WaJlr40E8KrkJs/9ZqR8PMGplrY67ea0lWbTdOhaSWWme1BRslZMnabx8xJPctWzVxm9L49V5G0+QxsvXj2c1HuuuAIinF40JIgjbdPk0nU0LlnQWyrcEKwS1P6z2I1DbtWzVwZ1z+oFupZV6+mPQ+oOGjHLfjv/Mbd5nY7fOmmu5363Ty/FzSbxx77//gRt25Sh/LO8Yttn0LjxnrKKwhEOwgSVcFqGErO18cTGIkbAYMxRkmaLdVujt9thlo5xXkzLHnzClLP1nPQRcvmO6SBT9eBJuOU7yQdoXqP3F9SEepj8WSYjwOSEe32/O7Olu+W7ta72NV5kBCRYnGk/ggjA6q4YJIW0Xkk4ICQeyhNOC6wE6XrNIZ5GPdPogQm5gcHI97zEsfwY6qnGEQDoqnsefesudfPplfjl2BjDj1WTgNfO9qI27dVvemz68ox9VkrwX12HlspKSFj6P63snSXIv7sm9CTxr06StwLM1o82QbCPoBBEpjIFNg6xtG4fkU34+iHS2EpBjRxVEiCzNJzRxE33HtwXaCScKYds1j3S9u2ztA6ai5AKZLBQgKTEOMJ0HYUsazUsUCd0FlZ859UfE5clacKDOZqBbqHaxncpZ0APyUnoxabl82s5CBBN0HcWlC9OPHdN0KjiEuBDpiG3geBEQYkAS7nn/ox+6YZdf5845b2jS1nvAO2Ig1DrrrJnEaSHjBn/y72/6sZa3j7o/OTe19yEcYym5XtNmaSyiESAa0DMgwAgzwl3SvK3fVywxioG0m71mVUhoyae0IPJZEvJOipUWKO/Zpe2S8kzJqbJE3mjrfT3tdTd28st+kAEmqDUhY4HyjuVbQMTSRRXvJpkCkt2QfFg9MkcFOzsBqILheouN0iqEvMTjYQvNx6N9lw+WdBYIsLQdD61gt4G0nA9oCkM65YMswunDhx/fQvtFQBHlx0S7fTlumpsxM6ktS9K2AoTq1/9Ut80Oh/iwZ78T3WWXjXAfvD/W74e0IpxIxrUhGtqMtLRa8xZtPNlEOCv0IQG4Zr64EGKEyke2WB7PKIiASlvS2bSF/QYd2ld2aADaeAyUZk4egTR5tOvyIUvTkK8AtLhSTCatZkvlKn1W8mfPrZC52pqBvgTx7MnF2NPSYCJKFnScXigLXMdqPmm5LFiy2Qa8/cgWCIUEw6aBiAEsAZs0TfLRXImQ81FEMGICpqTyqBgs4QiWXIoltAAhl6C3bpP+09wSi4DzKl9sj1XaxvmQTxvavGJQiHSK58xr5WMBWbOd5wTS5NGxjlyiDRk0zgwPBWZwMIAhDOxjMWLIsbhcE9HvxyJLmmOn72fB9w29nK1aVGxbjYdWrTWNZ09G49HGywIEkcYjzc2LMS+tprNgW9cB0mb5NB0Q+UKNp48sIBRyBkAAIDJYMoqABDSVNKHIKCIS2zT7OAZIq+k+EuJYyIIlTRahbCzPcgw6LobwGazpGTNHLWwFYtO8u8rUQo6Pls1neyLoW0uAbT8eaXk4FydyydIOr77xmXv59U/c8y9/4J567j1338N/dw89/oIbNfrtSjH7PvroY68trcabW9qikmzaSj40Oa01Z/sLrc9DMsZ1aqTxLKTxspwrFFqo8eyM3SzCWeg8wW5T80A4PI6CrZEgROimBiHhLCQM1llg2y4KIiMBEoVkDAPPov0cq+sgrDGBBZY0CtouBEsype35VhNakGePi8E+b+zZ8xFQ760KLiQf5QPJ0Hg4V6zgo+HyAW3TfbkS16VDQ9dt2RLXvl1b13uVNVyPFVZ0a67WyXXq2NX1Xqmt32Yfy2ZwP4EZ6C1KKv96IJXhys8oIL9q42ldVWB9HtXVeDXqx2MNEP7DDaE0DrEYTQfsy4YvbjVdCPaJcIU0HAg/PEIReuiqCjkWdA1dL7xuKKBZgl6XCAmo7VgcQz7tRxwiLIuFyTF8g7D7oWfPdm73HbfM9eMhbzhVaNtZrad+PGaAIJs4s4RC/gdGlehPT1xf3Qn625JVErYCALS/Yx3oduRKTebj1UjjAdQxD1gI+dp24UvHAOGySBcjHLAf2sKSQ5BwxeIwD6+jrkEeaRsr+P2JUCv8Ggjvq+3Y80Tzyt8DkA5NTpsGKhdiyCdTO6wA0XjpMojptyOmG4FRKpCNwFAx+vI0hA+FQNeCAvk2oOHstv29GtfH1GQ9T6GyksjWfFriBNRZG89CXs183QloNZEqn7YTwpcLX5j2EohpOyHUdCAknz40MUIAASUUMViBCmMQ2xfLExBiQpYm+TVhn0nPaON80Dvm03qCyAdC05M2njSFgCDTb0cfnu3HEzkLoVAby69A1mhmpmxmKQB+fS2Eq4xJ7qraxqvRIGlMTf/b38bpojCobsiXZWLGSMcDK18mJhDxbB4INR3Pl6XxqG0xdVTrxhAKUpjOgiVVsUL73wD7HpaQxSIfEYGIiNWwdZ/1fJtMPw0FquRZX3PxtGV9WhYXMftjcQx2H7L8r48muL8/9w83/edJ3lITrMkJkEmZmoxBXqF7p6U/VjPftKCwjSfS8VIiX9ius0RTDLwpWe5IsdpOxCtGywHVqNS2lnRqc1ioxi5EMsES7P8L0YQswimOQWVnyRZuA5ENqK0H+B4d2yxwk39KF0PG1c/IEsVZYKA1A64By/XpBzpKEzNDhZkqgvJnzPpPrmkk8oVtPeSSxWxjbTyN1WQeJ8SutTVXhCyNx9LY48d/5559/lU/VhOySeMBq+3Cdp0lWkg6IYt0VXGm6OPmMy1D0uUjYCiQvyX0WqGVG/9dhYDVNooloRAjYwxUigtK5/vpZGVl872AZwHPovdwJ/IgjzYEAciR0iG0lAMzyj2ZmjZLLLRUJqQcssiHxkOmeV+N1ezRY3nXqWOHutV4xDyA9WpqOQQRz2q8kHgiHbUGaUs0YLdp14WaDlDQmkoSmpghbC0q7Zal5UA+ogErbMCmaxsheaq6bVEXRLSky0c+S7os8lntJ8QcYHJaCKp4icMObnU3haQUwm3rDMwyOfVTSiZGS+Ox+FXLls1d167dkjj9TVh15+PFW5kJwoeVN4e4WbPKwgyJIJwfuZGQTKQj3/6PW0EjASBc6Exp2TwdsEpHNAW9YFHlPjJLOsimAMFEsjAWwSzRYqQTsayQCTZdHUAIC7sdEqWq2xZZ+8L749woFlnlEpZJWM7ECoK+kwKwfaYEYL83QRUvsQYzICcEZAj5kTzxXMgiAXljmJ+VP2SSkCqEitXJ0YZYcGmTiVBBj5YJyQA/Jo2B4xdXwatZsI2HucnUIJbY5r8CrJbM31Cfefa13Hw0agdezhdERGsBFVwICjXmINEHAHygmPbKgv3QoJB2i4GxhD9PS59daQke2xryhAAXSv8ayLp/mJ/v+Xln++7MKFjouuXKwJZJdRDTkIrzoVitKYTaE2RpUE0PY0A8yz4AlgJZf73Vknbdsn4lOpaF5+9PmJjILRoP4hVrZoK8bbw0TonHfDPmo8ncnJ609SAfnZHMWeK/cdJ0McjkLAS7pHY+6Lhw9WoQnl/omvmuYe9jY4vY+YCPIctB54bQMcRCuB1C+wsdJ+gZQOw+dr99Nz1v+P5ZeSHCY2wM7HnKA+H1wvNAuA1iedUFv/RiTh4r0fFvQkjHDy71FyJNiiYAlWu123hgcbnK5INYBwvkQ+sxQxsnC+SbMT2pJZN8YMez1aMe/63Q8DDMy7btWiVxEpK2Hd5MaTvac9Vt34FMjQdiWo88kY9/ftOhyP75yX4LW5uGMcjaV91YCLdB7Ngwr6b7qhvba+ZLC7V9bCxd0/Oqco4Qnhs7tqpxvnPtPqUtGG8LIBztOsgI6XCq0I0QMzNRWDXWeLoQDyatxygWSz4AAYEmNTIQtR71+G+FdZ6kQ9pwztBfl/7rMCQdIL8qpAOZGk/mJgjJB/EYEUBsh9BkjSAIYUcU1AbC69nt2L2y7p/vufLtqy6qcj+7nW8fKLQdotB+i9ixVb1+oW2h0HULoSrXjT0TwIsvM5I8temq27YT8pqaIfkAbT0gAoKaFE496vFbhcgHRDSr6UBV23ZCQeJZk1NA+wHrpi00RaMe9fhvQjgBPCSc2nWgqmYmyEs8QZoP8tkGqQgo8GBhXj3q8d8MSzZBbTpQVcIJRRPPshuIhErXox7/n2AVjNLSctXRcCGKIp4QslzbvybCCqCYNDUW7dMw1jEh7Pm1ifBZKE+bFz6/fY6qpmsL4TXZDt/Bwu4v5hnD7Zogdq1C1xexlA7BvpqSDlSJeIJ9MPsgShcTg2KPzReHsPnFHBPCXh+E16qNGJC20H6LWJ5F1v4w394zlhZi+8M8QfssYudaxPKEcJ+2Y9csNgbF5BUTA9K1A+f+D17cZIOy/c/jAAAAAElFTkSuQmCC;" vertex="1" parent="1">
          <mxGeometry x="422" y="111" width="105.71" height="80" as="geometry" />
        </mxCell>
        <mxCell id="-4wKffS4rpttlF0J5WD3-8" value="" style="image;points=[];aspect=fixed;html=1;align=center;shadow=0;dashed=0;image=img/lib/allied_telesis/switch/Switch_24_port_L3.svg;" vertex="1" parent="1">
          <mxGeometry x="112" y="451" width="74.4" height="51" as="geometry" />
        </mxCell>
        <mxCell id="-4wKffS4rpttlF0J5WD3-9" value="" style="image;points=[];aspect=fixed;html=1;align=center;shadow=0;dashed=0;image=img/lib/allied_telesis/switch/Switch_24_port_L3.svg;" vertex="1" parent="1">
          <mxGeometry x="567.6600000000001" y="441" width="74.4" height="51" as="geometry" />
        </mxCell>
        <mxCell id="-4wKffS4rpttlF0J5WD3-10" value="" style="aspect=fixed;pointerEvents=1;shadow=1;dashed=0;html=1;strokeColor=#6c8ebf;labelPosition=center;verticalLabelPosition=bottom;verticalAlign=top;align=center;fillColor=#dae8fc;shape=mxgraph.azure.load_balancer_generic;rotation=-179;" vertex="1" parent="1">
          <mxGeometry x="586.36" y="276" width="37" height="50" as="geometry" />
        </mxCell>
        <mxCell id="-4wKffS4rpttlF0J5WD3-13" value="" style="endArrow=classic;html=1;rounded=0;flowAnimation=1;fillColor=#d5e8d4;strokeColor=#A9E884;shadow=1;strokeWidth=3;" edge="1" parent="1" source="-4wKffS4rpttlF0J5WD3-8" target="-4wKffS4rpttlF0J5WD3-4">
          <mxGeometry width="50" height="50" relative="1" as="geometry">
            <mxPoint x="192" y="261" as="sourcePoint" />
            <mxPoint x="242" y="211" as="targetPoint" />
          </mxGeometry>
        </mxCell>
        <mxCell id="-4wKffS4rpttlF0J5WD3-14" value="" style="endArrow=classic;html=1;rounded=0;entryX=0.378;entryY=1;entryDx=0;entryDy=0;entryPerimeter=0;flowAnimation=1;fillColor=#d5e8d4;strokeColor=#A9E884;shadow=1;strokeWidth=3;" edge="1" parent="1" source="-4wKffS4rpttlF0J5WD3-8" target="-4wKffS4rpttlF0J5WD3-1">
          <mxGeometry width="50" height="50" relative="1" as="geometry">
            <mxPoint x="42" y="301" as="sourcePoint" />
            <mxPoint x="92" y="251" as="targetPoint" />
          </mxGeometry>
        </mxCell>
        <mxCell id="-4wKffS4rpttlF0J5WD3-15" value="" style="endArrow=classic;html=1;rounded=0;entryX=0.5;entryY=0;entryDx=0;entryDy=0;entryPerimeter=0;flowAnimation=1;fillColor=#d5e8d4;strokeColor=#A9E884;shadow=1;strokeWidth=3;" edge="1" parent="1" source="-4wKffS4rpttlF0J5WD3-9" target="-4wKffS4rpttlF0J5WD3-10">
          <mxGeometry width="50" height="50" relative="1" as="geometry">
            <mxPoint x="397" y="311" as="sourcePoint" />
            <mxPoint x="447" y="261" as="targetPoint" />
          </mxGeometry>
        </mxCell>
        <mxCell id="-4wKffS4rpttlF0J5WD3-16" value="" style="endArrow=classic;html=1;rounded=0;entryX=0.426;entryY=0.975;entryDx=0;entryDy=0;entryPerimeter=0;exitX=1;exitY=0.71;exitDx=0;exitDy=0;exitPerimeter=0;flowAnimation=1;fillColor=#f5f5f5;strokeColor=#FC9C52;shadow=1;fontStyle=1;strokeWidth=2;" edge="1" parent="1" source="-4wKffS4rpttlF0J5WD3-10" target="-4wKffS4rpttlF0J5WD3-7">
          <mxGeometry width="50" height="50" relative="1" as="geometry">
            <mxPoint x="397" y="311" as="sourcePoint" />
            <mxPoint x="447" y="261" as="targetPoint" />
          </mxGeometry>
        </mxCell>
        <mxCell id="-4wKffS4rpttlF0J5WD3-17" value="" style="endArrow=classic;html=1;rounded=0;entryX=0.5;entryY=1;entryDx=0;entryDy=0;exitX=0.49;exitY=1;exitDx=0;exitDy=0;exitPerimeter=0;flowAnimation=1;fillColor=#f5f5f5;strokeColor=#FC9C52;shadow=1;strokeWidth=3;" edge="1" parent="1" source="-4wKffS4rpttlF0J5WD3-10" target="-4wKffS4rpttlF0J5WD3-6">
          <mxGeometry width="50" height="50" relative="1" as="geometry">
            <mxPoint x="767" y="317" as="sourcePoint" />
            <mxPoint x="647" y="191" as="targetPoint" />
          </mxGeometry>
        </mxCell>
        <mxCell id="-4wKffS4rpttlF0J5WD3-18" value="" style="endArrow=classic;html=1;rounded=0;entryX=0.435;entryY=1.025;entryDx=0;entryDy=0;exitX=0;exitY=0.71;exitDx=0;exitDy=0;exitPerimeter=0;entryPerimeter=0;flowAnimation=1;fillColor=#f5f5f5;strokeColor=#FC9C52;shadow=1;strokeWidth=3;" edge="1" parent="1" source="-4wKffS4rpttlF0J5WD3-10" target="-4wKffS4rpttlF0J5WD3-5">
          <mxGeometry width="50" height="50" relative="1" as="geometry">
            <mxPoint x="698" y="321" as="sourcePoint" />
            <mxPoint x="697" y="211" as="targetPoint" />
          </mxGeometry>
        </mxCell>
        <mxCell id="-4wKffS4rpttlF0J5WD3-19" value="Load-Balacer :&amp;nbsp;&lt;br&gt;Round-Robin&lt;div&gt;Least Sessions&lt;/div&gt;&lt;div&gt;...&lt;/div&gt;" style="text;strokeColor=#d6b656;align=center;fillColor=#fff2cc;html=1;verticalAlign=middle;whiteSpace=wrap;rounded=0;" vertex="1" parent="1">
          <mxGeometry x="679" y="270.5" width="110" height="61" as="geometry" />
        </mxCell>
        <mxCell id="-4wKffS4rpttlF0J5WD3-20" value="" style="edgeStyle=none;orthogonalLoop=1;jettySize=auto;html=1;rounded=0;strokeColor=#F5F5F5;shape=link;" edge="1" parent="1">
          <mxGeometry width="80" relative="1" as="geometry">
            <mxPoint x="360" y="558" as="sourcePoint" />
            <mxPoint x="360" as="targetPoint" />
            <Array as="points" />
          </mxGeometry>
        </mxCell>
        <mxCell id="-4wKffS4rpttlF0J5WD3-21" value="&lt;font color=&quot;#ffce9f&quot;&gt;Authentication to PSN&lt;/font&gt;" style="text;align=center;html=1;verticalAlign=middle;whiteSpace=wrap;rounded=0;fillColor=none;strokeWidth=2;strokeColor=#FFB570;" vertex="1" parent="1">
          <mxGeometry x="98.06" y="60" width="111.94" height="40" as="geometry" />
        </mxCell>
        <mxCell id="-4wKffS4rpttlF0J5WD3-23" value="&lt;font color=&quot;#ffce9f&quot;&gt;Authentication to PSN with a Load-Balancer&lt;/font&gt;" style="text;align=center;html=1;verticalAlign=middle;whiteSpace=wrap;rounded=0;fillColor=none;strokeWidth=2;strokeColor=#FFB570;" vertex="1" parent="1">
          <mxGeometry x="552.01" y="50" width="114.22" height="50" as="geometry" />
        </mxCell>
      </root>
    </mxGraphModel>
  </diagram>
</mxfile>
